P2
30 23
255
139 145 151 156 160 165 170 175 180 185 188 190 189 196 195 197 197 196 198 
199 199 198 196 193 191 188 185 180 174 169 139 145 149 155 159 163 168 172 
176 182 193 152 100 130 180 170 185 196 194 196 196 195 193 189 188 184 180 
174 168 159 130 135 139 143 149 154 158 162 167 174 98 57 39 36 67 50 74 183 
187 186 188 188 184 181 178 174 170 164 154 118 109 114 117 120 124 128 133 
134 144 89 9 13 12 22 34 28 30 106 162 156 156 155 153 150 147 144 139 136 122 
97 112 116 120 124 127 130 132 139 123 26 20 21 22 18 26 36 44 47 97 153 155 
153 152 150 146 142 139 135 126 104 114 118 123 127 130 133 135 145 95 16 14 
17 18 15 23 41 41 32 54 150 159 155 155 152 149 145 141 138 132 110 114 120 
126 129 132 136 138 145 75 8 15 32 22 28 29 50 80 35 42 127 164 156 156 153 
150 146 142 139 136 116 116 122 127 131 135 138 140 153 67 8 23 53 43 53 80 161 
181 63 37 116 159 159 157 155 151 147 143 140 137 121 116 123 127 132 136 139 
147 94 41 13 18 51 63 103 146 183 199 85 18 75 156 162 158 155 152 148 143 140 
137 125 118 124 129 133 138 141 150 124 31 5 24 25 15 54 86 21 61 68 31 98 167 
162 159 156 152 147 142 139 137 128 119 125 130 134 138 143 147 161 118 24 35 
50 31 56 174 93 147 130 87 152 169 162 160 156 151 147 142 138 135 129 119 125 
129 134 139 144 149 151 166 95 37 94 101 72 227 205 224 168 136 171 167 163 
159 155 150 145 140 136 131 126 119 125 129 135 139 144 149 154 161 142 71 82 
85 78 195 208 168 180 172 174 169 164 159 154 149 143 139 134 129 123 121 126 
131 137 142 147 152 156 158 171 126 69 62 89 196 226 191 189 175 172 168 164 
158 154 148 143 138 133 127 121 123 128 132 138 144 148 152 159 173 178 154 
63 61 85 188 238 164 162 185 182 172 164 158 154 147 142 137 131 124 118 124 
128 133 137 143 156 166 160 123 64 44 42 37 74 166 211 123 33 84 111 147 162 
159 152 148 141 136 130 121 114 121 125 129 136 150 128 74 36 5 1 34 52 38 50 
114 207 120 16 22 23 35 76 158 153 147 142 137 130 120 112 120 122 125 132 71 
13 3 6 11 10 19 49 53 58 161 187 39 21 21 26 29 25 87 156 147 142 137 130 119 
110 106 109 116 72 5 14 15 13 10 10 8 34 52 73 109 48 25 23 17 18 24 27 32 108 
153 139 136 128 117 108 14 15 18 14 16 14 14 13 11 13 11 12 28 40 23 23 31 19 
17 15 17 23 28 50 133 140 133 126 115 105 7 9 13 16 18 15 15 16 11 8 10 8 7 10 
24 20 29 17 16 14 12 19 25 34 85 139 129 123 112 102 8 12 16 17 20 15 17 15 18 
46 37 24 21 24 31 36 45 28 15 13 11 16 22 33 55 123 127 120 110 98 8 14 17 20 
22 13 18 12 30 61 77 45 45 55 30 72 33 22 16 11 11 14 21 32 44 103 124 114 105 
91 
