P2
30 23
255
184 193 199 204 209 213 219 224 231 236 239 241 241 243 243 244 246 246 247 
247 247 247 245 243 241 238 235 230 223 218 184 192 198 203 209 212 217 222 
228 234 237 240 242 241 243 243 242 244 244 246 246 245 243 240 239 236 231 
223 217 206 173 179 184 189 196 201 205 210 215 221 229 231 222 226 224 229 
241 239 237 236 237 237 234 231 227 223 218 212 200 158 149 155 159 163 167 
172 176 180 184 190 181 124 99 97 86 117 147 175 196 208 206 203 201 198 194 
189 184 180 164 133 152 159 163 167 171 174 177 181 186 190 106 41 49 39 41 34 
29 64 115 175 198 203 201 198 194 190 185 179 169 143 155 161 166 172 174 177 
181 184 192 188 53 23 35 36 50 37 29 34 74 103 179 210 202 200 197 193 188 182 
177 151 156 163 169 173 177 181 185 188 195 124 29 38 35 32 49 39 33 32 62 97 
154 213 203 202 199 194 189 184 180 157 158 164 171 175 178 184 189 195 186 
47 24 34 43 53 59 33 25 30 74 79 113 209 206 203 200 195 191 185 182 164 158 
165 171 175 180 187 190 208 187 48 22 27 27 21 39 31 23 29 71 78 68 164 209 
203 200 196 191 186 181 168 160 166 172 176 182 188 199 166 109 30 20 24 20 23 
30 26 16 29 67 69 39 128 211 203 200 195 189 185 181 171 161 167 173 177 184 
188 205 135 33 20 19 14 14 26 31 45 43 34 52 50 71 107 201 205 199 194 188 183 
178 172 161 168 173 177 184 190 196 201 82 13 22 14 12 17 36 55 61 54 34 20 71 
154 186 204 197 192 186 180 174 169 161 168 174 179 185 192 196 207 92 28 22 
20 18 16 37 47 33 61 68 28 55 121 180 205 195 191 184 178 172 166 163 169 175 
182 189 195 198 213 122 56 35 29 21 14 27 35 31 51 81 50 104 173 207 201 196 
190 183 176 170 163 166 172 175 183 191 196 199 211 209 136 80 36 24 19 19 41 
74 100 93 59 67 148 208 201 195 188 182 175 167 159 166 172 177 182 191 206 
217 206 163 97 51 59 35 22 38 40 79 151 115 73 112 193 210 200 195 187 181 174 
163 155 163 167 173 179 198 175 97 41 10 0 18 68 54 45 90 100 124 193 50 55 68 
63 170 209 193 188 181 174 163 152 164 167 169 183 113 19 6 11 15 15 11 36 74 
67 139 207 215 93 18 32 38 32 67 183 199 188 182 174 161 150 143 145 154 117 
15 15 19 16 12 12 11 11 51 69 185 244 171 37 27 25 32 36 39 98 196 187 180 172 
159 147 18 19 22 17 17 17 14 14 12 12 13 11 10 39 152 159 43 36 25 23 24 29 40 
51 144 191 175 170 157 143 11 13 18 18 18 16 14 15 11 8 10 8 12 11 40 30 35 35 
21 22 17 26 35 47 87 175 173 166 153 139 11 16 19 18 19 17 14 16 14 45 63 48 
33 34 38 43 64 50 25 20 18 22 31 45 64 138 173 160 149 133 10 18 20 21 22 18 
15 16 21 55 98 96 49 83 45 72 76 29 27 18 17 20 26 42 58 109 166 154 142 125 
