P2
30 23
255
139 145 151 156 160 165 170 175 180 185 188 190 190 192 193 194 197 198 198 
199 199 198 196 193 190 188 184 180 174 169 140 144 149 155 159 164 168 173 
178 183 186 190 195 192 193 191 193 195 195 196 196 196 193 190 188 184 180 
174 168 157 129 133 138 142 147 152 156 161 165 171 173 173 155 106 136 194 
184 185 185 186 186 185 182 179 176 172 168 162 152 115 108 114 117 120 123 
128 132 136 138 140 141 99 37 11 35 99 148 158 155 156 155 154 152 149 146 142 
138 134 121 98 112 116 120 124 128 130 134 137 139 146 105 36 50 112 89 32 82 
119 155 157 155 154 153 150 147 143 139 135 126 105 114 119 123 127 130 134 
137 139 142 151 52 29 82 186 163 115 43 88 151 161 158 157 154 152 148 145 141 
138 132 110 115 121 126 130 133 136 139 142 149 90 25 74 88 148 203 219 84 26 
113 167 159 159 156 153 150 147 143 138 136 116 117 122 128 131 135 138 142 
146 149 52 21 80 85 137 206 234 132 18 100 167 160 159 158 155 151 147 143 139 
137 122 117 123 128 132 136 140 143 154 126 23 29 64 66 139 202 243 168 22 100 
167 163 161 158 155 151 147 143 140 137 125 118 124 129 133 137 142 146 157 
126 41 32 57 62 117 164 202 204 62 104 176 164 162 159 156 151 147 142 139 136 
128 119 125 129 134 139 143 148 156 140 38 32 53 56 124 193 199 176 78 129 176 
165 163 160 156 151 146 141 138 134 128 118 125 130 134 139 144 149 151 168 
116 14 37 56 124 213 226 145 35 166 174 167 163 159 155 150 144 140 136 131 
125 118 125 130 135 139 145 149 153 163 139 19 31 53 116 215 230 146 54 177 
173 169 164 159 154 148 144 138 134 128 123 120 126 131 137 142 147 152 154 
157 176 106 33 53 94 201 231 168 132 186 171 167 163 158 153 148 143 138 133 
126 120 122 128 132 138 143 147 154 167 171 151 100 55 60 94 211 253 210 112 
163 180 175 168 157 153 147 141 137 131 123 117 123 128 133 137 146 161 152 
117 67 14 24 66 69 116 236 255 188 16 43 74 109 140 160 153 147 141 136 130 
121 113 120 124 127 139 137 89 36 8 5 10 24 59 70 109 212 233 71 27 24 21 27 
34 118 159 146 142 137 130 120 111 120 123 127 127 42 5 12 18 16 15 10 35 59 
99 130 74 28 31 20 22 31 27 40 128 152 141 137 129 119 110 102 105 112 53 12 
22 19 17 13 15 15 12 22 36 31 25 35 28 19 18 22 25 30 60 141 141 136 128 117 
107 11 13 16 15 23 20 18 19 13 9 13 11 9 9 25 25 31 24 17 17 14 21 30 34 91 143 
132 126 114 104 8 10 17 20 23 21 15 19 13 44 40 28 24 23 32 33 50 43 21 15 12 
18 26 35 51 121 131 122 112 101 9 15 19 22 24 20 13 13 19 58 73 53 48 62 28 68 
50 33 23 13 11 15 21 32 42 84 128 118 109 97 10 19 22 24 25 18 12 13 11 60 69 
52 41 61 46 75 50 31 23 11 10 14 19 30 40 61 114 114 103 91 
