P2
30 23
255
183 191 198 203 208 213 218 223 230 235 239 240 240 241 242 243 245 246 246 
247 247 246 245 242 240 238 234 230 223 217 183 191 196 203 208 211 216 221 
227 233 237 238 243 243 242 244 243 243 243 244 245 245 243 240 238 235 230 
223 217 207 172 178 183 189 195 200 205 210 215 221 226 234 212 207 215 212 
233 240 239 237 235 236 233 230 227 223 217 211 200 158 148 154 159 162 166 
171 175 180 184 187 193 152 91 82 70 77 99 121 155 192 209 201 200 197 194 189 
183 179 164 133 152 157 162 167 170 174 176 180 185 193 174 67 34 43 38 43 23 
28 63 117 172 203 199 198 193 189 185 179 169 142 155 160 165 171 174 177 180 
183 187 204 145 24 38 36 39 52 36 34 44 85 131 205 201 200 196 192 188 182 176 
150 155 162 168 173 176 181 185 188 198 176 55 29 40 46 55 58 30 31 42 89 90 
186 209 200 198 194 189 184 180 156 157 164 170 175 178 183 189 192 203 161 
33 24 29 30 24 46 28 27 37 86 71 137 201 203 198 195 190 185 181 163 158 164 
170 175 180 186 192 195 218 146 19 21 24 21 24 31 23 17 40 81 53 80 196 205 
198 195 190 185 181 167 159 166 171 176 181 188 194 203 126 67 20 17 13 17 27 
33 52 36 41 57 60 88 171 208 198 194 189 184 180 170 160 168 173 177 183 190 
194 207 121 23 22 19 13 13 21 41 58 58 49 27 34 94 168 202 199 193 188 183 178 
172 160 167 173 177 184 190 196 203 202 62 14 22 19 18 19 42 46 37 73 54 24 94 
155 193 198 191 185 179 174 169 161 167 173 178 185 191 197 204 199 72 52 24 
33 20 16 27 36 32 68 71 51 108 171 203 195 190 183 177 171 165 163 169 175 181 
189 195 200 203 212 132 65 44 39 24 20 24 49 89 108 59 46 104 182 204 194 189 
183 176 169 162 166 172 175 182 191 196 200 209 223 228 173 93 39 31 28 41 43 
102 154 141 97 152 198 201 194 187 182 175 166 159 166 171 176 182 190 204 218 
202 166 100 45 62 74 50 58 100 90 157 193 123 142 203 214 199 194 187 181 173 
163 154 162 167 172 178 198 181 102 39 11 2 5 40 70 77 73 185 210 210 94 25 47 
69 134 209 193 188 181 173 162 151 163 167 168 182 148 29 5 12 16 16 12 17 48 
79 82 219 252 171 21 34 37 36 43 151 202 187 181 173 160 149 143 146 151 137 
31 12 21 16 13 12 13 10 18 50 84 201 206 70 27 28 30 35 39 64 175 189 179 172 
158 146 18 19 22 19 15 18 16 15 13 11 12 12 10 12 48 119 67 36 30 25 24 28 35 
45 105 187 176 169 156 142 12 13 17 18 19 18 14 15 14 10 16 10 12 12 19 29 29 
44 24 24 20 22 33 43 65 151 176 164 152 138 12 17 20 19 20 20 14 17 13 35 70 
70 46 41 41 44 59 64 34 22 20 20 29 39 55 107 170 159 148 132 11 18 21 23 22 
22 13 19 12 38 78 113 59 74 69 47 95 40 30 22 19 20 24 35 54 82 153 154 141 
124 
