P2
30 23
255
165 172 177 184 189 193 198 203 208 213 217 220 222 223 225 226 228 229 230 
231 233 234 234 232 229 226 222 216 210 182 151 157 162 166 171 176 179 184 
187 192 196 200 205 207 207 208 209 211 212 213 215 215 214 212 210 207 203 
201 186 141 153 158 162 167 171 174 176 180 187 193 195 191 173 189 202 200 
205 205 205 206 207 206 204 203 201 197 194 189 176 141 156 161 166 171 174 
176 179 188 161 100 114 108 139 162 192 211 198 209 210 211 210 209 208 207 
204 201 200 194 185 149 158 164 168 173 175 177 185 174 78 18 31 23 35 50 89 
157 180 211 210 211 211 210 209 208 205 203 200 195 190 155 158 165 170 174 
176 181 184 90 28 28 28 26 23 26 39 47 151 222 211 212 211 211 211 210 206 203 
200 197 194 163 159 165 170 174 176 187 120 34 27 21 22 21 21 33 35 40 65 180 
218 213 212 212 211 210 207 204 202 198 195 170 159 165 170 174 179 178 59 23 
28 28 22 17 20 34 37 26 22 95 217 214 214 213 210 209 207 204 201 198 195 175 
159 165 169 172 181 152 36 23 26 24 24 24 18 18 27 30 34 103 210 218 213 212 
211 209 206 203 200 197 193 179 159 164 169 171 179 137 28 16 20 22 20 20 21 
22 30 39 34 58 164 220 212 211 211 208 204 201 197 194 190 181 157 162 166 170 
167 99 26 15 13 21 17 17 28 32 34 37 26 32 37 165 222 209 209 206 202 198 194 
191 186 180 154 159 161 167 158 57 11 19 21 17 17 19 24 22 35 38 27 31 38 165 
221 208 206 203 199 196 191 187 181 176 152 156 158 163 157 67 20 15 22 16 15 
19 18 14 26 32 20 45 125 170 214 206 205 201 197 193 188 183 178 173 152 155 
157 159 163 73 16 8 12 17 12 12 22 32 48 35 31 126 140 199 214 202 203 200 195 
191 185 180 174 169 149 152 153 158 148 93 75 53 19 13 16 18 22 36 78 55 55 58 
93 152 195 210 203 197 193 188 182 176 170 164 146 146 147 149 160 157 105 52 
24 19 27 25 27 50 109 103 58 42 40 52 81 125 190 198 189 186 180 174 166 159 
127 140 139 143 127 60 23 21 14 19 35 29 66 112 133 99 37 38 36 48 61 56 104 
188 189 183 177 171 161 153 27 37 35 39 38 18 22 17 14 14 29 52 152 139 122 
49 31 35 26 34 53 56 61 121 186 178 174 168 156 147 7 7 6 19 30 25 21 16 14 15 
10 49 122 109 63 30 31 31 23 27 34 41 52 70 142 179 168 163 151 139 11 12 13 
28 26 21 21 18 15 18 16 12 30 48 30 32 29 29 25 22 26 29 40 54 89 165 164 156 
144 125 8 10 17 28 23 20 21 21 15 24 20 19 20 26 30 32 26 29 27 23 22 24 33 41 
69 125 159 147 133 110 9 9 20 25 24 24 19 22 16 26 24 20 19 28 29 30 25 30 25 
26 18 20 29 36 63 88 146 139 124 102 13 13 21 24 26 28 24 20 15 24 26 21 19 24 
27 27 24 31 26 22 26 23 24 40 53 68 128 133 117 97 
