P2
30 23
255
153 161 166 171 176 181 187 192 198 203 205 207 208 210 211 213 214 215 216 
216 217 217 217 217 215 217 213 205 200 195 153 159 164 168 173 177 182 188 
194 200 203 203 205 207 208 210 211 212 213 213 213 212 211 210 208 206 205 
201 195 188 149 155 160 164 170 174 179 184 189 195 203 210 207 205 209 207 
209 210 211 212 212 211 210 208 205 199 196 180 174 169 132 138 142 145 150 
155 160 164 167 180 161 140 169 188 184 196 193 195 196 198 198 197 194 191 
188 185 171 130 160 159 132 136 139 143 146 150 153 155 168 119 58 40 57 79 58 
122 183 178 181 181 180 178 176 173 170 166 152 122 159 162 134 139 143 147 
151 153 154 167 118 24 17 21 22 24 26 43 144 192 184 185 184 182 179 176 174 
170 160 125 157 166 135 140 145 149 152 155 159 160 66 14 28 23 22 30 32 36 57 
158 191 185 185 183 180 178 176 172 165 127 153 169 136 141 146 150 153 156 
165 125 36 16 21 21 24 29 29 35 30 138 197 185 186 184 181 178 175 171 168 130 
147 170 136 141 146 150 153 157 165 131 31 24 32 29 35 45 92 59 25 98 183 187 
187 186 182 177 174 171 169 133 140 170 137 141 146 149 153 157 163 108 28 33 
66 88 116 161 189 103 19 61 139 194 187 184 181 176 174 170 168 136 133 169 
137 141 145 149 152 158 158 60 11 24 40 67 93 78 83 61 13 57 178 190 185 183 
179 175 172 168 167 139 127 165 135 140 144 147 150 154 164 139 29 15 13 8 63 
16 25 86 61 109 191 186 184 181 177 173 169 165 163 140 120 159 135 138 141 
146 150 155 157 166 139 41 51 47 157 147 133 173 94 167 193 185 182 179 175 
171 166 162 159 142 115 152 135 138 140 145 150 153 156 160 169 105 76 84 124 
198 213 153 137 203 186 182 180 177 173 169 164 159 156 143 112 143 134 138 
140 143 147 153 164 169 167 136 60 73 106 159 191 144 135 178 190 190 180 174 
171 166 161 156 151 141 109 134 132 136 138 139 147 144 113 77 37 16 26 53 89 
135 136 93 14 39 72 125 164 177 167 163 158 153 146 139 107 123 133 132 133 
140 124 33 9 5 7 7 19 35 67 107 112 85 16 19 15 18 40 138 172 159 157 150 142 
137 107 114 94 112 115 108 34 9 15 14 12 8 18 34 38 79 126 49 12 17 20 24 20 
48 153 160 152 146 137 132 107 106 11 19 20 20 13 15 13 12 11 9 14 37 36 80 81 
11 16 13 15 17 23 21 79 159 148 142 133 125 105 97 11 9 13 16 15 14 13 12 11 
10 10 48 58 58 26 12 14 12 13 15 17 24 32 128 149 137 126 113 97 89 9 12 16 16 
15 12 13 13 11 9 5 16 39 26 13 11 12 11 11 12 15 21 24 75 142 131 115 99 76 50 
8 14 17 16 15 11 13 12 17 32 19 8 6 11 14 14 12 11 11 10 13 19 26 46 125 123 
104 88 65 32 16 24 19 18 16 11 12 10 25 36 35 22 15 24 29 21 14 10 10 9 12 19 
25 39 101 116 97 80 63 35 
