P2
30 23
255
142 148 154 158 164 168 172 177 182 187 192 195 196 197 198 200 202 203 204 
205 207 208 207 205 203 199 196 190 183 158 130 135 139 143 147 151 156 160 
163 168 171 174 181 183 187 182 181 184 185 187 188 189 188 185 184 181 177 
174 161 119 132 136 139 143 146 150 153 157 161 164 168 172 142 77 125 173 179 
177 178 179 179 178 177 176 174 172 168 163 152 120 135 139 142 146 149 152 
156 160 164 168 177 94 26 32 30 58 152 185 181 184 183 182 181 180 177 175 173 
168 160 127 136 140 145 149 151 154 159 162 166 175 165 26 65 163 141 52 59 124 
190 185 184 183 182 181 178 176 174 169 165 134 137 142 147 150 153 157 160 
163 171 168 86 48 108 157 170 160 45 53 159 186 185 184 184 183 179 176 174 
171 168 141 138 143 147 151 154 158 162 167 161 143 29 89 108 127 176 179 93 
40 73 163 191 185 185 183 179 176 175 171 169 147 138 143 147 151 155 159 163 
172 144 78 25 81 85 127 164 190 140 13 86 187 188 187 184 182 179 176 174 172 
168 152 138 143 147 150 155 159 162 172 148 22 12 63 70 120 151 164 172 60 98 
197 187 186 185 182 179 175 173 170 167 154 138 143 147 150 153 158 159 166 
160 64 27 57 62 102 160 158 150 69 89 195 187 185 184 181 177 174 170 167 164 
157 137 142 145 148 151 155 158 158 175 132 19 32 51 94 166 177 150 22 104 199 
185 184 182 179 175 172 168 165 161 155 135 139 143 146 149 153 155 157 163 
162 69 10 39 78 157 179 160 47 155 195 184 182 179 176 173 169 165 161 156 151 
133 138 140 143 147 150 152 155 158 169 148 21 40 60 125 169 172 129 198 194 
182 178 176 174 171 166 162 158 153 148 132 137 139 141 145 147 150 153 156 
161 179 124 53 59 116 190 219 135 96 157 184 184 177 172 168 164 160 155 149 
144 130 134 137 139 140 143 146 149 162 166 104 39 46 74 124 208 174 69 46 44 
96 136 164 174 166 161 157 152 145 140 128 129 130 133 136 140 147 156 133 69 
15 21 23 41 69 84 48 53 50 37 40 60 69 112 166 160 154 149 141 137 109 122 122 
123 125 132 123 74 30 20 27 29 25 21 23 27 47 51 40 36 28 48 54 51 111 161 151 
146 138 131 23 31 31 31 26 32 34 22 30 27 25 27 26 27 30 35 41 41 35 32 23 29 
40 45 62 126 152 141 134 125 6 7 8 8 2 18 33 29 32 25 25 24 25 26 26 29 35 36 
33 31 23 22 28 34 49 78 142 139 129 117 9 11 12 10 11 29 29 26 30 25 25 24 24 
26 25 26 32 34 32 29 23 20 19 31 37 57 115 135 120 105 7 10 10 12 22 29 26 23 
25 22 23 23 22 26 24 23 31 32 30 27 23 18 16 28 31 55 82 125 110 93 8 8 13 15 
23 26 30 26 18 14 20 22 22 26 23 21 30 30 30 27 22 17 20 24 36 48 63 113 104 
85 11 12 12 15 23 24 29 29 23 13 17 21 21 24 20 19 31 27 27 26 21 16 21 23 37 
41 61 99 100 81 
