P2
30 23
255
142 148 154 158 163 168 171 176 181 187 192 195 197 196 201 206 200 203 204 
205 207 208 208 205 203 200 196 190 183 157 130 135 139 142 147 151 155 159 
163 168 172 174 177 188 171 155 189 184 184 186 188 188 188 186 183 181 178 
174 161 119 133 137 139 143 147 150 153 157 161 165 168 170 166 104 55 27 106 
174 180 178 179 179 177 177 174 172 168 163 152 120 136 139 142 146 149 152 
156 160 164 168 170 187 106 12 75 105 48 87 175 183 182 182 181 181 177 175 
173 169 160 128 137 141 145 149 151 154 158 162 167 173 175 142 41 77 136 188 
151 70 82 167 190 182 183 181 178 177 174 169 165 134 137 142 146 150 153 157 
160 163 170 168 167 63 46 121 98 149 182 125 28 128 179 185 184 183 179 176 
174 171 169 141 138 143 147 151 155 159 163 165 174 152 104 33 62 102 94 148 
176 164 48 59 129 194 183 183 180 177 175 172 170 147 138 143 147 151 155 160 
165 167 175 155 38 9 60 77 99 153 166 184 44 53 172 190 183 182 180 176 175 
172 169 152 138 143 147 151 155 160 164 166 177 150 35 17 55 69 87 144 156 167 
93 74 189 186 184 182 179 175 173 170 167 155 138 143 147 150 154 158 161 164 
167 183 97 25 49 57 85 153 172 145 67 79 187 185 183 181 178 173 171 168 164 
157 137 141 146 149 152 156 159 162 164 178 130 16 23 48 81 153 177 151 26 96 
196 182 182 178 176 172 168 165 161 156 134 139 143 146 150 154 156 159 162 
165 179 73 7 56 69 145 175 147 47 159 190 181 179 176 173 169 166 162 157 152 
133 138 140 144 148 151 153 155 160 162 176 138 45 57 65 116 176 170 131 200 
186 178 176 174 171 167 163 158 153 149 132 137 139 142 146 149 150 153 155 
162 175 155 75 69 76 142 211 216 98 106 158 184 181 174 168 165 160 155 149 
145 130 134 137 139 141 144 146 151 163 165 89 24 17 64 81 138 186 115 58 44 
49 103 139 167 168 161 157 152 145 140 128 129 131 133 137 140 148 149 113 56 
20 29 28 21 36 52 46 47 60 49 36 45 61 77 139 164 153 149 141 137 109 122 122 
123 124 133 112 52 26 24 28 30 29 27 25 27 39 57 50 43 31 35 51 53 69 142 154 
145 137 131 22 30 30 30 25 31 34 23 34 29 24 28 27 26 30 32 33 48 41 40 28 26 
32 46 48 87 146 142 133 125 7 7 8 8 2 18 33 29 30 29 23 28 24 25 29 29 28 43 
36 38 29 21 24 34 41 57 110 142 127 117 10 11 12 10 11 29 28 27 27 28 23 27 23 
25 28 27 25 38 35 34 29 22 20 25 39 41 79 129 121 104 7 10 10 12 23 29 25 24 
24 23 21 25 22 26 27 24 23 36 34 32 27 23 16 25 33 37 63 100 113 91 8 8 13 15 
22 27 30 25 19 13 17 23 21 26 25 21 23 34 31 32 25 22 17 27 26 42 51 77 105 
84 11 12 12 16 24 24 29 28 22 12 15 21 21 24 23 17 24 33 28 29 25 19 18 25 27 
41 43 68 96 80 
