P2
30 23
255
173 180 186 192 198 203 207 211 216 222 226 229 236 236 237 233 237 238 239 
240 242 243 242 240 238 236 232 226 218 191 159 165 170 174 179 184 189 193 
197 202 206 209 193 198 196 183 205 223 218 222 223 224 223 221 219 216 213 
210 196 148 161 165 169 174 178 182 186 190 194 197 207 136 53 72 72 106 133 
176 215 199 214 213 212 211 209 207 204 198 185 148 163 169 173 178 181 184 
190 194 197 211 155 51 26 33 25 22 35 67 127 188 218 215 215 215 212 210 209 
204 194 156 165 172 176 180 183 187 193 196 207 178 58 29 29 28 30 28 34 42 46 
164 227 216 217 216 213 211 209 205 200 163 166 173 178 182 186 190 194 198 
205 100 26 32 27 26 21 22 38 41 39 66 163 219 218 218 213 211 209 207 204 171 
167 174 179 183 186 192 196 204 187 58 24 31 32 28 24 23 30 40 30 28 101 215 
220 217 214 212 210 207 205 179 167 173 178 183 188 193 197 207 176 40 21 24 
25 26 32 27 20 27 34 59 130 211 221 215 214 212 210 208 205 184 168 173 178 
183 188 192 197 200 128 32 16 14 23 24 19 24 32 35 43 45 67 171 219 217 214 
211 209 206 203 188 168 173 177 181 185 190 196 188 63 15 22 19 20 22 20 31 36 
38 42 29 34 32 179 223 210 209 206 204 199 191 166 172 175 179 182 186 197 166 
50 22 17 26 22 19 24 23 23 33 45 28 39 85 186 219 209 208 204 200 196 189 164 
169 173 176 179 184 190 178 67 26 11 17 22 17 21 26 23 27 34 29 85 144 188 215 
207 205 201 196 191 185 162 166 169 173 177 180 189 160 77 45 25 11 16 14 16 
26 46 72 44 80 160 155 209 210 206 202 197 192 187 182 161 165 168 170 175 178 
182 181 168 146 153 65 13 27 27 32 46 98 84 144 195 227 212 207 204 200 195 
189 183 177 158 162 164 167 170 175 177 187 203 201 140 46 22 37 43 36 105 152 
78 68 117 163 205 212 201 197 191 185 178 173 155 156 158 160 165 171 185 170 
120 61 14 11 38 46 65 116 151 132 52 44 44 62 93 141 202 195 189 182 174 167 
134 149 149 150 153 161 122 47 21 22 21 16 25 44 120 170 146 79 38 45 36 54 67 
70 144 197 185 179 169 161 29 39 39 39 33 46 31 25 30 23 19 19 15 20 75 120 
77 44 38 41 27 39 50 62 79 159 185 173 164 154 8 8 10 9 6 30 33 28 27 20 20 21 
21 18 28 47 41 40 34 35 26 28 37 45 62 96 172 171 158 145 11 14 15 12 21 34 28 
27 29 21 23 24 24 24 27 32 39 38 32 34 28 24 27 32 49 65 137 166 149 130 8 12 
12 15 31 29 27 26 30 22 25 25 25 24 26 38 34 36 31 33 29 26 20 29 36 60 98 147 
139 115 9 11 16 22 28 29 30 21 25 22 25 24 25 25 25 35 32 34 30 35 28 27 18 26 
34 62 69 128 130 105 13 15 15 22 28 28 34 28 19 20 23 23 24 26 25 31 31 33 30 
36 29 24 21 24 41 51 63 111 125 100 
