P2
30 23
255
141 147 153 158 163 167 171 176 181 187 190 200 197 161 199 206 201 203 203 
205 207 208 208 205 203 200 197 190 183 157 129 134 138 142 146 150 155 159 
163 167 173 150 89 32 75 140 180 186 184 186 188 188 187 185 184 181 177 174 
161 119 132 136 138 142 146 149 152 157 160 167 160 38 27 78 58 26 108 172 178 
178 180 179 177 176 174 172 169 164 152 120 135 139 142 146 148 151 155 160 
162 174 129 23 110 189 162 95 49 85 176 189 182 182 181 180 177 175 174 169 
161 128 136 140 144 148 150 154 158 161 172 145 53 69 106 145 167 186 68 31 125 
173 186 183 183 181 178 177 174 170 166 134 137 142 146 149 153 156 159 162 
158 120 24 88 98 134 170 190 118 31 61 126 194 183 184 183 179 176 174 171 169 
141 138 142 146 150 154 158 161 167 123 67 27 75 86 130 157 190 157 19 57 170 
190 186 186 183 180 177 175 172 170 148 138 142 147 151 154 159 161 175 121 
9 22 62 69 113 132 150 174 78 65 183 190 186 184 183 180 177 175 173 170 152 
138 142 147 150 154 158 160 171 137 39 31 58 58 105 149 147 151 96 57 179 191 
186 185 183 180 176 174 171 168 155 138 142 146 149 152 156 158 160 180 103 
21 38 56 102 163 169 161 38 58 189 189 185 184 181 178 174 171 168 165 157 137 
141 145 148 150 153 156 159 168 146 39 15 44 90 163 176 171 50 103 201 185 185 
182 179 175 173 169 165 162 156 135 138 141 145 148 151 154 157 160 174 123 
6 44 69 140 170 177 109 180 199 184 181 179 176 174 170 165 162 157 152 133 
137 139 142 146 149 151 154 158 164 170 100 50 59 118 181 210 167 108 168 187 
187 179 173 171 167 163 159 154 149 132 136 138 140 144 146 149 151 157 170 
143 67 57 71 133 210 214 111 45 54 95 142 165 178 170 164 160 155 150 145 130 
133 136 137 139 142 145 157 160 109 23 13 34 59 98 140 81 51 59 42 38 53 74 98 
156 165 156 152 145 140 128 128 129 131 135 140 145 113 56 22 24 30 20 21 30 
28 42 56 47 42 32 45 54 50 85 154 156 148 141 136 108 120 120 121 122 130 68 
23 24 26 25 27 27 26 29 35 45 49 39 38 24 30 37 50 52 105 155 145 137 131 21 
29 29 29 24 33 27 29 32 22 25 25 25 26 30 30 37 45 33 36 23 23 27 40 45 64 127 
145 132 124 6 6 8 8 4 23 29 26 30 22 26 24 24 26 28 27 32 40 32 34 25 20 22 31 
39 47 89 140 127 116 9 11 11 9 15 29 24 25 28 23 26 24 24 26 26 24 31 36 32 31 
25 20 16 25 37 35 66 114 122 102 7 10 10 11 24 27 22 22 20 18 24 23 24 26 26 
21 30 33 31 30 24 21 15 27 29 37 58 83 111 91 8 8 13 16 23 26 25 22 15 12 22 
22 23 26 24 19 30 30 31 30 24 18 17 27 25 41 48 65 97 84 11 12 12 18 23 24 27 
24 21 11 20 21 22 24 21 17 30 27 28 28 25 16 19 24 27 39 42 62 83 80 
