P2
30 23
255
177 184 191 196 202 207 211 216 221 227 230 236 234 221 236 210 213 244 243 
243 246 246 246 243 241 239 236 229 222 195 163 168 174 178 184 189 193 197 
202 205 213 204 108 75 109 107 132 166 216 216 221 228 226 224 223 220 217 213 
199 152 165 170 174 178 183 186 191 195 198 205 202 109 34 30 32 22 31 52 94 
163 212 217 215 214 212 209 207 202 189 152 168 173 178 182 185 189 194 199 
202 210 125 35 34 30 32 31 31 42 35 97 218 221 219 218 216 213 212 207 198 161 
170 176 181 185 187 192 197 200 210 168 48 32 33 29 29 24 25 44 45 44 99 168 
223 219 216 215 212 208 204 168 171 177 183 187 190 195 199 202 213 129 28 31 
33 33 29 31 31 30 39 31 43 143 219 221 217 215 212 210 208 176 172 178 183 188 
192 197 201 204 218 124 18 26 22 28 30 36 31 26 28 37 88 155 227 221 217 215 
213 210 209 184 172 178 183 189 193 198 202 209 189 99 23 17 13 20 29 20 24 35 
40 44 58 103 193 219 217 215 213 210 209 189 172 178 183 188 193 198 201 213 
146 31 22 20 23 22 25 23 31 37 36 48 34 41 45 202 221 213 211 209 206 192 173 
178 183 186 191 195 199 208 95 20 17 15 26 27 22 30 27 24 29 47 31 49 112 206 
218 211 209 207 203 195 171 177 181 184 188 192 195 208 114 54 20 16 15 26 19 
20 29 33 31 37 33 96 149 201 216 210 207 204 200 194 169 174 177 181 185 189 
192 202 105 31 34 14 11 19 16 18 31 44 79 49 84 164 171 215 210 208 204 200 
195 189 167 172 174 178 182 186 189 195 167 143 114 97 28 24 35 28 34 48 100 
113 156 197 221 212 209 205 201 197 191 185 166 170 173 175 179 184 188 191 
200 208 219 220 63 24 45 63 37 113 160 179 227 222 213 210 207 204 199 193 187 
181 164 167 169 172 175 180 183 190 204 208 159 75 40 58 51 93 115 164 134 78 
128 185 213 217 206 200 195 189 182 176 161 161 162 166 171 176 189 183 140 
82 22 11 18 60 55 135 185 170 83 50 46 69 107 163 197 201 192 186 177 171 139 
154 153 156 158 169 133 57 24 23 24 25 15 29 49 116 157 100 54 48 45 48 64 75 
117 194 190 182 172 165 30 40 41 40 34 44 38 25 33 26 22 22 20 15 24 74 90 45 
46 43 39 33 53 70 70 130 188 177 167 158 9 9 11 10 4 25 35 30 30 24 22 24 23 
23 26 31 38 42 42 38 35 27 38 48 59 83 149 177 161 149 12 15 15 13 16 35 30 29 
30 25 23 26 26 26 27 36 40 40 38 38 34 26 30 36 44 66 98 165 153 133 9 13 13 
15 29 32 28 26 30 26 25 27 26 28 24 37 32 38 34 41 32 29 27 28 38 51 73 134 
143 117 10 11 17 20 29 31 32 26 23 23 26 26 26 29 25 33 30 36 32 42 31 32 24 
22 36 40 69 99 130 108 14 15 16 21 28 29 35 33 24 16 23 25 25 31 25 29 28 34 
33 42 32 29 23 24 31 41 65 74 119 103 
