P2
30 23
255
141 147 152 157 162 167 171 175 180 187 191 194 196 200 206 205 200 202 203 
205 207 208 208 205 202 200 196 190 182 156 129 134 138 141 146 150 154 158 
162 168 171 174 179 167 113 139 189 183 183 185 187 188 187 185 183 180 177 
174 160 119 131 136 139 142 145 149 152 156 160 165 166 174 98 33 21 23 81 162 
182 178 179 179 177 176 174 171 169 164 152 120 134 139 142 145 148 151 155 
159 164 166 177 155 21 54 117 108 42 87 170 183 182 182 181 180 177 175 174 
169 160 127 136 140 144 148 150 153 157 162 166 175 162 67 44 107 164 173 139 
53 75 181 188 182 182 181 178 176 174 170 166 133 137 142 146 149 152 156 159 
163 168 163 123 18 80 105 121 168 176 83 41 128 175 186 183 183 179 176 174 
171 169 140 137 142 146 150 153 158 162 165 172 121 71 24 97 93 106 160 182 
126 34 58 156 191 184 183 180 177 175 172 170 147 137 142 147 151 154 159 163 
165 180 99 6 25 77 75 124 161 189 153 19 107 192 185 184 182 180 176 175 172 
170 152 138 142 147 150 154 159 162 165 179 107 21 29 68 65 107 136 150 166 
62 108 195 184 185 182 179 176 174 171 167 155 137 142 146 149 153 157 160 163 
170 172 53 31 54 56 95 141 138 132 57 117 195 183 184 181 177 174 171 168 164 
157 136 141 145 148 151 154 157 160 163 177 90 10 29 51 94 152 158 110 11 146 
194 182 182 179 175 172 168 165 161 156 134 138 142 145 148 152 154 157 162 
167 166 36 13 47 85 148 161 106 82 191 185 182 179 176 173 169 166 162 157 152 
132 137 139 142 146 149 151 155 159 160 177 121 46 48 68 128 167 148 163 201 
185 179 177 174 171 167 163 158 153 149 132 136 138 140 144 147 148 151 156 
170 165 120 55 58 75 146 202 192 74 108 166 186 179 173 169 165 160 155 149 
145 130 134 136 138 140 143 145 156 158 129 54 10 21 69 84 155 209 135 47 37 
61 115 156 175 167 161 157 152 145 141 127 128 129 132 135 140 145 113 58 26 
21 29 22 33 78 112 112 53 48 41 36 53 68 98 159 162 154 149 141 136 107 120 
120 120 122 131 74 22 25 29 26 27 26 20 26 34 33 46 41 38 26 44 59 52 93 157 
152 145 138 131 22 29 29 29 24 32 30 28 33 26 24 26 26 26 27 31 39 39 35 32 23 
28 39 50 55 111 152 141 133 125 7 7 8 8 4 23 31 28 30 27 23 25 25 25 27 34 32 
35 30 30 23 22 28 37 46 67 129 141 128 116 9 11 11 9 15 30 27 26 28 27 24 24 
24 26 25 32 28 32 29 31 23 20 21 27 37 45 95 134 119 104 7 10 10 12 23 28 28 
25 21 21 24 22 23 27 25 29 26 29 28 31 23 21 16 23 31 39 73 113 111 91 8 8 13 
16 23 23 30 29 19 10 20 21 22 27 24 25 24 27 28 33 22 20 15 22 25 46 56 93 105 
84 11 12 12 16 25 23 28 29 25 11 17 20 21 26 22 22 24 24 28 32 23 18 17 21 32 
43 47 84 100 79 
