P2
30 23
255
184 191 198 203 208 213 218 224 230 236 238 240 241 242 243 244 246 246 246 
247 247 246 245 243 240 238 235 230 223 217 183 191 197 203 208 212 217 221 
227 233 237 241 240 241 243 241 242 244 245 246 245 245 243 240 238 235 230 
223 217 206 172 178 184 189 195 201 205 210 214 222 229 224 227 224 227 240 
240 239 235 236 237 236 234 230 227 223 218 211 200 157 148 154 159 162 166 
172 176 179 183 185 140 102 98 85 103 123 149 180 208 206 204 204 201 198 195 
189 184 179 164 134 152 157 162 167 170 174 176 179 188 140 50 46 37 37 28 22 
46 96 151 192 206 201 201 198 194 190 184 179 169 143 153 160 166 171 174 177 
180 183 197 91 21 34 32 47 35 30 33 73 96 169 213 203 203 200 197 192 188 182 
176 150 155 162 168 173 176 180 183 191 157 44 34 39 40 48 33 28 32 70 81 128 
215 205 204 202 199 195 189 183 180 157 157 164 170 175 178 183 186 200 92 17 
32 38 41 53 28 24 29 79 76 85 181 209 205 203 199 195 190 185 181 163 158 165 
171 175 180 186 191 208 97 17 28 23 15 31 26 16 29 68 70 35 137 217 205 204 
200 196 191 186 181 168 160 166 172 176 181 188 193 159 65 16 23 18 25 29 32 
25 31 62 60 60 92 192 210 204 200 195 190 184 180 171 161 167 173 177 183 190 
195 69 20 22 16 12 18 32 51 57 40 33 29 69 117 190 207 204 199 193 188 183 178 
172 160 167 173 177 183 189 202 154 34 17 20 15 16 36 45 42 63 57 25 49 126 
164 207 202 197 191 186 180 174 168 161 167 173 178 185 190 200 181 52 31 20 
22 13 29 35 26 47 84 43 63 129 193 209 201 196 190 184 178 172 165 163 169 174 
181 189 194 201 198 77 46 30 27 16 18 31 53 82 103 46 64 130 205 207 201 196 
190 183 177 170 162 166 171 175 182 191 195 198 211 189 138 77 28 20 24 36 71 
127 143 101 95 181 213 205 201 195 188 182 175 167 159 166 171 176 182 190 202 
217 208 171 90 50 52 31 52 72 65 172 182 80 116 169 199 209 201 195 188 181 
173 163 154 163 167 172 178 197 191 115 47 11 0 18 60 66 71 184 185 214 106 
24 37 40 57 164 209 194 189 181 174 162 152 164 167 168 183 147 35 5 10 15 15 
10 32 75 93 233 240 191 33 30 30 40 34 61 177 200 188 181 174 161 150 143 146 
150 143 36 9 20 16 12 12 12 10 38 92 211 213 86 31 28 24 31 35 40 92 193 187 
180 172 159 146 18 20 21 20 15 17 14 14 12 11 11 12 8 33 109 84 31 36 23 23 23 
28 40 49 138 190 176 170 156 142 11 13 16 17 18 17 14 15 13 14 17 10 15 11 26 
24 45 36 22 21 17 25 34 47 83 172 174 166 153 139 11 15 19 18 19 20 14 17 15 
52 79 66 41 48 44 54 68 48 27 20 17 21 30 44 63 135 174 160 148 133 10 16 20 
21 23 21 14 17 16 49 105 98 48 88 45 81 77 27 28 18 17 21 26 43 58 107 165 153 
142 125 
