P2
30 23
255
142 148 153 158 163 167 171 175 180 186 191 194 197 198 199 200 202 202 203 
205 207 208 207 205 203 200 196 190 183 156 129 135 139 142 146 150 154 158 
162 167 171 174 177 179 181 180 180 185 187 184 187 188 187 185 183 181 177 
174 160 119 132 136 139 142 146 149 152 156 160 164 167 170 172 173 173 178 
185 170 166 185 178 179 177 176 174 172 169 164 152 119 135 139 142 146 148 
151 156 159 163 167 171 174 176 176 184 158 80 56 47 150 185 180 181 180 177 
175 174 169 160 127 136 141 145 149 151 154 158 162 166 170 173 176 178 181 
180 58 24 83 66 41 153 190 181 180 178 176 174 169 166 134 137 142 147 150 153 
156 159 163 168 173 175 178 182 181 78 30 100 145 181 95 79 154 187 182 179 
176 174 171 169 141 138 143 147 151 154 158 162 166 170 174 176 184 164 116 
26 69 114 106 159 171 45 104 192 181 179 176 175 172 170 147 138 142 148 152 
155 160 164 168 173 175 176 189 141 33 20 79 94 102 154 186 75 61 130 189 178 
177 175 172 169 151 138 142 147 151 155 160 164 169 173 175 177 192 119 10 21 
77 70 111 156 184 83 46 159 186 178 176 174 171 167 155 138 142 146 150 154 
159 163 167 171 174 177 187 162 34 41 64 60 96 126 150 90 91 194 179 177 174 
171 168 164 157 136 140 145 149 153 158 162 164 167 171 174 180 178 44 21 41 
59 106 146 123 60 110 187 177 175 172 168 165 161 155 134 138 142 147 151 156 
159 161 164 167 171 174 192 107 1 43 55 118 156 104 18 151 184 174 173 169 165 
161 157 152 132 137 139 145 150 153 155 158 161 164 168 171 188 168 44 45 59 
105 151 106 114 183 175 174 171 167 163 159 154 149 131 136 139 142 147 151 
153 155 156 161 171 184 168 133 69 59 73 118 177 162 169 186 175 172 169 165 
160 155 150 144 129 133 136 139 143 146 149 150 160 163 139 107 49 16 20 75 89 
148 208 126 54 123 178 176 166 162 157 152 145 140 126 128 130 134 138 142 143 
154 119 58 36 24 26 33 26 34 85 126 124 56 41 36 86 136 165 161 154 149 141 
136 106 120 121 124 126 129 141 124 40 28 38 33 30 32 31 23 30 41 40 43 41 34 
42 61 95 154 153 145 137 131 21 29 30 30 26 24 61 50 33 37 35 32 27 30 30 30 
31 37 42 37 35 27 34 47 53 93 148 142 133 125 7 7 9 9 3 9 36 30 34 32 32 31 28 
27 29 29 31 38 34 32 30 27 26 32 39 55 103 140 127 116 9 11 12 11 6 12 31 26 
35 30 23 24 28 25 28 28 31 33 31 30 31 26 24 22 30 42 64 126 121 103 7 10 10 
13 16 17 29 27 32 34 17 14 27 23 28 28 30 29 28 28 33 24 23 16 25 35 58 95 112 
90 8 9 13 15 15 21 31 30 29 33 23 14 24 22 29 28 28 26 26 28 34 23 18 14 27 41 
49 77 104 84 11 12 13 14 17 26 31 35 35 34 17 17 22 20 28 27 25 24 24 28 33 22 
20 20 28 37 49 76 96 79 
