P2
30 23
255
166 172 178 184 189 194 199 204 209 214 218 220 222 223 225 226 228 229 229 
232 234 235 234 232 229 226 223 216 210 183 151 157 162 167 172 176 181 184 
188 193 197 203 206 207 207 208 209 211 212 213 215 216 215 213 211 207 204 
200 187 141 154 159 162 167 171 175 178 181 185 190 195 180 177 184 165 183 
207 204 205 207 207 207 205 204 201 198 194 189 176 141 157 162 166 170 174 
177 181 186 188 200 158 59 61 69 84 116 151 207 196 208 211 209 208 208 205 
202 201 194 185 149 157 164 169 173 175 179 184 187 200 169 64 26 29 24 19 27 
50 99 169 212 210 210 209 208 205 204 201 195 191 156 159 165 171 175 178 182 
185 192 184 77 26 28 24 27 25 31 38 33 122 215 211 210 211 210 206 203 201 197 
194 164 160 166 171 175 179 183 186 199 123 26 31 27 27 21 19 32 41 35 42 117 
205 213 211 210 207 204 202 199 196 170 160 166 171 175 180 184 190 191 78 21 
28 28 26 28 26 21 31 30 27 73 193 215 210 209 207 204 202 199 195 175 159 165 
171 175 179 184 189 187 62 15 18 23 23 26 23 22 25 35 45 105 188 220 209 210 
207 203 200 197 194 179 160 165 169 174 177 181 188 135 50 16 14 16 23 15 23 
33 34 39 37 42 122 196 213 207 205 201 197 195 190 181 159 164 168 171 174 179 
183 85 12 19 23 20 19 20 26 28 29 43 32 35 14 133 220 203 202 199 195 191 187 
181 156 160 165 169 171 177 171 68 24 13 20 22 15 22 21 18 21 39 28 25 83 163 
212 202 200 196 192 187 182 177 154 158 161 165 169 172 178 81 28 9 10 18 14 
13 21 30 35 31 26 79 125 167 209 200 197 193 188 184 178 173 153 156 159 163 
166 172 164 82 48 42 24 12 14 18 25 32 79 51 63 158 170 194 204 200 196 191 
185 180 174 169 151 154 156 158 162 165 172 171 144 91 41 17 28 28 26 39 92 80 
58 97 177 207 208 198 193 188 182 177 170 165 148 148 149 152 156 168 158 104 
56 25 16 23 34 43 41 86 153 102 43 43 63 105 162 194 192 186 180 174 166 159 
128 141 141 142 149 123 42 17 19 18 13 24 47 53 135 150 129 57 38 37 48 58 66 
119 189 183 177 171 161 153 27 37 36 34 36 38 23 27 20 16 16 13 26 78 164 134 
88 32 37 32 33 55 65 64 132 184 173 168 156 147 7 7 9 6 16 32 26 23 20 15 17 
15 10 35 90 83 37 33 33 27 27 36 46 55 79 150 173 162 151 139 11 13 13 14 28 
27 24 23 22 15 20 19 17 17 35 39 34 32 30 28 23 28 32 43 60 99 164 156 143 124 
8 12 11 18 29 24 22 21 24 16 25 23 21 20 29 32 34 28 30 28 24 23 25 35 48 72 
136 150 131 110 9 10 15 23 24 26 26 19 20 17 27 25 22 19 28 31 32 26 32 26 27 
19 21 31 38 66 101 140 122 101 12 14 14 24 25 27 30 27 19 15 25 26 23 20 25 29 
30 25 33 27 25 29 21 25 42 59 80 130 116 96 
