P2
30 23
255
141 147 152 157 162 167 171 176 180 186 191 194 196 196 197 201 199 201 203 
204 206 207 206 204 201 199 195 189 182 157 129 134 138 141 146 150 154 158 
162 166 171 174 175 181 184 171 188 185 182 185 187 187 186 184 183 180 176 
173 160 119 132 135 138 141 145 149 151 155 159 164 167 168 172 160 104 45 98 
161 180 178 178 177 176 175 173 171 167 162 151 120 135 139 141 145 148 151 
155 159 163 167 171 174 174 55 28 61 43 50 142 178 181 180 179 179 176 174 173 
168 159 127 136 140 144 148 150 153 157 161 165 170 172 180 133 27 101 177 151 
87 47 118 193 182 181 179 177 175 173 169 164 133 137 141 145 149 152 155 159 
162 167 171 180 155 53 69 98 137 164 170 42 64 134 178 183 181 178 175 173 170 
168 140 137 142 146 150 153 157 162 165 168 176 154 115 27 88 84 123 162 189 
91 35 68 171 186 181 178 175 174 171 168 146 138 142 147 150 154 159 164 167 
170 179 141 49 29 71 80 142 162 193 127 11 114 191 181 180 178 175 173 171 168 
151 138 142 146 150 154 159 163 167 169 183 128 9 21 64 69 121 151 156 161 63 
103 191 182 181 178 175 172 170 166 154 137 142 146 149 153 157 161 164 168 
175 164 60 30 55 60 113 165 151 139 53 107 191 181 179 176 173 169 167 163 156 
136 140 145 148 152 156 158 161 165 167 186 105 11 32 50 105 165 163 124 11 128 
191 178 177 174 171 167 164 160 155 133 138 142 146 150 153 156 158 162 165 
172 163 46 13 45 92 156 167 114 45 176 182 177 175 172 168 164 161 156 151 132 
137 139 143 147 151 153 155 159 163 164 188 126 27 51 74 141 186 139 130 199 
177 174 172 169 165 161 157 152 148 131 136 139 141 145 148 150 153 155 159 
173 167 115 53 69 88 176 225 172 82 132 171 182 176 167 162 158 154 148 143 
129 133 136 138 141 144 146 149 161 167 136 45 15 23 61 88 162 156 81 55 39 71 
116 149 164 162 155 151 145 140 126 128 130 133 136 140 144 150 120 70 30 23 
32 26 20 33 43 38 53 59 43 34 47 64 94 154 154 147 140 136 108 122 122 122 124 
129 134 66 27 26 29 28 30 29 28 28 33 46 51 49 41 27 38 49 51 90 149 144 136 
130 22 30 31 30 26 27 43 28 31 36 29 26 29 28 28 31 35 36 43 42 40 25 26 33 43 
51 101 142 131 124 7 7 8 8 2 10 29 32 29 32 27 26 28 26 28 29 32 30 41 38 38 
28 22 25 30 44 57 121 129 114 9 11 11 11 6 23 29 26 28 29 27 26 26 25 28 28 27 
30 38 36 35 28 23 18 25 36 43 89 117 102 7 10 10 12 17 26 29 24 25 23 22 25 24 
24 28 27 23 30 35 35 33 29 23 16 26 27 47 62 95 92 8 8 13 14 21 24 29 29 24 14 
15 21 23 24 28 25 19 31 31 33 31 28 21 17 24 31 47 48 81 85 11 12 13 14 23 25 
28 29 28 17 13 17 21 23 26 20 18 32 27 31 29 27 19 21 24 31 38 46 74 78 
