P2
30 23
255
173 180 186 191 197 202 207 212 216 222 227 230 233 234 235 235 239 239 238 
243 243 242 242 239 237 235 232 225 218 191 159 165 169 174 178 183 188 193 
197 203 207 210 213 214 215 219 206 211 221 199 213 224 221 220 218 216 212 
209 195 147 161 166 170 174 178 182 185 190 195 200 203 205 207 206 216 142 
63 87 114 138 171 207 212 208 209 206 203 198 184 147 164 169 174 178 181 184 
189 195 199 204 207 209 210 218 151 54 28 36 31 35 61 114 185 192 209 209 208 
203 193 155 165 171 176 181 183 187 192 197 203 208 210 210 219 171 43 29 35 
32 37 27 33 42 77 184 215 210 208 204 199 163 167 173 178 183 186 190 194 199 
205 210 211 215 205 72 23 34 30 25 30 26 34 44 40 155 217 210 208 205 203 172 
168 174 178 183 187 192 197 202 206 210 211 224 170 33 28 34 33 33 26 22 29 46 
37 56 124 199 211 206 204 179 168 174 178 183 188 194 199 204 208 211 213 223 
146 22 28 23 30 27 30 36 30 29 35 32 100 182 213 205 204 183 168 174 178 183 
188 194 199 204 209 211 220 179 73 25 16 16 19 29 31 30 27 24 29 74 118 194 
210 204 202 187 169 174 178 182 187 193 197 203 207 210 222 135 11 17 16 21 16 
25 24 17 30 38 42 46 75 172 207 201 198 190 167 173 177 181 185 190 194 199 
204 209 213 80 28 13 15 25 26 24 23 25 29 33 43 37 39 45 180 203 194 188 165 
170 174 178 183 187 191 195 200 204 208 101 44 16 14 16 27 20 22 26 19 23 40 
33 59 100 185 197 189 184 163 168 171 175 180 184 187 191 196 202 206 91 53 57 
18 12 20 19 15 24 35 26 38 51 92 142 192 192 186 181 162 167 170 173 177 181 
184 188 192 197 210 204 174 91 38 17 20 19 19 29 35 68 60 98 144 169 197 187 
182 177 160 164 166 169 173 177 181 184 197 204 181 136 64 27 36 34 25 40 32 
33 75 81 120 181 199 199 189 184 177 172 157 157 159 162 167 173 178 186 153 
83 45 22 14 16 25 43 38 47 87 53 122 57 75 131 181 195 188 181 173 166 136 150 
150 152 155 159 176 108 27 27 30 27 23 19 12 32 47 73 134 117 64 36 45 59 81 
141 190 176 168 160 29 40 40 39 35 35 68 41 30 33 28 21 22 20 16 14 31 87 154 
88 36 43 30 55 68 81 154 178 161 153 9 9 10 11 4 9 34 32 29 28 27 19 22 20 21 
17 23 78 71 33 35 37 24 38 52 63 97 160 158 143 12 14 15 15 7 20 34 29 28 27 
27 20 25 22 23 24 30 37 36 37 31 33 25 29 37 48 69 115 152 127 8 13 13 16 19 
26 31 28 25 24 27 22 28 23 27 24 32 38 34 34 32 32 28 27 27 39 50 87 133 112 
9 11 17 19 22 28 26 31 27 18 20 23 27 23 28 24 33 32 33 31 36 29 30 22 23 34 
43 76 102 106 13 15 16 17 21 30 28 34 35 23 15 21 26 22 28 24 31 28 33 30 37 
31 27 21 22 31 51 61 86 102 
