P2
30 23
255
145 151 157 162 167 172 176 181 186 192 196 200 202 209 212 211 209 208 213 
212 210 212 212 210 208 205 202 196 189 162 133 138 142 146 150 155 159 163 
167 173 176 179 183 146 126 98 91 90 133 177 197 193 192 190 188 186 183 180 
166 123 135 139 141 146 149 153 156 161 165 169 171 180 136 28 19 20 19 20 20 
51 147 186 181 180 178 175 173 169 156 123 138 141 146 149 152 156 159 164 168 
172 177 176 55 14 29 29 20 24 29 24 42 109 183 184 182 180 178 173 165 131 139 
144 148 152 155 158 162 166 171 174 184 111 15 16 20 22 15 20 35 27 29 89 173 
188 182 181 178 174 170 137 140 145 149 154 157 161 164 168 173 178 165 85 16 
16 17 28 37 27 36 46 34 44 138 188 182 180 178 175 174 145 141 146 150 155 158 
162 167 171 173 182 151 58 15 20 32 39 69 43 62 154 50 26 40 142 192 179 179 
176 175 151 141 146 151 155 159 164 168 172 175 186 100 20 16 23 46 78 104 117 
156 174 57 32 59 124 193 180 179 177 175 156 141 146 151 154 159 164 167 172 
175 187 67 12 14 14 20 28 48 69 52 47 45 43 126 160 187 180 178 175 173 159 
141 146 150 153 157 161 164 170 173 185 124 23 12 26 16 5 32 91 8 37 60 72 165 
189 182 179 175 173 170 162 140 145 149 151 155 159 162 166 171 175 187 129 
36 44 75 76 72 175 121 135 94 151 191 183 181 177 173 170 166 161 138 142 146 
149 153 157 160 163 168 172 176 189 105 25 100 116 75 153 177 149 166 184 184 
181 178 175 171 166 162 157 137 140 142 147 151 154 157 161 165 170 173 183 
186 101 73 73 85 145 162 148 187 186 181 179 175 172 168 163 159 154 136 139 
142 145 149 152 154 158 161 168 182 185 175 82 41 74 80 147 175 130 171 190 
186 178 173 170 165 160 155 150 134 137 139 141 144 148 150 157 170 168 139 
78 22 16 31 40 78 136 145 63 55 109 155 178 177 166 162 157 150 145 131 132 
133 136 139 143 150 150 99 55 26 13 17 20 37 30 51 106 125 53 38 34 59 89 135 
168 159 154 146 140 112 125 125 126 128 135 133 51 20 22 25 21 21 16 24 37 56 
103 71 37 38 31 45 50 62 133 161 149 141 135 23 32 32 31 27 30 42 26 29 26 21 
21 22 21 17 20 33 38 39 35 36 23 32 44 53 71 139 148 136 129 7 7 8 8 2 8 28 28 
26 27 20 22 23 24 23 24 26 35 37 30 31 22 23 31 38 51 86 141 131 119 9 11 12 
11 6 21 28 25 26 28 21 23 23 22 21 25 31 33 34 29 29 23 20 24 27 41 55 116 126 
105 7 10 10 12 16 25 27 24 20 26 21 24 23 22 22 23 32 28 32 28 29 25 22 17 24 
30 48 84 109 94 8 9 13 15 19 23 27 29 21 17 18 24 21 22 23 23 30 27 29 28 30 
24 23 15 22 28 50 57 95 87 11 12 13 14 19 24 28 32 30 19 14 22 20 22 23 23 26 
26 28 28 31 24 20 16 20 34 43 48 82 82 
