P2
30 23
255
141 147 152 158 163 168 172 177 182 187 192 194 202 205 198 195 193 206 208 
204 206 209 208 206 203 200 197 191 184 159 128 134 138 142 146 151 155 159 
163 169 171 179 137 101 70 68 65 105 153 190 190 188 188 186 185 182 179 176 
162 119 130 135 138 141 145 149 152 156 160 164 171 144 32 17 20 17 19 15 30 
120 174 178 176 176 174 171 168 164 152 119 133 138 141 145 148 151 155 159 
163 167 178 77 11 28 26 17 23 31 26 33 83 168 182 179 177 175 174 169 160 126 
135 139 143 148 150 153 158 162 166 175 133 29 13 18 22 17 23 33 23 31 72 155 
186 179 178 177 174 170 166 133 136 141 145 149 152 156 159 163 170 162 110 
27 15 20 32 45 28 40 74 37 36 132 183 182 178 176 174 172 169 141 137 141 146 
150 153 158 162 165 173 159 67 17 18 35 54 74 56 108 172 48 29 52 123 191 178 
176 175 172 170 147 137 141 146 150 154 159 163 165 181 116 22 20 22 58 90 109 
134 156 156 66 28 51 121 190 178 177 175 173 170 151 138 141 146 150 154 159 
162 165 182 114 11 14 24 63 87 95 152 97 137 71 32 115 164 185 179 176 174 171 
169 155 138 142 145 149 152 156 160 164 172 164 70 15 38 87 101 90 177 151 181 
93 55 162 188 181 178 175 172 169 165 157 136 140 144 147 150 154 157 162 165 
177 169 82 40 106 117 85 181 172 188 98 123 195 180 179 176 173 169 166 162 
156 134 138 141 145 148 152 155 158 164 168 174 164 48 77 85 80 153 154 134 
148 181 184 180 177 174 170 166 162 158 153 132 137 138 142 145 149 151 155 
161 166 169 183 141 71 69 112 180 152 150 194 187 178 178 175 172 168 163 159 
154 149 132 136 138 140 144 147 149 153 157 164 178 183 143 43 64 87 143 166 
115 134 178 186 179 173 169 166 161 156 150 145 129 133 135 138 139 143 146 
150 165 165 134 60 13 25 39 81 129 132 107 42 66 129 164 177 171 162 158 152 
146 141 127 127 129 131 135 139 147 154 113 59 21 12 16 31 33 43 88 135 97 40 
33 38 70 99 144 165 154 150 142 137 109 121 121 122 124 133 125 64 20 20 22 22 
19 18 35 43 92 95 43 37 35 30 49 51 71 144 155 145 137 131 23 31 30 33 33 32 
37 19 27 24 20 21 22 19 17 28 35 34 38 33 33 20 37 48 54 85 147 142 133 125 
6 6 6 10 12 13 29 26 26 23 19 22 22 23 22 22 28 35 34 29 30 19 24 33 41 56 103 
142 127 117 9 11 10 13 15 23 27 24 26 26 19 23 20 22 22 27 32 31 32 27 28 21 
20 24 30 44 68 128 120 103 6 9 9 12 19 25 23 23 24 26 19 23 19 22 20 27 31 28 
29 27 27 24 19 17 28 32 56 98 111 91 7 8 13 14 19 24 25 22 17 18 19 22 18 21 
20 26 28 28 27 28 26 23 19 16 24 33 53 71 103 83 10 12 12 14 20 20 25 28 20 11 
16 21 18 21 20 26 25 29 26 27 29 22 18 17 23 39 44 61 95 79 
