P2
30 23
255
177 184 191 197 202 207 211 216 221 226 230 238 232 238 222 206 237 245 241 
245 246 246 246 244 241 239 236 229 223 195 163 168 174 178 183 189 193 197 
202 205 215 154 92 116 111 130 152 204 219 214 228 227 227 224 223 220 217 214 
200 152 166 170 173 178 183 187 191 195 197 209 161 55 24 33 23 29 44 77 138 
202 220 216 216 215 212 210 207 202 189 152 169 174 178 182 185 189 195 198 
208 181 65 32 32 30 32 29 37 40 55 184 222 221 219 219 216 213 212 207 199 161 
170 176 180 185 188 192 197 202 201 95 31 33 28 28 24 23 40 46 38 65 138 217 
221 219 217 215 213 208 204 168 171 177 182 187 191 195 198 208 179 56 26 34 
33 30 29 29 28 37 34 31 104 210 223 221 217 215 212 210 208 176 172 178 183 
188 192 196 200 212 172 35 25 24 28 28 35 30 25 27 36 65 130 214 231 220 218 
215 213 210 209 184 172 178 184 188 193 198 202 206 154 41 16 14 20 28 19 23 
35 39 42 48 67 148 206 223 217 216 213 211 209 189 173 178 183 188 192 197 203 
196 73 28 20 22 20 24 22 30 37 33 48 35 39 18 148 233 215 214 211 209 206 193 
173 178 182 186 190 193 205 166 39 15 18 25 26 21 28 27 24 26 46 35 32 95 178 
225 214 212 210 207 203 195 172 176 180 184 187 191 201 173 64 36 15 16 24 20 
20 26 33 31 37 28 74 137 178 222 212 210 208 204 200 194 169 173 177 181 185 
188 198 167 54 26 19 8 17 17 16 27 37 83 61 58 154 176 205 217 211 208 204 200 
195 189 167 171 174 178 182 185 193 175 133 107 92 53 17 32 29 33 41 90 111 
147 187 218 218 212 210 206 201 197 191 186 166 170 173 175 180 184 187 193 
201 199 220 151 17 40 53 41 75 164 152 205 230 220 213 210 207 204 199 193 187 
181 164 167 169 172 175 180 183 190 203 210 159 66 43 53 61 112 149 179 100 
81 137 191 215 217 206 200 195 189 182 176 161 161 162 165 170 176 189 183 143 
82 20 10 34 60 81 189 172 161 68 53 48 73 114 168 200 201 192 187 178 172 139 
154 154 156 158 169 134 57 24 21 23 22 15 38 72 152 140 88 52 49 45 51 67 75 
124 196 190 182 173 165 31 41 42 41 35 45 37 24 31 25 21 21 18 15 36 93 76 43 
47 44 37 36 56 70 70 137 189 177 168 158 8 9 11 10 4 26 35 30 29 22 22 23 23 
23 26 32 39 43 42 39 33 28 39 49 60 86 153 177 161 149 12 15 16 13 17 35 30 28 
30 23 24 25 26 25 28 37 39 41 38 39 33 26 30 37 45 67 102 167 153 134 8 13 13 
15 30 31 28 26 30 25 26 26 27 27 25 38 32 39 34 41 31 29 27 29 39 52 76 137 
143 118 10 11 17 21 29 31 31 26 24 22 26 25 27 28 26 34 30 37 33 41 30 32 23 
23 36 40 71 101 131 109 14 15 16 22 28 29 35 31 22 16 24 23 26 30 27 29 30 34 
34 41 31 29 22 24 30 43 65 77 122 103 
