P2
30 23
255
154 161 166 171 176 181 187 193 199 204 207 207 209 211 212 214 215 216 217 
217 218 218 218 217 216 218 215 207 201 196 153 160 165 169 173 178 183 188 
195 201 205 206 206 207 209 211 211 213 214 214 213 212 212 211 209 207 206 
202 196 190 149 155 160 165 170 174 179 185 191 197 202 203 208 212 209 208 
209 211 212 212 213 212 211 209 206 199 196 182 176 170 132 138 143 146 150 
155 160 165 170 175 180 193 170 159 187 198 199 195 197 199 199 197 195 192 
189 186 172 131 162 160 133 137 140 143 147 150 153 157 161 166 171 105 66 50 
85 100 116 182 180 181 180 179 177 174 170 167 152 122 160 163 135 139 143 148 
151 154 157 160 165 175 85 17 22 23 23 27 33 143 196 183 184 183 180 176 174 
171 160 125 158 167 135 140 145 149 153 157 160 163 174 136 30 20 26 23 26 36 
33 60 153 189 184 184 181 178 177 172 165 127 154 170 137 141 146 151 154 159 
162 166 173 101 16 21 23 23 26 27 37 28 104 196 184 185 182 179 176 172 169 
130 148 171 137 142 146 150 155 159 164 167 180 95 12 48 53 52 64 97 101 28 92 
188 187 186 182 178 175 172 169 134 141 172 138 143 147 150 154 159 163 172 
136 60 16 44 78 122 153 184 156 33 56 141 192 184 181 177 174 171 169 136 134 
170 138 143 147 151 154 158 161 172 135 27 11 19 16 42 60 42 61 25 44 165 189 
183 180 176 173 169 168 139 128 166 137 141 145 148 152 157 161 163 183 114 
17 40 22 52 119 36 86 65 105 187 185 182 178 174 170 166 164 141 121 160 136 
140 143 147 151 156 160 163 169 169 43 59 95 89 183 193 182 108 172 189 182 
180 176 172 167 163 160 142 116 152 136 139 142 147 151 154 156 161 168 180 
134 61 93 97 158 214 172 156 196 181 180 178 174 170 165 160 157 143 113 144 
135 139 141 144 148 154 167 169 161 150 129 54 60 82 136 172 142 160 188 191 
182 174 171 167 162 156 152 142 109 135 133 137 139 140 148 145 101 63 34 16 
4 20 36 68 128 135 67 19 62 107 157 180 168 164 160 154 147 139 108 124 134 
133 135 137 145 60 2 8 9 11 10 32 32 43 88 123 55 14 17 18 31 109 172 160 157 
151 142 138 108 115 95 113 113 122 75 10 19 15 13 11 8 25 44 42 100 109 19 16 
19 24 22 29 132 164 152 147 138 133 108 107 11 19 19 21 16 16 15 14 12 12 8 22 
47 51 89 42 9 15 13 18 21 23 53 150 151 143 133 126 105 99 10 9 10 13 17 15 14 
14 13 11 9 11 49 68 44 16 14 12 11 14 16 24 23 99 152 137 126 114 97 90 9 11 
12 16 16 16 12 14 13 13 16 6 10 21 15 12 11 12 10 12 14 19 23 56 136 133 114 
99 76 50 8 11 14 15 16 17 13 14 11 31 35 27 11 10 16 18 16 11 10 10 12 17 26 
34 107 126 103 88 65 32 12 12 24 24 19 19 13 13 12 28 46 37 25 20 43 25 18 11 
10 9 11 17 24 32 90 116 98 81 63 34 
