P2
30 23
255
149 156 161 167 172 176 180 186 191 197 201 205 204 194 158 154 149 185 213 
215 212 215 216 214 212 210 206 200 192 167 137 141 146 150 155 160 164 168 
172 176 181 180 92 54 33 33 33 52 94 174 206 198 196 194 193 190 187 184 171 
127 139 142 146 150 154 158 161 165 169 172 182 106 15 25 29 23 25 23 18 58 126 
178 187 184 183 179 176 172 161 128 141 146 150 154 157 160 164 169 171 180 
161 36 16 26 26 17 21 36 32 28 62 162 192 188 186 183 182 177 169 136 143 148 
152 157 159 163 166 171 174 180 100 18 16 18 25 26 24 36 30 31 57 134 199 189 
187 185 183 178 174 142 144 150 154 159 162 165 169 172 179 159 88 20 19 24 35 
62 41 34 105 59 23 76 151 192 188 185 182 179 178 149 144 151 155 159 163 167 
172 173 184 133 40 16 20 42 67 92 81 114 192 85 26 32 78 198 187 186 184 180 
178 156 145 151 155 160 164 169 173 175 186 70 20 20 22 61 98 118 149 158 156 
83 25 83 121 185 190 186 183 180 178 161 145 151 155 159 163 168 172 174 188 
87 14 13 27 65 101 90 168 116 151 109 31 103 179 190 189 185 182 179 176 164 
145 151 155 158 162 166 169 173 182 159 63 19 41 89 112 91 173 183 196 142 55 
159 198 189 186 183 179 177 173 166 144 149 153 156 160 163 167 171 174 187 
169 72 40 104 118 82 168 200 213 128 117 204 189 188 184 180 177 174 170 165 
142 147 150 154 157 161 164 168 173 174 186 152 33 74 95 84 154 184 157 161 
187 193 189 186 182 178 174 171 166 161 141 145 147 151 155 159 161 165 171 
175 179 188 148 62 68 78 136 139 150 196 197 187 186 183 179 175 171 167 162 
158 140 143 146 149 153 157 159 163 167 172 185 197 155 49 69 85 129 122 132 
146 188 195 190 181 176 173 169 164 159 154 138 141 143 145 148 153 156 161 
174 180 143 71 19 27 51 109 176 181 104 50 76 123 162 182 181 170 166 161 154 
149 136 136 137 140 143 148 158 161 126 75 24 12 18 29 33 87 156 150 94 45 40 
40 58 94 131 172 163 157 150 143 117 130 129 131 132 141 128 61 22 20 22 23 18 
17 25 78 125 88 49 38 40 34 44 59 58 122 165 153 145 138 25 34 34 33 29 33 36 
20 28 25 19 21 20 18 17 30 38 34 40 35 38 23 36 48 54 63 139 152 139 133 7 7 8 
9 2 12 30 27 27 23 18 23 21 23 24 26 31 35 36 31 34 21 27 34 41 51 92 144 135 
124 10 12 12 12 7 24 28 25 26 25 19 25 21 24 22 29 33 31 34 31 33 23 22 27 30 
46 62 124 130 109 7 11 11 13 19 26 23 23 24 26 20 26 21 25 22 28 28 28 30 32 
32 26 23 20 29 38 49 102 118 96 8 9 14 15 20 26 26 23 19 19 19 25 20 26 22 27 
24 28 27 33 30 26 24 18 29 31 56 78 105 90 12 13 14 14 20 22 26 28 24 15 15 23 
19 26 24 25 21 27 26 33 31 23 21 21 25 38 55 62 100 85 
