P2
30 23
255
141 147 153 158 162 167 172 177 183 187 190 191 198 198 195 195 198 200 201 
201 202 200 198 195 193 190 187 182 176 171 141 146 151 157 161 165 170 175 
180 185 188 197 171 177 196 199 200 196 197 198 198 198 195 192 190 187 181 
176 170 160 132 137 141 145 150 155 160 164 168 174 181 142 85 70 130 135 147 
191 187 189 190 189 186 183 180 176 171 166 155 119 111 115 119 122 126 130 
134 137 139 151 85 17 25 19 33 32 32 136 164 157 158 157 155 152 149 145 141 
137 124 98 114 118 122 126 129 132 135 136 147 105 15 19 17 19 31 34 35 71 145 
158 157 155 154 152 148 144 140 137 128 106 116 120 125 129 133 136 138 139 
150 63 13 19 22 17 18 37 43 33 77 162 160 158 157 155 151 147 143 139 134 111 
117 123 127 131 135 138 140 145 146 46 8 21 24 20 24 33 51 32 58 154 163 160 
158 156 152 149 144 140 138 117 118 124 129 133 137 140 144 149 137 30 11 38 
43 35 46 95 135 49 45 137 166 161 159 157 154 150 146 141 139 123 119 125 129 
134 138 142 149 141 61 24 13 37 58 87 128 193 201 72 30 111 168 162 160 158 
154 150 145 141 139 127 120 126 131 135 139 144 148 159 102 9 16 40 73 81 164 
127 173 83 29 122 173 163 161 158 154 150 145 141 138 130 121 127 132 136 140 
146 150 156 161 81 21 61 87 64 179 180 210 124 105 165 170 164 162 158 153 148 
144 140 136 130 122 127 132 136 141 146 151 155 165 148 48 68 115 74 184 221 
221 152 157 174 170 166 162 157 152 147 142 138 133 128 121 127 132 137 142 
147 152 157 162 167 115 64 87 75 173 209 176 182 178 175 172 166 161 156 151 
145 140 136 130 125 123 128 134 139 145 149 154 159 163 167 170 84 64 78 175 
230 198 186 177 175 172 166 161 156 150 145 140 135 128 123 125 130 134 140 
146 151 155 158 169 182 182 81 40 74 168 213 166 186 190 180 170 165 161 155 
150 143 139 134 126 120 125 130 135 140 145 152 165 175 160 102 63 51 33 52 128 
190 111 59 124 150 173 169 159 156 150 143 138 132 123 116 123 127 132 136 151 
162 130 82 25 1 34 58 50 50 127 217 82 14 23 38 63 126 167 153 151 144 139 132 
122 114 123 126 128 137 119 57 13 4 9 11 21 54 57 73 181 135 20 25 23 28 24 39 
132 160 149 145 139 132 121 112 108 110 114 105 23 6 16 17 13 13 9 41 72 87 73 
28 28 21 18 21 27 26 54 144 151 142 138 131 119 109 14 15 16 15 16 18 17 16 14 
15 14 11 28 35 24 26 27 17 19 15 19 27 29 87 152 139 136 128 117 106 8 9 12 16 
20 18 19 21 15 13 13 10 7 11 25 23 34 18 18 13 14 21 30 48 124 140 132 126 115 
103 9 11 16 18 22 21 17 19 21 56 59 34 32 38 33 51 42 26 16 13 12 17 27 39 94 
139 128 123 111 99 8 12 17 20 23 19 15 14 26 55 90 53 49 67 35 79 30 24 17 12 
12 17 29 37 77 132 124 117 106 93 
