P2
30 23
255
158 165 171 176 181 186 192 198 204 208 211 212 213 215 216 219 220 221 222 
222 223 224 223 222 221 223 219 211 206 201 158 164 169 173 177 182 188 194 
200 206 209 210 210 211 212 214 216 217 219 219 219 218 217 215 213 212 211 
207 201 195 154 160 165 170 175 178 184 189 195 202 207 209 209 214 218 216 
213 214 215 217 217 216 214 213 211 205 202 186 180 174 137 142 146 150 154 
159 165 169 175 180 185 191 198 171 144 178 200 201 204 202 204 202 200 197 
194 191 177 136 166 165 137 140 144 148 152 155 158 162 167 170 174 172 93 57 
44 63 94 84 159 191 184 184 182 178 174 172 157 127 165 168 139 144 147 152 
156 159 162 165 170 175 181 75 16 22 23 24 29 25 82 191 190 187 185 181 178 
176 166 130 163 172 139 145 150 154 158 162 165 168 172 182 141 32 22 27 26 24 
33 37 41 115 188 189 185 183 182 177 170 132 157 175 140 146 151 156 159 163 
168 172 175 181 104 18 19 23 23 25 34 31 38 50 176 192 185 184 181 176 173 135 
151 176 141 146 151 155 159 164 169 174 177 188 97 11 39 38 31 39 41 71 42 50 
167 196 186 183 180 176 174 138 145 176 142 147 151 156 160 165 169 173 181 
138 56 15 50 79 101 124 166 182 59 41 109 180 188 181 179 175 174 141 139 175 
142 147 151 155 160 164 168 172 183 135 24 10 25 43 81 113 107 113 48 16 108 
189 184 180 177 174 173 144 132 171 140 145 150 153 158 163 167 171 173 191 
103 13 23 9 23 61 8 39 50 58 154 192 181 178 174 171 169 145 125 165 139 144 
148 153 157 162 165 170 174 178 174 43 54 63 69 174 111 138 111 127 186 184 
180 176 172 167 165 146 120 157 140 144 146 151 157 160 163 166 172 179 191 
136 62 99 94 169 219 194 139 184 183 181 178 174 170 165 161 148 116 148 139 
143 146 149 155 157 166 177 176 164 154 132 56 69 91 149 195 176 170 198 191 
182 174 172 167 161 156 146 113 139 137 140 143 146 148 163 137 84 54 30 13 4 
22 49 69 129 170 92 39 86 137 170 178 167 164 158 151 144 111 127 139 138 139 
141 151 132 31 4 9 10 12 12 31 30 55 110 127 50 16 15 21 40 122 173 159 155 
147 141 111 118 99 118 119 122 114 31 13 18 14 12 12 9 31 39 30 70 108 28 18 
20 23 20 37 143 162 150 142 137 111 110 11 20 20 23 21 14 17 14 13 11 12 8 26 
51 49 99 68 10 18 15 18 23 22 69 156 145 136 130 108 101 10 10 10 13 17 16 14 
14 13 12 12 9 16 53 74 63 20 14 14 13 15 17 25 30 119 146 128 117 100 92 10 12 
14 18 16 16 13 13 14 12 11 11 4 19 36 21 14 13 13 12 13 15 22 24 78 139 116 
102 78 51 9 11 14 16 17 16 12 11 13 14 39 34 20 7 9 13 16 13 13 12 11 15 20 27 
49 119 107 90 67 32 11 26 64 34 18 18 13 11 11 21 40 44 39 21 19 33 25 17 12 
11 11 14 20 26 45 104 101 82 65 35 
