P2
30 23
255
141 147 153 158 162 167 172 177 183 188 191 192 197 196 195 195 198 200 201 
202 202 200 198 195 193 190 186 182 176 171 141 146 151 157 162 165 171 175 
180 185 189 195 179 187 197 199 198 196 197 198 198 197 195 192 190 186 182 
176 170 160 131 137 140 145 151 155 160 165 169 174 183 155 92 87 149 147 168 
191 187 189 190 189 186 183 179 176 171 165 155 118 111 116 119 122 126 130 
134 138 139 152 95 26 28 21 41 31 55 157 161 157 158 157 155 152 149 145 141 
137 123 98 113 118 121 126 129 132 135 137 147 113 20 17 18 20 30 32 37 94 154 
158 156 155 154 152 148 144 140 136 127 105 115 121 125 130 133 135 138 139 
151 65 12 19 22 17 20 39 41 32 103 167 158 158 156 154 150 147 143 139 134 111 
117 122 127 132 135 138 140 144 147 47 8 23 25 23 25 39 55 27 81 164 161 160 
158 155 152 149 144 140 137 117 118 124 129 133 137 140 144 150 140 33 11 41 
47 44 65 138 143 36 68 154 165 161 159 156 153 149 145 141 138 122 119 125 130 
134 138 142 149 144 66 23 13 38 62 101 152 193 179 48 40 128 170 161 160 157 
153 150 145 141 138 126 120 126 131 135 139 144 148 159 106 12 16 41 64 85 176 
113 162 60 46 147 172 163 161 158 154 149 144 140 138 129 121 127 132 135 141 
146 150 155 164 87 22 68 99 73 196 202 224 110 126 171 169 164 162 158 153 148 
143 139 136 130 121 127 132 136 141 146 151 155 164 150 49 70 114 76 197 209 
206 146 168 174 169 165 162 157 152 147 141 137 133 127 121 127 132 137 141 
147 152 157 162 167 118 67 79 80 184 210 180 180 179 175 171 166 161 156 150 
145 140 135 130 124 123 129 133 139 145 150 154 159 163 167 173 85 63 84 186 
228 195 185 177 174 171 166 160 155 150 145 140 135 128 122 125 129 134 140 
147 151 155 159 169 181 183 83 35 78 177 197 166 189 188 178 169 165 160 155 
150 143 139 134 126 119 125 130 135 140 146 152 165 175 160 104 62 52 35 53 124 
192 118 64 134 159 176 168 159 156 150 143 138 132 123 115 122 126 132 136 150 
161 126 77 26 1 29 58 53 59 151 227 78 15 25 45 77 137 166 153 150 144 138 132 
122 114 122 125 127 137 119 52 11 4 9 12 18 53 58 82 186 121 19 25 22 28 23 48 
142 158 149 144 139 132 121 111 107 110 113 109 29 6 16 17 13 14 9 35 71 86 61 
25 29 20 18 22 29 26 63 150 150 142 138 130 119 109 13 15 16 16 16 19 18 17 15 
14 14 9 20 27 24 26 26 17 19 15 20 29 30 95 152 139 136 128 117 106 9 9 12 16 
21 20 18 21 15 16 15 12 9 14 26 26 34 19 18 13 14 22 31 51 129 140 132 126 114 
103 9 11 16 18 22 21 16 18 19 59 67 38 38 42 34 55 37 25 15 13 12 18 28 40 97 
139 127 122 111 99 8 12 17 22 23 19 14 15 20 51 89 49 51 64 41 78 26 24 15 12 
12 17 29 37 79 132 123 117 106 93 
