P2
30 23
255
149 156 162 167 172 176 181 186 191 197 200 210 210 192 185 176 200 216 213 
210 214 216 216 214 212 210 206 200 193 167 137 142 146 150 154 159 164 168 
172 176 183 132 86 51 50 45 71 108 182 205 199 197 197 195 193 190 187 184 171 
127 139 143 146 150 154 158 161 165 168 177 142 29 19 23 21 23 18 20 69 122 
174 190 186 185 183 180 176 172 161 128 141 146 150 154 157 160 164 169 172 
181 73 13 29 25 17 27 33 29 32 61 154 194 189 190 186 184 183 178 170 135 143 
148 152 157 159 162 167 170 178 144 35 14 19 23 18 27 34 28 34 51 128 201 191 
190 187 186 183 178 174 142 144 150 154 159 162 165 169 173 166 113 30 16 20 
38 49 30 46 105 49 24 80 137 191 193 189 185 183 180 177 150 145 150 155 160 
163 167 170 177 162 70 20 20 33 55 78 64 121 190 83 24 40 61 192 193 189 186 
183 180 179 156 145 150 155 159 164 168 171 185 120 22 21 22 57 93 114 142 151 
146 93 24 68 123 180 194 189 186 184 181 178 161 145 150 155 159 163 167 169 
185 112 19 13 24 50 66 96 170 99 125 117 33 73 175 195 192 189 185 182 179 176 
164 145 150 154 158 161 165 168 176 167 73 26 28 82 117 92 180 177 194 159 47 
137 200 193 191 187 183 179 176 174 166 144 149 153 156 159 163 166 170 178 
178 113 45 96 125 87 183 187 188 167 88 195 195 191 188 185 181 177 174 171 
165 142 146 150 153 156 161 164 168 173 174 187 93 64 98 80 147 172 144 156 
177 198 192 189 186 182 178 175 171 166 161 141 144 146 150 154 158 161 165 
170 174 183 166 80 74 78 139 177 156 188 210 192 188 186 184 180 175 172 168 
162 157 139 143 146 148 152 156 159 162 166 173 187 196 89 51 76 126 180 148 
121 164 193 196 188 181 177 174 169 164 159 154 138 140 142 145 147 152 155 
162 175 176 126 52 20 33 58 115 138 133 78 50 88 133 169 187 178 170 166 161 
154 149 136 136 137 139 142 147 160 155 118 63 15 13 22 35 34 75 118 142 68 43 
38 45 68 105 153 174 163 159 149 143 116 129 128 130 132 140 112 48 20 20 22 
23 17 26 35 71 116 73 42 40 37 37 53 56 76 153 164 154 145 138 24 33 33 32 28 
36 29 22 28 23 21 22 21 18 21 38 38 37 40 36 32 27 41 53 53 94 157 150 140 133 
7 7 9 9 3 20 30 27 27 20 21 23 23 23 25 25 34 37 35 33 29 22 30 37 46 63 118 
149 135 125 10 12 12 11 11 29 27 26 28 21 22 23 22 22 25 33 31 34 32 33 29 22 
23 29 35 51 81 140 128 110 7 10 11 12 22 26 23 23 27 21 23 23 21 23 23 32 26 
33 29 34 28 25 21 22 35 39 65 117 119 97 8 9 14 15 23 26 26 21 21 18 22 22 21 
24 24 28 24 31 28 34 26 27 19 21 30 36 63 88 111 89 11 12 13 15 22 22 28 27 22 
14 20 21 21 25 25 24 24 29 28 34 27 23 19 24 26 44 53 74 106 85 
