P2
30 23
255
184 192 198 203 208 214 219 224 230 236 239 241 241 241 243 243 245 246 247 
247 247 246 245 243 240 239 235 230 224 217 183 191 197 203 208 212 216 222 
227 233 237 239 242 244 242 245 244 243 244 245 245 245 243 240 238 235 230 
223 217 206 172 179 184 189 195 201 205 210 215 222 226 235 217 205 217 213 
233 241 240 238 236 237 234 231 227 223 218 211 200 158 148 154 159 163 167 
172 176 180 184 188 195 163 96 83 74 76 102 123 158 191 210 202 201 198 194 
190 184 179 164 133 152 157 162 167 171 174 177 181 186 192 185 80 32 44 38 45 
25 27 61 115 171 203 200 198 194 189 185 179 169 142 154 160 165 171 174 177 
181 184 188 201 165 31 36 37 37 53 39 34 42 82 127 204 202 200 196 192 188 182 
176 150 155 163 169 173 176 181 185 189 196 190 68 28 39 45 53 60 34 30 39 86 
91 182 210 200 198 194 189 184 180 157 158 164 171 175 178 184 189 194 201 180 
46 24 28 31 24 43 32 27 35 83 72 136 202 203 199 195 190 185 181 164 158 165 
171 175 180 186 192 196 213 167 27 19 24 21 24 31 25 17 36 79 56 77 194 205 
199 195 190 185 181 168 160 167 172 176 182 189 193 208 128 62 24 16 14 15 26 
32 51 39 38 56 58 87 173 208 199 195 189 185 181 171 161 168 173 177 184 191 
195 208 155 38 20 20 14 14 19 37 58 59 51 29 31 91 168 203 199 193 188 183 178 
171 161 167 173 177 185 191 197 202 211 82 14 23 19 20 17 39 48 36 70 59 23 90 
155 195 198 191 186 180 175 169 161 168 173 178 185 192 198 203 209 91 56 26 
35 23 16 26 36 35 63 74 51 108 173 204 195 190 184 177 172 165 163 170 175 182 
189 195 200 204 214 160 77 52 38 28 20 24 45 88 111 63 45 102 181 204 195 189 
183 176 170 163 166 172 175 183 191 196 200 208 220 234 198 117 46 34 30 43 42 
96 158 150 104 154 200 201 194 188 182 175 167 159 166 172 176 183 191 202 218 
209 178 112 52 66 76 57 57 107 99 156 193 129 147 203 214 200 195 187 181 173 
163 154 163 167 173 179 196 191 117 49 16 2 4 42 69 79 71 184 217 215 91 24 48 
70 139 210 193 189 181 173 162 152 164 167 169 181 160 40 6 11 15 16 13 19 50 
78 77 213 245 177 22 33 37 35 46 156 202 187 182 173 161 149 143 147 150 144 
41 10 21 17 14 12 13 10 21 46 81 204 205 72 27 28 30 36 40 68 179 190 179 172 
159 146 18 20 22 21 15 19 15 15 13 12 12 12 11 12 47 126 66 35 29 26 24 28 36 
45 110 189 175 169 156 143 12 12 17 18 18 18 15 15 14 10 15 10 12 12 18 28 28 
45 23 23 20 22 33 44 66 156 176 164 153 139 12 16 21 19 20 21 15 17 13 31 69 
69 45 40 42 45 59 63 32 21 20 20 29 40 56 111 171 160 148 133 11 18 21 22 23 
23 14 18 13 35 77 113 60 73 71 46 96 40 28 21 18 19 25 35 55 85 156 154 141 
124 
