P2
30 23
255
154 162 167 172 177 182 188 193 199 204 206 207 209 211 212 214 215 216 217 
217 218 219 218 218 216 218 215 206 202 196 154 160 165 169 173 178 184 189 
195 201 205 206 206 207 209 210 212 213 214 214 214 213 212 211 209 207 206 
202 197 189 149 155 160 165 170 175 180 185 191 197 201 207 207 212 209 210 
210 211 212 213 213 212 211 209 207 200 196 181 176 170 132 138 143 146 150 
155 161 165 169 175 185 165 122 145 184 185 195 195 197 199 199 197 195 192 
189 186 172 131 162 160 132 137 140 144 147 150 154 158 161 170 106 48 43 41 
73 62 110 185 180 182 181 179 177 174 170 167 152 123 160 163 135 140 143 149 
151 154 158 159 174 103 18 22 22 22 24 27 41 151 195 184 184 183 180 177 174 
171 161 126 159 167 136 141 146 150 153 156 159 167 148 49 18 25 25 20 33 35 
36 61 152 190 184 184 181 178 177 173 166 128 154 171 136 141 146 151 154 158 
162 169 119 25 17 22 23 27 27 30 39 28 117 196 184 185 182 179 176 172 169 131 
147 172 137 142 146 151 155 159 163 175 116 21 31 53 38 54 59 105 79 25 100 
190 186 186 183 178 176 172 170 134 142 172 138 143 147 150 154 158 165 156 
89 21 34 70 96 134 163 191 132 24 65 138 190 185 182 178 175 171 169 137 135 
170 138 142 146 150 154 157 168 133 32 12 20 24 33 67 56 71 76 20 43 157 190 
183 180 176 174 169 168 140 127 166 136 141 145 148 152 157 159 175 109 10 25 
18 6 86 49 17 63 49 88 183 186 182 178 174 171 166 164 141 121 160 136 139 143 
147 151 156 160 162 175 73 31 85 70 136 172 124 175 93 157 189 183 180 176 172 
167 163 160 142 116 152 136 139 141 146 151 154 157 160 175 134 56 93 87 105 
177 169 156 138 195 181 179 178 174 169 165 161 157 144 113 144 135 139 141 
144 148 157 167 170 160 158 84 63 73 112 178 174 123 146 184 191 186 176 172 
167 163 157 152 142 110 135 133 136 139 140 149 134 95 60 35 16 11 39 63 91 163 
151 49 21 46 92 141 176 169 164 160 154 147 140 108 124 134 134 134 141 125 
25 5 6 8 8 11 28 35 72 115 117 38 17 17 15 21 100 174 160 158 151 143 137 108 
115 94 112 113 115 42 10 16 14 12 10 9 33 31 46 98 107 18 17 18 22 24 28 128 
165 153 147 138 133 108 107 10 18 18 20 14 16 13 11 10 10 7 27 37 47 102 49 9 
16 13 16 21 22 54 151 150 142 133 126 105 98 10 9 11 15 15 13 13 12 11 11 7 23 
45 55 48 14 14 13 11 14 16 24 24 107 152 137 127 114 97 90 9 11 13 16 15 13 12 
13 11 8 7 6 30 38 19 13 12 12 10 12 13 20 23 57 137 132 114 100 76 50 8 11 15 
15 15 14 12 14 11 25 24 12 6 9 12 14 14 12 10 10 12 17 26 35 113 125 103 88 65 
32 12 13 17 16 17 15 11 13 15 33 35 30 16 16 29 25 20 11 10 9 11 18 24 33 90 
117 97 81 63 35 
