P2
30 23
255
165 172 177 183 189 193 197 203 208 213 216 220 222 222 224 225 227 229 229 
231 233 234 234 231 228 225 222 216 209 182 150 156 161 166 171 176 179 183 
188 192 197 201 203 206 207 207 208 211 211 213 215 215 214 212 210 207 203 
200 186 140 152 158 161 166 170 174 177 180 184 190 191 182 192 172 177 202 
204 203 206 205 207 206 204 203 200 197 194 188 175 141 156 161 166 170 173 
176 180 184 190 184 94 66 84 85 129 148 205 201 203 211 209 209 208 207 204 
201 200 194 184 148 157 163 168 173 175 179 182 189 190 103 28 26 25 19 28 46 
99 157 204 211 210 210 209 207 205 203 200 195 190 155 158 164 170 174 177 181 
184 194 121 31 27 24 27 26 27 36 35 88 209 213 210 211 210 210 206 203 200 197 
194 163 159 166 170 174 178 181 192 159 42 29 27 25 21 18 29 39 36 38 105 201 
213 211 211 209 207 204 201 198 195 170 159 165 170 174 178 182 194 116 22 29 
29 27 24 23 21 32 31 26 46 174 218 211 210 209 207 204 201 198 195 175 159 164 
170 174 177 181 192 90 16 21 24 22 26 24 19 21 34 34 81 172 222 209 211 209 
206 203 200 197 193 178 159 164 169 172 175 182 161 74 15 14 17 23 15 21 30 32 
38 37 38 106 196 212 209 208 204 200 197 194 190 181 157 163 167 170 172 183 
125 26 18 20 19 19 18 25 30 29 40 33 34 19 95 221 206 205 202 198 194 191 186 
180 155 159 163 166 170 178 101 23 15 20 23 16 20 20 18 20 40 30 23 52 136 214 
204 203 199 195 191 186 181 176 153 157 160 164 165 179 119 36 14 9 19 15 14 
20 25 26 32 22 53 115 152 206 204 201 197 193 187 183 177 173 152 155 158 161 
164 173 102 43 30 23 12 13 14 21 28 71 55 40 130 168 185 208 200 200 195 190 
185 179 174 169 149 152 155 158 160 165 157 146 107 61 15 24 25 26 30 75 86 56 
64 123 182 206 207 196 192 187 182 176 170 164 147 147 148 151 155 168 145 90 
47 20 19 31 36 31 65 129 129 55 42 43 63 111 161 198 189 185 179 173 165 158 
127 140 140 141 148 95 28 16 18 15 16 41 39 103 143 136 92 37 39 38 51 62 66 
144 191 182 177 171 160 152 26 36 36 33 41 30 23 25 17 15 13 21 53 155 143 115 
47 32 36 26 39 57 58 74 155 183 173 167 156 147 7 7 8 8 24 30 24 22 16 16 16 
11 22 77 98 51 33 32 32 22 29 35 45 57 92 166 170 162 151 138 11 13 12 20 30 
25 22 22 17 17 19 18 14 24 40 32 34 29 31 24 23 27 32 47 60 121 167 154 143 
124 8 12 11 23 27 23 20 23 20 18 25 22 20 23 30 31 33 27 30 26 23 22 26 37 47 
88 144 148 132 110 9 10 16 25 24 27 24 19 19 19 28 23 20 21 30 30 29 27 30 25 
25 17 23 30 45 70 112 142 121 101 12 13 16 25 25 28 29 24 17 17 27 25 21 21 26 
29 27 27 32 24 26 30 21 27 48 55 92 133 116 96 
