P2
30 23
255
178 185 191 197 203 207 212 216 221 226 235 237 240 222 205 234 246 240 243 
244 245 246 246 244 241 239 236 230 222 196 162 169 174 179 184 189 193 197 
200 210 172 109 123 109 124 144 192 217 210 226 227 228 227 225 223 220 217 
214 200 152 165 170 174 178 182 187 190 193 202 179 72 22 32 22 28 40 67 120 
199 222 217 217 216 215 213 210 207 202 189 152 169 173 178 182 186 189 194 
201 196 86 32 31 30 30 29 37 39 46 153 212 223 220 220 219 216 213 212 208 199 
160 170 176 181 186 188 192 196 205 118 34 32 29 27 22 24 41 43 34 43 112 218 
223 221 220 217 215 213 208 204 168 171 177 182 187 191 194 201 192 68 25 34 
31 29 30 26 24 33 34 34 105 212 223 222 222 218 215 212 210 208 176 172 178 
183 187 192 195 205 179 45 22 25 27 27 30 25 25 30 40 52 108 206 237 222 222 
218 215 213 210 209 184 172 178 183 188 192 197 203 176 51 15 14 22 24 17 29 
37 37 43 38 49 94 171 230 219 218 216 213 211 209 189 172 178 183 187 192 196 
203 112 39 23 23 22 23 24 32 32 31 48 35 41 19 134 236 219 218 214 212 210 207 
193 173 178 183 186 189 196 189 72 11 19 27 25 20 28 26 22 25 44 31 23 92 169 
224 219 216 212 210 207 203 195 171 176 180 183 186 191 193 85 36 17 18 24 18 
16 25 35 42 40 27 90 140 168 225 216 214 211 207 204 200 194 169 173 176 180 
183 188 191 85 28 15 10 17 16 19 29 35 97 83 66 150 192 210 220 214 211 208 
205 200 195 189 167 171 173 177 181 187 181 128 100 81 66 16 32 32 33 43 97 118 
160 199 215 220 216 213 209 206 202 197 192 185 166 169 173 174 179 183 188 
194 194 196 176 41 34 50 44 76 162 168 166 220 228 221 214 210 208 204 198 193 
187 181 163 167 169 171 174 180 182 189 205 208 131 53 54 49 126 173 171 163 
70 87 141 191 216 218 205 201 195 190 182 176 160 161 162 165 170 176 189 181 
140 71 14 17 54 61 179 173 177 128 60 52 50 74 118 165 203 200 192 186 177 171 
139 154 154 155 159 167 126 52 23 19 22 17 25 51 123 152 122 70 50 49 44 54 71 
72 133 198 189 182 173 165 31 41 41 41 35 47 32 25 30 23 21 20 16 20 63 100 
53 45 45 45 32 41 58 70 73 148 190 177 168 158 9 8 10 10 6 29 33 29 28 20 23 
22 24 22 28 33 40 44 40 40 29 31 40 52 62 92 163 177 162 149 12 14 15 13 22 35 
29 28 30 21 25 24 27 25 30 39 37 42 36 40 30 27 31 38 49 68 114 171 153 135 
8 13 13 16 31 30 27 26 31 22 27 25 28 25 28 38 31 40 35 40 30 28 27 30 43 53 
85 145 143 118 10 11 16 22 30 31 30 24 24 22 27 23 29 26 28 33 31 36 35 40 29 
31 21 25 38 44 77 110 135 108 14 15 16 24 28 30 34 29 19 16 25 22 29 28 28 28 
31 33 36 40 28 29 20 27 31 49 66 87 127 103 
