P2
30 23
255
142 148 154 159 164 168 173 177 182 187 191 194 199 197 198 200 202 204 204 
206 207 208 208 205 203 200 196 190 183 158 130 135 139 143 147 152 156 160 
164 167 173 179 170 185 185 180 182 184 185 186 188 189 188 186 184 181 177 
174 161 119 132 136 139 143 147 150 153 157 160 166 164 118 49 90 155 178 178 
177 178 179 180 179 177 176 174 172 169 163 152 120 135 139 143 146 149 152 
156 161 163 173 77 20 58 49 38 126 177 182 182 184 184 182 181 180 177 175 174 
169 160 127 136 141 145 148 151 154 159 161 170 157 26 78 177 176 87 47 95 186 
188 185 185 184 183 181 178 176 174 169 166 134 137 142 146 150 153 157 159 
167 159 75 60 109 127 170 180 73 38 130 175 189 185 185 184 183 179 176 174 
171 169 141 138 143 147 151 155 158 163 156 138 29 78 101 107 157 184 130 33 
58 147 196 185 186 185 183 179 177 174 171 169 148 138 142 147 151 155 158 167 
139 79 24 66 77 122 159 177 173 26 68 186 190 188 188 184 182 179 177 174 172 
169 152 138 143 147 150 154 158 166 148 26 9 59 70 107 154 158 170 101 65 185 
192 188 186 185 183 179 176 174 170 167 155 138 143 146 149 152 156 160 156 
65 26 52 63 91 161 168 155 82 59 185 193 188 186 184 181 177 174 171 168 164 
158 137 141 145 148 150 154 155 167 137 23 29 45 80 152 177 171 55 58 196 190 
188 185 182 179 175 172 168 165 161 156 135 139 142 145 148 151 154 157 161 
77 11 35 61 136 173 177 73 122 203 186 186 183 179 176 173 169 165 161 157 152 
133 138 139 142 146 149 151 154 161 159 30 30 54 100 162 188 145 166 203 193 
183 178 176 174 171 166 162 158 153 149 133 136 138 140 144 146 149 152 154 
170 141 62 56 98 186 220 180 65 104 152 184 184 181 173 168 165 160 155 149 
145 131 134 136 138 139 142 145 150 166 136 62 35 71 98 188 187 88 51 40 46 90 
119 151 174 166 162 157 152 146 140 128 129 130 131 135 140 149 152 111 29 15 
22 32 54 74 49 48 54 45 34 47 58 58 119 167 160 155 149 141 136 109 121 121 
122 124 130 112 57 22 23 29 25 21 21 24 41 53 44 40 27 33 48 50 55 125 162 151 
146 138 131 23 31 31 30 25 34 28 24 28 23 26 25 26 28 32 40 45 36 37 25 25 30 
41 46 70 139 151 141 134 125 7 6 8 7 5 26 29 31 27 22 25 23 25 25 27 33 41 32 
36 26 20 22 30 39 48 94 146 138 129 117 10 11 12 10 19 31 27 27 28 22 25 21 25 
24 24 29 37 31 32 27 22 18 23 35 36 66 121 136 121 105 7 10 10 12 26 26 24 24 
26 21 24 20 25 24 22 27 35 30 30 26 23 15 23 29 36 56 87 128 110 93 7 9 12 18 
26 28 25 21 15 16 22 20 24 23 20 25 33 29 30 25 21 16 24 25 39 46 67 113 104 
86 11 12 12 19 24 27 28 24 13 13 20 19 23 21 17 25 31 26 28 24 18 16 23 24 37 
41 62 96 101 80 
