P2
30 23
255
140 146 152 156 162 166 170 175 180 186 191 193 198 205 204 201 199 204 207 
203 205 207 207 204 202 200 196 190 183 158 128 133 137 141 144 149 154 158 
162 167 170 176 164 125 97 79 75 98 146 184 189 187 187 185 184 181 177 175 
161 118 130 135 137 141 144 147 151 155 159 163 165 172 79 15 20 17 18 17 22 
93 169 178 175 175 173 171 168 163 151 118 133 137 140 144 147 150 154 158 162 
165 178 135 19 22 28 21 19 29 27 27 64 151 182 178 176 174 173 168 160 126 134 
139 143 146 149 152 156 161 165 171 165 65 10 17 20 19 16 31 28 24 53 131 185 
179 177 176 173 169 165 132 135 140 144 148 151 155 158 162 167 170 140 52 12 
18 21 42 36 24 62 50 26 88 170 180 177 175 174 171 168 139 136 141 145 149 153 
157 161 165 168 176 110 29 13 28 42 68 67 65 164 106 15 40 77 184 178 176 174 
171 169 146 136 141 145 149 153 158 163 166 173 163 45 21 16 31 63 92 111 127 
131 76 24 54 90 176 180 175 174 172 169 150 136 141 145 149 153 158 162 166 
174 161 31 13 11 14 16 19 46 20 20 42 34 83 156 179 179 175 173 170 167 154 
137 141 145 148 152 156 159 163 169 177 108 21 18 29 17 14 115 70 48 91 46 130 
186 180 177 174 170 167 164 156 135 140 143 146 150 153 156 160 165 171 182 
112 33 60 78 62 129 190 183 141 93 190 180 178 175 172 168 165 161 155 133 138 
141 144 147 151 154 157 162 167 169 181 73 42 95 90 110 188 197 150 170 184 
178 176 173 169 165 161 156 152 131 136 138 141 145 148 151 155 159 164 168 
178 175 78 65 80 109 153 169 185 188 176 176 174 171 167 162 158 153 148 131 
135 137 139 143 147 148 152 155 163 177 180 161 59 40 65 91 138 124 130 173 
185 180 172 168 165 160 155 149 144 129 132 134 137 139 142 145 152 164 162 
133 67 16 20 30 43 85 120 114 47 59 116 156 175 170 161 156 151 145 140 126 
126 128 131 135 138 146 142 92 53 23 13 16 24 37 31 65 121 109 41 35 35 60 92 
138 164 153 149 141 136 108 120 120 121 123 132 119 41 19 20 23 21 21 16 28 39 
76 103 49 35 35 30 45 49 68 140 155 144 137 130 23 31 31 31 26 29 36 24 28 24 
20 20 22 21 16 22 32 33 38 32 33 20 33 44 51 79 142 142 132 124 6 6 7 8 2 11 
28 26 25 26 20 22 21 23 22 23 27 35 34 28 29 19 23 31 38 53 94 141 126 115 9 11 
11 10 7 25 26 25 26 28 20 23 20 22 20 25 32 31 32 27 28 21 19 22 28 40 62 122 
120 102 7 10 10 11 18 26 25 23 20 26 19 24 20 21 20 24 32 28 29 28 27 24 19 16 
26 29 55 87 110 90 7 8 13 14 20 23 28 27 17 17 19 23 19 21 20 24 28 27 27 28 
28 23 19 16 22 33 50 61 100 83 10 11 12 14 22 24 29 31 26 17 16 22 18 21 20 24 
25 28 26 27 30 22 18 16 22 38 41 54 87 79 
