P2
30 23
255
138 145 150 154 159 164 169 174 180 184 188 190 189 191 192 193 195 197 197 
199 198 197 195 193 189 187 183 179 173 168 139 143 149 154 158 163 167 172 
177 182 185 188 193 194 190 191 192 193 194 195 195 195 192 189 186 183 179 
173 167 157 130 135 138 143 148 153 157 162 167 171 178 183 133 136 180 180 
186 186 186 187 187 186 183 180 177 173 169 163 152 116 108 113 117 120 124 
128 132 136 138 144 138 75 44 34 69 57 94 161 154 156 155 155 152 149 146 143 
139 135 121 96 112 115 119 123 127 130 133 136 139 145 62 8 15 19 29 23 37 122 
159 154 154 152 151 149 145 141 138 134 124 103 113 119 123 127 130 133 136 
137 147 110 17 19 22 17 25 39 40 44 125 163 156 155 154 151 148 144 140 137 
131 109 114 120 125 129 132 136 139 140 151 81 8 18 21 20 24 37 43 24 99 166 
157 157 155 153 150 146 141 137 135 114 116 121 126 131 134 138 142 144 157 
64 7 35 40 36 53 120 111 25 86 163 160 158 156 154 150 146 142 138 136 119 116 
122 127 132 136 140 144 152 107 39 12 35 60 92 141 199 170 36 54 138 166 159 
157 154 150 147 143 139 136 123 118 124 129 133 137 142 146 156 119 19 11 36 
60 91 169 106 154 42 46 151 167 161 158 155 151 146 142 138 136 126 119 124 
129 134 139 143 148 152 164 104 22 59 94 76 201 184 211 92 119 171 165 162 159 
155 150 145 141 138 133 127 118 124 129 134 139 144 148 153 158 165 66 62 109 
77 209 197 209 134 163 172 166 162 158 154 148 144 139 135 130 124 118 125 130 
134 139 144 149 154 159 165 130 70 75 80 190 196 169 163 178 172 168 163 157 
153 148 143 138 133 127 122 120 126 131 137 142 147 151 156 161 164 174 97 58 
85 197 219 182 182 174 172 168 163 157 152 148 142 137 132 126 120 122 128 132 
138 144 149 153 156 162 174 192 107 29 76 175 187 165 184 186 178 168 162 158 
152 147 141 136 131 123 116 122 127 133 138 144 149 157 171 174 141 87 58 34 
49 113 179 123 59 121 143 166 165 156 153 147 141 136 129 120 113 120 124 129 
135 144 163 153 115 56 8 20 53 53 51 142 227 79 14 21 33 54 128 164 150 148 
141 136 129 119 111 120 122 125 133 136 90 34 6 5 10 17 51 60 74 171 120 16 24 
23 26 23 41 130 156 146 142 137 129 118 109 105 109 110 116 57 3 12 17 15 15 
9 32 65 82 52 22 27 19 18 17 25 26 52 142 148 140 136 128 117 107 13 15 16 18 
16 20 19 20 17 16 14 9 15 21 23 23 24 16 18 14 17 25 29 88 148 137 134 126 115 
104 8 9 10 15 20 22 19 23 18 15 17 11 13 15 27 28 37 20 16 14 13 18 29 51 128 
137 129 123 112 101 9 11 14 18 21 23 17 20 23 55 62 39 38 57 30 62 33 22 14 13 
11 17 30 41 105 135 125 119 109 97 8 11 17 21 24 20 15 19 25 50 66 57 41 73 40 
70 29 21 15 12 12 19 27 41 84 130 121 114 104 91 
