P2
30 23
255
140 147 153 157 162 167 172 176 182 187 190 191 198 200 195 195 198 200 201 
201 202 200 198 195 193 190 186 182 175 170 141 147 151 156 161 166 170 175 
179 185 188 198 170 169 195 200 200 196 197 198 198 197 195 192 190 186 182 
176 170 159 131 136 140 145 150 154 159 164 168 173 181 145 89 62 118 132 144 
190 187 189 189 189 185 182 179 175 170 165 154 117 110 115 120 122 126 130 
134 137 139 151 95 18 22 18 32 31 33 140 165 157 158 157 155 152 149 144 140 
137 123 98 114 118 122 126 129 132 135 137 146 117 23 20 22 20 25 35 37 74 141 
159 157 156 155 152 148 144 140 136 128 105 116 120 126 130 132 135 138 139 
152 76 10 16 21 19 19 36 41 30 76 163 160 158 157 154 151 147 143 139 134 112 
117 123 128 131 134 138 140 144 150 56 6 26 33 25 30 47 76 34 61 152 163 160 
158 155 152 148 144 140 138 117 118 124 129 133 137 140 144 148 144 44 10 36 
57 62 88 163 185 51 55 148 165 161 159 157 154 149 145 141 139 123 119 125 130 
134 138 142 148 148 69 26 11 29 56 98 165 170 169 60 29 114 169 162 160 158 
154 149 145 141 139 126 120 126 130 135 139 144 149 159 122 19 14 45 70 70 175 
140 171 83 38 136 173 163 161 158 154 149 144 140 138 129 121 127 132 136 140 
146 151 155 167 96 22 67 105 71 182 245 248 126 112 172 170 165 162 158 153 
148 143 139 136 130 121 127 132 136 141 146 151 156 164 151 46 64 92 76 175 
255 239 137 163 175 170 166 161 156 151 147 141 137 133 127 121 127 132 137 
141 147 152 157 161 167 119 56 78 77 169 249 214 162 183 175 172 167 161 156 
151 145 140 136 130 125 123 128 134 139 145 149 154 159 162 166 177 86 61 84 
111 198 209 181 178 175 172 166 161 156 150 145 139 135 128 122 125 130 134 
140 146 151 155 159 171 181 180 84 41 131 233 213 168 187 189 179 169 165 160 
155 150 144 139 133 125 119 125 130 135 139 146 154 168 173 152 96 58 48 31 108 
224 198 112 64 131 157 175 168 159 156 149 143 138 131 122 115 122 126 131 137 
152 155 110 62 19 0 29 57 45 54 136 205 84 14 25 42 74 135 166 153 150 144 138 
132 122 113 123 126 127 138 106 37 7 4 10 12 16 51 58 72 163 122 21 25 22 28 
24 47 141 159 149 144 139 132 120 111 105 109 112 102 21 8 16 16 12 12 8 32 71 
88 65 25 29 21 19 22 28 25 63 150 150 142 138 131 119 109 12 14 15 14 17 19 16 
16 13 12 14 9 20 25 23 26 27 17 20 15 20 28 30 96 152 139 136 128 117 106 9 9 
12 16 19 19 17 20 14 16 16 12 10 14 26 25 36 20 18 13 15 21 31 53 130 139 131 
125 115 103 9 11 16 18 21 21 17 18 19 59 68 39 38 43 33 55 40 26 16 13 12 18 
28 41 101 139 128 122 111 99 8 12 18 22 24 19 15 16 21 51 88 50 51 65 40 79 28 
25 17 12 12 17 29 38 83 133 123 116 106 93 
