P2
30 23
255
139 145 150 155 160 165 170 174 180 185 188 190 190 191 194 194 196 198 199 
199 199 198 196 193 191 188 185 180 174 169 139 144 149 154 159 163 168 172 
177 182 186 187 191 194 190 189 192 194 194 195 196 195 192 189 187 184 180 
174 168 160 131 137 141 145 150 155 160 164 169 175 177 189 167 156 187 193 
192 188 188 189 190 189 186 183 180 176 171 165 155 121 110 115 118 121 125 
130 133 137 140 143 151 119 71 46 89 94 113 161 156 159 159 157 155 152 149 
145 141 137 123 97 112 115 119 123 126 130 132 136 137 148 109 18 16 17 27 24 
34 136 161 154 154 152 151 149 145 141 138 133 124 103 114 118 123 127 130 133 
136 138 143 138 36 16 22 19 22 37 39 58 133 161 157 156 154 151 148 144 140 
136 131 109 114 120 125 129 132 136 139 140 151 113 14 15 21 20 21 32 41 24 94 
165 158 158 155 152 149 145 142 138 135 114 116 122 127 131 134 138 142 143 
161 95 8 26 42 34 46 97 110 28 81 164 160 158 157 154 150 147 143 139 136 120 
117 123 127 132 136 140 144 151 128 61 13 27 54 87 132 194 180 44 61 145 165 
159 158 155 151 147 143 139 136 123 118 123 128 132 137 142 146 155 129 30 9 31 
59 83 166 125 162 52 35 143 169 161 158 156 151 146 142 138 136 126 119 125 
129 134 139 143 148 152 166 113 21 50 91 69 180 205 227 91 103 171 166 162 160 
155 151 145 141 137 134 127 118 124 129 134 139 144 149 154 157 167 66 49 93 
71 183 253 234 128 160 173 167 163 159 154 149 144 139 136 131 125 119 125 130 
135 139 145 150 154 159 166 129 56 76 80 172 251 213 146 181 171 169 163 158 
153 148 143 138 134 128 123 121 126 131 137 142 147 152 156 161 164 175 100 
56 79 149 216 201 177 176 172 169 164 158 153 148 142 138 132 126 120 122 127 
132 138 144 149 154 157 161 170 194 119 29 66 152 181 170 188 185 177 167 163 
157 152 147 141 137 131 124 118 123 128 133 138 145 150 155 167 177 159 112 
68 33 43 101 171 131 70 133 152 171 165 157 153 147 140 136 130 121 114 120 
125 130 136 143 159 164 142 84 20 23 53 52 49 131 221 82 12 23 39 65 136 164 
151 148 141 137 130 119 111 118 122 125 130 144 122 57 16 3 6 24 54 57 71 171 
126 15 24 22 25 22 47 136 156 146 142 137 129 118 110 110 115 115 122 82 11 8 
15 16 14 9 44 69 76 52 22 25 19 18 17 26 26 56 144 148 140 136 128 117 107 18 
20 21 23 16 16 20 19 16 16 12 11 20 23 23 23 22 15 18 13 18 26 29 89 149 137 
133 125 115 105 7 8 9 13 20 22 20 23 17 13 11 10 12 17 26 28 33 18 16 14 13 19 
29 50 127 138 130 124 112 101 9 11 13 17 21 24 17 20 21 47 48 33 41 58 31 60 
28 21 14 13 11 17 30 40 103 136 126 120 110 97 8 11 15 19 22 22 13 16 25 50 55 
51 48 73 41 68 25 21 15 11 12 18 26 39 83 131 121 115 105 92 
