P2
30 23
255
148 154 160 165 170 175 178 184 190 196 201 204 205 212 216 209 210 211 217 
215 213 215 215 213 211 209 205 199 192 166 136 140 144 148 153 158 162 167 
171 176 180 182 188 149 117 80 82 86 133 180 200 196 196 194 192 189 186 184 
169 125 138 141 144 149 152 156 159 164 168 172 173 181 142 31 21 21 19 20 19 
52 153 192 186 184 182 179 176 172 159 126 140 144 148 153 155 159 163 167 171 
175 179 183 64 14 31 27 19 27 33 25 46 112 184 188 184 182 181 177 168 133 141 
146 151 155 158 161 165 169 174 178 184 126 22 16 20 24 17 28 34 24 35 86 173 
192 185 184 181 177 174 140 142 148 152 157 160 164 167 171 175 181 167 94 18 
17 20 37 44 27 49 67 33 46 146 191 186 184 182 178 177 148 143 148 153 158 162 
165 169 174 176 186 152 53 16 21 38 63 77 59 137 162 28 36 49 142 196 183 183 
179 178 155 144 149 153 158 162 167 172 175 178 188 82 22 17 21 39 69 101 128 
149 122 35 38 66 129 196 183 182 180 177 159 144 149 154 158 162 167 171 175 
179 186 64 11 12 15 14 7 36 34 16 31 31 43 126 173 189 183 181 179 176 163 144 
149 153 157 160 164 168 173 177 187 138 40 15 32 29 17 99 107 21 69 53 60 161 
195 185 182 178 176 173 165 143 148 152 154 159 162 165 170 174 178 194 153 
46 47 96 81 105 187 135 179 69 138 196 186 184 180 176 174 170 164 140 145 149 
152 156 160 163 166 171 175 178 192 117 24 88 88 96 186 161 156 129 187 189 
184 181 178 174 170 165 160 139 143 145 149 153 157 160 163 168 174 177 186 
189 105 61 64 123 151 130 162 198 188 184 183 179 175 171 166 162 157 138 142 
145 148 152 155 157 161 165 170 182 191 189 94 45 73 114 129 124 141 180 193 
189 181 176 173 168 163 158 153 137 140 142 144 147 151 154 159 172 177 158 
97 31 17 35 66 137 191 151 62 61 117 161 182 180 169 165 160 153 148 134 135 
136 138 142 146 153 160 120 73 35 14 14 22 32 43 125 167 117 52 40 36 62 93 140 
172 162 157 149 143 115 128 128 130 131 138 140 66 24 20 25 21 21 15 20 35 108 
114 58 39 39 31 46 51 66 138 164 152 144 137 24 34 33 33 29 31 46 26 28 27 22 
20 21 20 17 21 32 36 40 34 37 24 32 46 54 74 142 151 139 132 7 7 8 9 2 10 29 
29 26 27 21 21 22 23 23 24 27 36 36 30 32 23 24 32 39 53 87 144 134 123 10 11 
12 11 7 25 28 26 26 28 21 23 23 23 22 26 33 32 33 29 30 25 21 24 28 41 57 120 
128 108 7 10 10 12 18 27 27 24 22 28 21 25 24 23 23 24 32 27 31 28 30 26 23 17 
25 30 52 84 113 96 8 9 14 15 22 24 27 28 18 19 20 24 22 22 23 24 30 26 29 28 
31 24 23 15 23 32 52 58 99 89 11 12 13 14 23 25 29 33 27 16 17 22 21 22 24 25 
26 26 28 28 33 25 20 17 22 37 43 54 86 84 
