P2
30 23
255
140 146 152 156 161 166 171 175 180 186 189 191 192 193 193 195 198 199 199 
200 200 199 197 194 192 189 185 180 175 169 140 145 150 156 160 164 169 173 
178 184 187 190 191 194 197 192 194 196 196 197 197 196 194 191 189 185 180 
175 169 159 130 135 140 144 149 154 158 163 168 173 177 180 181 166 145 189 
189 186 187 188 188 187 185 181 178 175 170 164 154 118 110 114 118 121 125 
129 133 137 139 143 144 136 83 39 27 106 153 160 158 157 157 156 153 151 148 
144 140 136 123 97 112 116 120 125 128 131 134 138 140 145 137 73 29 58 70 37 
84 138 149 158 156 154 153 151 147 143 139 136 127 105 115 119 124 128 131 135 
137 140 141 157 106 14 61 140 211 111 44 80 154 162 158 157 155 153 149 146 
142 138 133 111 115 121 126 130 133 137 140 142 151 125 40 49 87 117 192 205 
118 40 114 163 160 159 157 154 151 147 143 139 136 116 117 123 128 132 135 139 
143 145 157 92 9 67 91 111 193 233 169 15 79 164 162 160 158 156 152 148 143 
140 138 122 118 124 128 132 137 141 145 151 150 47 14 62 67 108 197 236 203 
32 75 161 165 161 159 156 152 148 144 140 138 126 119 125 129 134 138 143 147 
156 140 58 23 58 55 103 160 207 215 54 90 171 166 163 160 156 152 148 143 139 
137 128 120 125 130 135 139 144 148 155 152 54 26 55 53 98 170 187 198 100 99 
179 166 164 161 156 151 146 142 139 135 129 119 125 131 135 139 144 149 152 
168 131 21 35 53 101 197 217 156 46 154 176 167 164 160 156 150 146 140 137 
132 126 120 125 130 135 140 145 150 154 163 146 23 28 52 97 202 222 146 44 173 
174 169 165 160 154 149 144 139 134 129 124 121 127 132 138 143 148 152 156 
157 173 98 30 54 83 192 221 154 106 183 171 169 164 159 154 149 143 139 134 
127 121 123 128 133 139 145 148 152 161 174 173 124 56 60 79 190 245 190 141 
185 183 173 165 158 154 148 142 138 132 125 118 123 128 134 138 144 157 165 
153 105 40 35 67 72 105 227 255 178 20 79 113 147 162 160 153 148 142 137 130 
121 114 121 125 129 136 149 127 71 26 6 4 33 62 72 106 215 248 85 22 21 25 37 
74 158 154 148 142 138 131 121 112 120 123 126 134 70 14 7 13 16 15 12 43 64 
106 148 98 27 29 20 28 32 25 81 156 148 143 137 131 119 110 105 108 115 69 10 
18 20 18 14 16 14 15 29 47 36 24 37 27 18 20 25 28 32 105 153 140 137 129 117 
108 13 14 17 15 22 20 20 20 15 11 13 11 9 10 25 26 31 22 18 17 17 25 30 48 130 
142 134 127 116 105 8 10 16 20 24 20 17 20 15 35 31 22 20 20 30 31 50 39 19 15 
12 21 28 35 82 139 130 124 113 102 9 15 19 22 24 20 15 15 22 64 75 53 47 59 27 
68 48 37 21 13 11 16 24 36 52 117 128 120 110 98 10 19 23 23 25 17 14 14 15 53 
77 55 43 63 42 75 47 31 22 10 11 16 22 35 44 93 125 114 105 92 
