P2
30 23
255
141 147 153 157 162 167 172 176 183 187 190 192 195 195 195 196 199 200 201 
202 202 200 198 196 193 190 186 182 176 171 141 146 151 157 161 166 170 175 
180 185 188 194 187 192 196 198 197 196 198 198 198 197 195 192 190 186 182 
176 170 160 132 137 141 146 151 156 160 165 170 174 184 170 105 102 161 159 
176 191 188 190 190 190 186 183 180 176 171 166 155 119 111 116 119 123 126 
130 134 138 139 152 114 39 33 23 46 36 65 160 159 159 159 158 155 153 150 145 
141 137 123 98 114 118 122 126 129 132 135 137 144 128 30 13 17 19 30 31 35 102 
156 157 156 155 154 152 148 144 140 136 127 105 116 120 125 130 132 135 138 
139 152 79 11 20 22 18 20 39 41 34 109 167 158 158 157 154 150 147 143 139 134 
111 117 122 128 131 135 138 140 143 151 61 7 21 24 22 24 37 53 27 85 165 161 
160 158 155 152 148 144 140 138 117 118 124 129 133 136 140 144 148 151 44 9 37 
47 42 62 131 140 36 72 158 164 161 159 157 153 149 145 141 138 122 118 125 130 
134 138 142 147 149 82 29 12 34 59 99 151 191 179 48 41 133 170 161 160 158 
154 150 145 141 139 126 120 126 131 135 139 144 148 159 113 16 14 40 63 84 175 
122 168 61 49 150 171 164 161 158 154 149 144 140 138 129 121 127 132 136 140 
145 150 155 167 95 22 63 98 71 188 225 237 109 128 173 169 165 162 158 153 148 
143 139 137 130 121 127 132 136 141 146 151 155 163 157 53 61 94 73 184 255 
229 138 170 174 170 165 161 157 151 147 141 137 133 127 121 127 132 136 141 
147 152 157 161 168 127 58 81 82 175 252 220 167 183 174 171 166 161 156 151 
146 140 136 130 125 123 128 134 139 144 149 154 159 163 166 178 91 61 83 153 
215 207 182 178 175 172 166 161 156 150 144 140 135 128 122 125 130 134 140 
146 151 155 158 167 180 189 96 33 71 153 190 169 189 188 178 169 165 161 155 
149 143 138 133 126 119 125 130 135 140 146 152 163 175 167 119 70 55 35 46 114 
189 127 66 138 162 177 168 159 156 150 143 138 132 123 115 122 127 131 137 148 
164 139 90 36 1 25 57 53 56 143 224 85 13 26 47 81 138 166 153 151 144 138 132 
122 113 122 125 127 136 131 69 18 3 8 12 17 51 60 77 176 124 19 25 22 28 23 50 
144 158 149 144 139 131 121 112 108 112 113 117 44 3 15 18 14 14 10 30 68 86 
57 25 29 20 18 21 29 26 63 149 149 142 138 131 119 109 14 16 17 18 16 19 18 18 
16 14 15 9 16 23 24 26 25 17 19 15 19 29 30 94 152 139 136 129 117 106 9 9 11 
15 20 21 18 22 16 17 19 13 12 15 27 26 36 20 17 14 14 21 30 51 128 140 132 126 
115 103 9 11 14 17 21 22 16 19 16 54 72 44 40 49 33 59 36 24 15 14 11 18 28 39 
97 138 128 122 111 99 8 12 16 21 23 21 13 18 15 43 87 56 48 70 42 79 28 23 16 
12 12 17 28 37 79 132 124 117 106 93 
