P2
30 23
255
138 143 149 154 159 163 169 174 179 184 187 188 189 191 193 195 197 198 198 
199 200 201 200 199 198 199 196 187 182 176 138 143 147 151 155 160 165 170 
175 181 185 186 186 188 190 192 193 195 196 196 195 194 193 192 190 187 187 
183 177 171 134 139 143 147 152 157 161 166 172 178 182 183 186 191 189 187 
189 192 193 194 194 193 191 188 186 180 178 164 158 152 117 122 127 130 134 
139 143 147 152 157 161 173 162 149 170 179 180 176 178 180 180 178 176 173 
170 167 155 116 144 143 117 121 125 129 132 135 138 141 145 148 157 111 69 51 
80 106 115 163 163 163 163 161 159 156 153 149 136 108 143 146 119 124 128 133 
136 138 141 144 147 159 94 19 19 20 22 26 29 131 177 165 166 164 162 159 156 
153 144 111 141 149 120 125 130 135 137 140 143 146 155 133 33 16 22 21 20 31 
28 59 147 170 166 166 163 161 159 155 148 112 137 153 121 127 131 136 138 142 
145 148 156 102 16 17 19 19 22 24 30 25 89 176 166 167 164 161 158 154 151 115 
131 154 121 127 131 136 139 143 147 149 163 95 11 38 47 40 50 70 79 24 84 174 
168 168 164 160 157 154 152 118 125 153 122 128 132 136 138 142 145 154 125 
57 14 35 67 105 134 168 145 30 53 132 173 166 163 160 157 153 151 121 119 152 
122 127 132 135 138 141 144 154 128 28 8 16 15 37 59 47 59 22 36 143 172 165 
162 158 155 151 150 124 113 149 120 126 130 134 137 140 144 145 162 108 15 35 
20 40 102 24 65 49 87 168 167 164 160 156 152 148 147 126 107 143 120 124 128 
132 136 139 143 146 150 152 39 50 84 76 165 171 161 92 152 171 165 162 158 154 
150 145 143 127 103 136 120 124 127 131 136 139 141 143 147 158 119 53 82 85 
142 200 154 137 176 163 163 160 156 151 148 143 140 128 100 129 120 123 126 
129 133 136 143 153 154 149 117 47 54 72 121 155 130 152 173 172 163 157 153 
149 145 140 136 127 98 121 117 121 123 126 131 140 127 89 54 27 4 18 31 61 114 
117 52 21 65 110 151 160 150 147 142 137 132 124 96 110 119 118 119 123 123 
56 20 6 4 7 9 28 26 39 78 108 45 10 14 17 36 116 154 143 141 136 128 121 96 102 
83 99 99 104 50 5 12 14 12 11 7 25 38 39 91 95 15 13 17 21 16 39 136 144 137 
132 123 117 95 95 9 16 16 18 14 16 14 12 11 11 7 22 45 46 80 35 8 12 12 15 20 
19 70 143 133 128 117 111 93 87 9 8 9 13 14 14 13 13 12 10 8 11 56 67 43 15 11 
10 10 12 14 21 26 110 135 122 112 101 86 78 8 9 11 15 14 13 12 14 11 10 11 4 11 
23 14 10 9 10 9 10 12 18 20 68 129 116 102 88 66 43 7 9 13 13 15 14 10 13 9 30 
31 22 8 7 13 15 14 9 9 8 10 15 22 39 107 110 93 77 57 28 10 12 14 14 15 15 10 
12 11 33 35 35 21 17 35 22 14 9 9 8 9 15 21 34 93 103 87 70 55 31 
