P2
30 23
255
177 184 190 196 202 206 210 215 221 227 231 235 235 240 228 221 238 213 224 
247 244 246 245 243 241 239 235 229 222 195 163 169 174 178 183 188 193 197 
202 207 211 211 221 189 85 77 114 121 149 193 227 219 224 224 222 220 217 213 
199 151 166 170 174 178 182 187 190 195 199 204 205 215 184 79 31 33 32 25 38 
70 132 184 211 214 212 209 206 202 189 152 168 173 178 182 186 189 194 199 203 
207 213 198 83 30 36 31 34 31 34 42 41 147 229 218 215 212 212 207 198 160 170 
175 181 185 188 192 197 202 206 210 214 126 27 35 33 29 30 25 29 48 39 73 157 
200 218 214 212 208 204 167 172 177 183 187 190 195 199 203 208 213 209 79 22 
34 33 34 29 30 31 36 44 29 60 163 220 213 212 209 208 176 172 178 183 188 192 
197 202 206 209 213 211 70 19 25 24 29 32 39 34 25 29 40 104 177 217 214 213 
210 209 183 172 178 183 188 193 199 203 207 211 214 135 52 16 18 13 24 31 22 
24 35 37 55 82 162 230 213 212 210 208 188 173 178 183 188 193 199 203 207 213 
203 66 16 18 23 22 23 26 22 32 39 43 42 42 64 129 221 209 209 206 192 173 178 
183 187 191 196 201 204 218 171 42 22 13 18 29 26 24 31 25 26 35 47 36 45 123 
219 207 206 203 195 172 177 181 185 189 193 198 201 214 176 71 35 18 14 20 26 
20 26 31 26 30 37 36 120 166 213 205 203 200 193 169 174 178 182 186 191 195 
197 210 172 55 49 33 11 14 21 16 22 32 54 52 49 109 141 178 212 203 200 195 
189 168 172 175 179 183 188 191 195 201 201 182 156 130 60 16 33 30 28 37 57 
97 97 163 203 209 205 201 196 191 185 167 171 174 176 181 185 188 193 196 201 
218 230 223 91 24 37 54 48 53 143 171 202 212 209 206 203 198 193 186 181 164 
168 170 174 176 181 185 189 204 211 188 115 45 30 58 50 74 106 112 152 111 172 
213 216 206 200 195 189 182 176 161 162 163 167 171 176 184 191 150 97 46 15 
17 19 57 57 100 174 173 100 44 57 100 155 199 201 191 186 177 171 140 155 155 
156 159 166 167 79 30 24 27 27 24 15 26 46 95 159 113 55 48 46 51 72 101 170 
194 181 172 165 30 41 41 41 36 39 55 29 33 33 25 23 23 21 16 22 68 93 48 43 46 
38 40 64 74 96 173 180 166 157 9 8 11 11 4 13 35 34 30 31 23 24 24 25 25 28 33 
41 43 40 41 32 31 44 59 69 119 172 161 148 12 15 15 15 9 28 33 30 29 32 24 26 
26 28 26 30 39 40 42 36 39 31 27 34 41 56 80 137 156 132 9 13 13 16 22 32 31 
28 26 31 25 29 26 29 27 27 39 32 39 34 39 30 29 29 33 47 59 104 142 116 10 11 
17 19 26 30 32 31 25 20 21 29 24 30 28 28 34 31 35 35 40 30 31 22 27 41 48 87 
117 110 14 15 16 17 26 29 32 36 32 19 16 27 23 29 29 28 29 31 32 36 41 28 30 
19 29 32 54 71 96 106 
