P2
30 23
255
142 148 154 158 163 167 171 176 180 187 191 195 197 198 199 198 200 208 204 
204 207 208 207 205 202 200 196 190 182 158 130 135 139 143 147 151 154 158 
162 167 171 175 177 179 180 187 185 158 182 190 186 188 187 185 183 180 177 
173 161 119 132 136 139 142 146 150 152 156 160 164 168 170 172 171 177 111 
64 30 77 164 179 177 177 175 173 171 168 163 151 120 135 139 142 146 149 152 
156 160 163 168 172 174 173 186 140 13 53 81 39 51 162 186 179 179 177 174 173 
168 160 127 137 141 145 149 151 154 158 162 166 171 173 177 182 152 49 53 126 
187 140 49 82 149 184 179 177 176 174 169 165 134 138 143 147 150 153 157 160 
164 168 172 177 170 165 79 31 127 108 158 181 138 24 99 192 181 178 175 173 
170 168 141 138 143 147 151 155 159 163 167 170 173 180 165 96 33 62 117 100 
160 185 164 37 78 125 187 177 176 174 171 169 147 138 144 148 152 155 160 164 
169 172 174 184 155 25 8 66 85 104 159 182 187 47 36 114 187 177 176 174 172 
168 151 138 143 147 151 155 160 165 169 173 174 183 164 50 22 63 64 94 137 155 
184 59 66 183 182 178 175 173 170 167 154 138 143 147 151 155 160 163 167 171 
174 176 193 89 22 53 59 92 147 149 146 88 71 182 180 176 173 170 167 164 157 
136 141 146 149 153 157 161 164 167 171 173 187 124 15 28 56 95 159 168 123 
21 108 188 176 175 171 167 164 161 155 134 139 143 147 152 155 158 161 164 167 
171 176 183 40 23 55 92 163 172 113 23 152 183 174 172 168 165 161 156 151 133 
138 140 145 149 153 155 158 161 165 169 172 191 119 45 59 76 145 168 116 126 
188 173 174 170 166 162 158 153 148 132 137 140 143 147 151 152 155 157 160 
170 182 160 107 60 71 77 145 198 159 142 183 180 172 166 164 159 155 149 145 
130 134 138 140 142 146 149 150 160 170 161 99 30 12 49 88 96 188 212 110 46 
86 152 173 171 161 156 151 145 140 127 129 132 135 138 142 145 153 136 91 46 
23 28 31 22 43 72 109 80 57 53 32 56 93 136 159 155 148 141 136 109 122 124 
125 127 130 142 95 30 27 29 30 30 30 28 23 26 29 44 57 44 37 38 55 60 107 154 
144 137 131 22 31 31 31 28 28 53 35 28 36 33 25 29 29 29 30 32 40 43 45 40 33 
27 42 53 56 116 145 132 124 7 7 8 9 3 8 27 32 31 29 33 24 29 25 27 29 30 33 35 
39 38 31 23 29 37 44 72 124 129 115 10 11 12 12 6 16 30 27 28 27 30 23 29 24 
26 29 30 29 32 37 36 29 23 23 27 37 50 91 123 102 7 10 10 13 16 22 30 28 24 24 
23 21 26 23 26 28 27 24 31 34 33 26 24 19 21 35 38 73 104 92 8 8 13 15 19 24 
25 32 27 19 12 17 24 22 26 27 24 22 33 32 32 26 24 17 24 27 43 60 83 86 11 12 
13 13 20 26 24 29 29 24 13 15 22 21 25 24 19 23 33 29 31 26 20 18 23 29 45 46 
76 82 
