P2
30 23
255
140 146 152 156 161 166 171 175 181 185 187 192 192 197 197 196 199 197 199 
200 200 199 197 195 192 189 185 181 175 170 140 145 150 155 160 164 169 173 
178 181 192 181 116 115 170 185 183 197 195 197 197 196 194 191 189 185 181 
175 169 160 131 136 140 144 149 154 159 163 166 181 138 61 52 31 62 71 58 155 
193 186 188 188 185 182 179 175 170 164 154 118 110 115 118 121 125 129 133 
136 143 125 26 10 12 17 30 33 21 73 158 159 156 156 154 151 148 144 140 136 
123 98 112 117 120 124 128 131 134 136 144 57 15 22 23 19 25 34 41 47 84 148 
157 154 153 151 147 143 140 135 127 105 114 120 124 128 131 134 136 141 132 
34 14 14 21 15 16 36 42 39 35 128 163 156 155 153 149 146 142 138 133 111 116 
121 127 131 134 137 138 148 116 20 9 27 24 24 28 32 64 47 31 105 164 158 157 
154 151 147 144 140 137 116 117 123 128 132 135 139 141 151 106 15 13 44 45 40 
54 107 165 85 26 91 157 161 158 155 152 148 144 140 138 122 117 123 128 133 
137 140 151 119 43 20 10 39 62 89 131 183 214 112 16 66 145 165 158 156 153 
149 145 140 138 126 119 125 129 134 138 143 147 154 77 4 16 28 21 45 101 51 67 
90 31 73 161 164 160 157 153 148 144 140 137 129 120 126 130 135 140 144 148 
156 151 60 23 53 35 28 143 100 108 138 79 139 169 163 161 157 152 147 142 139 
136 129 120 125 131 135 139 145 150 153 165 134 41 72 88 60 186 253 247 176 
128 169 168 164 160 155 150 145 141 137 132 126 120 125 131 135 140 146 151 
155 161 160 102 57 80 72 170 255 233 164 172 175 170 165 160 155 150 144 139 
135 129 124 122 127 132 138 143 148 153 157 160 168 166 71 66 71 157 249 228 
186 177 172 170 165 159 155 149 144 139 134 128 122 124 129 133 139 145 149 
153 160 174 177 162 74 53 87 120 206 193 159 186 183 173 164 159 155 148 143 
138 132 125 119 124 129 134 138 144 158 166 159 121 62 40 41 39 97 214 225 128 
36 85 116 151 164 160 154 149 142 137 131 122 115 121 126 130 136 150 126 69 
31 6 0 29 53 31 79 206 204 119 19 22 23 39 76 159 154 149 143 138 131 121 113 
121 124 127 135 70 11 4 8 12 10 14 46 50 59 151 168 45 20 21 26 30 24 86 157 
148 143 138 131 120 111 107 110 117 75 7 14 15 13 10 10 7 25 50 68 86 43 26 23 
18 18 25 27 32 108 154 140 137 129 118 108 13 14 17 13 16 15 14 13 11 12 12 10 
20 31 23 24 31 19 17 15 17 24 29 50 134 142 134 127 116 106 8 9 14 16 18 15 14 
16 11 11 11 9 8 9 25 20 32 19 16 15 12 19 26 34 86 140 129 124 114 103 8 12 16 
17 20 15 16 14 20 55 52 33 27 30 32 43 47 30 16 13 11 16 22 34 57 125 128 120 
110 98 8 15 18 20 22 13 18 12 27 54 81 49 45 62 29 77 37 21 18 11 11 14 21 33 
46 107 125 115 105 92 
