P2
30 23
255
179 187 193 199 205 209 213 217 222 227 233 237 240 237 240 240 242 244 244 
245 247 247 247 245 242 240 237 230 223 197 164 171 176 180 186 190 195 199 
203 211 207 211 198 189 207 225 220 224 227 227 229 230 228 227 224 221 218 
215 201 153 167 172 175 180 185 189 192 195 204 150 80 99 87 131 146 178 219 
199 217 220 220 219 218 217 214 211 208 204 191 153 171 176 180 184 188 192 
195 205 167 64 23 33 23 28 39 70 120 179 227 223 224 223 222 221 218 215 214 
209 200 162 171 177 182 187 190 193 203 185 74 30 30 31 29 28 33 44 47 127 225 
227 225 224 223 221 219 217 214 209 206 170 173 179 184 188 192 197 198 102 
37 29 24 25 23 24 38 37 42 39 128 226 226 225 225 224 219 216 214 211 210 178 
173 180 185 189 192 203 177 47 28 31 31 24 20 22 37 40 28 31 70 210 229 226 
226 224 220 217 215 212 211 186 173 180 185 190 192 205 151 29 28 29 27 27 27 
20 20 29 36 37 89 201 237 226 226 223 220 217 215 212 210 191 174 179 184 189 
192 203 135 25 21 25 23 23 23 25 25 34 44 36 44 124 210 228 225 223 220 216 
213 211 208 194 174 179 183 187 193 186 105 25 17 17 27 17 20 33 37 39 42 31 
35 21 102 236 222 221 218 214 211 208 204 197 172 177 181 183 191 172 55 16 23 
23 21 20 23 30 27 39 44 32 35 43 133 232 220 219 215 212 209 206 202 195 170 
174 177 180 186 170 65 21 20 27 18 18 22 21 17 30 40 24 34 116 162 216 220 216 
212 210 206 202 197 191 167 172 174 177 182 182 76 20 10 18 20 15 17 26 32 47 
44 36 122 156 169 225 216 214 210 207 203 198 193 187 167 170 173 174 185 156 
92 65 35 15 16 15 18 26 40 94 73 69 140 208 232 220 215 212 209 205 200 195 
189 182 164 167 169 172 175 178 170 161 154 86 21 29 29 32 43 104 124 88 72 107 
162 200 222 216 206 203 197 191 183 177 161 161 163 166 170 180 192 172 117 
37 23 39 33 55 112 143 158 85 51 47 57 82 130 175 211 199 194 188 179 172 140 
155 154 156 161 158 93 33 18 15 18 39 42 145 159 153 113 52 46 46 46 61 72 78 
162 202 190 184 174 167 31 41 41 40 38 44 22 25 24 18 16 20 61 160 142 127 55 
41 41 41 31 49 65 65 88 172 190 179 169 160 8 8 11 8 15 33 28 26 20 17 19 16 
22 63 97 57 35 41 37 37 26 36 44 54 68 111 179 175 164 151 12 14 15 14 30 31 
26 26 22 18 22 22 21 24 35 37 38 37 36 36 26 28 34 39 57 74 141 173 154 136 
8 13 12 20 32 26 24 26 25 20 26 25 27 23 34 34 35 33 37 35 28 26 28 33 48 57 
105 155 144 120 10 11 16 27 30 28 25 23 24 23 26 25 29 23 33 32 33 29 39 34 30 
27 21 30 38 53 84 125 137 110 14 15 16 27 27 31 30 24 19 22 25 24 31 25 30 29 
32 29 38 36 27 28 20 30 32 58 66 104 131 104 
