P2
30 23
255
178 186 193 198 203 208 213 217 223 228 233 236 237 240 243 242 243 241 244 
244 246 246 246 244 242 240 237 231 223 197 164 170 176 180 185 191 195 199 
204 208 213 214 220 211 200 215 198 199 218 228 227 229 227 226 224 222 219 
215 201 153 167 172 175 180 185 189 192 197 201 206 206 214 186 78 72 97 101 
160 170 218 216 207 218 216 214 211 208 203 191 153 170 175 180 184 188 191 
197 201 205 208 216 195 96 29 33 34 23 38 62 119 172 199 222 219 217 214 213 
208 200 162 171 177 182 187 190 195 200 204 208 213 212 103 32 33 33 36 31 31 
38 47 80 210 226 219 218 216 214 209 206 169 173 178 184 189 193 197 201 205 
209 217 136 31 32 29 23 30 27 29 38 43 54 136 215 223 218 216 213 210 209 178 
174 179 185 190 194 199 203 207 212 209 98 24 33 30 29 26 21 26 44 42 35 36 127 
222 219 216 214 211 210 184 174 179 185 190 195 200 205 209 214 208 70 21 31 
30 32 25 23 23 32 38 25 57 137 212 220 216 214 211 210 189 174 180 185 189 195 
200 204 209 216 170 46 23 22 27 23 29 35 28 20 29 38 79 121 219 220 214 212 
210 208 193 174 179 184 188 193 198 202 206 213 104 16 20 14 19 28 23 24 26 30 
37 47 35 58 132 210 213 210 208 204 196 173 178 183 186 190 196 199 207 188 
49 16 17 19 17 23 21 19 33 39 41 37 28 34 31 182 217 207 205 201 195 171 175 
180 184 188 192 195 204 185 76 44 11 21 26 19 19 24 25 29 38 42 26 68 121 195 
212 204 201 196 190 169 174 176 180 185 189 192 199 185 73 27 10 12 25 19 17 
24 23 19 28 40 44 102 144 196 208 201 197 192 187 168 172 175 177 182 186 189 
198 173 123 116 68 24 13 19 15 19 29 47 50 62 98 163 171 211 203 199 194 188 
182 166 169 171 174 177 182 185 192 208 205 143 60 34 16 20 20 26 29 58 93 57 
133 206 224 207 201 196 191 183 178 163 163 164 168 172 177 189 185 135 83 34 
14 21 24 30 40 40 47 114 84 51 64 92 152 192 203 193 187 179 172 141 156 156 
158 160 171 146 57 24 22 22 21 17 16 37 55 69 101 127 41 48 42 52 74 95 177 
194 182 174 166 31 42 42 41 36 42 45 25 33 27 19 20 17 13 29 63 118 134 65 34 
48 31 45 65 70 101 180 180 168 159 9 9 11 11 2 20 35 30 28 25 18 21 19 18 15 
43 100 62 36 37 43 26 34 44 56 72 128 176 162 149 12 14 15 14 12 34 30 28 27 
26 19 24 21 24 23 29 37 38 39 34 40 28 28 35 41 60 84 150 157 134 9 13 13 15 
27 32 27 25 25 28 21 28 24 29 26 31 39 35 35 35 38 29 28 29 34 50 61 121 144 
118 10 11 17 20 28 30 30 27 21 22 22 28 24 31 26 31 36 33 30 37 37 31 29 21 32 
40 57 96 124 110 14 15 16 20 28 28 32 32 25 15 20 27 23 31 27 31 31 31 27 38 
38 28 27 20 31 35 64 72 111 106 
