P2
30 23
255
184 192 198 203 209 213 219 224 230 236 239 241 241 242 244 244 246 246 247 
247 247 246 245 243 241 238 234 230 223 217 184 191 197 203 208 212 216 221 
227 233 237 239 240 239 241 242 244 245 245 246 246 245 243 240 238 235 230 
223 217 205 171 178 183 188 194 199 204 208 213 224 230 235 234 235 236 235 
234 234 235 236 236 236 233 229 226 222 216 210 198 155 148 154 158 162 166 
171 175 180 183 159 146 136 131 159 179 192 204 208 204 205 205 203 200 198 
194 189 184 179 163 134 153 158 162 167 171 173 177 177 120 66 50 41 43 47 59 
107 156 184 203 206 204 203 202 199 195 190 185 179 170 143 155 161 167 171 
174 175 184 150 48 35 34 36 29 20 28 64 94 104 203 210 207 206 203 201 197 193 
188 182 176 150 155 163 168 173 176 177 196 123 18 30 30 42 31 26 25 59 95 86 
181 216 208 207 205 202 199 195 190 184 181 157 157 164 170 174 177 185 171 
67 28 30 28 38 29 24 26 47 73 73 149 214 209 209 206 204 200 195 191 186 181 
164 158 165 171 175 177 194 138 21 33 41 47 49 19 20 26 70 79 52 99 205 215 
209 207 204 200 196 191 186 181 168 160 166 172 176 179 197 142 26 27 26 23 37 
20 17 25 65 73 33 47 142 209 211 208 205 200 195 190 185 181 171 161 167 173 
176 186 174 59 21 25 20 22 29 21 13 26 58 56 63 52 106 202 212 209 205 200 194 
188 183 178 171 160 167 173 176 186 172 48 22 16 17 25 29 41 47 30 34 23 61 88 
158 193 212 207 204 198 193 186 180 174 168 161 167 173 177 183 191 100 16 15 
14 19 37 38 47 55 43 24 37 73 120 184 217 206 202 196 190 184 178 172 166 164 
169 174 181 186 200 149 27 19 17 16 34 35 21 44 82 48 44 108 174 218 210 207 
202 196 189 183 177 170 163 166 171 175 182 189 198 174 55 34 22 17 22 22 31 
46 114 97 44 90 175 228 213 205 202 195 189 182 175 167 159 166 171 176 181 
191 209 205 147 64 24 20 18 33 56 92 129 154 44 65 112 165 197 212 200 195 188 
181 173 163 154 162 167 171 181 194 144 69 31 18 22 30 33 47 51 111 203 145 
50 52 32 36 76 194 204 195 189 181 173 162 152 164 166 172 169 66 7 6 10 14 17 
36 54 97 172 186 208 70 28 27 33 40 35 90 200 196 189 182 173 161 150 139 142 
152 80 4 18 16 13 11 12 19 46 141 244 222 140 32 31 26 25 32 38 44 129 202 186 
182 172 159 146 15 16 20 15 17 14 13 12 11 11 12 9 76 170 129 36 38 25 24 21 
23 32 42 64 169 188 177 170 156 143 11 13 18 17 17 14 13 13 9 14 11 12 7 22 28 
30 48 28 22 19 17 29 38 50 111 184 172 167 154 139 11 16 19 17 19 15 15 12 27 
67 66 47 46 46 45 65 58 38 22 19 16 24 32 49 76 161 172 161 149 133 11 18 19 
20 23 15 18 12 32 74 108 61 69 76 45 101 44 29 24 16 17 22 30 49 64 134 168 
154 142 125 
