P2
30 23
255
141 147 153 158 163 167 171 176 181 187 191 194 197 198 199 200 202 203 203 
205 207 208 207 205 203 200 196 190 183 155 129 135 139 142 146 150 154 158 
163 167 171 174 176 178 179 179 182 184 184 186 188 188 187 185 183 180 176 
174 160 118 132 136 139 142 146 149 153 157 160 165 168 170 171 177 181 181 
177 177 179 180 180 179 178 176 174 172 169 164 152 120 135 139 142 146 148 
151 155 160 164 168 172 173 178 155 84 131 186 184 183 184 183 182 181 180 177 
175 174 169 160 127 136 141 145 148 151 154 158 162 167 171 172 186 126 34 57 
47 91 175 186 184 185 184 182 181 178 176 174 169 166 133 137 142 146 150 153 
156 160 163 168 173 176 172 54 64 155 152 83 72 165 195 184 185 184 183 179 
176 174 171 169 141 137 143 147 150 153 157 162 166 170 173 180 91 42 97 104 
155 170 38 95 158 190 185 185 183 180 177 175 172 170 147 138 143 147 151 154 
159 164 168 172 170 132 51 48 82 117 154 187 78 31 130 197 185 184 182 180 177 
175 172 169 152 138 143 147 150 154 159 164 168 171 180 82 7 50 69 114 151 169 
115 41 171 192 185 185 183 180 176 173 171 168 155 137 142 146 150 154 158 161 
165 168 180 85 16 46 63 98 163 154 135 59 159 194 184 184 181 178 174 171 168 
165 157 136 140 145 148 152 156 159 162 164 175 153 33 32 44 91 165 172 97 32 
172 191 183 182 179 175 172 168 165 161 156 134 138 142 147 150 153 156 158 
161 165 174 74 6 41 75 151 175 95 64 194 185 183 180 176 173 170 165 162 157 
152 132 137 140 144 148 151 152 155 159 161 171 164 33 45 68 137 191 140 151 
205 183 178 177 175 171 167 163 158 153 148 131 136 139 141 146 148 150 151 
154 162 174 163 89 59 81 162 218 185 94 136 177 186 179 173 169 165 160 155 
149 145 129 133 136 139 141 144 145 151 163 156 108 34 18 49 89 145 191 98 41 
35 76 124 161 174 166 162 157 152 146 141 126 128 130 133 136 140 147 136 89 
46 24 26 30 21 42 72 58 43 48 38 37 56 67 116 167 160 155 149 141 136 106 119 
120 122 123 128 129 54 22 32 29 30 30 30 25 25 37 44 38 32 27 41 47 51 116 161 
151 146 137 131 21 28 29 28 24 26 40 36 36 37 28 29 28 30 30 36 37 37 33 30 21 
26 33 42 59 127 153 141 133 125 7 7 8 9 3 10 31 33 31 34 29 28 26 29 28 34 31 
34 32 30 22 20 23 33 39 86 142 139 128 117 9 11 12 12 6 20 28 34 30 22 25 28 
24 29 27 31 28 31 32 30 25 18 17 24 42 61 116 137 120 104 7 10 10 13 16 26 28 
31 33 19 16 27 22 29 28 28 26 29 32 31 22 15 14 28 43 49 100 128 109 92 8 9 13 
15 18 30 31 31 32 25 16 24 21 29 27 24 25 27 31 30 20 14 19 31 35 53 82 115 
103 85 11 12 13 13 19 30 35 36 38 18 16 23 19 28 24 19 25 26 30 29 20 21 28 24 
35 49 69 104 100 81 
