P2
30 23
255
165 172 177 183 188 193 198 204 209 214 218 221 222 222 223 224 228 228 228 
231 233 235 234 231 229 226 222 216 210 182 150 156 162 166 171 176 180 184 
188 193 197 199 205 213 213 210 202 211 211 212 215 215 214 212 210 207 203 
200 186 140 153 158 162 166 170 174 177 181 185 190 192 199 181 119 132 146 
137 171 206 206 205 206 204 204 201 198 194 189 176 141 156 162 166 170 173 
176 181 186 190 193 200 192 92 25 35 36 43 66 122 181 192 209 207 207 204 202 
200 194 185 149 157 164 169 173 175 178 184 189 193 199 201 100 30 31 27 27 23 
32 38 80 195 215 208 207 205 203 201 196 190 155 158 165 170 174 177 181 185 
190 194 206 134 26 33 29 27 25 22 35 43 39 130 185 210 209 206 203 201 197 195 
164 159 165 170 175 178 183 188 192 199 192 76 24 30 31 28 30 31 28 36 32 32 
105 204 210 206 203 202 198 196 171 159 165 171 175 179 184 190 194 200 195 
53 17 18 21 27 30 27 24 25 32 53 132 197 210 206 204 202 199 195 175 160 165 
170 175 179 185 189 194 198 146 53 12 15 12 23 19 20 32 35 35 60 100 207 213 
205 203 200 197 193 179 160 165 170 173 178 183 186 193 191 73 20 17 23 23 22 
23 27 31 28 45 32 43 75 186 208 199 197 194 190 182 159 164 169 172 175 179 
182 195 160 37 16 13 15 25 18 23 25 21 22 40 32 34 58 181 206 197 194 191 186 
180 156 161 165 169 173 177 179 190 160 57 28 12 11 18 18 13 21 33 33 32 21 66 
136 182 203 194 191 186 181 176 155 159 162 166 170 174 175 186 156 39 26 17 
12 17 17 19 29 34 72 41 64 144 140 196 197 192 188 183 178 173 154 157 161 164 
168 172 174 177 178 154 138 120 42 17 37 32 27 48 80 94 145 174 199 199 194 
190 185 180 174 169 151 155 156 160 163 167 172 183 185 163 106 54 37 31 36 57 
39 94 152 83 136 192 208 199 191 188 182 176 170 165 148 148 150 153 157 165 
168 122 61 30 13 9 19 55 49 86 143 151 123 44 45 79 133 183 193 185 180 174 
165 159 128 142 142 143 145 154 78 20 23 25 21 19 10 34 47 116 182 152 61 37 
39 50 61 81 156 187 175 171 161 153 27 37 37 36 31 41 32 28 28 20 19 19 14 13 
31 89 131 78 32 39 30 39 59 64 83 164 176 166 156 146 7 8 9 9 4 26 31 26 25 20 
18 19 18 15 18 54 78 36 31 34 25 30 40 50 60 108 167 162 150 138 11 13 14 11 
18 32 26 25 25 22 18 23 21 20 23 32 34 33 29 31 26 23 30 35 51 70 133 159 141 
123 8 12 12 14 26 27 26 23 23 23 19 27 25 22 23 34 32 32 27 31 27 24 24 27 43 
52 101 146 130 109 9 10 15 18 25 25 29 27 18 17 21 28 26 24 23 32 29 29 26 31 
26 26 18 25 34 50 80 122 124 100 13 14 14 19 27 26 30 31 27 15 19 27 27 25 24 
29 28 27 27 34 24 25 18 23 32 55 62 110 118 95 
