P2
30 23
255
149 156 161 167 172 176 180 185 190 197 200 209 212 205 193 176 190 213 214 
210 214 216 216 213 212 209 206 200 192 167 137 141 146 150 154 159 164 167 
171 176 183 130 89 66 61 47 64 92 171 205 200 197 197 195 193 190 186 184 170 
127 139 143 146 150 154 158 161 165 167 178 145 28 16 20 20 24 23 18 54 108 
161 190 186 185 182 180 176 172 161 127 141 146 150 154 157 160 164 168 172 
179 69 12 29 28 20 22 26 28 33 54 145 193 189 189 187 183 182 177 169 135 142 
148 152 157 159 162 167 170 180 144 32 14 19 22 14 21 34 27 30 46 117 200 192 
190 187 186 182 178 174 141 144 149 154 159 162 165 168 173 168 117 34 13 16 
27 33 27 32 53 48 25 73 136 186 193 188 185 182 179 178 150 144 150 155 159 
163 167 170 177 162 76 18 18 25 33 65 44 42 156 98 24 32 45 184 195 188 186 
184 180 178 156 145 150 155 160 163 168 170 184 132 22 20 19 40 69 96 93 141 
190 119 26 57 108 170 197 188 186 184 180 178 161 145 151 155 159 163 168 169 
185 118 20 18 21 49 79 97 151 123 118 118 37 70 164 191 193 189 185 182 179 
176 164 145 150 154 158 161 165 168 175 165 69 23 23 58 86 83 157 147 159 170 
50 138 197 193 190 187 183 179 176 174 166 144 149 153 156 159 163 166 169 178 
170 119 48 74 118 83 152 212 202 172 102 193 195 191 188 185 181 177 174 170 
165 141 146 150 153 157 160 163 168 172 176 193 107 51 102 78 137 200 196 168 
187 197 192 189 186 181 178 174 170 166 161 140 144 146 150 154 158 161 165 
170 174 179 181 77 81 88 119 184 188 187 206 192 188 186 184 179 175 171 167 
163 157 140 143 145 148 152 156 159 163 166 173 186 196 96 49 74 101 141 152 
124 162 193 195 188 181 176 174 169 164 158 153 137 140 142 145 148 152 156 
161 175 176 127 53 19 34 52 93 128 132 83 49 87 134 169 186 179 170 166 161 
154 148 135 136 137 139 143 148 160 155 117 63 15 13 21 34 33 70 111 140 74 42 
38 45 67 105 148 174 162 158 149 144 116 129 128 130 132 141 115 49 20 20 22 
23 17 24 34 63 114 78 43 40 37 36 51 58 69 146 164 153 145 138 24 33 33 33 28 
35 31 21 28 23 20 22 21 18 21 40 41 36 41 36 33 25 40 53 53 85 153 151 140 133 
7 7 8 9 2 18 30 27 27 21 20 23 23 23 25 24 33 36 36 32 30 21 30 36 44 60 111 
149 135 124 10 12 12 11 10 28 27 25 28 22 21 23 22 22 23 32 32 33 33 32 30 22 
23 28 33 51 74 137 129 110 7 11 10 12 21 26 23 23 26 22 22 24 21 23 22 31 26 
32 29 34 28 25 21 21 34 38 61 113 119 97 8 9 14 15 22 26 25 22 20 18 21 22 21 
25 22 28 24 31 28 34 27 27 20 20 30 35 61 84 110 90 11 12 13 15 21 22 28 27 22 
14 19 21 20 25 23 24 23 29 27 33 28 23 20 23 26 43 53 71 105 85 
