P2
30 23
255
142 148 154 159 163 168 172 176 182 188 191 193 197 206 202 198 201 204 204 
206 207 208 208 205 203 200 196 190 183 158 130 135 139 143 147 151 156 159 
164 168 171 180 177 133 166 189 183 183 185 187 189 189 188 185 184 181 178 
174 162 119 132 136 139 142 146 150 153 157 161 164 170 132 62 19 35 98 163 
183 177 179 180 179 177 176 174 171 168 163 152 121 135 139 142 146 149 152 
157 160 164 171 170 38 34 109 101 35 76 150 182 183 183 182 181 180 177 175 
174 169 161 128 136 141 144 148 151 154 159 162 167 172 125 35 104 181 173 131 
49 53 164 192 183 184 182 181 178 176 174 169 166 134 138 142 147 150 153 156 
160 163 173 148 47 67 98 125 165 189 93 28 99 150 190 183 184 183 179 176 174 
171 168 141 138 143 147 151 154 158 161 169 141 111 28 75 89 119 160 190 142 
30 47 132 195 184 185 183 180 176 175 172 170 147 138 143 147 151 155 160 162 
172 139 47 22 65 76 131 155 177 172 29 63 182 190 187 184 183 180 176 175 172 
169 152 138 143 147 150 154 159 161 174 134 16 17 60 65 109 144 146 163 115 
54 174 192 185 185 183 179 176 173 171 167 155 138 143 147 150 153 157 159 164 
166 80 30 52 58 99 157 154 152 80 55 179 190 184 184 181 178 174 171 168 164 
157 137 141 146 148 151 155 157 159 174 132 16 25 45 89 156 164 165 45 60 192 
187 184 182 179 175 172 168 165 161 156 135 139 143 146 149 152 155 158 162 
164 82 8 38 72 144 163 165 51 128 198 183 183 179 176 173 169 165 161 157 152 
133 138 140 143 147 150 152 155 159 169 149 32 42 59 114 164 185 118 176 200 
186 178 176 174 171 166 162 158 153 149 133 137 139 141 145 147 149 153 155 
165 177 118 54 63 122 194 221 137 69 122 165 183 182 175 168 165 160 155 150 
145 131 134 136 138 140 143 146 151 166 151 69 22 48 77 123 201 173 72 52 37 
61 100 135 161 169 161 157 152 146 140 128 129 130 133 136 140 149 150 109 43 
15 26 22 44 73 82 49 54 53 42 37 50 58 73 144 164 153 149 142 137 110 122 121 
122 124 131 106 52 22 23 28 27 24 19 22 25 46 55 43 39 26 40 52 50 74 147 154 
145 138 132 23 31 31 30 26 34 28 24 31 24 25 26 25 26 30 35 41 46 37 36 22 28 
34 44 48 92 148 142 133 125 7 7 8 8 4 24 30 28 30 21 25 24 23 25 27 29 34 40 
34 36 23 21 26 33 43 56 115 142 127 117 9 11 12 10 16 30 27 25 29 21 25 23 23 
25 25 26 30 37 32 33 25 21 20 26 39 41 80 128 121 104 7 10 10 12 26 26 24 23 
25 21 23 22 23 25 24 23 29 34 31 29 25 21 15 26 32 39 61 98 113 91 7 9 13 17 
25 28 26 21 15 15 20 21 22 24 23 20 29 31 31 28 24 21 17 27 26 42 49 74 104 
84 11 12 12 19 23 26 28 25 14 12 18 20 21 23 20 18 29 28 29 27 23 17 18 24 27 
40 41 65 93 81 
