P2
30 23
255
148 155 161 166 171 175 179 184 190 195 202 209 189 168 156 164 199 215 211 
211 214 215 215 213 211 209 205 199 192 166 136 141 145 149 154 159 163 167 
170 180 158 90 55 35 34 39 64 123 193 200 196 197 196 194 192 189 186 183 170 
126 138 142 145 149 153 157 161 164 167 173 74 13 26 24 22 23 19 28 76 137 188 
187 186 185 182 179 176 171 160 127 141 145 149 153 156 159 164 166 178 139 
20 22 27 21 15 29 34 27 35 104 186 191 189 189 186 183 181 177 169 134 142 147 
151 156 159 162 166 170 172 78 11 17 19 27 22 29 35 31 37 65 164 195 189 189 
187 185 182 177 174 141 143 149 153 158 161 164 168 171 147 69 15 19 22 46 57 
26 69 119 32 37 65 148 199 190 187 184 182 178 177 149 143 149 154 159 162 166 
169 178 122 37 15 24 45 76 93 93 161 182 47 31 48 122 201 190 188 185 183 180 
177 155 144 150 154 159 163 167 172 175 57 21 17 21 50 80 106 124 110 90 40 34 
112 163 193 190 189 185 182 180 177 160 145 149 155 158 162 166 170 174 59 14 
13 15 13 9 30 41 6 37 43 42 125 198 193 191 188 184 181 178 175 163 144 150 
153 157 160 164 166 177 134 45 20 31 27 14 66 153 49 99 91 74 183 194 192 190 
186 182 178 176 173 165 143 148 151 154 158 162 165 168 181 158 69 43 86 88 82 
183 184 201 124 140 206 191 191 187 184 180 176 173 169 164 141 145 149 152 
156 159 163 166 170 176 158 38 75 102 92 162 192 160 170 200 194 192 188 185 
181 177 173 170 165 160 140 143 145 149 153 157 160 164 169 174 181 138 63 66 
76 130 127 157 201 203 191 187 185 183 178 175 171 167 162 157 139 142 144 147 
151 155 158 161 165 173 188 193 76 61 90 149 152 138 124 172 193 194 187 180 
176 173 168 163 157 153 137 140 142 144 146 151 154 162 175 172 120 48 23 46 
98 176 177 127 65 54 92 137 171 185 176 170 165 160 154 148 135 135 136 138 
141 147 160 148 111 55 12 12 24 30 73 160 147 121 58 43 36 48 73 109 160 172 
162 158 149 143 115 128 128 129 132 138 99 40 18 18 21 21 17 24 46 101 107 59 
42 40 34 39 54 57 87 159 161 153 145 138 24 33 33 32 28 38 26 23 26 21 19 20 
19 17 22 35 35 39 38 37 28 28 40 53 54 106 158 149 140 132 7 6 8 8 5 25 29 26 
25 19 21 21 22 22 25 27 35 37 34 34 27 22 30 38 46 68 126 149 135 124 10 12 12 
10 18 30 25 24 27 19 23 22 23 21 25 33 31 35 31 34 27 22 23 28 37 52 89 141 
127 110 7 10 10 12 26 25 23 22 27 19 23 21 22 22 23 32 26 33 29 35 27 24 20 22 
36 39 70 117 118 97 8 9 13 18 25 27 25 19 19 18 22 20 22 23 24 29 25 30 28 34 
25 26 18 22 30 38 62 88 111 89 11 12 12 19 23 26 29 24 15 13 20 19 22 24 24 25 
24 28 29 34 26 22 19 25 26 44 50 75 105 84 
