P2
30 23
255
149 156 162 166 172 176 180 185 191 197 200 209 213 205 196 179 189 212 215 
210 214 216 216 214 212 210 206 200 193 166 137 141 146 150 154 159 164 168 
172 175 185 136 90 67 63 48 64 91 164 206 201 197 197 195 193 190 187 184 170 
127 139 142 146 150 154 158 162 165 168 176 154 36 16 20 20 23 23 18 48 111 
157 190 186 185 183 180 177 172 161 128 142 146 150 154 157 161 165 169 171 
183 81 12 29 28 20 22 26 27 34 45 126 192 189 189 186 184 183 177 169 135 143 
148 152 157 159 163 167 170 179 151 43 13 19 22 14 21 34 27 29 44 108 195 194 
189 187 185 183 178 174 142 144 150 154 159 162 165 168 173 169 122 39 13 16 
27 32 27 32 50 49 25 68 147 183 194 188 185 183 180 177 150 144 150 155 160 
163 167 171 177 165 79 19 18 25 33 64 42 41 152 101 23 36 35 172 197 188 186 
184 181 179 156 145 150 156 160 164 168 171 183 135 22 20 19 41 73 95 91 139 
192 125 28 47 92 161 198 188 186 183 181 178 160 145 150 155 159 163 168 170 
185 121 21 17 20 47 69 99 151 124 103 112 39 57 151 187 194 188 185 183 180 
177 164 145 151 154 158 162 165 168 176 168 73 25 22 59 86 86 164 149 162 171 
46 113 193 195 190 187 183 180 177 174 166 144 149 153 156 159 163 167 170 179 
172 124 51 76 120 84 165 210 201 180 85 182 198 190 189 185 181 177 174 170 
165 142 146 150 153 157 161 164 167 172 176 194 109 55 103 79 149 205 201 169 
174 198 192 189 186 182 179 174 171 166 161 141 144 147 150 154 158 161 165 
171 174 180 180 76 86 89 129 190 195 191 209 193 188 186 184 180 176 172 167 
163 157 139 143 146 148 152 155 159 163 166 174 187 195 88 55 73 108 149 156 
121 157 189 195 189 181 177 174 169 164 159 154 138 140 142 145 147 152 155 
163 176 174 123 51 20 37 58 99 138 131 77 48 78 121 162 186 178 170 166 161 
154 149 135 136 137 139 143 148 161 149 111 58 14 13 23 33 36 79 113 136 70 42 
38 41 63 98 151 174 163 158 150 144 116 129 129 130 132 140 101 41 20 20 22 23 
17 27 34 63 112 81 40 39 37 35 54 55 77 153 164 154 145 138 24 33 33 33 28 37 
27 24 27 22 21 22 21 17 22 42 44 36 38 36 31 27 39 52 54 95 157 151 140 133 
7 7 8 8 4 23 30 27 26 19 21 23 23 23 25 23 32 36 34 33 28 21 29 36 47 64 118 
150 135 125 10 12 12 10 14 29 26 26 28 20 23 23 22 22 24 32 33 34 31 33 28 20 
22 28 35 51 80 139 128 110 7 11 11 12 24 25 22 23 27 20 24 24 22 23 23 32 26 
32 28 33 28 23 20 22 34 39 64 113 119 97 8 9 14 16 23 26 25 20 22 18 23 22 22 
24 24 30 24 30 27 33 26 26 19 20 30 34 61 83 110 90 11 12 13 17 22 23 29 26 21 
14 21 21 22 25 25 26 24 28 27 33 27 23 19 23 25 41 52 68 104 84 
