P2
30 23
255
141 147 152 158 162 167 172 176 182 188 192 195 203 205 203 196 191 205 208 
203 206 208 208 205 203 200 197 190 183 158 128 134 138 142 146 150 155 160 
163 168 171 178 128 95 80 73 67 102 151 191 190 188 187 186 184 181 178 175 
161 119 131 135 138 141 145 149 152 156 160 163 173 137 25 15 18 18 20 18 32 
122 168 177 176 176 174 172 169 164 152 119 134 138 141 145 147 150 155 160 
164 169 173 61 11 28 27 19 22 27 26 36 91 174 181 179 177 175 174 169 160 127 
135 140 143 148 149 153 157 162 166 177 124 21 14 18 20 13 21 32 24 33 84 166 
186 179 178 176 174 169 166 133 136 141 145 149 152 156 160 163 170 163 107 
25 14 17 28 35 26 35 50 32 43 148 181 183 179 176 174 171 170 141 137 141 145 
150 154 158 162 165 173 157 63 15 17 29 40 66 38 77 149 40 33 45 145 190 178 
177 175 173 170 146 137 141 146 150 154 159 163 165 181 117 17 19 21 50 84 100 
109 160 165 56 31 58 144 189 178 177 175 173 170 151 137 142 146 149 154 159 
162 165 181 121 13 16 24 58 83 100 148 106 133 60 45 132 169 186 179 176 174 
171 168 155 137 142 145 148 152 156 160 164 171 168 79 16 37 78 96 87 171 144 
187 72 92 182 185 181 178 175 172 169 165 157 136 140 144 147 150 154 157 161 
165 176 173 104 35 93 101 82 182 201 188 97 166 190 181 179 176 173 169 166 
162 156 134 138 141 144 148 152 154 158 163 167 175 174 63 65 97 82 160 197 
171 171 189 183 180 177 174 170 166 162 158 153 132 137 138 142 146 149 152 
156 160 165 168 185 166 59 81 87 143 170 175 197 185 179 178 175 172 168 163 
159 154 149 131 136 138 140 144 147 149 153 156 164 179 179 133 40 53 71 117 
132 113 134 179 186 178 173 169 166 161 156 150 146 129 133 135 137 139 143 
146 151 165 164 128 51 12 28 32 62 105 122 103 37 68 135 167 178 169 162 158 
152 146 141 127 127 129 131 135 139 147 152 108 55 19 14 18 34 36 42 91 139 
82 40 30 42 73 107 151 164 154 149 142 137 108 120 120 122 123 132 123 60 19 
21 22 22 19 19 36 50 97 81 39 38 33 32 51 52 81 152 154 145 138 131 22 30 29 
32 32 31 36 20 27 24 20 21 23 20 18 28 30 34 39 32 31 22 38 50 55 98 151 141 
133 125 6 6 6 10 12 13 29 26 27 24 19 23 22 24 23 23 31 35 34 28 28 19 25 35 
43 62 116 142 127 116 9 10 10 12 15 23 27 25 26 26 19 23 20 22 22 28 33 32 31 
27 27 20 20 25 33 46 83 134 120 104 6 9 9 12 19 26 24 23 23 26 19 23 19 21 21 
28 30 30 28 28 26 24 18 18 30 35 68 109 112 91 7 8 13 14 19 23 26 24 17 17 19 
22 18 22 20 27 28 29 26 29 25 23 18 18 24 41 56 86 105 83 10 11 12 14 20 21 26 
28 22 12 16 21 17 22 20 26 26 29 25 28 28 20 17 19 28 44 44 78 99 78 
