P2
30 23
255
185 192 198 203 209 213 219 224 230 235 238 240 241 243 244 244 246 246 246 
247 247 246 245 243 240 238 235 230 224 218 184 192 198 203 208 212 217 222 
227 232 236 240 239 240 240 241 244 245 245 246 246 245 243 241 238 235 230 
224 217 206 172 178 183 189 195 200 205 209 214 224 228 231 234 233 239 238 
237 235 235 237 237 236 233 230 226 222 217 211 199 156 148 154 159 162 166 
171 176 179 185 158 125 126 111 125 153 173 192 207 206 204 205 203 201 198 
194 189 184 179 164 134 153 158 163 167 171 174 175 184 149 68 52 40 36 35 31 
59 109 168 193 207 204 202 202 199 195 190 185 179 170 143 154 161 166 172 174 
177 179 188 98 23 36 36 45 31 26 32 75 98 157 216 205 205 204 201 197 192 188 
182 176 150 155 162 169 174 176 180 185 179 55 28 33 30 44 34 29 30 64 87 124 
214 208 207 205 202 199 195 190 184 181 157 157 164 171 174 178 182 193 93 23 
36 43 49 52 25 24 29 75 74 87 190 212 208 206 204 200 196 191 185 182 164 159 
165 171 175 180 185 198 91 18 30 28 24 41 24 21 28 72 75 44 130 218 208 207 
205 200 196 191 185 181 168 160 167 172 176 181 188 187 69 18 28 21 20 29 22 
13 30 66 67 40 85 190 213 207 205 201 195 189 184 180 171 160 167 173 177 183 
189 79 29 19 17 19 25 29 45 42 29 44 40 73 81 173 213 208 205 200 194 188 183 
178 172 160 167 173 177 182 195 112 29 21 15 14 18 36 47 55 54 38 21 53 125 
175 202 210 203 198 192 186 180 175 169 161 167 173 178 183 194 173 45 15 20 
18 17 36 41 27 58 72 34 43 102 164 214 207 202 196 191 184 178 172 166 164 170 
174 181 188 196 188 63 37 20 24 14 24 27 31 50 99 50 71 137 204 213 206 202 
196 190 183 177 169 163 166 171 175 182 190 193 203 129 79 53 24 18 17 35 66 
105 122 74 48 130 213 215 205 202 195 189 182 175 167 158 166 172 176 182 190 
206 216 202 121 47 37 24 33 38 54 134 181 89 79 119 166 199 211 201 195 188 
181 173 164 154 163 167 171 180 198 165 87 33 5 15 44 48 58 114 114 196 179 
37 48 34 33 83 199 203 195 189 182 174 163 152 164 167 171 172 80 16 5 11 14 
12 23 70 72 206 223 215 79 21 28 34 39 34 99 203 196 190 182 174 161 150 140 
143 153 85 4 17 18 14 12 12 9 37 86 226 246 154 35 30 25 25 31 37 45 138 202 
186 181 172 159 147 16 17 21 15 18 15 14 13 11 12 14 7 47 169 165 40 38 25 23 
21 24 32 42 70 176 187 177 170 157 143 11 13 19 18 17 14 14 13 10 10 9 10 14 
45 36 27 45 24 21 19 18 28 39 51 118 185 172 167 154 139 11 16 19 18 20 15 16 
14 22 57 57 40 35 35 42 58 60 35 20 18 16 24 33 50 80 165 171 162 149 134 12 
19 20 20 23 14 20 13 40 70 111 64 63 77 40 97 43 27 22 16 17 22 31 50 66 141 
168 154 142 125 
