P2
30 23
255
139 145 151 155 160 166 170 174 180 185 188 191 191 193 194 194 196 198 198 
199 199 198 196 193 191 188 184 180 174 169 139 145 149 155 160 164 168 173 
177 183 187 189 190 190 190 192 193 194 195 196 196 196 193 190 187 184 180 
174 168 158 129 135 139 143 148 153 157 162 166 172 176 180 182 185 191 184 
184 186 186 187 187 187 184 181 177 173 169 163 152 117 109 113 117 120 124 
128 133 137 139 142 146 148 149 133 98 65 108 164 155 156 156 155 153 150 147 
143 139 135 122 97 112 116 120 125 127 130 133 137 140 144 146 149 128 61 31 
27 40 105 157 158 155 154 153 150 146 143 139 135 126 105 115 119 124 128 131 
134 137 139 143 147 151 154 47 27 89 166 92 42 105 143 160 156 155 153 149 145 
141 138 133 111 115 121 126 130 133 137 140 143 147 151 152 85 26 78 92 178 
181 110 47 129 161 158 156 153 150 147 143 139 137 116 116 122 127 131 135 139 
142 147 150 158 138 22 39 94 97 164 227 184 27 77 158 160 157 155 152 148 144 
139 138 122 117 123 128 132 136 140 145 150 152 164 91 6 48 72 84 172 228 212 
37 70 160 162 158 155 152 148 143 140 137 126 118 124 129 133 138 143 148 152 
157 159 84 19 50 56 79 143 197 217 54 86 165 163 159 156 151 147 142 139 136 
128 119 124 130 134 139 144 149 154 158 167 83 19 53 51 80 155 178 196 88 101 
175 161 160 156 151 146 141 138 135 128 119 124 130 135 139 144 149 154 157 
169 149 24 30 52 86 188 216 148 59 146 171 162 159 155 149 145 140 136 131 125 
119 125 130 135 140 145 150 155 159 166 157 32 26 54 89 198 227 122 53 177 168 
164 159 154 149 143 139 134 128 123 121 126 131 137 143 148 152 155 159 163 
186 108 31 58 78 188 226 122 107 181 166 164 158 153 148 143 138 133 126 120 
123 128 132 138 144 148 153 164 175 172 146 101 60 67 84 195 244 175 161 185 
172 162 157 153 147 142 137 131 124 118 122 128 133 138 143 158 162 138 99 51 
11 39 73 77 115 234 255 129 47 121 146 167 160 152 147 141 137 130 121 114 120 
124 129 134 151 117 53 19 5 8 12 32 67 78 120 231 202 46 21 22 40 66 135 159 
146 142 137 130 120 112 119 123 125 137 106 16 11 17 19 16 16 11 40 66 112 126 
51 31 26 23 31 23 52 141 151 141 137 130 119 110 103 107 112 102 24 19 23 20 
19 15 16 16 11 20 33 26 29 38 23 19 25 28 26 71 148 140 136 129 117 107 12 13 
15 16 19 25 21 19 22 14 18 14 13 9 17 27 27 34 19 18 17 21 29 33 104 144 132 
126 115 105 9 9 13 18 22 25 21 16 17 28 70 54 38 36 33 34 46 54 31 16 13 17 25 
32 58 129 130 123 113 102 9 12 20 22 24 25 18 14 12 26 71 77 50 65 54 45 73 38 
31 16 13 14 21 32 43 97 129 119 109 97 8 14 22 23 28 27 16 14 10 22 94 60 44 
51 50 62 63 38 27 16 11 15 19 31 41 74 122 113 104 92 
