P2
30 23
255
140 146 151 156 161 166 171 175 181 186 189 191 191 192 194 195 198 199 199 
200 200 199 197 194 191 189 185 181 174 170 140 145 150 155 160 164 169 174 
178 184 187 190 195 195 193 193 194 196 196 197 197 196 194 191 188 185 181 
175 169 159 130 136 140 144 149 154 158 163 167 173 174 174 155 113 115 190 
188 186 187 188 188 187 184 181 178 174 170 164 154 117 110 114 118 121 124 
129 133 137 139 141 142 101 42 16 21 90 148 160 157 157 157 156 153 151 148 
144 139 136 123 98 113 117 121 125 128 131 134 137 139 149 94 31 43 105 115 
40 80 119 152 158 156 154 153 151 147 143 139 135 127 105 114 120 124 128 131 
134 137 139 143 144 41 31 78 144 208 123 50 95 159 161 159 157 155 153 149 145 
142 138 133 111 116 121 126 130 134 137 139 143 149 72 19 73 88 113 191 222 
117 36 107 165 160 159 157 155 151 147 143 139 137 116 117 123 128 132 135 139 
142 149 142 36 16 77 90 107 187 235 162 18 97 166 162 160 158 156 152 148 144 
140 138 122 118 124 128 132 137 141 144 156 117 17 23 67 67 98 190 235 200 36 
93 167 164 161 159 156 152 148 144 140 138 126 119 125 129 134 138 143 147 156 
101 36 27 63 53 96 151 196 215 61 110 176 165 163 160 157 152 148 143 140 137 
129 120 126 130 135 139 144 148 159 120 24 40 55 53 91 165 189 185 89 126 178 
166 164 161 157 152 147 142 138 135 129 119 125 130 135 139 144 149 152 171 
82 14 42 53 96 192 219 139 50 170 174 168 164 160 155 150 145 140 137 132 126 
119 126 130 135 140 145 150 153 167 108 4 39 52 96 198 225 133 58 181 173 170 
165 159 155 149 144 139 135 129 124 121 126 132 138 143 148 152 155 159 167 
57 34 54 84 191 223 153 132 185 170 169 164 159 154 149 144 139 134 127 121 
123 128 133 139 145 148 153 163 174 167 93 49 63 79 187 245 186 130 180 183 
175 166 158 154 148 142 138 132 124 118 123 129 134 138 144 159 163 145 87 29 
41 69 72 108 227 255 171 13 66 100 137 158 160 153 148 142 137 131 122 114 121 
125 129 138 149 118 57 20 3 6 40 64 73 110 219 245 83 24 22 24 33 63 153 155 
148 143 138 131 120 112 121 123 128 129 59 11 8 14 16 14 14 50 66 109 156 97 
27 29 20 26 33 25 72 153 149 143 138 130 119 110 105 108 115 60 7 19 18 17 13 
16 11 19 34 53 40 23 37 27 18 20 25 28 31 95 153 140 137 129 118 108 13 14 17 
15 21 18 19 18 14 12 14 10 9 11 26 27 31 22 18 17 16 24 31 43 122 143 133 126 
116 105 8 9 16 19 22 18 18 19 14 27 22 17 16 18 31 27 49 37 18 15 12 21 28 35 
72 137 130 124 113 102 8 13 18 21 23 18 15 14 23 69 68 48 47 54 29 64 48 39 22 
13 11 16 23 36 48 108 130 119 110 98 9 17 20 22 24 16 14 12 18 55 74 50 49 68 
39 77 46 30 22 11 11 15 21 33 41 81 124 113 104 92 
