P2
30 23
255
142 148 154 159 164 167 171 176 180 186 191 195 197 198 199 199 199 203 206 
204 207 208 207 205 203 200 196 190 182 158 130 135 140 143 147 151 154 158 
163 167 171 175 177 179 180 182 191 185 176 190 187 188 187 185 183 181 177 
174 161 119 133 137 139 142 146 149 152 156 160 164 168 170 172 172 175 170 
112 75 48 141 184 176 176 176 174 171 168 163 152 120 136 140 143 146 149 152 
156 160 163 167 172 174 175 175 190 89 15 65 60 40 137 188 180 179 177 175 173 
168 160 128 137 141 146 149 151 155 159 162 166 170 174 176 181 178 114 30 78 
142 175 90 69 145 177 180 177 176 174 169 165 134 138 143 147 151 154 157 160 
164 168 172 175 179 164 147 30 71 120 119 170 181 88 54 175 186 177 176 173 
171 168 141 138 143 148 152 155 158 163 167 170 174 176 186 133 63 22 97 111 
111 170 192 110 48 124 173 180 175 174 171 169 147 138 144 148 152 156 160 164 
169 173 175 177 189 89 5 25 84 79 115 159 187 142 30 68 168 182 175 174 172 
169 151 139 143 147 152 156 160 165 169 173 175 177 190 104 20 37 73 64 105 
139 162 143 29 138 189 177 175 173 171 167 155 138 143 147 151 155 160 163 167 
171 174 176 190 150 24 45 55 68 113 160 148 132 57 148 186 175 173 170 168 164 
157 137 141 146 150 153 158 162 164 167 171 174 183 171 43 14 44 67 122 172 
156 59 52 170 180 174 171 168 165 161 156 134 138 143 148 152 156 159 161 164 
167 172 174 194 97 4 57 61 125 171 155 38 83 185 174 172 169 165 162 157 151 
133 137 140 145 150 153 156 158 161 165 168 171 192 161 48 58 63 103 159 149 
96 170 178 173 170 166 162 158 153 148 132 136 140 143 148 151 153 155 157 161 
172 182 153 104 57 78 73 117 184 186 141 183 179 172 167 164 160 154 149 145 
130 134 137 140 143 146 149 151 162 167 150 96 30 16 26 84 88 148 212 162 56 
81 151 175 170 162 156 151 145 140 128 129 132 135 138 142 146 151 119 74 38 
24 30 34 25 28 54 87 90 61 57 34 53 96 141 160 155 149 141 136 109 122 123 125 
127 130 142 91 22 30 32 31 30 31 30 27 25 28 39 60 49 41 35 51 64 106 154 145 
137 131 22 31 31 31 28 28 53 36 32 35 36 27 29 30 29 30 34 37 43 51 42 39 25 
42 53 58 113 146 131 124 7 7 8 8 3 7 28 30 33 29 34 25 29 27 27 29 31 33 34 43 
39 37 23 29 37 45 68 123 129 115 9 11 12 12 6 15 31 28 27 28 30 25 28 26 26 29 
30 30 31 39 37 33 25 24 27 35 51 85 122 102 7 10 10 13 16 21 28 30 24 25 20 20 
26 24 26 29 29 25 29 36 35 29 25 21 20 35 38 67 103 92 8 9 13 14 19 26 24 32 
29 22 12 16 23 23 26 28 26 21 31 34 34 29 25 18 22 29 38 59 79 86 11 12 13 13 
21 27 25 30 28 27 15 15 20 21 24 25 21 21 34 30 32 28 22 18 24 27 43 46 69 81 
