P2
30 23
255
173 179 185 191 197 202 207 211 216 222 226 230 232 232 237 240 238 239 237 
240 241 242 242 240 237 235 232 226 218 190 159 164 169 174 179 183 188 192 
197 202 206 210 211 216 199 183 204 196 194 216 223 223 223 220 219 215 212 
210 195 147 160 166 170 173 178 182 185 190 195 200 203 203 211 181 67 52 81 
90 151 174 217 208 206 211 209 206 203 198 184 148 164 169 174 178 181 184 189 
194 199 204 206 215 192 79 30 31 34 22 35 65 135 182 200 216 212 210 209 203 
194 156 165 171 176 181 183 187 192 197 203 207 210 207 93 24 34 31 36 32 31 
38 43 112 220 214 212 211 208 204 200 163 166 173 177 182 186 189 194 199 204 
208 216 150 27 29 29 23 27 25 29 40 40 73 190 219 212 210 209 206 204 172 167 
173 178 183 187 192 197 202 206 209 218 107 20 33 32 31 27 21 24 42 40 32 71 
182 217 210 210 207 205 179 167 173 179 183 188 194 199 204 207 212 200 77 20 
27 27 29 27 26 25 31 36 27 75 165 218 210 210 207 204 184 168 174 177 182 188 
194 198 204 207 215 140 31 21 18 22 25 27 34 29 21 30 50 83 164 223 208 208 
206 202 187 168 173 178 182 186 192 196 201 207 207 79 7 16 17 15 26 25 19 26 
32 40 41 35 89 181 214 204 203 199 190 167 172 177 180 184 189 193 197 207 186 
65 37 10 21 23 20 21 22 32 36 38 32 36 30 130 218 200 200 196 190 164 170 174 
177 181 186 189 193 202 190 74 30 11 14 27 21 18 24 21 25 38 34 49 121 171 209 
198 195 190 185 163 167 170 174 178 183 186 189 200 181 101 82 44 17 17 21 16 
24 28 25 37 55 91 129 189 203 196 192 186 181 162 166 169 172 176 180 183 187 
190 196 200 174 137 46 10 20 15 23 31 66 74 103 167 193 202 199 194 189 182 
177 159 163 165 169 172 176 179 184 199 203 180 105 43 27 27 29 33 32 50 85 61 
124 184 213 205 195 191 184 178 173 157 157 158 162 166 172 179 186 139 84 38 
12 12 22 34 33 69 51 110 85 39 49 72 116 171 199 186 182 173 167 135 149 149 
151 154 162 157 73 29 24 27 23 21 12 30 43 96 117 116 42 43 36 56 64 87 173 
188 177 168 160 28 38 38 39 34 37 51 27 32 32 23 20 20 17 13 31 104 116 49 35 
43 26 41 56 64 104 176 175 162 153 8 9 10 10 2 14 35 32 28 29 21 22 21 22 20 
26 43 39 36 34 35 25 30 39 49 69 123 173 156 144 11 14 15 14 9 31 31 29 27 30 
22 24 24 25 25 29 36 37 37 32 34 27 25 29 36 54 81 154 150 129 8 13 13 14 24 
32 29 28 25 31 22 28 26 26 26 28 38 32 35 33 33 29 25 21 33 39 68 116 138 112 
10 11 17 18 25 27 30 30 20 23 23 28 25 26 26 28 34 30 33 33 34 28 25 19 28 40 
65 82 126 104 13 15 15 17 27 28 32 36 28 17 20 26 24 26 27 29 29 30 32 33 37 
27 24 20 28 46 52 72 113 100 
