P2
30 23
255
139 145 151 155 160 165 170 175 180 185 187 190 198 197 192 193 195 198 198 
199 199 198 197 193 191 188 185 181 174 169 139 145 149 154 159 163 168 173 
177 181 190 187 152 170 195 195 197 194 195 196 196 195 193 190 188 184 180 
174 168 159 130 136 140 144 149 154 158 163 167 176 167 108 61 64 117 104 124 
189 187 188 188 188 185 182 179 175 170 164 154 119 109 114 118 121 124 128 
133 136 140 140 49 14 19 20 31 24 26 121 164 157 157 156 154 151 148 144 140 
136 122 97 112 116 120 124 127 130 133 135 146 76 10 20 16 21 35 32 42 56 128 
156 154 153 152 150 146 142 139 135 126 104 114 118 123 127 130 133 136 139 
136 44 15 18 20 14 21 38 41 32 67 156 158 156 155 152 149 145 142 137 132 110 
114 120 125 130 133 136 138 145 120 25 10 21 19 20 25 38 53 28 48 145 162 157 
156 153 150 147 143 138 136 116 116 121 126 131 135 138 140 154 114 16 14 43 
32 33 44 97 125 44 38 123 163 158 158 155 151 148 143 139 137 121 116 122 127 
132 136 140 148 131 59 21 14 47 59 85 130 195 204 70 25 92 160 161 158 155 151 
148 143 140 137 125 118 123 129 132 138 142 147 151 71 5 17 29 28 71 95 63 105 
65 23 105 170 161 159 156 152 147 142 139 136 128 119 125 130 134 139 143 148 
157 149 54 25 45 19 48 137 52 126 113 82 151 169 162 160 156 151 146 142 138 
134 128 119 125 129 134 139 144 149 152 163 139 47 72 75 76 231 235 246 148 
137 172 168 163 159 155 150 145 140 136 131 126 119 125 130 135 140 145 150 
155 160 162 106 60 79 82 205 249 234 149 177 173 169 164 159 154 149 143 139 
134 129 123 121 127 131 137 142 147 152 156 158 168 162 68 71 82 185 221 227 
184 176 172 169 164 158 153 148 143 138 133 127 121 123 128 132 138 144 147 
153 162 174 177 157 69 53 76 168 203 166 166 186 182 170 163 158 153 148 142 
137 132 124 118 123 128 133 137 144 159 161 146 112 59 33 41 33 66 152 187 126 
36 93 124 157 166 158 153 147 141 137 130 121 114 121 124 129 137 145 110 53 
19 4 0 24 51 38 46 110 201 121 15 21 25 44 94 163 152 148 141 137 130 120 112 
120 122 125 135 67 5 6 11 12 11 12 44 53 60 164 170 34 21 20 26 27 28 105 158 
147 142 137 130 119 110 108 110 118 74 9 17 16 13 10 11 9 20 45 66 83 35 26 21 
17 18 25 27 39 124 151 140 137 129 117 108 15 16 19 14 17 16 14 15 12 10 13 9 
14 22 19 25 29 17 16 14 17 26 28 62 142 139 134 127 116 105 8 9 14 17 19 17 15 
18 11 19 15 11 9 11 25 21 32 19 15 13 12 19 28 36 99 140 129 124 113 102 9 13 
18 19 22 18 17 16 22 59 59 36 33 34 34 50 42 29 14 12 11 16 23 34 66 130 126 
120 110 98 9 17 21 24 24 16 19 14 24 52 77 41 47 58 36 79 31 23 16 10 11 15 23 
33 52 115 123 114 105 92 
