P2
30 23
255
173 180 186 192 197 202 207 212 217 222 227 230 231 236 241 239 238 235 239 
239 242 242 242 240 238 236 232 225 218 191 158 164 169 174 179 184 189 193 
198 203 207 209 214 199 171 193 183 181 214 226 222 225 222 221 219 216 213 
210 195 147 160 165 170 174 178 182 185 190 195 199 202 207 195 82 34 60 61 87 
114 180 203 201 213 210 209 206 203 199 185 147 164 169 174 177 181 184 189 
194 199 203 209 207 99 34 34 33 24 24 40 64 134 209 216 213 212 210 209 204 
194 156 165 171 176 180 183 187 192 198 203 206 214 126 30 32 27 27 30 28 41 
37 68 198 216 215 212 211 209 204 200 163 167 173 178 182 186 190 194 199 204 
212 187 57 26 35 32 30 24 24 38 46 38 75 150 218 213 211 209 206 203 172 167 
174 179 184 187 192 197 202 204 218 157 30 29 28 31 27 35 34 27 32 31 45 136 
209 214 211 210 207 205 179 167 174 178 183 188 194 198 203 206 214 155 24 20 
15 22 30 29 25 27 30 37 85 139 219 215 211 210 208 205 184 168 174 178 182 188 
194 198 202 212 186 78 26 16 17 16 26 20 24 37 39 44 42 85 167 212 210 208 206 
203 188 169 174 178 181 186 191 196 200 213 152 22 15 17 26 25 24 26 28 30 31 
47 37 34 43 196 212 205 203 200 190 167 173 177 180 184 189 192 196 212 119 
41 19 13 18 27 19 25 28 23 23 41 23 59 127 198 209 203 200 196 190 165 169 174 
177 181 186 189 191 208 130 43 23 13 10 20 18 15 25 39 44 35 51 113 144 200 
205 200 196 191 185 163 167 170 174 178 183 186 188 201 142 68 63 39 17 20 21 
23 33 38 77 58 106 169 182 208 200 197 192 187 181 162 166 169 172 176 180 183 
187 190 198 203 191 154 34 23 42 38 29 77 109 137 193 202 211 202 200 194 189 
182 178 159 163 166 168 171 176 179 185 201 198 168 96 39 36 40 41 78 58 141 
133 86 165 203 213 204 196 191 185 178 173 157 157 158 162 166 171 181 183 124 
69 31 11 12 24 59 53 122 158 156 68 40 54 90 144 186 198 188 182 173 167 135 
150 150 151 154 164 151 62 25 25 26 23 20 12 36 49 143 181 111 40 45 41 58 69 
97 181 187 177 169 161 29 39 39 39 34 38 48 26 32 29 21 21 20 16 14 45 111 117 
51 38 43 28 48 64 69 114 181 174 163 154 8 8 10 10 2 16 35 31 28 27 20 22 21 
21 18 29 64 52 39 35 37 25 34 44 56 73 133 173 157 145 11 14 15 13 10 31 31 28 
27 28 20 24 22 24 24 29 34 37 39 32 34 26 26 32 39 59 85 155 150 130 8 13 13 
15 24 32 29 27 25 29 21 27 24 26 24 30 40 34 36 32 33 29 26 25 33 45 64 123 
138 113 9 11 17 18 25 27 30 30 20 22 22 27 23 27 24 30 35 33 33 34 33 29 25 19 
30 37 66 89 125 105 13 15 16 17 26 28 31 35 27 17 19 25 21 26 24 29 30 33 31 
33 36 26 26 20 27 44 58 70 116 100 
