P2
30 23
255
184 192 199 204 209 214 219 225 231 236 239 240 240 242 242 244 246 246 247 
247 247 246 245 243 241 238 235 231 223 218 184 192 197 203 208 212 216 222 
227 233 237 244 244 242 246 244 243 244 244 246 246 245 243 240 239 235 231 
224 217 207 173 179 184 190 195 201 205 210 214 222 228 195 188 198 196 220 
232 237 238 236 237 237 234 231 228 223 218 212 201 158 148 154 159 163 167 
172 176 180 183 189 137 78 69 54 61 70 88 127 180 207 204 203 201 199 195 190 
184 180 165 133 152 158 162 167 171 174 177 181 188 176 60 32 39 40 44 24 27 
54 106 162 208 201 201 198 194 190 185 179 169 143 154 160 166 171 174 177 181 
183 194 134 29 42 41 47 50 32 33 48 88 119 206 205 203 200 197 193 188 182 176 
150 156 163 169 173 176 181 183 193 170 41 28 37 42 48 53 24 30 48 91 78 184 
212 203 201 199 195 190 184 180 157 157 164 170 175 178 184 187 198 167 38 22 
28 20 21 37 19 23 44 83 56 112 203 207 203 200 196 191 186 182 164 158 165 171 
175 180 186 191 205 147 22 20 19 21 29 30 30 20 51 75 49 92 205 207 204 200 
196 191 186 181 168 160 167 172 176 182 186 204 127 40 25 18 11 15 25 42 61 43 
37 35 60 85 160 213 203 201 195 190 185 180 171 161 168 173 178 184 189 201 
163 43 20 22 17 15 25 46 46 54 64 30 34 111 176 200 206 199 194 188 184 179 
172 160 167 173 177 184 191 195 206 87 22 24 24 16 20 37 33 32 76 56 33 94 155 
202 204 197 192 186 181 175 169 161 168 173 179 185 192 196 207 93 55 27 36 19 
19 23 47 56 94 62 52 114 187 211 201 197 191 185 178 172 166 164 170 175 182 
189 195 199 209 171 87 70 36 24 21 32 52 117 134 74 51 114 192 209 201 196 190 
184 177 170 163 166 172 175 183 191 196 200 207 225 224 154 55 33 44 62 56 124 
188 180 155 206 215 204 202 195 189 182 175 167 159 166 171 176 183 190 205 
218 209 166 92 55 78 65 66 146 157 194 202 90 123 165 206 209 201 195 188 181 
174 164 154 163 167 173 178 199 180 107 46 12 0 18 65 82 76 212 236 228 106 
19 33 46 65 173 208 194 189 182 174 162 152 164 167 169 183 120 23 6 11 15 16 
11 36 74 83 216 242 193 37 31 32 41 33 69 184 200 188 182 174 161 150 143 146 
153 118 16 14 19 16 12 13 11 14 36 70 183 204 72 35 28 25 32 36 40 100 197 187 
181 172 159 147 17 19 23 17 17 18 15 15 12 12 13 12 11 27 92 74 33 38 23 24 24 
29 41 52 145 191 176 170 156 143 12 13 18 18 19 18 15 16 13 10 13 9 14 11 23 
24 43 35 22 22 18 26 35 48 88 175 173 166 153 139 12 17 20 20 22 20 14 18 14 
48 74 57 37 41 43 48 66 49 26 20 18 22 30 46 65 140 174 160 149 133 11 19 21 
23 24 20 15 19 17 51 102 97 50 86 44 75 77 28 27 18 17 20 27 44 59 111 166 154 
142 125 
