P2
30 23
255
140 146 151 156 161 166 169 174 179 185 189 193 195 196 198 197 206 209 192 
192 209 206 206 204 201 199 195 189 182 155 128 133 137 141 144 149 153 156 
160 165 169 173 175 177 177 185 130 90 70 71 173 188 184 184 182 179 175 172 
159 117 132 135 137 141 145 147 150 154 158 163 166 168 170 169 182 131 13 34 
57 27 65 166 177 174 173 170 167 162 150 119 134 138 141 144 147 150 154 158 
161 166 170 172 176 181 132 36 54 117 160 155 49 117 182 177 175 174 173 168 
159 126 135 140 144 147 149 152 156 160 165 169 172 177 161 142 52 26 104 119 
130 182 144 69 120 183 175 175 173 168 164 132 136 141 146 149 152 155 159 162 
167 171 172 183 143 69 24 55 127 107 113 171 175 48 98 187 176 174 173 170 168 
140 136 142 146 150 153 156 161 165 169 173 173 187 100 9 12 69 100 88 119 164 
181 79 67 121 185 173 174 171 169 146 137 142 146 150 154 158 163 167 171 173 
175 188 111 20 20 73 77 79 132 163 189 81 44 146 182 174 173 171 169 150 137 
142 146 150 154 159 163 167 171 174 175 188 143 21 48 61 59 70 107 121 155 68 
116 193 175 174 172 170 167 153 137 141 146 149 153 158 161 165 168 172 175 
184 163 30 20 41 57 79 123 133 109 61 129 185 174 172 169 167 163 156 135 140 
144 147 151 156 159 162 165 169 173 176 192 78 2 47 52 90 141 148 53 40 174 
178 173 171 167 164 160 154 133 137 141 145 149 153 156 159 162 165 170 173 
188 122 21 54 57 91 146 137 52 113 182 174 172 168 164 160 155 151 131 136 139 
143 147 151 153 156 159 162 165 176 190 180 68 57 68 82 138 150 153 188 174 
173 169 165 161 157 152 147 130 135 138 141 146 149 151 152 156 166 175 164 
100 40 38 85 78 114 184 195 106 149 181 175 166 162 158 154 148 144 128 133 
136 138 141 144 145 152 158 132 91 47 18 26 26 70 92 131 193 136 50 47 106 158 
169 163 155 150 144 140 126 127 130 133 136 139 146 132 61 34 24 27 31 32 25 
23 52 74 70 54 56 39 38 65 108 145 156 146 140 135 106 120 121 122 123 128 136 
60 20 36 34 27 28 30 29 28 26 28 41 56 45 41 32 48 56 77 140 146 135 129 22 29 
30 29 25 27 45 30 32 31 34 24 29 28 27 29 32 37 43 49 38 36 23 37 48 54 87 141 
131 122 7 7 8 8 3 8 27 28 27 28 32 24 30 26 27 29 30 34 35 45 33 34 22 26 34 
46 58 107 128 113 9 11 11 11 6 14 30 26 23 25 28 24 29 25 27 28 30 30 33 40 34 
32 23 22 27 33 48 72 116 102 6 10 10 13 15 21 25 29 23 20 15 20 27 24 28 28 29 
25 33 35 34 29 24 20 20 32 39 55 100 90 8 8 13 14 18 26 22 29 28 24 13 17 25 
23 28 26 26 22 34 32 33 28 25 20 20 30 32 57 80 83 11 12 12 13 18 27 23 27 28 
25 16 15 23 21 26 24 21 22 33 31 31 28 21 17 23 27 41 54 65 78 
