P2
30 23
255
149 155 161 166 171 175 179 185 190 196 199 204 210 192 170 163 169 204 215 
211 212 215 215 213 211 209 205 199 191 166 136 141 145 149 154 158 163 167 
171 174 184 163 89 58 37 37 42 72 130 197 202 196 196 194 192 189 186 183 170 
126 138 142 144 149 153 157 160 164 167 171 176 75 13 25 25 22 23 18 29 86 147 
187 184 184 181 179 175 171 159 126 141 145 149 153 156 159 163 167 170 182 
137 19 22 27 22 15 28 36 28 35 106 186 188 188 185 183 181 176 168 134 142 147 
152 156 158 161 166 169 175 172 72 12 17 19 27 22 29 35 28 38 72 169 195 188 
186 184 182 177 173 141 143 149 154 158 161 164 168 172 175 146 64 15 20 22 44 
56 26 64 106 31 36 79 159 196 185 184 181 178 176 148 143 150 154 159 162 166 
170 173 181 106 30 16 27 47 75 90 87 154 178 48 32 39 124 200 186 185 182 179 
177 155 144 150 155 159 163 168 171 178 167 40 23 16 24 47 77 103 122 114 94 
43 37 116 152 193 188 185 182 180 177 160 145 149 154 158 162 167 170 177 172 
51 11 13 16 13 7 33 37 6 35 39 46 135 195 190 187 184 181 178 176 163 144 150 
154 157 161 164 168 172 182 136 50 21 37 27 15 81 143 39 96 78 86 183 193 188 
185 182 178 176 173 165 143 148 152 155 158 162 165 170 173 188 157 61 51 99 
101 89 190 168 191 113 155 200 188 187 183 180 176 173 169 164 141 145 149 153 
156 160 163 167 172 173 187 139 35 91 94 87 160 168 146 174 197 190 188 185 
181 177 173 170 165 160 140 143 146 150 154 157 160 164 169 174 178 187 125 
71 73 121 178 160 170 202 193 186 184 182 178 175 171 166 162 157 139 142 145 
148 152 156 158 161 165 171 183 199 156 44 69 88 141 174 128 148 187 194 190 
180 175 173 168 163 158 153 137 140 142 145 147 151 155 161 174 178 142 76 22 
28 38 79 130 142 113 49 74 115 154 181 179 169 165 160 153 148 135 135 136 139 
142 147 158 153 114 71 23 12 16 35 34 47 96 146 110 43 42 38 54 95 135 172 162 
157 149 143 116 128 128 130 132 141 115 46 20 20 22 23 20 20 37 51 107 107 50 
39 41 32 44 57 65 134 163 152 144 137 25 33 33 33 28 35 35 23 29 24 21 22 22 
20 18 32 42 36 41 35 39 23 33 46 55 75 144 151 139 132 7 7 8 8 2 18 31 27 28 
23 20 24 22 23 24 25 31 37 37 32 35 22 26 34 42 56 97 145 134 123 10 12 12 11 
11 29 27 25 27 25 19 25 21 23 22 29 35 31 34 31 33 24 22 27 31 48 63 125 129 
109 7 10 10 12 22 28 25 22 25 25 19 25 20 24 22 29 30 28 30 33 31 26 22 20 29 
38 50 96 116 96 8 9 14 16 23 26 28 23 17 19 19 24 20 24 23 29 26 28 27 34 30 
26 24 17 29 30 54 70 101 90 11 12 13 16 23 24 30 28 20 13 17 22 19 24 24 27 22 
27 26 33 32 23 21 21 26 32 50 54 93 85 
