P2
30 23
255
177 184 191 196 202 207 211 216 222 227 232 233 239 228 220 232 201 220 246 
244 245 247 245 244 242 239 236 230 223 196 163 169 174 178 183 189 193 198 
202 207 209 218 191 87 75 101 97 118 163 212 214 224 226 224 223 220 217 214 
199 152 166 170 174 178 183 187 190 195 199 203 211 191 85 30 32 28 21 32 50 
88 174 220 215 214 212 209 207 202 189 152 169 174 178 182 186 189 194 199 203 
209 206 99 33 34 28 33 28 33 46 33 114 207 215 219 215 213 212 207 199 161 170 
176 181 185 188 192 198 201 205 215 149 35 34 34 32 28 24 29 45 44 40 83 170 
224 215 215 212 208 204 168 171 177 183 187 191 196 199 204 208 214 103 25 31 
32 31 31 38 32 27 35 32 68 172 219 217 214 212 210 208 176 172 178 184 188 193 
197 202 206 208 220 104 14 22 18 27 32 28 26 30 33 46 103 168 237 216 215 213 
210 209 183 172 178 184 189 193 199 204 207 215 173 81 21 18 13 22 25 19 32 40 
41 47 47 102 167 218 214 212 210 208 189 173 179 183 188 193 199 203 207 216 
119 22 20 22 27 25 25 29 30 30 36 49 37 28 68 217 214 211 209 206 193 173 178 
183 187 191 196 200 206 205 74 23 15 14 25 25 22 29 28 23 30 42 22 72 147 210 
212 209 207 203 195 172 177 182 185 189 193 197 201 209 99 44 17 15 14 24 17 
18 31 44 45 32 54 127 150 210 211 207 204 200 194 169 174 178 182 186 190 194 
199 201 91 36 35 14 15 23 19 28 36 53 93 54 122 179 190 214 207 204 200 195 
189 167 172 175 179 183 187 191 195 200 185 163 147 118 23 33 46 33 36 78 117 
136 183 206 217 208 205 201 197 191 185 166 171 173 176 181 184 188 193 196 
205 220 238 189 41 39 51 75 57 153 179 208 225 216 209 207 203 198 193 186 181 
164 168 170 173 176 180 184 189 204 211 182 103 38 44 68 58 132 166 180 113 
95 158 204 216 209 200 195 189 182 176 162 162 163 166 171 176 186 191 148 95 
40 13 15 24 64 60 168 184 160 66 52 53 85 137 184 201 192 186 177 171 139 155 
155 156 158 168 162 74 29 23 26 26 22 14 33 55 129 150 86 50 51 45 51 71 85 157 
194 181 172 164 30 41 41 41 36 39 51 27 33 32 24 23 22 20 15 30 82 81 46 45 48 
34 41 61 72 84 164 181 166 158 9 9 11 11 3 15 35 33 30 30 22 25 24 25 25 29 33 
41 45 40 43 31 31 43 55 66 108 168 162 148 12 15 16 14 9 30 33 30 29 31 22 28 
25 28 27 31 41 39 42 36 41 31 27 33 39 54 75 130 157 132 9 13 13 15 24 33 29 
28 26 31 24 30 25 29 27 30 40 32 39 36 41 31 29 28 32 47 55 101 140 117 10 11 
17 19 27 31 32 30 24 21 22 29 24 30 28 31 34 32 34 37 41 31 32 21 28 40 49 86 
114 110 14 15 16 18 28 28 34 34 29 16 17 27 22 29 29 30 28 31 31 38 42 29 29 
20 30 32 58 68 97 106 
