P2
30 23
255
142 147 153 157 163 167 171 176 181 187 191 195 196 197 199 200 202 203 204 
205 207 208 208 205 202 200 196 190 182 155 129 134 139 142 146 151 155 159 
163 167 171 172 176 182 178 180 182 184 185 186 188 188 187 185 183 180 177 
174 160 118 132 136 138 142 146 149 152 157 160 165 167 177 171 158 183 177 
175 178 179 180 180 179 178 176 174 172 169 164 152 120 135 139 142 146 148 
151 156 160 165 168 174 137 69 33 96 164 187 182 184 184 183 183 181 180 178 
175 174 169 160 127 136 140 145 148 150 154 158 162 166 177 162 26 51 97 53 62 
157 184 185 186 185 184 183 181 178 176 174 170 166 133 137 142 146 149 152 
156 159 163 169 172 90 41 120 176 152 85 46 159 195 186 186 185 184 183 179 
176 174 171 169 140 137 142 146 150 153 157 162 165 169 137 30 73 98 119 172 
154 32 86 149 195 186 186 185 183 179 177 175 172 170 147 138 142 146 150 154 
159 162 171 141 84 27 74 88 126 166 184 51 39 151 196 187 187 184 182 180 177 
175 172 170 152 138 142 146 150 154 159 161 173 139 20 18 63 77 135 149 177 
93 57 187 193 188 186 185 183 180 176 174 171 167 154 137 142 146 149 153 156 
158 167 146 41 27 59 63 115 148 144 123 60 175 195 187 186 184 182 177 174 171 
168 164 157 136 141 145 148 151 154 156 157 176 103 17 39 54 109 162 159 72 45 
189 192 187 185 182 179 175 172 168 165 161 156 134 138 142 145 148 151 154 
156 164 148 39 14 44 95 160 168 81 94 202 187 186 183 180 177 173 170 165 162 
157 152 132 137 139 142 146 149 150 154 156 173 117 16 47 71 139 174 139 173 
207 191 183 179 177 175 171 167 163 158 154 149 131 136 138 140 144 146 148 
151 154 166 173 98 51 71 152 207 183 81 119 170 187 184 177 173 169 165 160 
155 150 145 129 134 136 138 139 142 144 153 165 142 64 26 57 81 149 203 110 
38 32 61 101 138 170 174 166 163 157 152 145 140 127 129 130 131 135 139 148 
134 85 35 17 23 26 61 98 85 41 44 37 35 52 55 86 160 167 160 155 149 141 136 
107 120 120 120 121 131 91 33 21 26 28 29 23 22 27 31 42 37 32 25 37 46 45 87 
157 159 152 146 138 131 21 29 29 28 23 33 33 28 34 24 27 27 28 28 32 37 35 32 
29 21 25 29 38 48 103 159 148 143 134 125 7 7 8 7 4 25 34 31 33 25 26 25 27 26 
32 31 32 30 29 23 20 20 30 36 67 132 147 139 129 117 9 11 12 9 15 31 31 27 30 
26 26 23 27 25 30 28 29 30 30 25 20 15 21 35 53 95 145 133 122 105 7 10 10 12 
24 25 32 30 18 19 26 21 27 26 29 25 27 28 32 23 18 10 23 38 42 82 133 126 111 
93 8 8 13 15 26 27 28 31 23 14 23 20 27 27 27 24 26 28 32 22 15 19 28 32 44 70 
114 119 104 86 11 12 12 15 27 30 29 30 24 16 20 19 25 26 22 23 24 27 30 25 16 
52 29 28 43 61 98 113 100 82 
