P2
30 23
255
141 147 153 157 162 168 172 176 182 187 190 192 198 197 195 195 198 200 201 
202 201 200 198 196 193 191 187 182 176 171 141 147 151 157 161 165 170 175 
180 185 190 194 169 181 197 199 199 196 197 198 198 198 195 192 190 187 182 
176 170 159 131 137 140 145 150 155 159 164 168 174 178 137 79 78 138 130 161 
192 187 189 189 189 186 182 179 175 171 165 155 118 110 115 119 122 126 131 
134 137 139 149 74 18 23 20 37 25 53 157 160 157 159 157 155 152 149 144 141 
137 123 99 114 118 122 126 129 133 135 137 148 96 15 20 19 20 31 34 39 89 150 
158 157 156 155 152 148 144 140 137 128 106 115 120 125 129 132 136 138 139 
146 51 13 17 22 16 21 40 40 30 103 167 159 158 157 154 151 147 143 139 134 112 
117 123 128 132 135 138 140 146 139 36 8 26 25 24 27 45 60 28 82 163 162 160 
158 155 152 149 144 140 138 117 118 124 129 133 136 140 144 151 130 25 13 44 
48 50 76 153 148 35 73 155 165 161 160 157 153 149 145 141 139 123 119 125 130 
134 138 142 150 138 58 21 14 39 65 110 162 190 180 45 39 130 170 162 161 158 
154 150 145 141 139 127 121 126 131 135 139 145 148 159 96 9 19 50 82 85 177 
129 188 56 52 151 171 164 161 158 154 149 144 141 138 130 121 127 132 136 140 
146 150 156 162 76 24 72 88 71 206 217 231 105 130 173 169 165 162 158 153 148 
143 139 136 130 121 127 132 136 141 146 151 155 166 139 43 72 90 78 206 255 
226 135 171 173 170 166 161 157 152 147 141 137 133 127 121 127 132 137 142 
147 152 157 162 165 109 57 82 87 192 251 215 168 182 174 172 166 161 156 150 
145 140 136 130 124 123 128 134 139 145 149 154 159 162 167 170 74 66 89 166 
218 206 183 178 175 171 166 161 155 150 145 140 135 128 122 125 130 134 140 
146 151 155 158 170 182 178 72 40 79 165 189 166 187 189 180 170 165 161 156 
150 144 139 133 126 119 126 130 135 140 146 153 166 175 157 98 61 50 34 56 125 
193 102 62 127 153 173 168 160 156 149 143 138 132 123 115 123 127 131 136 151 
160 123 75 22 1 36 59 51 60 154 220 65 16 23 40 66 132 167 153 151 144 138 132 
122 113 123 126 127 137 115 50 10 3 10 11 23 56 57 86 189 109 18 25 22 29 24 
45 139 159 149 145 139 132 121 112 107 110 113 104 23 6 16 17 13 13 10 43 74 
85 59 24 29 20 18 22 27 26 61 149 150 142 138 131 119 109 13 14 15 15 16 18 17 
16 14 14 13 10 24 27 24 26 25 17 19 15 19 28 30 94 153 139 136 128 117 107 8 9 
12 17 21 19 18 20 13 14 13 11 8 15 25 26 34 19 17 13 15 21 30 52 130 140 132 
126 115 103 9 11 16 18 22 20 17 17 20 58 59 35 37 39 34 55 37 25 15 13 12 18 
28 40 100 139 128 122 111 99 8 13 18 21 23 17 15 14 22 54 86 46 54 61 42 78 25 
24 16 12 12 17 29 38 82 133 124 117 106 92 
