P2
30 23
255
140 146 151 157 162 166 170 175 180 186 191 194 197 202 207 207 207 205 202 
204 207 208 207 205 202 200 196 190 183 157 128 133 137 141 145 149 154 158 
162 167 170 175 170 150 126 119 122 160 185 186 186 188 187 185 184 181 178 
175 160 118 130 135 137 141 144 148 151 155 159 164 166 168 74 26 19 19 21 30 
88 175 183 177 177 176 173 171 168 164 151 119 133 137 140 144 147 150 154 159 
163 165 179 119 15 26 25 20 26 23 28 64 132 183 179 179 176 175 174 169 159 
126 135 139 143 147 149 152 157 161 165 172 165 60 10 21 20 15 30 27 24 39 105 
181 182 180 177 176 173 169 165 132 136 140 145 149 152 155 159 162 168 170 
134 39 13 19 34 37 25 57 59 26 78 177 183 182 178 175 174 171 169 139 136 141 
145 149 153 157 161 165 169 173 101 24 17 33 59 68 63 159 125 19 53 83 176 183 
179 176 174 172 170 145 137 141 145 149 153 159 163 166 175 158 40 19 21 56 91 
116 140 158 124 31 38 74 177 183 179 176 175 172 169 150 137 141 146 149 153 
158 162 165 175 157 27 10 24 52 65 120 137 91 126 37 58 148 183 183 179 176 
174 171 168 153 137 141 145 148 152 156 159 164 169 176 111 26 32 94 98 112 
192 188 182 47 102 187 184 181 178 174 171 168 164 156 136 140 144 147 150 153 
156 161 165 171 182 125 44 88 86 108 194 198 167 77 171 189 181 179 176 172 
169 166 161 156 133 138 141 144 148 151 154 158 162 167 170 185 83 61 94 103 
177 200 160 160 190 182 180 176 174 169 165 162 157 152 132 136 138 142 145 
148 151 155 159 164 168 181 178 68 70 95 145 161 175 201 183 179 178 175 172 
167 163 158 154 149 131 135 138 140 143 146 148 152 156 164 179 175 132 43 48 
87 133 128 111 138 182 184 176 172 169 165 160 155 150 145 129 132 135 137 139 
142 145 151 165 158 121 49 8 26 32 65 104 126 99 36 74 146 174 178 167 162 157 
152 145 140 126 127 128 131 135 139 146 148 96 45 19 15 19 29 39 45 104 138 
71 40 29 47 84 123 160 161 154 149 141 136 108 120 120 121 122 130 128 53 18 
22 24 22 22 18 26 45 83 61 38 37 32 34 52 54 99 159 152 146 137 131 22 30 29 
32 32 29 41 24 28 25 20 23 24 22 19 22 26 36 37 32 29 24 39 52 58 117 152 141 
133 124 6 6 6 10 13 9 27 27 26 26 19 24 22 23 25 27 34 36 32 29 26 20 26 36 47 
71 131 140 127 116 9 10 10 13 13 18 27 24 25 28 21 24 21 22 22 30 33 33 30 28 
26 21 20 26 37 47 103 136 119 103 6 9 9 12 16 22 27 24 21 22 21 24 20 22 20 29 
31 31 27 29 25 23 16 21 29 41 80 118 110 91 7 8 13 14 16 21 24 29 23 14 16 23 
19 22 20 28 30 31 26 29 24 22 16 19 27 50 58 102 103 84 11 11 12 14 18 23 24 
30 28 21 13 21 19 22 19 27 29 30 26 28 27 18 16 22 36 45 51 93 99 78 
