P2
30 23
255
140 146 152 156 161 166 171 176 181 186 189 191 192 192 193 195 198 199 199 
200 200 199 197 194 191 189 185 181 175 170 140 146 150 156 160 164 169 174 
178 183 187 190 190 194 197 191 194 195 196 197 196 196 194 191 188 185 181 
175 169 159 131 136 141 145 150 154 159 163 168 174 177 179 184 160 147 194 
188 186 187 188 189 188 185 182 179 175 171 165 155 119 110 114 119 122 125 
129 133 137 139 143 144 128 76 40 32 105 149 162 158 157 157 156 154 152 149 
145 140 136 123 98 113 117 121 125 128 131 134 138 140 145 129 63 28 37 51 38 
77 131 147 157 156 154 153 151 147 143 140 135 126 105 115 119 124 128 131 134 
137 140 142 159 89 11 61 147 176 101 40 72 153 162 158 157 155 153 150 146 142 
138 133 111 116 122 127 130 134 137 140 142 150 120 41 44 70 152 193 162 112 
44 110 159 161 159 157 154 151 147 143 139 137 116 117 123 128 132 135 139 143 
145 158 88 11 73 87 128 205 231 173 13 65 158 163 160 158 155 152 148 144 140 
138 122 118 124 129 133 137 141 145 152 147 46 19 72 85 120 200 235 207 36 63 
150 167 161 159 156 153 148 144 140 138 125 119 125 129 133 138 143 147 158 
133 43 23 64 65 124 210 238 225 51 68 162 167 163 160 157 152 148 143 140 137 
129 120 126 130 135 140 144 148 158 142 40 29 58 56 106 161 195 223 122 78 173 
167 163 161 157 152 147 142 139 135 129 119 125 130 135 140 145 149 153 168 
119 29 44 53 97 158 187 180 74 131 178 167 164 161 156 151 146 141 137 132 127 
119 125 131 136 140 146 150 154 163 150 21 26 52 100 187 215 173 25 150 179 
168 164 159 155 150 144 139 135 129 124 122 127 132 138 143 148 152 156 159 
167 88 25 49 96 196 220 158 69 173 173 169 165 159 154 149 143 139 134 127 121 
124 128 132 138 145 149 153 160 173 180 137 51 48 83 185 224 171 144 190 180 
169 163 159 154 148 142 138 132 124 118 124 129 134 139 144 156 166 159 117 
55 35 59 61 87 199 252 197 36 101 144 166 170 158 154 148 142 137 131 122 114 
121 125 130 136 151 133 76 32 6 1 32 65 66 110 227 253 139 18 23 31 63 101 161 
153 149 143 137 131 121 112 121 124 126 136 82 17 6 12 15 14 14 47 63 98 186 
148 32 28 21 25 31 27 101 159 148 143 138 131 120 110 107 110 117 84 10 16 19 
17 13 15 12 20 40 69 66 29 33 27 18 19 28 30 34 113 153 140 137 129 118 108 
14 15 18 15 19 19 19 19 14 12 15 11 10 14 23 28 32 23 18 17 18 25 31 49 131 
142 133 127 116 105 8 9 13 18 21 19 17 20 14 26 21 15 14 15 29 22 40 29 17 15 
12 21 29 34 79 139 130 124 113 102 9 12 17 19 22 21 15 15 19 69 69 47 43 45 34 
55 49 42 21 14 12 16 24 34 48 113 129 119 110 98 7 14 19 21 23 19 13 13 14 59 
79 50 52 68 36 79 43 28 22 12 11 14 20 31 41 88 125 113 105 92 
