P2
30 23
255
140 146 151 155 161 166 171 175 180 186 189 191 192 194 195 195 197 199 199 
200 200 199 197 194 191 188 185 180 175 169 140 145 150 155 160 164 169 173 
178 183 187 190 190 190 191 192 195 196 195 197 196 196 194 190 188 185 181 
174 168 159 130 135 139 144 149 154 158 163 167 173 178 181 183 187 192 189 
187 187 187 188 188 188 184 181 178 174 170 164 154 118 110 114 118 122 125 
129 133 137 139 143 147 148 149 139 113 102 156 159 156 157 157 155 153 151 
148 143 139 135 123 98 113 117 121 125 128 131 134 137 141 145 146 147 127 57 
24 20 95 151 160 157 156 154 153 151 147 143 139 135 127 105 114 119 124 128 
131 134 137 139 144 147 157 135 41 40 115 134 38 91 136 159 159 157 155 153 
149 146 142 138 133 111 115 121 126 130 133 137 140 143 147 152 147 72 31 82 
130 198 146 55 97 160 160 159 157 154 151 147 143 139 136 116 117 123 128 132 
135 139 143 147 149 162 106 11 69 96 116 197 230 89 37 131 166 159 158 155 152 
148 144 140 138 122 117 124 128 132 137 141 145 150 155 155 47 13 66 69 114 
198 239 126 22 128 170 160 159 156 152 148 144 140 138 125 119 124 129 134 138 
142 148 152 159 145 59 20 60 57 107 160 223 145 36 134 171 162 160 157 152 147 
143 140 137 128 120 126 130 134 139 144 149 153 162 143 38 33 56 56 116 186 
193 166 58 154 170 162 160 156 152 147 142 138 135 128 119 125 130 135 139 144 
149 155 157 174 94 13 44 58 128 215 208 100 80 170 169 163 160 156 150 145 140 
136 132 126 119 125 130 135 140 145 150 155 158 173 116 7 45 56 130 218 213 
59 107 184 167 164 159 154 149 144 139 135 129 123 122 126 132 138 143 148 153 
157 159 165 170 47 43 57 113 215 212 80 147 178 168 164 159 154 149 143 138 
134 127 121 122 128 133 138 145 149 152 160 172 178 160 82 59 69 126 233 235 
151 179 182 170 162 158 154 148 142 138 132 124 118 122 128 133 138 144 155 
167 159 128 65 25 55 77 79 161 254 249 74 79 138 159 169 158 153 148 141 137 
130 121 114 120 124 130 135 149 139 87 37 10 5 12 49 69 89 153 244 149 26 21 
28 51 84 156 155 148 142 137 130 120 113 120 123 125 137 109 24 8 13 17 18 15 
18 51 81 120 98 34 34 22 25 31 23 83 156 148 143 138 130 119 110 105 108 112 
104 27 16 23 21 18 15 19 14 13 25 30 24 33 34 20 20 26 29 30 103 153 140 137 
129 118 108 13 14 16 16 19 25 20 22 22 13 16 13 13 8 22 26 31 32 19 19 16 25 
30 46 129 142 133 127 116 105 9 9 12 17 22 26 19 19 17 39 67 47 36 38 32 36 52 
53 28 15 12 20 27 35 80 138 129 124 113 102 9 12 17 20 22 25 17 15 13 39 76 74 
48 73 42 56 64 38 29 14 12 16 23 36 52 116 128 120 110 98 8 13 20 24 26 26 14 
15 8 34 89 61 44 54 43 65 52 38 26 13 11 16 22 35 44 93 125 114 104 92 
