P2
30 23
255
139 145 151 155 160 165 170 174 180 185 188 190 191 191 193 193 196 198 198 
199 199 197 196 193 190 188 184 179 174 169 139 144 149 155 159 163 168 173 
177 183 187 189 190 195 196 194 193 195 195 196 196 196 193 190 187 184 180 
174 168 158 130 135 138 142 148 153 157 162 166 172 176 176 174 157 117 149 
194 184 185 186 187 186 183 180 177 173 169 163 152 116 109 114 117 120 124 
128 132 136 139 142 143 141 87 37 12 47 127 157 158 156 156 155 152 150 147 
142 139 135 122 97 112 116 120 124 127 131 134 137 140 144 146 74 28 58 99 70 
44 118 139 157 155 154 152 150 146 142 139 135 126 105 113 119 124 127 130 133 
136 139 142 150 124 19 48 88 183 150 75 50 122 162 158 156 155 152 148 145 141 
138 132 111 115 121 126 129 133 136 139 141 149 140 44 30 88 84 155 203 191 
50 73 144 163 157 156 153 150 146 142 139 136 116 116 122 127 131 135 139 142 
145 156 115 12 41 87 93 145 219 230 67 35 139 166 159 157 155 151 147 143 139 
138 122 117 123 128 132 136 141 145 149 158 82 8 43 71 73 147 217 244 99 40 137 
169 160 158 155 151 147 144 140 136 125 118 124 128 133 138 143 147 153 150 
72 20 47 57 67 124 172 226 131 52 159 167 161 159 156 152 147 142 139 136 128 
119 125 130 134 139 143 148 152 163 95 20 50 52 65 130 179 190 141 79 168 167 
162 160 155 151 146 142 138 135 128 118 125 129 134 139 143 148 153 161 159 
35 22 50 65 151 216 199 54 120 179 166 163 159 155 149 145 140 136 131 125 119 
125 130 135 139 145 150 154 159 165 56 13 52 64 153 224 196 44 141 179 167 164 
158 154 149 143 138 134 128 123 120 126 131 137 142 147 151 155 157 173 144 
32 54 58 139 220 194 106 174 172 167 163 158 153 148 143 138 133 126 120 123 
127 132 138 144 147 152 162 174 166 129 66 62 64 133 233 224 134 170 182 174 
166 157 153 147 142 137 132 124 117 123 128 133 138 144 158 163 145 96 31 29 
62 77 79 180 255 221 31 50 89 124 151 160 152 147 141 137 129 121 113 120 124 
129 136 149 120 61 19 6 6 26 61 69 88 173 249 108 25 23 21 29 45 135 157 146 
142 137 130 120 112 120 123 126 134 70 12 8 15 17 16 10 35 63 89 133 97 28 32 
20 24 31 25 50 140 150 141 137 130 119 110 104 106 115 76 10 19 20 18 14 16 16 
12 25 39 37 23 34 31 19 19 23 26 29 75 148 140 136 128 117 107 12 14 16 15 21 
20 19 20 16 10 13 11 9 8 23 25 30 27 17 17 15 22 30 36 108 144 132 126 115 105 
8 9 14 19 23 22 16 20 15 33 39 26 24 22 30 29 49 47 23 15 12 18 26 34 63 131 
130 123 112 102 8 13 18 20 23 24 13 15 19 57 75 63 46 69 31 56 59 34 26 14 11 
15 21 34 46 101 129 119 109 97 8 16 20 23 24 22 12 14 12 47 74 62 43 63 42 67 
58 32 24 13 11 15 20 33 42 77 122 113 104 91 
