P2
30 23
255
141 147 152 157 162 167 171 176 181 187 191 194 202 205 206 204 205 208 203 
204 207 208 208 206 203 200 197 191 183 158 128 133 138 142 146 150 155 159 
162 168 171 174 143 117 98 92 107 153 185 188 187 189 188 186 184 181 178 175 
162 119 131 135 138 141 145 148 152 156 159 162 173 120 24 19 17 17 18 24 95 
174 180 178 177 176 174 172 168 164 152 119 133 138 141 145 147 151 155 159 
163 169 166 46 16 30 23 20 27 25 29 65 147 185 179 180 177 175 174 169 160 127 
135 139 143 147 149 153 157 161 165 175 110 15 17 20 19 16 31 27 25 50 129 186 
181 180 178 176 174 170 166 133 136 140 145 149 152 156 159 163 169 159 86 16 
17 21 40 36 26 60 52 26 100 182 183 183 179 176 174 172 170 141 137 141 146 
150 153 158 162 165 174 146 54 14 22 39 65 66 63 165 100 19 49 96 189 182 179 
177 175 172 170 147 137 141 146 150 154 159 163 165 180 95 19 18 27 71 100 119 
145 162 99 24 44 95 187 182 180 177 175 173 170 151 137 141 146 149 154 158 
162 165 182 89 9 14 33 56 73 138 130 97 110 29 82 160 184 183 180 176 174 172 
168 155 137 142 145 148 152 156 159 163 173 152 55 14 53 105 97 128 190 193 
164 40 135 190 184 181 178 174 172 169 165 157 136 140 144 147 150 153 156 161 
165 178 159 67 49 113 83 120 192 196 150 87 192 184 182 180 176 173 169 166 
162 157 134 138 141 144 148 151 154 158 163 166 178 146 40 79 82 114 181 155 
150 175 188 183 180 177 174 170 166 162 158 153 132 137 138 142 145 149 151 
155 160 165 168 185 132 55 62 104 122 135 177 201 182 180 178 176 172 167 163 
159 154 149 132 136 138 140 144 147 149 153 156 164 178 182 127 44 71 129 152 
128 112 148 185 184 177 173 169 166 161 156 150 145 129 133 135 138 139 143 
146 151 165 164 127 51 13 28 58 143 174 126 83 38 84 150 173 179 168 162 158 
152 146 141 126 127 129 131 135 139 147 152 108 55 19 13 18 27 39 123 141 119 
63 40 27 52 82 120 161 162 155 149 141 137 108 120 120 121 123 131 123 60 19 
20 21 21 18 17 30 62 88 56 38 37 30 37 52 53 102 160 152 146 138 131 22 30 30 
32 32 31 36 20 27 23 19 21 21 19 19 24 28 37 35 33 27 26 40 52 58 120 153 142 
133 125 6 6 6 10 13 13 29 26 26 23 19 22 22 23 24 26 34 34 31 29 25 20 27 36 
47 73 135 141 128 116 9 10 10 13 15 23 26 24 25 26 19 23 20 21 22 29 32 32 29 
28 26 20 21 25 38 49 108 136 120 104 6 9 9 12 18 25 24 23 22 24 20 23 19 22 21 
30 30 30 27 29 24 23 16 22 29 45 81 120 111 92 7 8 13 14 18 23 26 25 17 15 19 
22 18 22 21 28 28 30 26 29 24 22 16 21 29 51 59 106 103 84 10 11 12 14 19 21 
25 29 24 13 15 21 18 22 20 27 27 29 25 29 27 18 16 23 36 43 54 96 99 79 
