P2
30 23
255
141 147 153 158 163 168 172 177 182 187 191 194 202 204 199 192 186 202 209 
204 206 208 208 206 203 201 197 191 184 160 129 134 139 142 146 151 156 159 
163 168 172 178 123 90 70 66 58 92 138 187 192 188 188 186 185 182 179 176 162 
119 130 135 138 141 145 148 152 156 160 163 172 132 23 16 19 18 21 18 22 103 
164 177 176 176 174 172 168 164 152 119 134 138 141 145 148 150 155 160 163 
168 172 59 12 28 26 19 22 27 26 32 70 157 183 179 177 175 174 169 160 127 135 
140 144 148 150 153 158 162 165 176 121 21 15 18 20 13 21 33 25 28 69 147 185 
179 178 176 174 170 166 133 136 141 145 149 153 156 160 163 169 161 104 24 14 
17 29 34 26 33 48 38 31 126 186 181 179 176 174 172 169 141 136 142 146 150 
154 158 162 165 173 154 66 16 17 28 38 65 38 61 149 52 28 50 114 190 178 177 
175 173 170 147 137 141 146 150 154 159 164 166 181 112 18 18 19 49 82 96 102 
153 176 64 25 37 107 190 178 177 175 173 170 152 137 141 146 150 154 158 163 
165 183 103 11 18 20 58 84 98 148 110 130 69 30 102 152 185 179 176 174 171 
168 155 137 142 145 148 152 157 160 164 174 153 51 11 34 74 93 85 172 127 177 
98 49 154 186 181 178 175 172 169 165 157 136 140 144 147 150 154 157 162 165 
178 158 74 39 98 104 82 183 198 203 98 116 195 181 179 176 173 169 166 162 157 
134 138 141 145 148 152 155 158 164 167 177 162 43 78 99 78 164 182 171 145 
180 184 180 177 174 170 167 162 158 153 133 137 138 142 146 149 152 156 161 
166 169 183 143 56 72 85 149 159 143 193 188 178 178 175 172 168 163 159 154 
149 132 135 138 140 144 147 150 154 157 164 178 184 146 48 59 82 112 119 124 
131 176 186 179 173 169 166 161 156 150 146 129 133 136 138 140 143 146 151 
165 166 136 63 14 26 54 109 172 150 100 45 64 126 163 177 171 162 158 153 146 
141 127 127 129 131 135 139 147 154 115 61 22 12 16 26 35 96 159 133 96 43 34 
37 69 99 142 165 155 150 142 136 109 121 121 123 124 132 126 67 20 20 21 20 16 
16 25 82 129 87 48 36 35 30 48 51 69 142 156 145 138 131 23 31 31 34 33 32 37 
19 26 23 18 19 19 16 16 31 37 34 38 32 33 21 36 48 55 83 146 143 133 125 6 6 6 
9 13 13 28 26 25 22 18 20 20 22 22 21 27 35 34 28 29 19 24 33 41 57 102 142 
127 116 9 10 10 12 15 23 26 23 24 24 18 22 20 21 22 27 32 31 32 26 28 21 20 25 
30 45 68 128 121 103 6 9 9 12 19 25 23 23 23 25 18 23 19 21 20 26 31 28 29 27 
27 24 20 17 28 32 57 98 111 91 7 8 13 14 19 24 24 22 17 19 18 22 18 21 20 26 
28 28 27 27 26 23 20 16 24 33 54 71 102 83 11 11 12 14 20 20 25 26 18 11 16 21 
17 21 20 25 25 29 25 26 29 22 18 18 23 39 44 60 96 79 
