P2
30 23
255
184 192 199 204 209 214 219 225 231 236 239 241 242 243 244 244 246 246 247 
247 247 247 245 242 241 238 235 230 223 217 184 192 197 203 208 213 217 222 
228 234 238 240 239 239 241 241 243 244 245 246 246 245 243 241 238 236 230 
224 217 206 172 178 184 189 195 201 205 210 215 221 225 232 238 237 240 240 
237 235 234 236 237 236 233 230 227 222 217 211 200 156 149 155 160 163 167 
172 176 180 184 188 195 187 146 145 145 148 186 206 207 205 203 203 201 198 
194 189 184 179 164 133 153 158 163 168 172 174 177 182 186 193 177 83 58 64 
45 58 81 112 162 196 209 201 201 199 195 190 184 179 170 143 154 161 167 172 
175 178 181 185 189 204 137 29 38 42 43 43 23 29 70 128 175 205 203 201 197 
192 188 183 177 150 156 163 169 174 177 182 186 189 194 198 81 20 32 31 45 50 
32 32 50 89 121 208 204 202 199 194 190 184 180 156 158 165 170 175 179 185 
190 192 205 112 22 37 41 34 44 48 33 33 37 86 116 198 207 203 200 195 191 185 
182 163 159 166 172 175 181 187 191 200 217 96 21 29 36 51 59 46 21 27 52 87 
79 179 211 203 200 196 190 186 181 168 161 167 173 177 182 189 197 187 138 58 
20 27 26 18 31 37 20 28 54 88 56 130 206 204 200 195 189 185 180 171 162 168 
174 178 184 189 204 165 44 21 19 21 19 23 29 30 17 25 56 72 41 76 193 206 199 
194 188 183 178 171 161 168 173 178 184 191 196 206 104 16 20 13 12 24 32 43 
46 31 51 49 69 90 182 206 196 192 186 180 174 169 161 168 174 179 186 192 196 
209 109 15 21 16 14 15 34 52 61 56 35 19 58 143 177 200 196 190 184 178 172 
166 164 170 175 182 190 195 198 214 125 50 28 20 18 13 33 45 32 58 66 28 48 110 
168 205 195 190 184 177 170 163 166 172 176 183 192 195 200 217 199 93 53 29 
21 14 27 35 28 44 82 52 102 175 205 201 195 188 182 175 167 159 167 172 177 
183 192 210 213 191 149 78 42 46 21 19 18 39 65 86 84 55 64 144 210 199 195 
187 181 173 163 154 163 168 172 180 195 151 72 26 6 2 21 63 44 21 44 42 82 145 
78 54 46 72 186 206 194 189 181 174 162 152 165 168 169 184 100 8 9 14 15 14 
9 41 53 48 101 93 137 139 28 54 53 30 82 195 197 189 182 174 161 150 141 143 
152 114 14 18 18 14 12 12 11 10 59 73 155 201 175 36 25 26 32 36 40 117 200 
186 180 172 159 146 16 17 20 17 17 16 14 13 12 11 12 10 16 71 209 196 69 29 25 
23 25 29 41 58 160 189 176 170 156 142 11 13 17 17 16 15 13 14 11 10 11 8 7 31 
101 46 28 32 20 21 17 27 37 48 100 181 173 166 153 139 11 15 19 17 17 17 13 14 
16 47 59 46 35 32 31 41 63 46 24 19 17 23 32 47 69 149 173 161 149 133 10 16 
19 19 21 17 15 14 25 55 94 84 51 83 43 79 68 29 26 17 17 21 27 44 60 120 167 
153 142 124 
