P2
30 23
255
141 147 152 157 162 166 171 176 180 187 190 193 197 204 190 201 206 201 203 
205 207 208 207 205 203 200 195 190 183 156 128 134 138 141 145 149 154 158 
162 167 170 174 170 135 67 88 163 184 184 185 187 188 187 185 183 180 177 173 
160 118 131 136 138 141 145 148 152 156 160 164 166 174 74 18 40 34 37 125 183 
179 178 179 177 176 174 172 168 163 152 120 134 138 142 145 148 151 155 159 
164 166 176 150 24 72 152 158 88 58 118 177 184 182 181 180 177 175 174 169 
160 127 136 140 145 148 150 153 157 161 166 175 162 62 46 99 137 167 162 86 33 
147 188 182 182 180 178 176 174 170 165 133 137 142 146 149 152 156 159 163 
168 163 132 22 76 104 98 159 176 128 36 79 131 192 182 183 179 176 174 171 169 
141 137 142 146 150 153 158 162 164 173 129 76 24 78 84 102 155 176 172 38 47 
151 191 184 182 179 177 175 172 170 147 137 142 147 150 154 159 163 165 179 
125 12 16 67 67 109 149 162 185 57 75 189 186 183 182 180 176 175 172 169 152 
138 142 147 150 154 159 162 165 178 133 30 23 60 60 86 129 135 151 114 63 180 
187 184 183 179 175 173 171 167 155 138 142 146 149 153 156 159 163 167 183 
86 22 45 54 81 142 155 144 49 74 188 185 183 181 177 174 171 168 164 157 136 
141 145 147 151 155 157 161 163 177 131 19 20 41 77 142 161 146 26 101 196 182 
181 179 175 172 168 165 161 155 134 139 142 145 148 152 154 157 161 164 179 
88 3 45 63 129 160 145 77 182 186 181 179 176 173 169 165 162 157 152 132 137 
139 143 146 149 151 154 159 160 175 163 67 48 62 110 170 184 142 182 191 180 
176 174 171 167 162 158 153 148 132 136 139 140 144 147 148 150 157 171 165 
113 52 59 73 137 204 217 97 68 131 174 182 176 168 164 159 155 150 144 130 134 
135 137 139 142 146 158 153 123 56 12 15 45 79 128 191 140 59 48 38 77 115 154 
167 162 156 152 145 140 127 128 129 132 135 140 142 99 50 25 22 29 27 19 39 68 
66 46 55 47 38 41 56 65 108 162 154 149 141 136 108 121 120 120 122 132 78 18 
28 30 25 27 28 27 22 24 34 49 49 40 34 29 47 56 54 113 155 144 137 131 22 29 
29 29 24 29 31 30 32 28 23 27 26 26 28 33 40 40 43 36 30 23 29 42 49 66 129 
144 132 124 7 6 8 8 2 19 30 27 28 29 22 27 24 27 25 31 33 37 38 34 30 21 22 32 
37 51 86 139 127 115 9 11 11 10 11 28 26 24 26 27 23 26 23 27 24 30 28 36 34 
34 29 22 19 24 31 42 58 118 121 102 7 10 10 12 21 27 28 23 19 16 20 24 22 27 
24 28 25 35 31 32 27 24 18 18 31 32 53 90 110 90 8 8 13 15 23 23 29 28 23 12 
16 22 21 27 24 25 23 34 30 32 28 22 18 21 26 34 55 67 98 84 11 12 12 16 25 23 
27 28 26 17 14 21 20 26 22 21 23 31 29 30 28 20 16 21 26 41 47 58 88 80 
