P2
30 23
255
140 146 152 157 162 166 171 176 181 187 191 194 200 204 207 207 206 206 203 
204 207 208 208 205 203 200 196 190 183 158 128 133 138 141 145 150 154 159 
162 167 171 176 159 140 126 111 121 159 186 187 187 189 188 186 184 181 178 
175 161 119 130 135 138 141 145 148 151 155 159 163 171 143 40 21 18 19 22 29 
101 175 179 178 176 176 174 171 169 164 151 119 133 137 141 144 147 150 154 
159 163 167 176 70 12 29 23 22 24 22 32 67 145 185 179 180 177 175 174 169 159 
126 134 139 143 147 149 152 157 161 165 175 136 25 15 21 17 16 30 26 26 50 129 
186 181 181 178 176 174 170 165 133 136 140 145 149 152 155 159 162 168 165 
105 21 15 19 32 28 28 48 45 26 106 182 182 183 179 176 174 171 169 140 137 141 
145 149 153 157 162 165 172 159 72 16 20 29 53 54 47 150 93 21 48 95 188 181 
180 177 175 172 170 146 137 141 146 150 154 159 163 165 179 126 21 18 25 62 92 
103 136 170 107 24 41 97 187 181 180 177 175 173 170 150 137 141 145 150 153 
158 162 165 181 120 11 14 30 53 70 134 120 94 107 30 80 160 185 183 180 176 
174 171 168 154 137 141 145 148 152 156 159 163 171 166 79 18 43 96 92 127 177 
174 157 43 140 190 183 181 178 174 171 168 165 157 136 140 144 146 150 153 157 
161 164 175 175 104 46 115 93 125 192 181 157 101 191 185 182 179 176 173 169 
166 162 156 133 138 141 144 148 151 154 158 163 167 173 177 67 77 77 107 167 
142 151 183 187 183 180 177 174 170 166 162 157 152 132 137 138 141 146 149 
151 155 160 165 168 185 158 64 69 107 170 153 174 200 182 179 178 175 172 167 
163 159 154 149 131 135 138 140 144 146 149 153 156 164 179 178 131 38 54 99 
154 131 111 143 184 184 177 173 169 165 161 156 150 145 129 133 135 137 139 
142 145 151 164 163 125 50 11 29 32 76 108 132 90 34 79 148 172 178 168 163 
158 152 146 141 127 127 128 131 135 139 146 151 104 52 19 15 18 34 38 53 116 
139 60 40 28 50 82 120 160 162 155 149 142 136 108 120 120 121 123 132 124 56 
19 21 23 23 21 19 31 55 93 57 37 37 30 36 53 54 101 160 152 146 137 131 22 30 
30 32 32 30 37 22 28 25 21 23 24 21 18 23 26 36 36 32 26 25 39 52 58 119 152 
141 133 125 6 6 6 10 12 11 28 27 26 25 20 23 22 24 25 27 34 34 31 29 25 20 26 
35 46 71 132 140 128 116 9 10 10 13 14 22 27 25 26 27 20 24 21 22 23 30 33 32 
29 28 26 20 20 25 37 48 106 136 119 104 7 9 9 12 18 25 26 23 21 24 21 24 20 22 
21 30 30 31 27 29 25 23 16 22 29 44 79 118 110 91 7 8 13 14 18 22 26 27 19 13 
19 23 19 22 21 28 28 30 26 29 24 22 16 20 29 50 57 104 103 84 11 11 12 14 19 
23 26 29 26 15 15 21 19 22 20 27 28 29 26 28 27 18 17 22 36 43 53 93 99 79 
