P2
30 23
255
141 147 153 158 162 167 172 176 182 187 190 191 197 201 196 195 197 199 201 
201 201 200 198 195 193 190 187 182 176 171 140 146 151 157 162 165 170 174 
179 185 187 199 172 161 190 199 200 197 197 198 198 197 195 192 190 187 182 
176 171 160 131 136 140 145 150 155 160 164 169 173 183 146 92 57 102 131 124 
182 189 189 190 189 186 183 179 176 171 166 155 119 110 115 119 122 125 131 
135 138 139 150 106 19 20 18 29 34 20 104 167 157 158 157 155 153 149 145 141 
137 123 99 113 117 122 126 129 132 135 137 145 127 28 18 21 20 27 34 37 55 123 
158 157 155 155 152 148 144 140 136 128 106 116 121 125 129 132 135 138 138 
151 92 13 17 20 18 16 34 42 36 50 147 162 157 157 154 151 147 143 139 134 112 
117 123 127 132 135 138 140 143 154 70 7 20 27 22 27 31 58 41 39 133 166 159 
158 156 153 149 144 140 138 118 118 124 129 133 136 140 144 147 149 53 8 32 50 
42 55 106 165 74 32 119 166 160 159 157 153 149 145 141 139 123 118 125 130 
134 138 142 147 153 80 26 12 26 56 89 136 181 203 92 22 87 161 163 160 157 154 
150 145 141 139 127 120 126 131 135 139 144 149 158 133 25 10 36 74 69 158 139 
168 110 22 100 171 164 161 158 154 149 144 141 138 130 121 127 132 136 140 145 
151 155 165 115 24 57 90 59 165 215 229 159 86 157 171 164 162 158 153 148 144 
139 136 130 121 127 132 136 141 146 151 156 161 164 65 56 95 72 160 254 250 
159 142 176 170 166 162 157 152 147 142 138 133 128 121 127 132 137 141 147 
152 157 162 167 136 61 77 78 157 239 220 163 177 175 171 166 161 156 151 145 
140 136 130 125 123 129 134 139 144 149 155 159 163 165 179 100 58 79 128 184 
209 182 178 175 171 166 161 156 151 145 140 135 129 123 125 130 134 140 146 
151 155 158 168 181 185 103 41 99 194 214 174 183 190 180 170 165 161 156 149 
144 139 133 125 119 125 130 135 140 146 152 165 176 162 108 63 51 33 81 221 
213 130 59 123 152 173 170 159 156 150 143 138 132 123 115 123 126 132 136 149 
162 129 82 30 1 25 57 43 68 171 199 114 14 25 36 67 120 167 153 151 144 139 
132 122 114 123 126 127 136 124 56 12 3 8 12 16 47 56 59 143 153 31 24 23 27 
26 34 125 160 149 145 139 132 120 112 107 110 113 109 31 5 15 16 12 12 8 31 69 
88 78 32 28 23 20 20 28 26 48 139 152 142 138 130 119 109 13 15 16 16 15 18 16 
15 12 13 14 10 23 32 24 26 29 18 20 16 18 27 29 79 151 139 136 129 117 106 9 9 
12 16 19 17 16 19 14 12 13 10 9 9 26 22 36 20 18 15 14 21 30 45 120 141 131 
126 114 103 9 12 16 18 21 20 14 18 16 48 61 39 32 41 31 50 45 27 17 14 12 17 
27 38 89 138 127 122 112 99 8 13 18 20 23 19 13 16 18 46 81 60 43 69 32 78 37 
22 19 12 12 16 28 37 73 130 123 117 106 93 
