P2
30 23
255
173 180 186 192 198 203 208 212 216 222 227 229 234 236 236 235 237 238 239 
240 242 243 242 240 238 236 232 226 219 192 159 165 170 174 179 184 189 193 
197 203 206 212 203 199 205 183 199 223 220 220 224 224 223 221 220 216 213 
210 196 148 161 166 170 174 178 182 186 191 195 197 208 170 70 70 81 92 123 
153 208 200 209 214 212 211 209 207 204 198 185 148 164 169 174 178 181 185 
189 195 198 207 191 81 26 32 28 20 31 53 99 170 217 216 216 215 212 211 209 
204 195 157 165 171 176 181 183 187 193 197 203 208 101 28 32 27 31 28 32 41 
35 117 221 218 216 215 213 212 209 205 200 163 167 173 178 182 186 190 195 197 
210 154 35 32 28 27 25 20 30 45 39 46 108 196 221 217 214 211 210 206 204 172 
168 174 178 183 187 192 197 201 208 110 24 31 31 30 27 27 26 34 36 26 63 175 
223 216 214 212 211 207 205 179 168 174 179 184 188 193 198 202 212 90 18 23 
25 25 31 32 25 22 32 44 105 171 229 214 215 212 210 208 205 185 168 173 178 
183 188 193 197 205 176 69 17 15 14 26 22 18 29 36 40 45 46 110 192 219 213 
211 209 206 203 188 168 174 177 181 186 191 193 207 124 20 20 21 18 22 22 23 
34 34 40 40 34 24 81 223 210 209 206 204 199 191 167 172 176 179 183 187 192 
198 88 20 16 19 27 21 22 26 23 22 38 40 24 71 142 214 210 207 203 200 196 190 
164 169 173 176 180 185 187 198 107 45 15 13 19 22 16 21 29 28 33 30 54 124 
157 211 208 205 201 197 191 185 163 167 170 174 177 182 184 192 101 37 27 11 
12 18 13 22 30 61 71 49 119 169 185 214 205 202 198 193 187 182 162 166 168 
171 175 179 182 186 159 145 131 115 19 25 29 28 35 68 99 124 186 213 216 205 
204 200 195 189 183 178 159 163 165 167 170 175 177 186 205 198 146 71 27 29 
43 51 48 150 127 67 121 174 207 215 202 197 191 186 178 173 156 156 157 161 
166 171 185 169 111 60 17 8 23 48 49 92 130 160 86 43 42 64 101 151 197 196 
188 183 174 168 134 149 149 150 153 164 122 46 20 25 21 20 12 41 55 157 174 
129 45 45 39 50 67 70 132 196 185 179 169 161 29 39 39 38 32 44 34 25 31 24 19 
20 15 16 42 120 134 62 37 42 32 36 54 66 74 151 186 173 164 154 8 8 10 10 4 27 
34 28 27 21 19 20 20 17 23 59 62 38 37 35 29 28 37 49 59 91 164 172 158 145 
11 14 15 12 19 34 29 27 28 22 21 23 22 23 26 30 37 39 34 33 30 25 28 33 47 63 
120 167 148 131 8 13 12 15 29 30 27 25 28 24 23 25 24 24 25 37 36 36 31 34 30 
27 24 26 40 48 91 142 140 114 9 10 16 20 27 28 30 23 21 23 24 25 23 26 24 35 
32 35 30 36 28 29 18 24 31 51 73 113 132 105 13 14 15 21 28 27 33 31 19 18 22 
24 23 26 24 32 31 33 29 36 30 26 23 22 33 54 56 98 125 99 
