P2
30 23
255
140 146 151 156 160 165 171 175 180 185 189 191 192 193 194 195 197 198 199 
200 200 199 197 193 191 188 185 180 174 169 140 145 150 155 160 164 168 173 
178 183 187 190 189 188 191 191 194 195 195 197 196 196 193 189 188 184 180 
174 169 158 130 135 139 143 148 153 158 162 167 173 177 181 184 189 190 187 
186 187 186 187 188 187 184 180 177 173 169 163 153 117 110 114 118 121 124 
129 133 137 139 142 146 146 144 120 93 121 163 155 157 157 156 155 152 150 147 
143 139 135 122 98 113 117 120 125 128 131 134 138 140 143 146 142 90 36 23 46 
129 158 158 157 156 154 152 151 146 142 139 135 126 105 114 119 123 128 131 
134 137 139 143 147 160 81 27 79 155 84 46 127 150 161 158 157 155 152 149 145 
141 138 133 111 115 121 126 130 133 137 140 142 147 154 108 30 72 104 186 187 
102 53 134 164 159 159 156 153 151 147 143 138 136 116 117 122 128 131 135 139 
142 146 153 142 34 32 96 127 90 191 197 29 85 162 162 159 157 154 151 147 143 
139 138 122 117 123 128 132 136 140 145 148 161 99 7 42 79 101 143 212 223 42 
70 165 164 161 158 156 152 148 143 139 137 125 119 124 129 133 138 142 147 152 
157 100 24 47 64 81 188 232 224 53 80 166 166 162 159 156 152 147 143 139 136 
128 120 125 130 134 139 143 148 153 162 82 19 52 51 74 169 219 220 87 99 178 
165 163 160 156 151 146 142 138 134 128 119 124 130 135 139 144 149 153 163 
146 23 29 52 69 125 192 167 48 131 178 167 164 160 155 150 145 140 136 131 126 
119 125 130 135 140 145 150 154 161 155 32 30 56 80 176 226 157 42 172 175 169 
164 159 154 149 143 139 134 128 123 120 126 132 137 143 147 152 156 157 175 
95 32 58 77 194 234 164 96 184 170 168 164 158 153 148 143 138 133 126 120 122 
128 133 138 144 148 152 161 173 174 114 52 65 68 172 240 200 126 182 183 173 
164 157 153 147 142 137 132 124 117 123 128 133 138 144 157 165 150 104 39 35 
71 74 96 217 255 190 21 70 108 142 160 160 152 147 141 136 130 121 114 120 124 
129 137 149 125 70 25 6 5 27 66 74 100 214 221 73 23 20 24 35 68 154 154 147 
142 137 130 120 112 120 123 126 134 70 14 8 15 17 17 10 38 64 96 115 53 28 29 
19 25 30 24 72 153 148 142 138 130 119 110 104 107 115 70 11 20 22 19 15 17 16 
12 18 29 23 27 35 25 18 19 23 29 31 96 153 140 137 129 118 107 13 14 17 15 23 
21 20 22 16 12 14 12 10 10 28 23 35 25 17 16 15 25 32 43 124 143 133 127 115 
105 8 10 16 21 24 22 16 20 19 53 52 37 34 35 30 43 53 43 21 14 12 20 28 35 75 
137 129 123 113 102 9 14 20 22 24 22 14 14 25 59 77 60 52 70 29 74 50 32 23 13 
11 16 23 36 49 111 129 119 110 97 9 19 23 25 25 20 12 15 11 68 73 54 40 53 44 
70 44 31 23 12 11 16 22 34 43 86 124 113 105 92 
