P2
30 23
255
140 146 151 156 162 166 170 175 180 185 190 198 193 203 201 198 200 202 202 
204 206 207 207 204 202 199 195 189 182 155 128 133 137 141 145 150 154 157 
161 167 169 136 70 114 168 181 181 182 183 185 186 187 186 184 183 180 176 173 
159 118 130 135 138 141 144 148 152 155 158 164 74 22 28 26 42 134 180 176 177 
179 179 178 176 175 173 171 168 163 151 119 134 138 141 144 147 150 154 157 
169 146 17 67 146 144 82 56 114 179 184 183 183 181 180 179 176 174 173 168 
159 126 135 139 143 147 149 153 156 162 160 77 44 104 153 166 165 75 33 142 
183 185 183 183 182 180 177 176 173 169 165 133 136 140 145 149 152 155 158 
163 134 24 67 101 107 166 175 129 34 69 128 194 183 184 183 182 178 175 173 
170 168 140 136 141 145 149 153 156 164 128 94 23 77 90 97 152 174 173 37 48 
161 191 184 185 184 182 178 176 174 171 169 146 137 141 145 149 153 156 167 
133 29 14 65 70 109 155 163 187 74 62 183 190 187 186 183 181 179 176 174 172 
169 151 137 141 145 149 152 155 166 132 24 18 56 62 86 129 137 149 131 55 171 
194 186 185 184 181 178 175 172 170 167 154 137 141 145 147 150 154 155 168 
96 26 48 55 74 134 154 151 69 45 181 192 186 185 183 180 176 173 170 167 163 
156 136 140 143 146 148 152 153 163 142 26 17 37 67 129 163 164 62 69 199 189 
187 184 181 178 175 171 167 165 160 155 134 137 140 143 146 150 152 154 164 
119 8 28 53 114 158 168 100 167 202 186 184 182 179 176 172 168 164 161 156 
151 131 136 137 140 144 147 149 152 158 163 78 44 50 85 150 190 177 134 180 
194 187 179 174 173 170 166 161 157 153 148 130 135 137 139 142 145 147 149 
157 169 130 52 60 92 180 221 174 46 64 109 158 174 183 174 167 164 159 154 149 
144 129 132 134 136 138 140 145 157 154 79 14 23 63 89 165 167 74 53 45 36 60 
83 114 161 168 160 156 151 144 139 126 126 127 129 133 141 140 96 44 16 26 23 
23 48 60 42 47 50 42 34 45 56 49 84 157 161 153 148 141 135 106 118 118 118 
123 114 47 20 23 24 26 25 22 21 25 40 48 41 38 26 30 41 51 48 98 158 150 144 
137 130 21 29 29 28 26 32 24 30 25 22 25 25 25 27 33 37 43 34 33 25 23 27 39 
44 58 122 152 140 133 124 6 6 8 6 9 28 27 28 26 21 24 23 24 24 30 32 40 31 32 
25 20 21 30 36 46 78 141 138 128 116 9 11 11 10 21 28 23 25 26 22 24 22 25 22 
27 29 37 30 30 25 21 17 22 34 35 60 112 135 119 103 6 10 9 12 26 26 22 20 20 
20 23 21 25 22 24 28 34 29 30 25 23 15 21 29 34 57 80 124 110 92 7 8 12 18 23 
26 27 22 13 15 22 20 25 22 22 26 33 28 29 26 19 15 23 25 39 50 61 105 103 84 
11 12 11 18 23 24 27 26 19 13 21 19 25 20 19 26 30 27 27 26 17 18 23 26 39 43 
59 87 99 79 
