P2
30 23
255
159 166 172 176 182 188 194 199 205 209 211 211 213 215 217 219 221 222 222 
223 224 224 224 223 221 223 220 211 207 201 159 165 170 174 178 184 189 195 
201 206 210 210 210 211 213 215 217 218 220 220 219 218 217 216 214 212 211 
207 201 195 154 160 165 170 175 180 185 190 195 204 206 213 212 214 216 212 
214 216 217 217 218 216 215 213 211 205 202 186 180 175 137 142 147 150 155 
160 166 168 178 173 124 117 164 179 175 201 199 200 202 204 204 202 200 197 
194 191 177 136 166 165 137 141 144 148 152 156 157 167 147 58 45 31 52 57 47 
138 193 184 188 188 187 185 182 179 175 172 158 127 165 168 139 144 148 153 
156 158 165 153 46 19 22 23 23 27 31 59 165 196 191 191 190 189 186 182 179 
176 167 131 162 172 140 145 150 155 157 161 165 106 20 24 26 20 29 36 34 39 62 
169 197 191 191 190 187 184 183 178 171 133 158 175 140 146 151 156 158 165 
150 58 17 21 24 27 27 29 39 36 38 156 201 192 192 191 188 185 182 176 174 136 
152 177 141 146 151 155 158 166 150 64 15 48 37 49 55 89 125 56 28 116 196 192 
193 193 188 184 181 176 175 139 146 177 142 147 151 154 158 166 146 52 21 62 
87 126 152 182 191 88 21 74 147 199 193 191 187 183 180 176 174 142 139 175 
141 146 150 154 158 165 82 21 20 31 40 68 79 52 87 65 13 58 178 197 191 190 
186 181 178 174 173 144 132 171 140 144 149 152 155 164 145 32 9 22 7 33 75 9 
47 84 48 101 197 193 190 188 183 179 175 171 169 146 125 165 139 143 147 151 
155 159 168 139 42 48 48 77 186 123 145 171 89 166 200 192 189 186 181 177 173 
168 165 147 120 157 139 143 145 150 155 158 159 177 101 59 97 89 160 208 213 
152 123 207 192 188 186 183 178 174 171 165 162 148 117 148 138 142 145 148 
153 163 172 174 158 72 71 82 140 191 203 124 126 186 196 198 188 180 177 172 
167 162 157 147 114 140 137 140 141 145 153 135 100 68 34 29 51 65 113 156 166 
73 17 36 77 117 159 182 173 170 165 158 152 144 112 127 138 137 137 147 78 15 
8 5 5 6 29 57 101 134 124 66 16 20 16 16 39 149 177 166 163 156 147 142 112 
118 97 115 122 82 11 14 16 13 11 8 25 37 66 95 131 51 13 18 21 26 22 60 165 
164 159 152 142 137 111 110 11 18 20 16 15 14 12 11 10 7 20 33 41 102 99 14 16 
14 16 18 24 24 100 167 153 148 138 131 109 101 10 10 15 16 14 13 12 11 11 8 16 
36 44 68 33 12 15 12 13 15 19 24 44 146 152 143 132 118 101 93 9 14 17 15 13 
13 12 12 10 7 7 30 47 31 16 14 13 11 11 13 16 23 26 92 149 136 120 103 79 52 
9 16 16 16 14 12 13 11 17 20 9 7 14 14 14 12 13 11 11 10 14 21 27 57 137 127 
108 91 68 33 14 17 17 16 15 12 14 8 36 36 25 14 12 17 22 25 16 11 10 9 13 21 
26 43 111 120 102 84 66 36 
