P2
30 23
255
142 148 153 158 164 168 172 176 181 187 192 195 197 196 200 207 201 202 204 
205 207 209 208 206 203 200 196 190 183 158 130 135 139 142 147 151 155 159 
163 168 172 174 177 186 175 144 183 188 183 186 188 189 187 186 184 181 178 
174 161 119 132 137 139 142 147 150 152 157 160 165 168 169 171 103 53 22 76 
154 181 179 179 178 177 176 174 171 168 163 152 120 135 139 142 146 149 152 
156 160 164 168 170 185 130 9 64 94 45 49 153 183 182 182 181 180 177 175 174 
169 160 127 136 141 145 149 151 154 158 162 166 172 177 151 53 49 123 177 131 
70 60 140 194 181 182 180 178 176 174 169 165 134 137 142 147 150 153 157 160 
163 169 169 163 83 29 106 102 150 183 152 22 94 171 185 183 183 179 176 174 
171 169 141 138 143 147 151 155 158 163 166 173 162 105 44 47 100 93 141 176 
181 51 55 95 189 184 183 179 176 174 172 170 147 138 143 147 152 155 160 164 
168 174 167 51 7 54 75 94 150 166 192 62 31 141 192 183 182 180 176 174 172 
169 152 138 143 147 151 155 160 164 167 174 165 52 16 51 65 82 129 142 167 109 
50 173 189 184 182 179 176 173 170 167 155 138 143 147 151 154 158 161 165 167 
184 121 25 49 55 78 138 153 141 108 58 168 188 183 181 177 174 170 168 164 157 
137 141 146 149 152 156 159 162 164 176 148 25 20 42 75 141 164 152 40 60 188 
184 181 179 175 172 168 165 161 156 135 139 143 147 150 154 156 159 163 165 
179 98 3 45 63 134 162 153 47 121 194 180 179 176 173 169 165 162 157 152 134 
138 140 144 147 151 153 156 160 163 174 150 49 48 60 106 160 165 119 194 187 
178 176 174 170 166 162 158 153 149 132 137 139 142 146 149 150 153 156 161 
176 171 97 57 69 119 192 214 116 113 166 185 180 173 168 165 160 155 149 145 
130 134 137 139 141 145 147 150 162 170 113 36 14 60 83 131 206 162 64 45 53 
115 152 174 169 161 157 152 146 141 128 130 131 133 137 140 147 153 124 70 22 
24 27 23 49 76 79 50 58 52 35 46 66 89 142 165 153 149 141 136 109 123 123 123 
125 133 123 62 28 23 27 29 27 24 21 24 31 53 53 43 34 33 54 54 70 142 154 145 
138 131 23 31 31 31 27 30 38 22 32 30 23 27 26 26 29 32 36 46 43 39 30 24 33 
47 48 85 145 142 133 125 7 6 8 8 2 13 31 29 29 29 22 27 23 25 27 28 29 41 37 
37 30 21 24 33 39 56 104 142 127 117 10 11 12 11 8 26 28 26 26 28 22 26 22 24 
26 27 26 36 34 34 29 22 20 24 33 44 69 127 121 104 7 10 10 12 19 28 26 23 24 
24 20 24 21 25 26 24 23 34 32 31 26 23 18 18 32 33 58 96 112 92 8 8 13 15 21 
26 29 25 20 13 16 22 20 24 25 22 22 33 30 31 26 23 17 22 27 35 53 69 103 85 11 
12 12 14 22 24 28 28 24 13 14 20 20 24 23 18 22 32 27 29 25 20 16 23 25 39 43 
60 95 80 
