P2
30 23
255
149 155 161 166 171 176 179 184 190 196 200 207 187 147 145 141 181 210 213 
211 213 215 215 213 211 209 205 199 192 166 136 141 145 149 154 159 163 167 
170 176 179 105 55 28 29 28 45 87 171 202 198 196 196 194 193 189 186 183 170 
126 138 142 144 149 153 157 160 164 166 177 118 17 25 26 21 26 24 21 53 108 
175 188 185 184 182 179 175 171 160 127 141 145 149 153 155 159 164 167 172 
172 54 14 26 22 15 27 35 26 32 65 156 194 188 188 185 182 181 177 169 134 142 
147 152 156 158 162 166 169 174 124 25 14 19 32 31 29 38 47 37 43 114 193 189 
189 186 185 182 177 173 141 143 149 153 158 161 164 167 172 158 96 23 19 24 43 
64 37 75 158 56 22 67 99 193 191 187 184 181 178 177 149 143 149 154 159 162 
166 169 179 144 47 18 21 45 84 106 120 163 179 87 25 45 77 184 194 187 184 182 
179 178 155 144 150 154 159 163 167 169 182 81 19 19 20 31 42 68 80 57 59 48 
32 73 151 183 192 188 185 183 179 177 160 144 150 154 158 162 166 169 182 98 
14 11 17 14 3 29 70 6 32 54 37 78 183 196 190 188 184 181 178 175 163 145 150 
154 157 160 164 167 175 165 88 31 32 45 38 76 182 97 113 150 52 143 196 191 
190 186 182 178 176 173 165 143 148 152 155 158 162 165 169 178 182 108 43 90 
120 84 167 185 178 159 90 199 193 190 187 184 180 176 174 170 164 141 145 149 
152 155 160 163 166 171 171 183 72 56 89 83 131 169 155 149 181 197 190 188 
185 181 177 173 170 165 160 140 143 145 149 153 157 160 164 169 173 182 158 
68 67 74 118 176 161 188 209 192 187 184 182 178 174 170 166 161 157 139 142 
144 147 151 155 158 162 165 173 186 200 102 39 64 109 155 138 119 150 182 193 
191 181 176 173 168 163 158 153 137 140 141 144 147 151 154 163 175 171 124 
57 22 32 42 89 116 137 83 44 68 102 144 177 177 169 165 160 153 148 135 135 
136 138 141 147 158 142 100 55 14 12 20 38 34 68 121 152 68 45 39 37 55 82 139 
173 162 157 149 143 115 128 128 129 131 141 94 33 18 20 22 22 18 27 39 72 123 
77 42 40 36 31 48 56 71 144 163 152 144 138 25 34 33 33 28 38 30 25 27 22 21 
21 21 17 20 37 37 38 39 36 32 24 34 44 51 85 149 150 139 132 7 7 8 8 3 23 30 
27 27 20 22 22 22 22 24 24 35 38 35 33 30 20 26 33 41 58 105 149 134 123 10 12 
12 10 15 30 25 26 28 21 22 23 21 21 23 31 34 33 31 34 30 22 21 26 33 45 69 130 
129 109 7 11 11 12 26 27 23 21 27 21 22 23 21 22 22 31 28 31 28 35 28 25 20 20 
33 33 60 95 117 96 8 9 14 17 25 28 27 20 19 18 22 22 21 24 22 30 25 29 27 35 
27 26 19 20 28 33 56 67 106 90 12 13 13 19 24 26 30 26 19 15 20 22 21 24 24 26 
22 27 27 34 29 23 19 22 25 37 47 56 95 85 
