P2
30 23
255
140 145 151 156 161 165 170 175 180 185 189 191 192 193 194 194 197 198 199 
199 199 198 196 193 191 188 184 180 174 169 140 145 149 155 160 164 168 173 
178 183 187 190 189 190 194 194 193 195 196 196 196 196 193 190 188 185 181 
174 168 158 130 135 139 144 149 154 158 163 167 173 177 179 183 185 170 174 
189 186 186 187 188 187 184 181 178 174 169 164 153 117 109 114 118 121 124 
129 133 137 139 142 145 147 125 77 40 76 156 157 157 157 157 155 153 150 148 
144 139 135 123 98 112 116 121 125 128 131 134 137 140 143 148 120 53 37 55 39 
69 144 154 156 155 153 152 150 147 143 139 135 126 105 114 120 124 128 131 134 
137 139 143 147 152 49 26 87 181 127 45 74 129 163 157 156 155 153 149 145 141 
138 133 111 116 121 126 130 133 137 140 142 147 152 79 26 81 93 164 200 159 
38 99 156 161 158 156 153 151 147 143 139 136 116 117 122 127 132 135 139 142 
146 154 133 25 35 89 90 160 222 219 48 46 144 165 159 158 155 152 148 144 139 
137 122 118 123 128 132 137 140 145 149 160 95 8 44 66 78 162 218 238 72 41 144 
167 160 159 156 152 148 143 140 137 125 119 124 129 133 138 143 147 152 157 
94 25 47 56 78 137 179 227 92 58 155 168 162 159 156 152 147 143 139 136 128 
119 125 130 135 139 144 149 152 164 96 19 49 52 76 162 195 197 131 68 171 167 
163 160 156 151 146 142 138 134 128 119 124 129 135 139 144 149 153 161 159 
37 24 52 79 181 220 192 57 116 177 166 163 160 155 150 145 140 136 131 126 119 
125 130 135 140 145 150 154 160 163 49 20 54 77 183 226 181 35 149 178 167 164 
159 154 149 144 139 134 128 123 120 126 132 138 143 148 152 156 157 174 128 
31 58 66 167 228 166 76 176 171 168 164 159 153 149 143 138 134 126 121 123 
128 132 138 144 148 153 162 174 169 127 63 67 76 178 250 196 129 185 183 171 
164 158 154 148 142 138 132 124 118 123 128 133 138 144 158 163 146 98 34 33 
67 79 96 215 255 193 26 78 119 150 165 159 153 148 141 137 130 121 114 120 125 
129 137 147 120 63 21 6 6 29 62 75 104 199 247 87 22 21 25 42 76 156 154 148 
142 137 131 120 112 120 123 127 133 64 12 8 15 16 16 10 39 63 103 137 92 27 29 
20 27 31 25 81 155 148 142 137 130 119 110 105 108 116 67 10 20 21 18 14 17 16 
12 24 41 35 24 36 27 18 20 26 29 31 103 153 139 137 129 118 108 13 14 17 15 22 
20 20 21 16 11 13 11 9 10 25 26 31 23 18 17 17 25 32 46 129 142 133 127 116 
105 8 10 15 20 24 21 17 21 16 46 41 27 24 23 33 31 51 41 19 14 12 22 28 35 79 
138 129 123 113 102 9 14 19 21 24 21 14 16 17 62 79 55 52 64 29 67 46 38 22 13 
11 17 24 36 51 113 128 119 110 98 9 18 22 24 25 19 13 15 8 58 77 54 45 66 47 
72 46 34 22 11 11 16 21 34 42 87 124 113 105 92 
