P2
30 23
255
158 165 171 176 181 186 192 198 204 209 211 211 213 215 216 219 220 221 222 
222 223 224 224 223 221 223 219 211 206 201 158 165 169 174 177 182 188 194 
200 206 209 210 211 211 211 214 216 217 219 219 219 217 216 215 213 212 211 
207 201 194 154 160 165 170 174 178 184 189 195 202 207 209 209 214 218 216 
213 214 216 217 217 215 214 213 211 205 202 186 180 174 137 142 147 150 154 
159 165 169 174 180 185 190 199 174 149 182 201 203 203 202 203 201 199 197 
194 191 177 135 166 165 137 141 144 148 151 155 158 162 167 170 174 174 97 63 
49 72 103 100 172 189 185 184 182 178 174 172 157 127 165 168 139 144 148 152 
156 159 162 166 171 176 178 73 17 22 24 24 30 25 106 199 188 187 185 181 179 
175 165 130 162 171 140 145 150 154 158 161 165 169 172 183 131 27 23 27 27 23 
35 36 49 137 190 188 185 183 182 177 170 132 158 175 140 146 151 156 159 163 
168 172 175 180 94 15 20 23 24 26 33 33 36 62 184 190 186 184 181 176 173 136 
152 176 141 146 151 155 160 165 169 173 178 186 84 11 45 45 35 46 50 78 40 60 
180 195 186 183 180 176 174 139 145 176 142 147 151 155 159 164 169 174 178 
136 56 14 53 83 112 138 178 187 56 47 125 186 187 182 179 175 174 141 139 175 
142 147 151 155 159 164 168 172 183 111 17 13 23 34 68 101 95 102 45 21 118 
191 184 180 177 174 172 144 131 171 140 145 150 153 158 163 167 171 174 189 
76 13 29 11 24 74 10 42 47 60 162 192 181 178 175 171 169 145 124 165 139 144 
148 152 157 161 165 170 173 183 151 23 66 71 71 177 132 148 107 134 186 184 
180 176 172 167 164 146 120 157 140 144 147 152 157 160 163 166 171 179 183 
100 61 107 94 160 221 197 140 186 183 181 178 174 170 165 161 147 116 149 139 
143 146 149 154 157 166 177 180 169 165 126 53 78 89 145 194 172 170 198 190 
181 174 172 166 161 156 146 113 139 137 141 143 146 149 160 145 101 64 36 17 
7 28 51 74 130 159 78 41 84 140 175 178 167 164 158 151 144 111 127 139 138 
139 141 151 136 29 6 7 10 10 14 37 29 59 109 126 47 16 15 22 48 137 173 160 
155 146 141 111 118 98 117 118 121 121 41 11 17 15 13 12 10 37 39 40 91 108 
24 18 21 23 19 48 154 160 150 141 136 110 110 11 20 20 22 23 14 17 14 12 12 12 
8 34 45 46 99 54 10 17 15 18 24 22 83 159 145 136 130 108 101 11 10 11 12 17 
16 14 14 13 12 12 7 30 63 69 56 17 14 14 13 15 18 25 37 131 145 129 117 100 
92 10 12 12 16 16 16 13 13 13 11 10 9 5 32 46 22 14 13 13 12 13 16 23 26 90 140 
116 102 78 51 9 11 16 17 16 16 12 12 13 14 33 30 15 6 9 13 15 13 13 11 12 15 
21 27 57 124 106 90 67 33 12 14 19 18 18 17 13 12 11 21 35 48 34 19 19 31 22 
16 12 11 11 15 21 26 52 110 100 82 65 36 
