P2
30 23
255
177 184 190 196 202 207 211 216 221 227 230 235 236 223 235 211 208 242 245 
243 246 246 245 243 242 239 236 230 222 195 162 168 174 178 184 189 194 197 
202 206 211 211 124 74 105 99 119 151 206 216 218 228 226 224 223 220 217 213 
199 151 165 170 174 178 183 187 190 195 199 204 209 126 39 28 31 22 29 45 77 
149 213 218 215 214 212 210 207 202 189 152 169 174 178 182 186 189 194 199 
202 213 146 43 33 30 31 30 30 42 36 76 199 217 220 218 216 213 212 208 198 161 
170 176 181 185 188 192 197 201 210 186 62 30 34 31 29 23 26 42 46 38 71 150 
222 218 216 215 213 208 204 168 171 177 183 187 191 195 199 202 215 150 35 29 
32 32 30 35 31 26 35 33 42 140 217 221 217 214 212 210 208 176 172 178 183 188 
192 197 202 204 218 149 21 24 20 27 31 31 27 28 32 38 85 146 231 223 217 215 
213 210 209 183 172 178 184 188 193 199 203 209 197 112 32 17 13 20 26 18 29 
39 40 44 46 82 157 212 219 215 213 211 209 188 173 178 183 187 193 198 201 212 
168 38 23 21 26 24 24 27 31 32 33 50 35 36 32 192 223 213 211 209 207 193 173 
178 183 186 190 196 198 213 125 27 18 15 24 26 21 29 28 23 28 44 26 46 124 198 
219 211 210 207 203 196 172 177 181 184 188 193 194 210 143 53 26 15 14 23 18 
16 28 39 42 34 36 109 142 198 217 209 208 204 200 193 169 174 177 181 186 190 
192 205 131 41 32 17 11 20 17 24 34 43 95 54 92 175 181 214 211 208 204 201 
195 189 167 171 174 178 182 187 190 196 183 162 133 127 44 23 41 34 33 60 110 
123 171 197 221 212 209 206 202 197 191 186 166 170 173 176 180 184 188 192 
198 208 220 234 91 25 47 65 48 124 174 181 226 223 213 210 207 204 199 193 187 
181 164 168 170 172 175 180 184 190 204 210 175 89 39 61 54 95 156 171 151 78 
120 180 213 217 207 200 195 189 182 176 161 161 163 166 170 175 187 188 145 
92 32 11 14 50 55 133 189 174 112 53 49 64 102 161 196 202 192 187 177 172 140 
154 154 156 158 169 149 65 26 23 24 25 17 22 44 100 155 114 64 50 48 47 59 77 
103 185 192 181 173 165 31 41 41 41 35 42 46 24 33 29 22 23 21 16 19 59 94 52 
48 43 45 31 51 68 70 112 184 178 167 158 9 9 11 11 2 20 36 31 30 26 21 25 23 
24 25 29 37 42 45 38 40 26 37 46 59 75 136 176 161 148 12 15 16 14 12 34 31 29 
30 29 21 27 25 28 26 34 42 39 42 37 37 27 28 36 42 62 88 156 155 133 8 13 13 
15 27 33 29 27 28 29 23 29 25 29 25 34 36 36 37 39 36 29 28 29 35 52 64 125 
143 117 10 11 17 20 28 31 32 28 22 22 23 28 24 31 25 33 30 36 33 41 34 31 27 
22 34 40 61 97 125 109 14 15 16 20 29 28 34 34 26 15 21 25 23 31 26 30 27 34 
32 41 35 28 26 21 31 37 64 72 113 104 
