P2
30 23
255
141 146 152 157 162 166 171 175 180 186 190 203 178 176 210 203 199 202 202 
204 206 207 207 204 202 199 195 189 182 156 128 133 138 141 145 150 154 157 
161 167 166 119 63 48 108 142 182 183 183 185 187 188 186 184 183 180 176 173 
160 118 131 135 137 141 145 148 151 156 157 171 100 10 29 35 30 27 133 180 176 
178 179 178 176 175 173 171 168 163 151 119 134 138 141 144 147 150 155 159 
162 173 56 39 124 139 134 69 42 109 184 183 182 181 180 179 176 174 173 168 
159 126 135 139 143 147 149 153 157 161 168 113 41 91 157 174 152 151 24 40 141 
184 184 182 181 180 177 176 173 169 165 133 136 141 145 149 152 155 158 161 
153 58 39 95 120 172 152 181 54 37 67 144 192 182 183 182 178 175 174 170 168 
140 136 141 146 149 153 156 165 144 105 46 62 98 107 168 169 192 96 19 64 167 
189 185 185 182 179 176 174 171 169 147 137 141 146 149 153 157 163 161 52 7 61 
76 105 155 178 204 118 21 100 193 186 186 183 181 179 176 174 172 169 151 137 
141 145 149 153 157 161 165 62 18 55 66 112 153 162 181 172 80 75 188 188 185 
184 182 179 175 173 170 167 154 137 141 144 148 151 154 156 166 154 40 43 52 
77 110 123 131 143 43 91 193 186 184 183 181 177 173 170 167 164 157 136 140 
143 146 149 152 155 157 171 87 17 39 61 110 141 144 127 4 122 199 184 184 181 
178 175 171 167 164 161 155 133 138 140 143 147 150 152 156 161 158 52 10 55 
108 151 153 127 75 190 187 184 182 179 176 173 169 165 161 156 151 132 136 138 
141 144 147 150 154 156 171 125 47 40 89 142 159 158 137 192 194 184 178 175 
174 170 166 162 158 153 148 131 135 137 139 142 145 147 150 158 169 141 63 44 
67 138 191 202 68 72 127 170 181 182 173 167 164 159 154 149 144 129 132 134 
136 138 140 147 157 152 85 16 21 61 75 161 206 135 53 43 37 68 97 136 166 168 
160 156 151 145 140 126 126 128 130 133 142 139 93 43 16 24 21 33 58 104 90 45 
53 43 35 45 54 52 91 159 160 153 148 141 135 107 119 119 119 125 107 43 20 23 
24 24 23 18 21 24 29 48 45 38 30 31 46 54 48 101 159 150 145 137 130 22 29 29 
28 28 31 23 30 25 21 25 24 24 24 29 36 41 37 34 27 24 29 40 44 59 123 151 140 
133 124 7 6 8 6 13 30 26 28 24 21 24 23 23 23 30 31 37 33 32 27 20 22 30 35 48 
78 142 138 127 116 9 11 11 11 24 26 24 26 24 21 24 22 23 21 29 28 36 31 31 27 
21 18 22 31 37 56 117 135 119 104 6 10 9 14 27 25 21 21 22 20 23 21 24 21 26 
26 34 29 29 25 24 16 18 29 30 55 86 125 110 92 7 8 12 18 23 27 25 20 13 17 22 
20 25 22 24 24 33 28 29 26 21 17 21 24 35 53 64 110 103 85 10 12 12 19 22 25 
27 26 16 14 21 19 25 21 22 24 31 27 27 26 18 16 20 25 40 44 58 96 99 79 
