P2
30 23
255
158 165 171 176 181 186 192 198 204 208 210 211 212 215 216 219 220 221 221 
222 223 223 223 222 221 222 219 211 206 200 158 164 169 173 177 182 188 193 
200 206 209 210 210 210 212 214 216 217 219 219 218 217 216 215 213 211 211 
206 201 195 153 160 165 170 174 179 184 189 195 202 206 208 213 217 214 212 
213 214 216 217 217 215 214 213 210 205 202 186 180 174 137 142 147 150 154 
159 165 170 174 179 186 195 164 146 181 199 201 201 201 203 203 201 199 197 
194 191 177 135 166 164 136 140 144 148 151 154 158 162 166 172 171 91 59 45 
70 93 94 174 188 186 186 184 181 178 174 171 156 126 165 168 138 144 148 152 
155 159 162 165 171 175 71 17 23 24 24 28 27 110 200 189 188 187 185 182 178 
175 165 130 162 171 139 145 150 154 158 161 165 167 179 126 28 21 27 24 25 37 
35 48 130 192 190 188 185 183 181 177 170 132 158 175 140 146 151 155 159 163 
167 171 174 88 14 21 24 24 28 29 35 34 66 189 192 189 186 184 180 176 173 134 
151 176 140 146 151 155 159 164 168 174 179 82 12 50 48 47 56 77 101 37 61 179 
195 190 187 183 180 175 174 138 145 176 141 147 151 155 159 164 168 174 140 
59 17 51 83 124 152 186 183 53 43 119 188 191 186 182 179 174 174 140 138 174 
142 147 151 155 159 163 166 178 108 18 14 22 25 53 76 61 86 39 22 123 195 188 
184 180 177 173 172 143 132 171 140 145 150 153 157 162 166 170 183 76 13 32 
12 37 96 16 59 60 64 165 194 185 182 178 175 170 169 145 125 165 139 143 147 
152 156 161 164 168 177 160 31 65 78 80 183 157 176 118 133 193 187 184 180 
176 172 167 164 146 120 157 139 143 146 151 156 159 162 165 172 178 103 60 102 
95 158 212 199 133 191 187 184 182 178 174 170 165 161 147 116 148 139 143 145 
148 153 158 168 177 174 170 142 58 75 89 143 183 164 145 192 194 190 179 175 
172 167 161 156 146 113 139 137 140 142 145 150 157 133 88 54 27 12 23 52 75 
130 160 90 23 52 96 149 181 174 168 164 158 151 143 111 127 138 138 139 140 
153 79 11 7 6 9 9 29 31 52 100 124 68 17 19 16 24 86 173 166 161 155 147 141 
111 118 98 117 117 125 94 14 16 16 14 12 8 27 41 35 79 121 38 15 19 22 25 21 
108 170 156 151 141 137 111 110 11 19 20 22 18 16 16 13 12 11 8 21 43 40 87 74 
9 18 14 17 20 25 37 138 157 146 137 130 108 101 10 10 10 13 17 15 14 13 12 12 
10 15 54 63 61 24 13 15 12 14 16 23 23 81 156 140 130 117 100 92 10 11 12 16 
16 15 13 14 13 10 10 5 20 43 26 14 12 13 11 12 14 19 24 44 129 138 117 102 78 
51 9 11 16 16 16 16 12 14 12 19 31 19 8 7 12 15 14 13 11 11 12 17 26 30 97 131 
106 91 67 33 12 13 17 17 17 17 13 13 11 26 37 42 21 17 30 28 20 13 10 10 11 17 
24 30 80 119 100 83 65 36 
