P2
30 23
255
178 184 191 197 202 207 212 216 221 226 231 237 229 235 213 201 236 247 240 
244 245 246 246 244 242 240 236 230 223 196 163 168 174 178 184 189 193 198 
202 206 215 149 82 106 95 107 132 187 212 212 228 227 227 225 223 220 217 214 
200 152 166 170 174 178 183 187 191 195 197 209 156 52 25 30 22 26 38 59 119 
209 222 216 216 215 212 210 207 202 189 152 169 174 178 182 186 189 195 198 
208 178 62 32 30 30 30 28 41 40 51 160 204 221 219 219 216 213 212 207 199 161 
169 175 181 185 188 192 197 202 203 92 28 34 31 29 23 25 38 45 34 42 113 217 
221 219 217 215 213 209 205 168 172 178 183 187 191 195 198 207 180 55 26 32 
31 29 35 30 24 30 36 41 124 211 222 221 217 215 212 210 208 177 172 178 183 
188 192 197 200 211 178 35 21 20 26 28 28 25 29 33 38 65 114 214 233 220 218 
215 213 210 209 184 172 178 183 189 193 198 203 206 156 49 16 15 18 26 17 29 
39 37 45 38 51 90 174 228 217 215 213 210 208 189 173 178 183 188 193 197 203 
201 82 29 21 26 24 24 27 29 30 29 49 37 39 27 156 232 215 214 212 210 207 193 
173 178 182 186 190 194 204 175 48 15 17 22 26 20 27 28 25 24 40 29 29 113 176 
223 214 212 210 207 203 195 171 177 181 184 187 192 198 188 71 38 15 14 21 19 
15 24 39 55 43 31 109 141 180 222 212 210 208 204 200 194 169 174 177 181 185 
189 197 175 63 27 20 11 18 20 22 34 36 97 85 80 161 198 214 216 211 208 205 
200 195 189 167 171 174 177 182 186 192 185 151 125 119 81 16 39 39 31 51 105 
132 177 200 217 217 212 210 206 201 197 191 186 166 170 173 175 180 184 187 
193 202 206 226 175 31 41 57 62 94 176 170 197 227 223 215 210 207 204 199 193 
187 181 164 167 170 172 175 180 184 190 203 210 164 75 49 62 62 159 178 182 
113 71 119 177 209 218 207 200 195 190 182 176 161 161 163 166 170 176 188 187 
147 88 24 9 24 59 74 188 169 171 83 54 48 65 97 152 191 203 192 186 177 172 
139 154 154 156 158 170 143 64 25 22 23 24 15 32 58 134 147 93 57 50 47 47 63 
74 100 184 192 181 172 165 30 41 41 41 35 44 41 23 32 27 21 22 20 15 28 79 83 
44 49 43 42 32 52 69 67 113 184 178 167 158 8 8 11 11 3 23 35 30 30 24 22 24 
24 24 26 30 38 43 44 39 37 26 37 46 58 76 136 177 161 149 12 15 16 13 14 34 31 
29 30 26 22 27 25 26 27 36 41 39 40 39 35 26 29 35 42 63 88 158 154 134 9 13 
13 15 29 32 28 27 29 27 24 28 26 28 25 37 33 38 35 41 34 29 27 28 37 51 66 127 
143 117 10 11 17 20 28 32 31 26 23 23 25 26 25 30 25 34 29 36 33 42 32 32 25 
21 35 39 64 96 127 109 14 15 16 21 29 28 35 32 22 15 22 24 24 31 26 30 28 34 
33 42 34 28 25 23 31 39 65 72 116 104 
