P2
30 23
255
183 192 199 203 209 214 219 225 231 236 239 241 241 242 243 244 245 246 247 
247 247 246 245 243 240 238 235 230 223 217 183 191 197 203 209 213 217 222 
228 233 236 239 241 240 242 242 241 243 244 245 245 245 243 240 238 235 231 
223 217 206 172 178 183 190 195 201 205 210 215 221 228 232 223 227 225 229 
241 240 238 236 236 236 233 230 227 222 217 211 200 157 148 154 159 163 166 
172 176 179 183 189 186 134 101 99 86 111 138 166 189 208 205 202 201 198 194 
189 183 179 164 133 152 157 162 167 170 174 177 181 184 193 127 44 47 40 40 33 
25 55 105 165 196 203 200 198 194 189 184 178 169 143 155 160 165 171 174 177 
181 184 190 199 72 21 35 34 49 39 30 33 70 102 178 209 202 200 197 192 188 182 
176 150 156 162 168 173 176 180 185 188 197 142 35 37 39 38 50 39 30 32 63 91 
143 213 203 201 199 194 189 184 180 156 157 164 170 175 178 184 188 192 200 
72 20 32 39 46 56 37 24 30 73 81 100 199 206 203 199 195 190 185 181 163 158 
165 171 175 180 186 191 201 205 71 18 27 25 16 29 33 19 27 64 77 50 146 211 
203 200 195 190 186 181 168 160 166 172 176 182 188 197 185 134 46 15 22 19 25 
30 30 22 28 65 68 50 120 206 204 200 194 189 185 180 171 161 167 173 177 183 
189 203 167 43 22 21 13 11 20 30 51 58 37 40 36 71 111 196 205 198 193 188 183 
178 171 160 167 173 177 184 191 195 208 123 16 21 17 14 16 33 50 50 62 49 20 
55 143 175 204 196 191 186 180 175 169 161 167 173 178 185 192 195 211 136 35 
30 20 21 14 31 43 29 46 80 39 56 124 183 204 195 190 183 177 172 166 163 169 
174 181 189 194 198 211 165 62 48 29 28 16 20 30 44 63 84 48 90 156 206 201 
195 190 183 176 170 163 166 171 175 183 191 196 199 208 223 169 104 46 29 20 
22 37 74 118 116 75 66 148 205 200 194 188 182 175 166 159 166 172 176 183 190 
204 217 206 167 103 51 65 43 28 48 54 60 166 146 94 145 211 209 200 194 187 
181 173 163 154 163 167 172 178 198 183 105 43 11 0 9 56 67 54 88 153 151 198 
58 39 57 64 158 209 193 188 181 173 162 152 164 167 168 184 137 27 6 11 15 16 
11 25 66 71 124 234 232 111 17 32 38 33 58 174 200 187 182 173 160 150 142 145 
152 133 25 12 20 16 12 12 12 9 31 63 137 241 181 46 28 26 31 35 39 86 191 187 
180 171 159 147 17 19 22 19 16 18 15 14 12 12 12 12 9 21 89 140 49 37 26 24 23 
28 39 48 132 191 175 169 156 143 12 13 17 18 18 16 13 14 13 10 13 8 13 10 25 
28 34 39 21 23 18 24 34 46 79 169 174 166 153 138 11 16 19 19 19 19 13 17 12 
40 69 60 39 39 41 45 63 55 28 20 18 21 30 43 60 128 173 160 149 133 10 18 20 
21 22 21 13 17 14 44 90 106 51 82 53 63 85 31 28 18 18 20 25 40 57 100 163 153 
142 125 
