P2
30 23
255
150 156 161 166 172 176 180 186 191 197 200 208 209 186 179 166 191 214 213 
211 214 216 216 214 212 210 206 200 192 167 137 141 146 150 155 160 164 168 
172 176 185 129 81 47 44 39 61 96 171 205 200 197 197 195 193 190 187 184 170 
127 139 142 146 150 154 158 161 165 168 177 146 31 19 25 21 24 20 17 57 113 
168 190 186 185 183 180 177 172 161 128 141 146 150 154 157 160 164 168 171 
182 79 12 28 26 17 23 34 30 30 54 144 194 189 190 186 184 182 178 170 135 143 
148 153 157 159 163 167 170 179 146 37 13 19 23 20 24 35 28 32 47 117 199 192 
190 188 186 183 178 175 142 144 149 154 159 162 165 168 174 167 119 34 16 21 
34 54 35 36 102 62 23 71 133 188 193 188 185 182 179 178 149 144 150 155 160 
163 167 170 177 166 75 21 18 33 52 81 70 104 191 98 23 40 52 186 194 189 186 
184 180 178 156 145 151 155 160 164 169 170 184 130 23 22 17 50 92 114 141 154 
149 96 25 62 120 175 195 189 186 184 181 178 161 145 151 155 159 164 168 170 
185 127 21 15 19 48 65 89 169 115 115 126 36 66 169 195 192 189 185 182 179 
176 164 145 151 154 158 161 165 168 175 171 79 26 25 75 117 93 166 192 201 178 
48 128 198 193 190 187 183 180 176 174 166 144 149 153 156 159 163 166 170 178 
180 115 41 87 122 81 163 205 203 171 81 191 195 191 189 185 181 177 174 170 
165 142 146 150 153 156 161 164 168 173 174 188 92 52 105 85 138 193 170 161 
175 198 192 189 186 182 178 174 171 166 161 140 144 147 151 154 158 161 165 
170 174 181 173 79 67 71 129 143 148 183 209 191 188 187 184 179 176 172 167 
162 158 140 143 146 149 152 156 159 163 166 173 185 200 103 55 75 140 137 144 
126 166 195 195 188 181 177 174 169 164 159 153 138 140 142 145 147 152 155 
161 175 177 131 57 20 40 80 172 185 136 81 53 93 139 172 187 178 170 166 161 
154 149 136 136 137 139 143 147 159 156 119 66 16 12 21 29 56 163 149 129 78 
43 38 47 71 111 154 174 163 158 149 144 116 129 129 130 132 141 115 50 20 19 
21 22 17 20 38 95 114 76 45 40 38 37 51 58 76 152 164 154 146 139 25 34 34 33 
28 36 31 21 27 23 20 20 20 18 20 33 38 37 41 36 34 26 42 54 54 91 157 150 140 
133 7 7 8 8 2 19 30 26 26 20 20 22 22 22 25 26 33 37 37 33 30 21 30 38 46 62 
117 149 135 124 10 12 12 11 11 28 26 24 27 21 21 23 22 22 23 31 31 34 33 32 30 
22 23 29 34 52 79 139 128 111 7 11 11 12 22 26 23 22 26 21 22 24 21 23 22 31 
26 33 30 33 28 25 22 22 34 40 63 118 119 97 8 9 14 16 22 26 26 21 20 18 21 22 
21 25 23 28 24 31 28 34 27 27 20 20 31 36 63 89 110 90 11 12 13 15 21 22 28 27 
22 14 19 21 21 25 23 24 24 30 28 33 28 23 20 23 26 44 55 75 106 85 
