P2
30 23
255
139 145 150 155 160 165 170 174 179 184 187 189 190 191 192 193 195 197 198 
198 198 197 196 192 190 187 184 179 173 168 139 144 149 154 158 163 167 172 
177 182 185 188 189 192 193 191 193 193 194 195 195 194 192 188 186 183 179 
173 167 157 130 135 139 143 148 153 158 162 167 172 177 187 142 108 158 179 
180 188 186 187 187 186 183 181 178 174 169 163 153 117 109 114 117 120 124 
128 132 136 139 143 145 75 44 27 49 61 62 147 158 155 155 155 153 150 147 143 
139 134 121 96 112 116 119 123 127 130 133 136 138 147 77 11 16 17 25 29 26 94 
159 155 153 152 151 149 145 141 138 133 124 104 113 118 123 127 130 133 136 
137 146 125 23 17 21 19 18 36 41 38 94 159 156 155 154 151 148 144 140 137 131 
109 114 120 125 129 132 136 139 140 152 99 10 17 24 22 24 32 50 28 62 155 159 
157 155 152 149 145 142 138 135 114 116 122 127 131 134 138 142 143 160 84 8 28 
48 42 56 116 150 44 53 149 162 158 156 154 150 146 142 139 136 119 116 123 127 
132 136 140 143 154 110 45 13 24 55 89 139 188 189 58 39 121 165 159 157 155 
151 146 142 139 136 123 118 124 128 132 137 141 145 155 134 30 8 32 61 74 166 
122 154 72 23 121 170 160 158 155 151 146 141 138 135 126 118 124 129 134 138 
143 148 151 165 117 23 52 92 67 177 218 232 118 88 165 167 161 159 155 150 145 
141 137 133 127 118 125 129 134 139 144 148 153 157 166 65 50 96 71 173 230 
232 138 148 174 166 162 159 154 148 144 139 135 130 125 118 125 130 134 139 
144 149 154 159 165 129 57 75 73 170 210 185 155 176 172 168 163 158 153 148 
142 138 133 127 122 120 126 131 137 142 147 151 156 161 163 174 101 56 76 156 
164 195 178 175 172 169 163 157 152 147 142 137 132 126 120 122 127 132 138 
144 149 153 156 162 173 192 114 38 106 222 222 164 187 185 177 167 162 158 152 
147 141 137 130 123 117 122 127 132 137 144 148 157 171 175 142 89 57 31 86 215 
201 109 69 127 148 168 164 156 153 147 141 136 129 120 113 120 124 129 135 144 
162 155 120 62 9 21 54 43 61 158 197 74 14 22 37 60 133 163 150 147 141 136 
129 119 111 119 123 125 131 139 96 36 6 3 9 17 47 55 66 142 107 18 24 22 26 23 
44 135 156 146 142 137 129 118 110 107 110 111 118 66 3 11 16 14 12 8 29 64 82 
54 22 27 19 18 18 26 26 57 145 147 140 136 127 117 107 15 16 17 19 15 18 18 17 
14 14 14 9 16 21 23 23 24 16 18 13 18 26 29 92 149 137 134 126 115 104 8 9 10 
14 19 20 18 21 17 15 17 11 12 14 26 27 37 20 15 14 13 19 30 53 131 137 129 123 
112 101 9 11 14 17 20 23 16 18 22 57 65 44 35 54 29 59 34 22 14 13 11 18 31 42 
108 135 125 120 109 97 8 11 16 20 22 21 13 16 24 52 71 62 39 72 39 71 30 22 15 
11 12 19 28 41 87 131 122 115 104 91 
