P2
30 23
255
142 149 153 158 164 168 172 177 182 188 192 194 196 199 197 200 202 203 204 
206 207 208 208 205 203 200 196 190 183 158 130 135 139 142 147 151 156 160 
163 168 171 177 181 175 188 182 182 184 185 187 188 189 188 185 184 181 178 
174 161 120 132 136 139 142 146 150 153 157 160 164 170 159 106 49 115 170 180 
177 178 179 180 179 177 176 174 171 168 163 151 120 135 139 142 146 149 151 
156 160 163 171 164 48 31 57 36 66 159 182 181 184 183 182 181 180 177 175 173 
169 160 127 137 141 145 148 151 154 158 162 165 179 120 15 96 176 133 60 66 133 
195 184 185 184 182 181 178 176 174 170 165 134 137 142 146 150 153 157 160 
163 174 145 43 69 105 139 176 171 37 75 159 185 185 184 183 183 179 176 174 
171 168 141 138 143 147 151 155 158 162 164 153 109 19 91 106 121 165 192 87 
44 78 179 188 185 185 183 179 176 174 171 169 147 138 143 147 151 155 160 163 
170 120 51 23 76 84 124 154 186 132 13 116 194 187 187 184 182 180 176 174 172 
169 151 138 143 147 150 154 159 161 176 105 7 19 67 67 111 143 149 163 61 116 
198 186 186 185 182 179 176 173 170 167 155 138 143 146 150 153 157 158 169 
135 41 32 60 62 102 162 156 140 59 109 198 186 185 184 181 177 174 170 167 164 
157 137 141 145 148 151 155 157 158 176 84 15 36 52 96 166 176 138 16 124 200 
185 185 182 179 175 172 168 165 161 155 135 139 142 146 149 152 155 156 166 
141 34 17 45 80 159 179 147 55 176 191 185 183 179 176 173 169 165 161 156 152 
133 137 139 143 147 150 151 154 157 175 105 9 49 63 128 171 169 140 201 194 
183 178 176 174 170 166 162 158 153 148 132 137 139 141 145 147 149 153 155 
165 172 92 51 64 127 195 221 121 89 148 182 185 178 173 167 164 159 155 149 
144 131 134 136 138 140 143 146 149 164 157 83 29 54 76 137 209 166 66 46 40 
89 128 159 173 166 161 157 151 145 141 128 129 131 132 136 139 148 155 124 52 
13 22 24 46 77 85 46 54 51 37 40 59 65 103 163 160 154 149 141 136 109 122 122 
122 124 131 118 67 26 21 28 27 23 20 23 28 48 52 41 35 27 48 55 49 103 159 152 
146 138 131 23 31 31 31 26 32 30 23 30 25 26 27 26 27 30 37 42 42 37 32 23 29 
40 46 58 118 152 141 134 125 7 7 8 8 3 22 31 29 32 23 25 25 25 25 26 30 38 38 
34 33 21 21 29 34 48 70 137 139 128 117 9 11 12 10 13 30 28 26 30 23 26 24 25 
25 25 26 35 35 32 30 23 19 21 29 39 49 104 135 120 105 7 10 10 11 24 27 24 24 
26 22 25 23 25 26 24 23 33 33 31 28 24 19 16 29 29 49 74 119 112 93 8 8 13 16 
24 28 28 22 17 16 23 22 24 25 23 21 31 30 31 27 23 18 18 25 29 49 53 101 105 
85 11 12 12 16 23 24 28 27 18 12 21 22 23 24 20 19 31 27 28 26 22 16 20 22 33 
41 49 87 100 81 
