P2
30 23
255
115 121 126 130 134 137 140 144 148 154 158 161 164 165 166 166 168 170 171 
172 173 175 175 173 171 168 165 160 154 137 104 108 112 115 119 123 127 130 
133 137 140 143 145 147 149 149 151 152 154 154 156 157 156 154 152 149 147 
144 138 105 105 109 112 115 119 121 124 128 131 135 138 139 141 143 144 146 
148 148 149 150 151 151 149 149 146 144 143 139 132 108 108 111 115 119 121 
124 127 131 135 138 141 143 145 147 148 150 151 152 153 154 154 153 152 151 
149 147 145 140 138 117 109 113 118 121 123 126 129 133 137 141 143 146 148 
150 151 152 154 157 156 156 155 154 154 153 150 147 144 142 140 125 110 115 
119 123 125 128 131 134 138 142 145 148 151 153 154 156 158 126 159 173 157 
156 156 154 151 148 146 143 141 132 110 115 119 123 126 129 133 137 139 143 
146 150 153 155 157 160 129 139 184 183 172 156 156 153 151 149 146 144 141 
136 109 114 119 123 126 130 135 138 141 144 148 152 155 157 165 128 109 189 
210 219 208 144 155 153 152 149 146 144 141 137 108 112 117 121 125 130 135 
139 143 146 150 154 157 160 152 74 83 150 224 229 195 129 159 153 151 148 144 
142 140 136 107 111 115 119 123 128 133 138 142 146 151 154 159 163 144 65 106 
142 177 223 172 126 160 151 149 146 142 140 138 134 105 110 113 117 122 127 
132 137 140 144 149 154 158 162 141 80 142 194 168 179 191 155 154 150 147 144 
140 138 135 132 103 107 111 115 120 126 130 135 137 139 143 150 159 156 99 80 
163 210 213 138 99 162 151 148 145 142 138 135 132 128 102 105 109 114 119 124 
128 131 136 142 148 157 147 83 58 87 166 195 205 87 116 158 148 146 143 140 
136 132 129 125 102 105 109 113 118 122 124 131 124 113 105 99 71 51 66 94 163 
197 141 75 135 152 146 145 142 138 134 129 124 120 101 104 107 111 115 118 125 
98 54 51 42 60 56 64 83 116 154 141 68 80 100 146 150 143 139 137 132 126 121 
116 97 100 102 105 108 116 105 43 42 42 37 65 68 64 110 131 135 75 67 85 70 83 
128 143 138 135 130 124 117 112 96 101 103 105 108 114 55 35 44 32 33 23 49 62 
87 109 78 45 52 64 70 59 70 107 137 133 128 121 114 108 38 42 43 42 41 37 26 
29 33 33 34 30 22 23 43 57 37 34 29 42 59 50 64 80 102 130 125 119 111 104 3 3 
4 4 1 5 31 22 27 37 29 46 38 27 32 47 49 52 45 59 49 42 58 80 59 113 124 116 
108 100 8 9 10 9 6 11 36 27 23 32 27 52 40 34 35 39 48 51 58 56 32 40 62 69 46 
79 117 111 104 94 6 8 7 8 9 11 30 31 25 27 29 51 43 32 35 36 41 51 58 48 27 38 
73 61 44 58 97 107 98 84 6 7 9 10 12 17 25 30 26 27 29 49 48 32 36 34 41 56 51 
43 29 32 68 50 42 60 89 99 90 76 10 8 10 10 9 24 23 26 23 28 27 43 49 32 37 38 
38 53 43 48 31 32 57 42 43 64 76 92 85 72 
