P2
30 23
255
118 123 128 132 136 139 143 147 151 157 161 164 166 167 168 169 171 172 173 
174 176 177 176 175 173 171 168 163 157 139 106 111 114 118 122 126 129 132 
135 140 143 145 147 149 150 151 153 155 156 156 158 158 158 156 154 152 149 
145 141 108 108 111 114 118 122 125 127 131 135 138 140 142 143 145 146 148 
150 151 151 152 153 153 151 150 149 146 145 140 135 109 110 115 118 122 124 
127 130 134 138 141 144 146 148 149 151 152 154 154 155 156 156 155 154 153 
151 149 147 142 139 119 111 116 121 124 126 129 133 137 140 144 146 149 151 
153 154 155 156 156 157 157 157 156 156 155 153 150 147 144 142 127 112 116 
121 126 128 132 135 138 142 146 148 151 154 155 157 158 159 159 159 158 157 
157 158 156 153 150 148 146 143 134 112 117 121 126 130 133 137 140 144 148 
150 154 156 158 160 161 161 162 161 160 159 159 157 155 154 151 149 147 143 
138 111 116 121 125 129 134 138 142 146 149 153 156 158 160 162 163 165 164 
162 161 160 158 157 155 154 151 148 146 143 138 111 115 119 123 128 133 138 
142 147 151 155 158 161 163 168 168 161 167 167 161 160 158 157 156 153 150 
146 144 141 137 110 114 117 121 126 131 136 141 147 151 156 159 163 167 156 
77 75 125 141 164 160 157 157 154 151 148 144 141 139 136 108 112 116 119 124 
130 135 140 145 150 156 159 162 170 105 23 36 75 80 157 160 157 155 152 149 
146 142 139 137 134 106 110 114 118 123 129 134 139 143 147 152 157 166 153 
71 66 75 65 57 132 162 155 153 150 147 144 140 137 134 130 105 109 112 117 122 
127 131 136 140 144 150 156 163 98 55 60 63 73 40 67 151 154 150 148 145 142 
138 134 131 127 105 109 112 116 121 125 129 133 137 142 148 156 141 48 47 53 
56 64 44 44 111 155 149 147 144 140 137 132 127 122 104 108 111 114 118 122 
126 131 136 140 144 153 112 26 42 45 46 64 44 56 86 148 148 146 141 138 134 
129 123 118 100 103 105 108 113 118 123 128 133 136 140 153 90 13 36 39 49 60 
44 60 94 146 145 144 140 137 133 127 120 114 100 105 107 108 112 119 123 125 
127 139 143 116 52 17 29 35 37 35 37 56 94 147 150 142 138 136 131 124 117 110 
39 44 45 44 42 42 69 117 130 102 50 19 21 19 26 26 25 26 31 60 98 86 106 138 
138 132 128 122 113 106 3 3 4 5 2 4 39 114 80 27 23 22 20 18 21 23 23 29 26 78 
87 52 51 79 128 129 124 119 111 102 9 10 10 10 6 9 53 87 26 26 26 19 18 17 17 
19 21 28 55 87 73 55 50 54 94 121 120 114 107 96 6 8 8 9 8 10 49 41 25 26 21 
20 21 18 22 20 27 75 103 64 64 53 38 61 70 90 118 107 100 86 6 7 10 11 12 18 
26 21 26 27 17 23 18 21 22 28 61 67 43 27 45 39 37 61 60 63 104 102 93 78 16 
8 10 11 11 15 16 21 21 26 18 28 19 25 20 22 47 39 26 32 45 29 38 61 54 51 89 
97 87 74 
