P2
30 23
255
117 123 128 133 136 140 143 147 152 157 161 164 167 167 169 169 171 173 173 
174 176 177 177 175 173 171 168 163 157 139 106 110 115 119 122 126 129 133 
136 140 143 145 148 150 151 152 153 155 156 157 158 159 158 156 154 152 149 
146 141 107 108 112 114 118 122 125 128 132 135 138 140 142 144 146 147 148 
150 151 152 153 153 153 152 151 149 147 145 141 135 110 110 114 118 122 124 
127 131 135 138 141 144 146 148 150 151 152 154 155 156 157 156 155 155 154 
152 150 148 143 140 119 111 116 121 124 126 130 134 137 140 144 147 149 151 
153 154 155 157 157 157 158 157 156 156 156 153 150 147 144 142 127 112 117 
121 125 129 132 135 139 142 146 149 152 154 156 158 158 159 159 159 159 158 
158 158 156 153 151 149 146 143 134 112 117 121 126 129 133 137 140 144 148 
151 154 157 158 159 162 162 162 160 159 160 159 157 156 154 151 149 147 143 
138 111 116 121 125 129 134 138 142 146 150 153 156 159 160 167 160 160 160 
165 165 158 158 157 155 154 151 148 147 143 138 110 115 119 123 127 133 138 
142 147 151 155 158 160 168 135 71 71 76 70 120 167 156 157 156 153 150 146 
145 142 138 110 114 117 121 126 131 136 141 147 151 156 159 165 156 60 41 38 
47 37 47 128 161 155 155 151 148 144 142 139 137 108 112 116 119 125 130 136 
140 145 150 155 157 167 97 29 41 41 49 47 50 85 158 154 152 150 146 143 139 
138 134 106 111 114 119 123 129 134 138 142 147 152 157 161 56 21 34 34 42 47 
52 65 143 155 150 147 144 141 138 134 130 105 109 112 117 122 127 131 136 140 
143 149 159 146 40 22 31 29 39 52 49 72 135 154 148 145 142 139 135 131 127 
105 109 113 116 121 125 128 132 137 141 147 156 132 43 16 27 30 39 55 50 98 143 
155 147 144 141 136 132 127 123 104 107 111 114 117 122 125 130 135 140 144 
147 147 61 12 17 23 32 52 134 156 139 148 146 142 139 134 129 124 119 101 103 
105 108 112 118 122 128 132 136 142 153 157 55 18 33 32 34 114 176 157 143 145 
145 141 138 133 127 120 114 100 105 106 108 112 118 123 125 128 140 137 108 
62 20 24 40 53 80 121 153 157 141 152 144 138 136 132 125 117 110 39 44 45 44 
42 41 69 118 128 91 42 18 16 17 15 38 58 78 102 134 118 52 98 135 139 132 129 
122 114 106 3 3 4 4 1 4 40 113 68 26 30 28 27 23 17 31 53 53 140 105 77 57 52 
74 122 131 124 119 111 102 9 10 10 10 6 9 54 76 25 31 30 24 29 29 26 37 48 48 
101 58 68 65 51 56 86 118 121 114 107 96 6 8 8 9 8 12 42 32 28 33 25 26 25 39 
36 50 82 63 31 49 63 60 39 55 71 81 116 108 100 86 6 7 10 11 12 18 21 24 28 37 
19 30 22 28 40 49 57 36 32 30 41 43 35 54 63 59 101 103 93 79 14 8 10 11 11 12 
16 25 23 35 20 35 29 27 27 25 36 46 37 27 48 34 32 56 58 48 85 97 87 74 
