P2
30 23
255
115 120 125 129 133 137 140 144 148 154 158 161 163 164 165 166 168 169 170 
171 173 174 174 173 170 168 165 160 154 136 104 108 112 115 118 122 126 129 
132 137 140 142 145 147 148 149 150 152 153 154 155 156 155 153 152 149 146 
144 138 105 105 108 111 115 118 121 124 127 131 135 138 139 141 142 144 145 
147 148 149 149 150 150 148 148 146 144 142 138 132 107 107 111 115 118 120 
123 127 131 134 138 141 143 145 146 148 151 151 151 153 153 153 152 151 151 
149 146 145 140 137 116 108 113 117 120 123 126 129 133 137 140 143 146 147 
150 151 139 156 158 152 156 154 153 153 153 150 147 144 142 140 124 109 114 
118 122 125 128 130 134 139 142 145 148 151 153 123 109 132 178 164 155 156 
155 155 153 150 148 145 143 141 131 109 114 118 122 125 129 132 136 139 143 
147 150 158 125 98 89 100 167 208 161 156 157 154 152 151 148 146 144 141 135 
108 113 118 121 125 130 134 138 141 145 149 151 159 90 92 102 159 206 223 169 
155 157 154 153 151 148 145 144 140 136 107 112 116 120 124 129 134 139 143 
146 150 155 142 59 79 105 142 190 226 182 157 156 155 153 150 147 144 142 139 
135 106 111 114 118 123 128 133 138 142 147 150 156 139 57 62 112 137 177 209 
177 158 156 154 151 148 145 141 139 138 134 105 110 114 116 122 127 131 136 
139 144 148 154 154 66 57 115 178 213 203 147 162 155 152 150 147 143 140 138 
135 132 103 107 112 115 120 125 129 132 137 140 144 152 157 111 58 96 183 219 
193 151 160 154 151 148 144 141 138 135 132 128 102 106 110 115 119 123 126 
129 134 138 143 148 152 101 58 79 169 214 196 126 154 151 148 146 142 140 136 
132 128 125 102 106 109 113 118 121 124 127 131 136 141 156 139 58 65 77 151 
209 200 77 123 155 147 144 141 138 134 129 124 120 101 105 108 111 114 118 121 
125 131 141 142 127 73 44 70 90 149 189 157 72 91 126 146 148 141 136 131 126 
121 116 99 101 103 106 109 113 116 124 128 98 55 36 58 52 76 108 143 167 103 
56 83 66 75 108 130 136 129 124 117 111 98 103 104 105 108 112 119 114 64 38 
30 41 74 55 69 129 136 126 70 59 78 76 58 62 84 128 128 120 113 107 39 44 43 
43 41 39 69 54 34 37 36 22 49 69 65 101 132 94 49 51 53 67 51 55 74 85 120 118 
110 104 3 3 4 4 1 5 29 29 42 28 33 26 16 30 43 57 79 58 36 32 34 56 41 47 73 
58 91 118 106 99 8 9 10 10 5 10 26 28 46 26 27 32 28 27 20 28 43 53 45 37 52 
49 32 43 67 54 57 98 105 92 6 8 8 8 8 9 23 25 37 27 28 28 36 37 33 39 40 52 49 
38 61 41 27 46 75 50 48 73 97 81 6 7 9 10 12 12 25 20 25 25 30 23 40 34 34 46 
37 50 38 46 58 39 28 38 68 44 49 71 81 76 8 8 10 11 9 13 29 23 20 20 26 23 39 
32 39 43 39 42 36 54 47 42 33 36 59 40 57 65 71 71 
