P2
30 23
255
117 123 127 132 136 139 142 146 151 156 160 163 166 167 168 168 170 172 172 
173 175 176 176 175 172 170 167 162 156 138 105 110 114 117 121 125 128 132 
135 139 142 144 147 149 151 151 153 154 155 156 158 158 157 155 154 151 148 
145 140 107 107 111 114 118 121 124 127 131 134 137 140 141 143 145 146 147 
149 150 151 152 152 152 151 150 148 146 144 140 134 109 109 113 118 121 124 
127 130 134 137 141 144 146 147 149 150 151 153 154 155 156 155 154 153 153 
151 149 147 142 139 119 110 115 120 124 125 129 132 136 139 143 146 148 150 
152 153 154 156 156 156 157 156 155 155 155 152 149 146 144 141 126 111 116 
120 125 128 131 134 138 141 145 148 151 154 155 157 158 158 158 159 158 157 
157 158 156 153 150 148 145 143 133 111 116 121 125 129 132 137 140 143 147 
150 153 156 157 159 161 160 159 160 159 159 159 156 155 153 150 148 146 143 
137 111 116 121 125 128 133 138 141 145 149 152 155 158 160 162 163 166 170 
164 161 158 157 156 155 153 150 147 146 142 138 110 114 119 122 127 132 137 
141 146 150 154 158 161 163 164 168 148 90 107 154 158 156 157 155 153 149 146 
144 141 137 110 113 116 120 125 130 135 140 146 150 155 159 163 164 169 163 
90 43 68 95 149 160 155 153 150 147 143 141 139 136 108 112 115 119 124 129 
135 140 144 149 154 159 163 167 158 87 59 66 66 67 92 155 154 151 148 145 142 
139 137 134 106 110 114 118 123 128 133 138 142 146 151 157 162 171 96 36 53 
62 57 68 46 86 157 148 146 143 139 137 134 129 105 109 112 117 121 126 131 135 
139 143 149 156 162 145 48 31 43 48 52 70 55 60 146 148 144 141 138 134 130 
126 104 108 112 115 121 125 128 132 137 141 146 152 157 110 29 29 35 43 59 71 
56 64 131 149 142 140 136 131 126 122 103 107 110 113 117 122 125 129 135 139 
143 146 156 91 22 26 35 41 48 46 49 77 139 146 140 138 134 128 123 118 100 102 
105 108 112 117 122 127 132 135 143 157 136 45 22 22 39 33 36 40 42 91 145 142 
140 137 132 126 119 113 99 104 106 108 112 118 123 124 128 139 127 87 39 28 31 
19 27 28 34 35 59 126 149 141 138 135 130 123 116 109 39 44 45 44 43 42 68 118 
123 73 29 15 19 24 34 31 22 19 36 61 82 76 96 135 137 131 127 121 113 106 3 3 
4 5 1 3 41 109 54 24 32 27 25 17 31 38 36 51 98 108 67 50 50 79 130 128 124 
119 110 102 9 10 10 10 6 9 53 62 23 29 28 24 30 18 18 31 52 72 88 67 65 50 47 
61 100 122 119 113 106 95 6 8 8 8 8 13 36 25 30 27 23 23 26 30 27 41 66 35 37 
43 57 44 38 68 70 99 116 107 100 85 6 7 10 10 12 17 20 21 28 30 18 28 17 24 30 
44 37 31 28 28 43 32 39 63 58 70 105 101 92 78 16 8 10 11 11 12 14 24 21 26 24 
33 23 29 17 24 39 40 29 39 40 25 43 65 52 56 92 96 87 74 
