P2
30 23
255
124 130 135 138 143 147 150 155 160 165 169 173 174 173 175 176 179 181 181 
183 186 186 187 184 182 179 177 172 166 146 111 116 120 124 128 133 136 140 
142 147 150 152 159 168 168 168 163 163 164 165 167 168 167 165 164 161 158 
155 148 113 113 117 120 124 127 131 134 138 140 144 146 156 136 92 97 115 152 
161 159 161 162 161 160 159 158 155 154 149 141 115 115 120 124 128 130 133 
137 140 144 146 157 119 45 66 124 143 106 158 166 165 165 164 163 162 161 158 
155 151 147 124 116 121 126 130 132 136 139 142 147 152 150 54 98 170 204 226 
187 139 170 166 166 165 165 165 162 158 155 153 150 132 117 122 126 131 134 
137 140 144 148 160 124 57 114 160 195 205 224 156 161 170 167 168 167 164 162 
160 157 154 152 140 117 122 127 131 135 138 142 146 149 163 112 50 111 132 198 
160 193 169 157 173 169 168 166 164 163 160 157 155 151 144 116 121 126 130 
135 139 144 149 151 162 122 53 88 98 168 161 191 196 162 174 169 168 166 164 
163 160 157 154 151 145 115 121 124 128 134 139 143 149 153 163 121 59 128 101 
141 220 230 222 180 173 170 168 167 164 162 159 155 153 150 145 111 120 122 
126 131 137 141 147 152 159 129 58 105 106 128 202 224 223 183 176 170 167 166 
163 160 157 152 150 147 143 102 119 121 125 129 135 139 144 150 152 150 77 88 
100 142 197 219 217 173 173 170 167 165 162 158 155 150 147 145 141 101 117 
119 123 127 132 136 141 146 150 155 120 80 77 119 169 215 177 167 174 169 165 
162 159 156 152 148 144 141 138 110 114 117 122 126 129 134 139 144 150 150 
145 71 68 117 186 200 88 138 176 164 163 161 158 154 150 145 141 138 135 109 
113 116 120 125 128 132 137 142 148 151 138 39 53 100 127 197 65 67 164 170 
161 157 155 152 148 143 139 135 130 108 112 115 117 121 125 130 135 139 150 
163 91 23 51 88 132 205 125 40 118 142 158 165 160 149 146 141 136 131 126 104 
107 109 111 115 122 127 135 146 128 74 37 41 50 78 144 165 117 63 92 50 62 93 
127 149 143 139 134 127 121 104 108 110 111 115 122 130 126 74 23 23 39 47 53 
87 112 143 73 59 87 70 56 54 69 125 144 136 131 123 116 42 47 47 46 44 44 71 
54 30 29 48 45 44 71 121 105 120 61 59 79 72 54 53 73 83 126 137 128 120 112 
3 4 4 5 1 4 25 35 36 26 51 53 43 64 118 106 82 46 60 69 74 49 44 70 60 74 127 
126 116 107 9 10 11 11 6 12 31 35 27 25 32 57 55 57 75 87 48 39 38 37 55 42 43 
69 59 54 88 123 110 100 6 9 8 9 8 16 30 37 22 29 20 22 34 39 48 49 47 36 32 43 
54 35 39 64 53 57 69 105 106 89 6 8 10 11 12 16 25 38 20 29 27 25 30 20 25 41 
49 46 36 56 48 29 40 73 55 47 65 81 98 80 8 8 10 12 9 16 19 29 27 32 24 35 44 
30 35 35 47 41 40 59 42 30 33 69 50 48 60 69 85 77 
