P2
30 23
255
117 123 128 132 136 139 143 147 151 157 161 164 166 167 168 169 171 172 172 
174 175 177 177 175 173 171 167 163 156 139 106 111 114 118 122 126 129 132 
136 140 143 145 147 149 151 152 153 155 156 156 158 159 158 156 154 152 149 
146 140 107 107 111 114 118 121 125 127 131 134 138 140 142 144 145 146 148 
150 151 151 152 153 152 151 150 149 146 145 140 135 110 110 113 118 121 124 
127 131 134 137 141 144 146 148 149 150 152 154 154 155 156 156 155 154 153 
151 149 147 142 139 119 111 116 120 124 126 129 133 136 140 144 146 149 151 
152 154 155 156 156 157 157 157 156 155 155 152 149 147 144 142 127 111 117 
122 125 128 132 135 138 142 145 148 151 154 156 157 158 159 159 159 158 157 
157 158 156 153 150 148 145 143 134 112 117 122 125 129 133 137 140 143 147 
150 154 156 158 160 161 162 161 160 159 159 159 157 155 154 151 149 146 143 
137 111 116 121 125 129 134 138 141 145 149 152 156 159 160 163 164 163 165 
167 164 159 157 156 155 153 151 148 146 143 138 111 115 120 123 128 133 137 
142 146 150 154 158 161 164 166 166 171 159 131 139 158 157 155 155 153 149 
146 144 141 137 110 114 118 122 126 131 136 141 146 150 155 159 163 166 167 
172 153 98 47 58 119 160 160 154 150 147 144 141 139 136 108 112 117 120 125 
130 136 140 144 149 154 159 164 167 172 161 105 74 40 47 66 93 115 150 151 145 
142 139 137 134 106 110 115 119 123 129 134 139 142 146 151 158 164 166 176 
135 55 48 53 49 51 53 59 70 132 145 139 137 134 130 105 109 112 117 122 127 
132 136 140 144 149 156 161 165 165 91 27 41 41 41 52 52 61 49 79 147 136 134 
130 126 105 109 112 116 122 126 130 134 137 142 147 152 157 161 159 80 25 32 
27 33 44 50 62 74 63 131 137 131 126 122 104 107 111 114 119 124 127 131 136 
140 143 147 151 164 146 52 33 24 23 26 40 49 70 74 66 126 135 127 122 118 100 
103 105 109 114 120 124 129 133 136 144 153 155 146 59 21 30 23 22 25 40 46 47 
48 58 125 135 125 119 113 100 105 107 109 113 119 124 125 129 139 126 95 61 36 
25 25 26 19 18 20 40 41 35 41 67 133 129 122 116 109 39 44 45 45 43 42 70 117 
129 86 43 30 25 29 28 16 30 28 22 17 30 37 33 41 97 132 125 120 113 106 3 3 4 
5 1 4 39 116 87 27 36 39 29 32 30 16 22 33 32 31 32 27 38 67 100 128 122 118 
110 102 9 10 11 11 6 10 51 98 34 32 34 29 26 32 34 25 22 28 42 47 49 57 87 61 
61 108 118 113 106 95 6 8 8 9 9 9 52 47 23 32 36 23 29 22 35 34 33 32 35 49 64 
73 57 32 61 75 103 109 99 85 6 8 10 11 12 18 29 18 27 26 35 20 33 21 26 28 39 
35 20 44 46 40 32 37 62 56 80 103 91 78 11 8 11 11 11 17 14 20 30 21 27 25 37 
25 36 24 26 39 40 25 30 40 25 39 59 48 62 93 87 73 
