P2
30 23
255
124 130 135 138 143 147 150 155 160 165 170 173 175 175 175 176 178 181 181 
183 185 186 186 184 182 179 177 172 166 147 111 116 120 124 128 132 136 140 
142 147 151 153 154 160 167 168 167 163 164 165 167 168 167 165 164 161 157 
155 149 113 113 116 120 124 128 131 134 138 140 144 147 148 158 143 110 113 
133 161 160 161 162 161 160 159 158 155 154 148 141 115 115 119 124 128 130 
133 137 140 144 148 150 159 122 42 46 97 113 110 165 165 165 164 163 163 161 
158 155 150 146 125 116 122 126 130 132 136 139 142 147 151 156 147 45 92 160 
205 224 161 145 172 165 165 165 164 161 158 155 153 150 133 117 123 127 131 
134 137 140 144 149 152 164 111 60 116 166 196 217 221 149 166 167 167 167 164 
162 159 157 154 151 140 117 123 127 131 135 138 141 146 150 153 167 95 54 122 
154 190 181 218 155 164 171 169 166 164 163 160 157 155 152 145 116 122 126 
130 135 139 143 149 152 154 167 107 46 107 117 171 145 200 178 165 171 168 166 
164 163 160 157 154 151 145 118 120 125 128 133 138 143 149 154 155 169 105 
63 123 100 159 210 223 213 174 171 168 167 165 162 159 155 153 149 145 91 122 
122 126 132 137 141 147 153 157 165 112 59 131 103 137 203 222 217 177 173 166 
166 164 160 156 152 150 147 143 65 120 122 125 130 135 139 144 149 155 157 142 
65 105 85 138 184 202 206 169 171 167 165 162 158 155 150 147 145 141 68 116 
120 124 128 132 136 141 146 151 155 159 102 90 89 144 205 207 178 168 169 166 
163 159 156 152 148 144 141 138 99 116 117 122 126 130 134 138 143 149 155 158 
129 48 82 149 196 174 110 172 166 163 160 158 154 150 146 141 138 136 110 113 
117 121 125 129 132 137 142 148 151 161 99 30 63 95 167 179 50 134 170 159 157 
156 152 148 144 139 135 131 107 112 115 118 121 126 130 135 139 148 163 144 
43 37 63 117 178 197 51 76 154 165 165 157 150 146 141 136 131 126 104 107 109 
112 116 121 127 134 145 137 92 45 37 50 56 109 168 172 83 77 84 71 115 140 150 
143 139 134 127 121 104 108 110 111 115 123 130 131 89 35 17 37 43 53 66 107 
139 124 58 78 84 50 54 63 119 145 136 131 123 116 42 47 47 47 44 44 73 62 34 
35 37 56 43 55 101 122 122 105 50 72 83 63 60 61 87 125 137 128 120 112 3 3 4 
5 1 6 24 34 37 32 32 63 50 49 100 124 108 67 52 70 81 65 44 59 72 75 128 125 
116 107 9 10 11 11 6 11 26 38 29 29 22 45 61 58 65 94 81 40 46 42 54 55 40 59 
71 52 86 122 111 100 7 9 8 9 8 12 24 38 30 24 30 16 30 38 47 55 52 40 36 31 54 
46 36 53 66 54 66 100 106 89 7 8 10 11 13 13 21 35 31 21 34 23 34 25 22 33 51 
48 42 43 60 37 33 59 69 45 65 79 98 81 8 8 10 11 10 13 19 22 32 28 32 24 48 36 
34 36 42 51 37 53 56 35 29 55 68 43 60 67 84 78 
