P2
30 23
255
115 121 125 130 134 138 140 144 149 154 158 161 164 165 166 166 168 170 170 
172 174 175 175 173 170 168 165 160 154 137 104 108 112 116 120 123 127 130 
133 137 141 143 145 147 149 149 151 153 153 154 156 156 156 154 152 150 146 
144 139 106 105 109 112 115 118 122 124 128 131 136 138 139 141 142 144 146 
148 148 149 150 150 150 149 148 146 144 143 139 133 108 108 112 116 118 121 
124 127 131 135 139 141 143 145 147 148 150 151 152 154 154 154 153 152 152 
149 147 145 140 138 117 109 113 117 121 123 126 130 133 137 141 143 146 148 
150 153 152 154 158 154 156 155 154 154 153 150 147 145 142 140 125 110 114 
119 123 125 128 131 135 139 142 146 149 151 155 147 107 135 169 162 156 156 
156 156 153 150 148 146 144 141 132 110 114 119 123 126 129 133 137 139 143 
147 151 153 157 119 104 156 204 200 160 158 157 155 153 151 149 146 144 142 
136 109 114 119 123 126 131 135 138 141 145 149 152 158 148 88 105 151 200 225 
167 156 157 155 153 152 149 146 144 141 136 109 113 117 121 125 130 135 139 
143 146 150 152 162 116 62 101 152 190 213 188 158 156 156 153 151 147 144 142 
139 136 108 112 115 119 124 128 134 138 142 147 151 154 161 102 47 86 167 215 
193 164 162 155 154 152 149 145 142 140 138 134 106 110 114 117 122 128 132 
136 139 144 148 153 162 124 51 85 168 229 199 125 165 155 153 150 147 144 140 
138 136 132 103 107 112 116 120 126 129 134 137 140 145 151 157 145 74 75 159 
222 195 136 161 153 151 148 145 142 138 135 132 128 102 106 109 114 119 124 
127 130 134 137 141 148 159 117 59 72 140 210 196 107 150 152 148 146 143 139 
137 133 129 125 102 106 109 113 118 122 124 127 130 138 147 155 137 59 61 79 
138 203 181 58 111 155 150 144 141 139 134 129 124 120 101 105 108 111 115 119 
121 124 134 131 107 76 64 56 68 94 148 190 141 67 87 107 132 145 142 136 132 
126 121 117 98 100 103 106 110 114 116 125 97 57 45 26 60 74 62 114 156 152 
95 61 87 75 71 94 122 138 129 124 118 112 97 102 104 105 108 112 121 92 41 39 
43 33 25 58 68 89 134 114 59 54 58 72 61 60 82 114 128 120 114 108 38 43 43 43 
40 39 66 40 44 41 32 40 23 22 29 42 69 70 40 40 36 61 47 53 76 68 114 120 110 
104 3 3 3 4 1 5 24 25 41 40 24 40 31 41 29 29 40 56 56 48 56 60 35 48 74 52 85 
118 107 100 8 9 10 10 5 8 23 24 27 34 30 36 32 48 34 42 43 52 57 44 68 51 27 
47 79 49 57 101 104 92 6 8 8 8 8 8 25 26 23 28 33 28 37 47 32 44 45 49 43 53 
66 46 31 37 70 43 56 88 98 81 6 7 10 10 12 13 25 35 23 25 29 24 42 42 33 47 44 
43 43 65 54 49 39 36 60 46 65 71 85 75 11 7 10 10 10 16 22 32 33 25 27 25 43 
36 37 48 40 40 48 59 42 56 44 39 59 46 64 59 72 71 
