P2
30 23
255
115 121 125 129 134 137 140 144 148 153 158 161 163 164 165 166 168 170 170 
171 173 175 174 173 170 168 165 160 154 137 104 108 112 115 119 123 126 130 
133 137 140 142 145 147 148 149 150 152 153 154 155 156 155 153 152 149 146 
143 138 105 105 108 112 115 118 121 124 128 131 135 138 139 141 142 144 145 
147 148 149 150 150 150 148 148 146 144 142 138 132 108 107 111 115 118 120 
123 127 131 134 138 141 143 145 146 148 152 152 152 153 154 154 153 152 151 
149 146 144 140 137 117 108 113 117 121 123 126 129 133 137 141 143 146 147 
150 150 137 154 160 152 156 155 154 153 153 150 147 144 141 140 124 109 114 
118 122 125 127 130 134 139 142 145 148 150 154 123 104 136 177 168 155 156 
155 155 153 150 148 145 143 141 131 109 114 119 122 126 129 133 137 139 143 
147 150 158 130 104 114 157 203 206 162 156 156 154 153 151 149 146 144 141 
136 109 114 118 122 125 130 134 139 141 145 149 151 162 95 86 108 148 191 226 
170 155 156 154 153 151 148 145 144 140 136 108 112 116 120 124 130 135 139 
143 147 150 154 148 63 72 106 160 188 211 187 157 156 155 153 150 147 144 141 
139 136 107 112 115 118 123 128 133 138 142 147 150 155 143 64 54 97 176 216 
188 165 161 155 154 152 149 145 142 139 138 134 105 110 113 117 122 127 131 
136 140 144 149 154 157 75 51 97 183 231 181 131 166 155 153 150 147 143 140 
137 135 131 103 107 111 115 120 125 128 133 137 140 145 152 157 116 56 87 176 
227 177 139 161 153 151 148 145 141 138 135 132 128 102 106 109 114 119 122 
126 129 134 138 143 149 153 104 54 75 155 214 182 116 155 151 148 146 143 139 
136 132 128 125 102 106 109 113 117 121 124 127 131 136 141 155 143 60 56 77 
145 209 178 51 122 154 147 144 141 138 134 129 124 120 101 105 108 111 114 118 
121 124 130 142 141 124 76 45 65 86 145 190 159 66 90 125 145 148 141 136 132 
126 121 116 98 101 103 106 109 113 116 124 128 98 55 35 59 53 73 105 140 168 
114 57 84 68 74 108 131 136 129 124 117 111 97 102 104 105 108 112 118 113 62 
39 32 38 74 58 65 127 137 125 74 59 81 79 59 63 83 126 129 120 113 107 38 43 
43 43 41 39 68 54 34 37 37 21 42 67 65 95 132 96 50 52 53 67 53 55 74 84 118 
118 110 104 3 3 3 4 1 5 28 29 43 29 34 28 16 26 37 51 73 60 37 33 34 57 43 46 
72 60 87 119 107 100 8 9 10 10 6 9 25 28 46 26 27 32 29 30 21 27 41 54 47 39 
53 53 33 41 67 56 57 97 105 91 6 8 7 8 8 9 21 25 36 27 29 29 36 37 32 41 40 52 
50 39 63 44 27 43 75 53 47 72 97 82 7 7 10 10 12 12 25 20 25 25 31 23 40 34 34 
47 38 49 39 47 60 42 30 35 68 46 48 71 81 76 19 8 10 11 9 12 29 23 20 21 26 23 
39 31 39 45 39 42 36 56 50 45 36 33 59 42 55 66 71 71 
