P2
30 23
255
115 121 126 130 134 137 141 145 149 154 158 161 164 165 166 167 169 170 171 
172 174 175 175 173 171 168 165 161 155 137 104 109 112 116 119 124 127 130 
133 138 141 143 145 147 149 150 151 153 154 154 156 156 156 153 152 150 147 
144 139 106 106 110 113 116 119 122 125 129 132 136 138 140 142 143 145 146 
148 148 149 150 150 151 149 148 147 144 143 139 133 108 108 112 116 119 121 
124 128 132 136 139 142 144 145 147 149 150 152 152 153 154 154 153 152 152 
149 147 145 140 138 118 109 113 118 121 124 127 131 135 138 141 143 148 152 
151 152 153 155 155 155 156 155 154 154 153 150 147 145 142 140 125 109 114 
119 123 126 129 132 136 140 143 148 139 137 159 153 156 158 157 157 157 155 
156 156 154 151 148 146 144 141 132 110 115 119 123 126 129 134 138 140 146 
142 102 102 171 195 169 158 160 159 158 158 157 154 153 152 149 146 145 141 
136 109 114 118 122 126 130 135 139 141 152 113 89 112 175 210 200 160 164 161 
159 158 156 155 154 152 149 146 144 141 137 109 113 116 120 125 130 135 140 
142 154 88 72 115 165 199 212 178 164 164 161 158 156 155 153 151 148 144 142 
140 136 108 112 115 119 123 128 134 138 142 152 72 58 98 158 219 196 159 168 
164 161 158 156 154 152 149 146 142 140 138 134 106 110 114 117 122 126 131 
136 139 146 88 47 71 139 224 210 148 167 164 161 159 156 153 150 147 144 140 
138 136 132 104 108 112 115 119 124 127 132 137 143 124 45 64 114 210 223 162 
163 166 160 157 154 151 148 145 142 138 136 132 128 103 107 110 114 117 121 
125 129 134 138 142 90 54 87 180 225 151 89 163 165 157 152 148 146 143 140 
137 132 129 125 103 106 110 112 116 120 123 126 130 137 141 71 59 82 153 215 
155 55 108 138 145 150 151 145 141 139 135 130 125 121 102 105 108 110 113 117 
120 124 135 144 106 44 63 94 147 189 123 61 83 72 75 84 114 144 140 136 132 
127 121 117 98 101 102 104 108 112 119 127 105 62 53 64 56 97 154 148 89 57 72 
74 58 55 75 93 138 135 130 124 118 112 98 102 103 104 107 114 109 68 42 27 34 
65 67 76 121 122 60 44 38 56 47 46 71 54 104 137 126 121 114 108 38 43 43 42 
39 42 48 36 38 38 21 22 35 41 55 72 49 45 43 61 35 42 77 52 57 115 127 118 111 
104 3 3 3 4 1 9 36 43 28 38 33 26 28 24 32 47 57 50 50 62 30 34 75 51 48 89 121 
116 108 100 9 9 10 9 8 26 33 48 23 32 35 32 40 32 44 42 54 41 57 56 37 30 64 
46 58 69 98 113 104 93 6 8 8 7 14 25 23 37 29 33 31 34 42 29 45 45 46 40 61 46 
48 33 63 50 58 59 68 104 97 83 6 7 9 9 17 27 19 28 24 33 26 36 38 30 47 44 39 
46 53 40 60 37 67 44 46 52 55 80 92 75 14 8 10 10 15 31 23 24 24 29 24 38 34 
33 48 41 37 49 38 39 67 41 67 52 47 52 52 60 85 71 
