P2
30 23
255
117 123 128 132 136 140 143 147 151 157 161 164 166 167 168 169 171 173 173 
174 176 177 177 175 173 171 168 163 156 139 106 111 114 118 122 126 129 133 
136 140 143 145 147 149 151 152 153 155 156 157 158 159 158 156 155 152 149 
145 141 108 108 111 114 118 121 125 127 131 135 138 140 142 144 145 147 148 
150 150 151 153 153 153 152 151 149 146 145 141 135 110 110 114 118 121 124 
127 130 134 138 141 144 146 148 149 151 152 153 154 155 156 156 155 154 154 
152 150 148 143 139 119 110 115 120 124 126 129 133 137 140 144 146 149 151 
152 154 155 156 157 157 157 157 156 156 155 153 150 147 144 142 127 112 117 
121 125 128 132 135 138 142 146 148 151 154 156 157 157 158 159 159 159 158 
157 158 156 153 150 148 146 143 134 111 116 121 125 129 133 137 140 144 148 
150 154 156 157 158 163 165 161 160 160 159 159 157 155 154 151 149 147 143 
138 111 116 121 124 129 133 138 142 146 150 153 156 157 161 170 147 143 164 
164 161 160 158 157 155 154 151 149 146 143 138 110 114 119 123 127 133 137 
142 147 150 155 157 164 154 111 74 63 82 156 164 159 158 158 156 153 150 147 
145 142 137 110 113 117 121 126 131 136 141 147 151 154 162 149 66 39 54 38 44 
87 162 160 157 157 154 151 148 144 142 139 137 108 112 116 119 124 130 136 140 
145 149 154 157 75 35 42 48 42 66 56 118 163 157 155 152 149 146 142 140 138 
134 106 110 114 118 123 129 133 138 142 145 155 134 34 34 38 41 47 61 71 86 152 
157 153 150 147 144 140 138 134 130 105 109 113 117 121 126 130 135 139 141 
152 124 28 24 34 42 42 60 83 89 151 154 151 149 145 142 138 135 131 127 105 
109 112 115 120 123 127 131 136 139 149 120 22 22 35 48 31 67 95 103 159 155 
149 148 144 141 137 132 127 123 104 107 110 113 116 121 124 128 135 139 144 
138 32 13 29 37 61 129 116 128 145 148 149 146 142 139 134 129 124 119 100 103 
105 107 111 116 121 127 131 136 139 158 96 13 20 68 146 164 163 140 103 144 
147 144 141 138 133 127 120 114 99 104 106 107 111 117 122 124 126 137 140 116 
69 28 46 87 126 140 172 97 76 139 150 144 138 136 131 125 117 110 39 44 44 44 
42 41 69 115 130 107 52 19 10 21 45 71 97 119 152 59 74 62 84 131 139 132 129 
122 114 106 3 3 4 4 2 4 39 114 97 29 26 28 23 19 18 61 124 103 99 44 71 65 50 
69 115 131 124 119 111 102 9 10 11 11 6 9 50 103 36 27 27 25 23 30 19 42 108 
94 61 45 67 71 51 53 79 116 120 114 107 96 6 8 8 9 8 9 53 56 20 35 23 25 22 33 
44 50 74 73 36 44 51 59 42 50 74 78 113 108 100 86 6 8 10 10 12 18 32 21 22 35 
22 25 31 21 32 37 51 45 36 28 36 44 33 50 67 58 95 103 92 78 12 8 10 11 11 17 
14 22 21 26 23 33 37 27 35 22 31 47 43 30 48 37 29 55 63 49 77 97 87 74 
