P2
30 23
255
114 121 125 130 134 137 140 144 148 154 158 161 164 164 166 166 168 170 170 
172 173 175 175 173 171 168 165 160 154 137 104 108 111 116 119 123 126 129 
133 137 141 143 145 147 148 149 151 152 153 154 156 156 155 153 152 149 146 
144 138 106 105 109 112 115 118 121 124 128 131 135 138 139 141 143 144 145 
147 149 149 150 150 150 149 148 146 144 143 139 132 108 107 111 115 118 120 
123 127 131 135 138 141 144 145 147 147 152 152 151 154 154 153 153 152 151 
149 147 145 140 138 117 109 113 117 121 123 126 129 133 137 141 143 146 148 
150 153 138 153 162 152 156 155 154 154 153 150 147 144 142 140 125 109 114 
118 122 125 128 131 134 138 142 145 148 150 156 136 97 130 174 173 154 156 156 
156 153 150 148 146 143 141 132 110 114 119 122 126 129 133 137 139 143 147 
151 154 154 107 108 156 203 209 164 156 157 154 153 151 149 146 144 141 136 
109 114 118 122 126 130 134 138 141 145 149 151 159 140 83 104 151 201 225 174 
155 157 155 153 151 148 146 144 141 136 108 113 117 121 125 130 135 139 143 
146 150 152 161 110 59 95 140 176 214 198 161 156 155 153 151 147 144 142 139 
135 108 111 115 119 124 129 133 138 142 146 150 154 161 109 43 83 156 204 189 
162 163 156 154 152 148 145 142 139 138 134 105 110 114 117 122 127 131 136 
139 143 148 153 161 138 63 82 167 225 202 117 163 156 153 150 147 144 140 138 
136 132 103 107 112 116 120 125 129 133 137 140 144 151 156 146 78 74 159 219 
198 132 159 153 151 148 145 142 138 135 132 128 102 106 110 114 119 123 127 
130 133 137 141 148 159 111 55 71 137 205 200 111 146 152 148 146 143 140 136 
132 128 124 102 106 109 113 118 121 124 126 130 138 147 154 130 54 60 77 132 
201 187 58 105 155 149 144 141 138 134 129 124 120 101 104 108 111 114 118 121 
124 134 127 101 68 56 53 67 88 142 186 148 68 86 112 137 147 141 136 131 126 
121 116 98 100 103 106 110 113 116 124 90 56 42 28 68 63 63 115 150 160 104 
58 86 73 72 102 128 137 129 124 117 112 97 102 104 105 108 112 120 82 39 40 44 
28 42 73 66 102 143 120 67 60 73 79 62 61 83 121 128 120 114 107 38 43 43 42 
40 39 63 36 45 36 34 35 17 31 47 60 93 79 40 40 35 60 51 54 77 77 116 120 110 
103 3 3 3 4 1 4 23 26 46 36 26 39 28 32 21 27 43 56 47 43 46 60 39 45 71 56 90 
119 107 100 9 9 10 10 6 8 24 23 31 33 29 37 32 47 33 37 42 53 59 44 62 51 29 
48 76 51 60 103 104 92 6 8 8 8 7 9 27 23 25 28 33 28 38 49 31 42 41 50 46 47 
67 45 28 39 74 48 51 87 98 82 6 7 9 10 12 12 28 31 22 25 30 24 44 45 32 43 43 
44 40 61 58 45 35 35 63 42 59 76 86 75 13 8 10 11 11 16 25 34 28 23 27 24 47 
39 36 46 40 39 45 63 45 50 41 36 57 49 65 62 75 71 
