P2
30 23
255
117 123 128 132 136 140 143 147 152 157 161 164 167 167 168 169 171 172 173 
174 176 177 177 175 173 171 168 163 157 139 106 111 115 118 122 126 129 132 
136 140 143 145 147 149 151 152 153 154 155 157 159 159 158 156 155 152 149 
146 141 107 108 111 115 118 122 125 127 131 135 138 140 142 144 145 147 148 
150 151 151 152 153 153 151 151 149 146 145 140 135 110 110 114 119 122 125 
127 130 135 138 141 144 146 148 150 151 152 154 155 155 156 156 155 155 154 
152 150 148 143 140 119 111 116 120 124 126 129 133 137 140 144 147 149 151 
152 154 155 156 157 157 158 157 156 156 156 153 150 147 145 142 127 112 117 
121 125 129 132 136 139 142 146 148 151 154 156 158 158 159 159 159 159 157 
158 158 156 153 150 148 146 143 134 112 117 121 126 130 133 137 140 144 148 
151 154 156 158 159 160 161 161 161 160 159 159 157 155 154 151 149 147 143 
138 111 116 121 125 129 134 138 142 146 150 153 156 158 159 167 169 166 167 
162 161 160 158 157 156 154 151 148 146 143 138 111 115 119 123 128 133 138 
143 148 151 155 158 160 167 141 84 109 144 163 161 160 158 158 156 153 150 147 
144 142 137 110 114 117 121 126 131 136 142 147 151 156 159 164 157 71 27 60 
78 137 171 159 158 156 154 151 148 144 142 139 136 108 112 115 119 124 130 136 
140 145 150 155 158 167 118 63 63 69 67 60 133 164 156 155 152 149 146 142 140 
138 134 106 110 114 118 123 129 134 139 143 147 152 158 155 69 51 55 55 67 43 
44 145 159 152 150 147 144 140 137 134 130 105 109 112 117 121 126 131 136 140 
144 149 161 112 37 46 51 46 57 48 42 95 156 150 148 145 142 138 135 131 127 
105 109 112 116 121 124 128 133 137 142 147 157 84 21 37 39 42 63 54 55 79 148 
150 147 144 140 137 132 127 123 104 108 111 113 117 122 125 130 136 140 143 
148 75 14 29 36 52 60 47 56 84 145 149 146 142 138 134 129 123 119 100 103 105 
108 112 118 122 128 133 136 142 150 75 13 26 35 42 38 38 47 92 148 146 143 140 
138 133 127 120 114 100 105 106 108 111 118 123 124 129 142 135 97 42 16 24 30 
28 35 34 49 105 145 149 142 139 136 131 124 117 110 39 44 44 44 42 41 69 120 
124 78 32 12 17 19 17 27 27 34 30 69 86 59 106 139 138 132 129 122 114 106 3 3 
4 4 2 3 42 106 52 23 23 22 16 19 21 18 20 31 76 109 72 47 51 81 128 129 124 
119 111 102 9 10 10 10 6 9 52 54 22 28 25 21 19 16 29 29 29 73 125 87 65 51 51 
58 95 122 120 114 107 96 6 8 8 9 8 13 35 25 29 21 23 21 25 19 21 31 59 77 66 
56 69 49 37 61 71 92 117 108 100 86 5 8 10 10 12 15 22 22 30 22 20 23 21 29 32 
38 59 47 26 35 46 38 37 62 58 65 105 102 93 78 12 8 10 11 11 11 19 20 27 22 20 
30 18 26 24 35 38 37 27 29 43 28 37 58 52 52 90 96 87 74 
