P2
30 23
255
113 119 124 128 132 136 139 143 148 153 157 160 162 164 164 164 166 169 169 
171 173 174 174 172 170 168 164 159 153 135 103 107 110 114 118 122 125 129 
132 136 140 142 143 144 150 152 151 151 152 153 155 155 154 153 152 149 145 
143 138 104 104 108 111 114 117 121 123 127 131 135 137 138 141 148 128 126 
136 152 149 149 150 149 148 147 146 143 143 138 132 107 107 111 114 117 120 
123 126 130 134 138 140 143 142 69 28 53 83 99 151 153 152 152 151 150 149 146 
144 140 137 116 107 112 116 119 121 125 128 133 137 140 141 151 70 44 110 160 
199 136 123 160 153 153 153 153 150 146 144 141 139 123 108 113 117 120 123 
127 130 134 138 141 147 133 50 100 150 187 213 221 145 149 156 155 155 153 150 
147 145 143 140 131 108 113 117 120 124 128 132 137 140 142 153 116 38 74 123 
168 154 171 129 139 160 155 154 152 151 148 145 143 140 135 108 112 116 120 
124 129 134 138 141 144 153 122 23 18 30 66 36 111 95 130 161 154 154 152 151 
148 145 143 140 135 107 111 114 118 123 128 134 139 143 145 154 123 29 18 11 
122 71 39 116 164 157 155 154 153 150 147 143 141 139 135 106 110 113 117 121 
126 132 137 141 145 154 124 48 73 76 123 181 167 202 170 162 154 154 151 148 
145 141 139 137 133 105 109 113 115 120 125 129 135 139 144 147 141 67 89 101 
119 186 208 202 161 158 155 152 149 147 143 140 137 135 131 103 107 111 114 
118 123 126 131 137 140 144 152 98 75 80 115 176 193 181 155 157 153 150 147 
144 141 138 135 131 128 102 106 109 112 116 121 124 128 135 138 144 147 129 
54 78 143 199 179 112 156 155 151 149 146 142 139 136 131 127 124 102 105 108 
111 115 119 122 126 132 137 140 149 103 28 51 88 148 172 55 126 156 146 146 
145 141 138 134 129 124 120 101 104 107 109 112 116 120 125 129 137 150 140 
44 31 53 93 156 186 47 78 148 154 150 143 138 136 131 126 120 116 98 100 102 
104 107 112 117 123 134 130 92 47 33 45 49 94 150 158 70 73 78 80 121 141 140 
134 129 123 117 111 97 101 103 104 107 112 119 121 84 36 16 34 39 49 55 92 126 
103 50 74 70 40 52 71 120 134 126 120 113 107 38 43 42 42 40 39 66 58 31 31 34 
52 40 51 90 114 108 85 45 67 73 57 57 56 88 126 124 118 110 103 3 3 4 4 1 6 23 
30 34 29 28 58 47 44 91 118 96 57 49 64 72 55 39 54 77 88 123 114 108 100 9 9 
10 10 5 11 27 35 27 26 21 38 54 53 60 85 68 35 40 36 48 44 35 56 66 55 100 112 
103 93 6 8 8 8 7 14 24 35 30 20 28 14 25 31 41 47 46 37 28 29 47 32 32 54 60 
49 63 101 98 82 6 7 9 10 11 16 22 32 30 18 31 22 32 22 20 31 46 43 34 42 46 26 
32 64 57 42 64 80 91 74 7 8 10 10 8 18 22 22 25 25 28 23 44 32 30 32 40 44 32 
48 41 26 27 59 49 39 71 70 82 71 
