P2
30 23
255
117 123 128 132 136 139 142 147 151 156 161 163 166 167 168 169 170 172 173 
174 175 176 176 175 173 170 168 163 156 138 106 110 114 118 122 126 129 132 
136 140 142 145 147 149 151 151 153 154 155 156 158 159 158 155 154 151 149 
146 140 107 107 111 114 118 121 125 127 130 134 138 140 142 144 145 146 148 
150 150 151 152 152 152 151 150 148 146 145 140 135 110 110 114 118 121 124 
127 130 134 137 141 143 146 148 149 151 152 153 154 155 156 156 155 154 153 
151 149 147 142 139 119 111 116 120 124 126 129 133 137 140 143 146 149 151 
153 154 155 156 156 157 158 157 156 155 155 153 149 146 144 142 127 111 116 
121 125 129 132 135 138 142 145 148 151 154 155 157 158 159 159 159 159 157 
157 157 156 153 150 148 146 143 134 111 116 121 125 130 133 137 140 144 147 
150 153 155 157 160 161 161 162 161 160 159 159 157 155 153 151 148 146 143 
138 111 116 121 125 129 134 139 142 146 149 152 156 159 159 162 164 164 164 
163 161 160 158 156 155 154 151 148 146 143 138 110 114 118 122 127 133 138 
143 148 149 155 153 155 165 166 166 168 168 165 162 160 158 157 156 153 150 
146 144 141 137 109 113 116 121 125 131 136 141 145 158 141 71 83 104 162 171 
169 168 165 163 160 158 157 154 151 147 144 141 139 136 107 111 115 119 124 
130 135 139 148 129 76 33 51 56 107 166 171 167 166 163 161 157 155 152 149 
146 142 139 137 134 105 109 113 118 122 128 132 141 115 47 35 36 51 58 61 99 
167 169 166 163 160 156 153 150 147 144 140 137 134 130 105 108 111 116 120 
124 129 133 53 28 32 39 55 65 69 83 138 168 165 163 158 154 151 149 145 141 
138 135 131 127 104 108 111 114 118 121 129 115 32 28 31 35 51 81 64 108 142 
159 166 160 156 152 150 147 143 140 136 132 127 122 103 107 109 111 114 118 
125 108 27 24 29 25 42 87 74 114 149 95 144 163 154 149 148 146 142 138 134 
129 123 118 100 102 103 106 110 114 119 114 28 17 33 22 33 112 124 160 164 52 
85 145 152 155 151 144 140 137 132 126 119 114 99 103 104 106 109 115 119 121 
53 11 31 28 94 151 165 193 166 71 68 67 63 89 121 145 138 135 131 124 116 110 
39 43 43 43 41 41 66 121 88 14 14 49 116 138 139 172 146 46 64 68 52 46 63 116 
137 132 128 121 113 106 3 3 4 4 2 3 43 91 32 18 17 50 87 111 104 146 96 39 61 
71 54 39 66 69 109 132 123 119 111 102 9 9 10 10 6 9 48 38 17 18 17 26 33 100 
123 95 54 41 45 49 44 35 64 54 68 122 119 114 107 96 6 8 8 9 7 13 32 20 28 20 
20 19 18 45 80 57 42 35 27 39 33 35 64 51 50 101 115 108 100 86 6 7 10 10 12 
15 24 19 30 23 21 33 27 33 25 38 46 41 35 46 26 33 66 43 47 77 106 101 93 78 
15 8 10 11 11 12 22 19 26 26 25 42 27 43 26 31 42 41 38 45 27 27 57 40 54 61 
89 97 87 74 
