P2
30 23
255
114 120 125 129 133 137 140 144 148 154 158 161 163 164 165 165 167 169 170 
171 173 174 175 173 170 168 165 160 154 135 104 107 111 115 118 122 126 130 
133 137 140 142 144 145 150 152 152 151 152 153 155 156 155 153 152 149 146 
144 138 104 105 108 111 115 118 121 123 127 131 135 138 139 141 149 135 129 
137 152 149 149 150 150 149 148 146 144 142 138 132 107 107 111 115 118 120 
123 127 131 135 138 140 142 147 84 33 52 85 99 149 154 153 152 151 151 148 147 
144 140 137 116 108 112 116 120 122 125 129 133 137 141 141 153 86 38 105 154 
198 144 120 160 153 154 153 153 150 147 144 142 140 124 109 113 117 121 124 
127 130 135 139 142 146 143 52 91 143 184 208 223 153 149 156 155 155 153 150 
147 145 143 140 131 109 113 117 121 125 128 132 137 140 143 151 128 36 62 112 
163 159 165 130 135 160 155 154 152 151 148 146 144 140 135 108 113 117 121 
124 129 135 139 142 144 152 131 30 15 32 66 51 107 98 118 163 154 154 153 151 
148 145 143 140 136 107 111 115 118 124 129 134 139 143 145 154 129 34 23 7 109 
98 37 110 159 158 155 155 153 151 147 144 141 139 135 107 110 113 117 122 127 
132 137 142 146 154 130 49 74 92 106 183 172 200 173 162 154 154 151 148 145 
141 139 138 134 105 109 112 115 120 125 129 136 140 144 148 143 69 72 99 118 
190 206 204 163 159 155 152 150 147 143 140 138 135 131 103 107 111 114 119 
123 127 132 137 141 145 152 103 64 73 116 151 191 186 155 157 154 150 148 145 
141 138 135 132 127 102 106 109 113 116 120 124 129 135 139 145 147 129 53 61 
102 159 186 121 155 156 151 149 146 142 139 136 132 128 124 102 106 109 112 
116 119 123 127 132 138 141 149 108 29 53 94 137 179 65 123 157 147 146 145 
141 138 134 129 124 120 101 104 107 110 113 117 120 126 130 138 150 144 49 30 
56 95 135 186 55 73 149 155 150 143 139 136 131 126 120 116 98 100 102 104 108 
112 117 123 135 133 96 50 32 47 53 98 144 154 82 69 83 85 125 143 141 134 130 
124 117 111 97 102 103 104 108 113 119 123 88 38 16 33 39 50 57 97 129 105 50 
72 70 38 51 73 121 134 127 121 113 107 39 43 43 43 41 40 67 61 31 31 33 52 40 
51 86 116 112 90 44 66 73 57 58 55 86 127 125 118 111 103 3 3 3 4 1 6 23 29 34 
30 28 57 46 44 91 121 98 61 47 65 73 56 40 53 78 91 123 114 108 100 8 9 10 10 
5 11 26 34 28 26 21 39 55 53 60 89 73 36 42 39 50 46 35 54 68 56 102 112 103 
93 6 8 7 8 7 13 24 34 31 19 28 15 27 34 44 50 46 36 28 27 45 34 32 53 61 49 63 
102 98 82 6 7 9 10 11 16 22 32 32 17 31 22 31 22 19 30 46 43 34 40 47 27 32 62 
58 42 62 80 91 75 7 7 9 10 8 17 22 22 26 25 29 22 44 32 29 32 40 45 32 47 42 
26 27 59 51 38 71 71 82 71 
