P2
30 23
255
115 121 125 129 134 137 141 144 149 154 158 161 163 164 166 166 168 170 170 
171 174 175 175 173 170 168 165 160 154 136 104 108 112 115 119 123 126 130 
133 137 140 143 145 147 148 149 151 152 153 154 156 156 155 153 152 149 146 
143 138 105 105 109 112 115 119 122 124 128 132 136 138 139 141 143 144 146 
147 148 149 150 150 150 149 148 146 144 143 138 132 108 108 112 115 118 121 
124 127 131 135 139 141 143 145 147 147 149 151 152 153 154 153 153 152 151 
149 147 145 140 138 117 108 113 118 121 123 126 130 134 138 141 143 146 148 
151 154 156 154 155 155 155 154 154 153 153 150 147 144 142 140 125 109 114 
119 122 125 128 131 135 139 143 146 148 152 149 130 151 160 154 158 156 155 
156 156 153 150 148 146 143 141 132 110 114 119 122 126 129 133 137 140 144 
148 152 151 117 105 153 200 174 157 158 157 157 154 153 151 148 146 144 141 
136 109 114 118 122 126 130 134 138 142 146 148 159 117 87 117 161 203 210 160 
159 157 156 154 153 151 148 145 144 141 136 108 112 116 120 125 130 135 139 
143 147 149 160 77 68 117 165 210 214 174 158 158 156 155 153 151 148 144 142 
140 136 107 111 115 118 123 128 133 138 142 146 152 147 62 63 88 163 229 200 
162 162 158 155 154 152 149 145 142 139 138 134 105 110 114 117 122 127 131 
136 140 144 149 152 76 52 84 148 229 195 147 164 158 155 153 150 147 143 140 
138 135 132 103 107 112 116 120 125 129 133 137 140 144 158 96 39 77 132 221 
211 157 164 157 154 151 148 144 141 138 135 131 128 102 106 110 114 118 123 
126 129 134 138 143 149 136 62 69 113 210 223 119 134 160 149 148 146 143 139 
136 132 128 124 102 106 109 113 118 121 124 127 131 135 143 157 106 53 77 110 
194 215 96 76 144 155 151 146 141 138 134 129 124 120 101 105 108 111 114 118 
121 124 133 140 134 111 65 55 85 125 181 177 84 74 91 98 122 136 141 136 131 
126 121 116 98 101 103 105 109 113 116 126 116 82 48 33 75 68 81 141 159 120 
61 74 82 68 66 80 120 136 129 124 118 112 97 102 104 105 108 112 120 100 47 38 
40 24 34 62 69 103 135 80 47 44 52 65 53 71 79 106 131 119 114 107 38 43 43 42 
40 39 65 46 41 34 40 33 21 22 28 44 70 56 44 38 58 55 40 61 69 63 120 119 110 
104 3 3 3 4 1 5 26 32 51 27 32 36 34 38 30 36 48 58 54 46 68 41 33 67 74 47 80 
116 107 99 9 9 10 10 5 10 25 27 42 27 32 32 39 40 34 50 45 57 46 54 65 39 28 
58 72 42 66 100 105 92 6 8 8 8 7 11 24 21 29 27 34 26 42 36 34 53 46 50 40 62 
53 47 31 52 60 45 70 80 97 82 6 7 10 10 12 14 29 22 23 24 29 26 41 31 39 53 44 
42 47 59 43 57 35 53 57 55 67 63 80 76 10 8 10 11 10 14 30 28 26 26 24 29 37 
30 44 50 40 40 51 44 42 65 37 59 50 41 54 56 62 71 
