P2
30 23
255
124 130 134 138 142 146 150 155 160 165 169 173 175 174 175 176 179 181 181 
183 185 187 187 184 182 180 177 172 166 147 111 116 120 124 128 132 136 140 
143 147 151 154 154 162 168 168 166 163 165 166 167 168 167 165 164 161 158 
155 148 113 113 117 120 124 128 131 134 137 140 144 148 149 159 131 108 114 
140 163 160 161 162 161 160 160 158 155 154 148 141 116 116 120 124 127 131 
133 137 140 144 148 150 158 95 29 49 104 98 124 169 164 165 164 163 163 161 
158 155 151 147 125 116 121 126 130 132 135 139 142 147 150 160 121 38 112 168 
214 213 138 155 170 166 166 165 165 161 158 156 153 150 133 117 122 127 131 
134 137 140 144 149 152 164 86 71 133 181 202 228 199 138 173 167 167 167 165 
162 160 157 155 152 140 117 123 127 131 135 138 142 147 151 154 164 72 75 127 
173 183 198 208 139 172 169 168 166 165 163 160 158 155 152 145 116 122 126 
131 135 139 144 149 153 155 165 85 57 118 134 173 145 216 157 172 169 168 166 
165 163 160 157 155 152 145 119 121 125 128 134 139 143 149 154 156 167 90 70 
107 105 196 199 230 199 174 170 168 167 164 162 159 155 153 150 145 93 121 123 
126 131 137 141 147 153 157 163 98 74 120 92 176 218 229 206 175 173 167 166 
164 160 156 152 150 148 144 55 119 122 125 130 135 139 144 149 155 157 132 61 
107 101 165 197 225 196 169 171 167 165 161 158 155 150 147 145 141 59 112 121 
124 128 132 136 141 146 151 155 155 84 85 94 161 200 203 169 171 170 166 163 
160 156 153 148 144 141 138 89 116 117 122 126 130 134 139 144 149 155 158 120 
51 106 173 209 158 108 176 166 163 161 158 154 150 146 141 138 136 109 113 117 
120 125 128 132 137 141 148 151 159 87 30 68 107 193 156 46 144 170 159 158 
156 152 148 144 139 135 131 107 111 115 118 121 126 130 136 139 148 164 135 
35 38 68 119 190 181 41 89 154 164 165 158 150 146 141 136 131 126 104 107 109 
112 116 122 127 135 146 135 88 43 38 48 59 120 171 160 72 84 76 69 111 137 150 
144 139 134 127 122 105 108 110 111 115 122 130 130 85 33 18 39 43 52 69 107 
139 112 55 82 80 51 54 64 122 145 136 131 123 117 42 47 47 46 44 44 72 60 33 
33 39 55 42 57 109 116 122 92 51 75 80 61 58 65 88 125 138 128 120 112 3 3 4 4 
1 6 23 34 37 30 35 62 48 51 103 118 103 58 54 70 79 61 43 62 70 75 128 126 116 
107 9 10 11 11 6 11 27 38 27 29 22 47 59 58 66 92 70 39 44 38 54 51 40 62 69 
51 86 123 111 100 6 9 8 9 8 13 25 39 27 25 28 16 30 35 45 51 51 39 36 34 57 42 
36 57 63 54 68 102 106 89 6 7 10 10 13 14 21 36 28 23 34 24 35 24 23 35 51 48 
41 47 58 33 34 63 67 45 65 80 98 81 8 8 10 11 9 13 18 24 31 29 30 27 49 34 35 
35 43 49 37 57 52 34 29 59 64 44 60 67 85 77 
