P2
30 23
255
124 129 134 138 142 146 150 155 160 165 169 172 175 174 175 176 178 181 181 
183 185 187 187 184 182 180 177 173 166 146 111 116 120 124 128 132 136 139 
142 147 150 153 155 164 167 167 165 163 164 165 167 168 167 165 165 161 158 
155 148 114 113 116 120 124 128 131 134 137 140 144 147 150 158 123 108 114 
144 163 159 161 162 161 160 160 158 155 154 148 142 116 115 120 124 127 130 
133 137 140 144 148 151 155 78 24 56 106 91 135 169 164 165 164 163 163 161 
158 155 150 147 125 116 121 126 130 132 136 139 142 147 150 162 102 42 119 175 
216 200 129 161 169 166 165 165 165 162 158 156 153 150 133 118 122 126 131 
134 137 140 144 148 152 160 74 80 144 183 202 227 180 138 174 166 167 167 165 
162 160 157 154 151 140 117 123 127 130 135 138 142 146 150 155 158 63 85 132 
181 177 195 192 134 175 168 169 166 164 163 160 157 155 152 145 116 122 126 
130 135 139 144 149 153 155 162 76 65 96 153 157 136 210 152 175 168 168 166 
165 163 160 157 155 152 146 116 120 125 128 133 139 143 149 154 156 165 84 82 
104 124 204 202 228 196 175 170 168 167 165 162 159 155 153 150 145 110 120 
122 127 131 136 140 147 153 157 161 92 91 114 103 193 209 228 202 175 172 167 
166 164 160 156 152 150 147 143 97 120 121 125 130 134 139 144 149 155 157 124 
73 97 97 174 184 219 191 168 171 167 165 162 158 155 151 147 144 141 95 118 
119 124 128 132 137 141 146 151 156 149 87 82 94 177 201 193 164 172 169 166 
163 160 156 152 148 144 141 138 110 114 117 122 126 130 134 139 144 149 154 
157 117 57 113 182 212 143 107 177 165 163 161 158 154 150 146 141 138 135 109 
114 117 120 125 128 132 137 142 147 151 158 82 29 74 108 198 140 44 146 170 
160 157 156 152 148 144 139 135 131 107 112 115 118 121 126 130 136 139 149 
165 131 32 38 70 105 187 174 39 93 152 162 166 158 149 146 141 136 131 126 104 
107 109 112 116 122 127 134 145 134 86 42 39 48 62 109 171 154 69 87 72 67 107 
135 150 144 139 134 127 121 104 109 110 111 115 122 130 129 83 31 18 39 43 52 
74 97 137 112 54 83 80 53 55 64 122 145 136 131 123 117 42 47 47 46 44 44 72 
59 33 32 40 54 42 59 114 110 120 89 52 76 80 60 57 66 88 124 138 127 120 112 
3 4 4 5 1 6 24 34 37 29 36 62 49 51 104 117 100 54 56 69 78 59 42 63 69 74 128 
126 116 107 9 11 11 11 6 11 27 38 27 29 22 46 58 58 66 91 67 38 43 36 53 50 40 
63 68 52 86 122 111 100 6 9 8 9 8 13 26 39 26 25 28 15 29 33 43 49 51 39 36 36 
58 41 36 58 62 54 68 102 106 89 6 8 10 11 13 14 21 36 27 24 33 24 36 24 24 36 
50 49 40 49 57 33 35 65 66 45 65 80 98 81 8 8 10 11 9 13 18 25 31 30 29 28 48 
34 36 36 44 48 37 58 51 34 29 60 62 44 61 67 85 78 
