P2
30 23
255
114 119 124 129 133 136 140 144 148 154 157 161 163 164 164 165 167 169 170 
171 173 174 175 173 170 168 165 160 154 136 103 107 111 114 118 122 126 130 
132 137 141 143 144 145 149 152 152 151 152 153 155 156 155 153 152 149 146 
144 138 105 105 108 111 114 117 121 124 127 131 135 138 139 140 149 138 131 
138 152 150 149 150 150 149 148 146 144 142 138 132 107 107 111 115 118 120 
123 127 131 134 138 141 141 149 97 36 47 82 97 146 155 153 152 152 151 149 147 
144 139 137 116 108 112 116 120 122 125 128 133 137 140 141 152 100 33 97 146 
195 153 116 159 153 153 153 153 150 147 144 142 140 124 109 113 117 121 124 
127 130 135 139 142 145 148 58 84 137 180 205 224 164 146 157 155 155 153 150 
148 145 143 141 131 109 113 117 121 125 128 132 137 140 143 149 137 40 57 101 
158 162 163 136 130 160 155 154 152 151 148 146 144 141 135 108 113 116 120 
124 129 134 138 141 144 151 139 37 14 30 63 58 99 102 105 164 154 154 152 151 
148 145 144 140 136 107 111 114 119 123 129 134 139 143 145 153 136 40 26 10 
89 117 32 98 155 159 155 155 153 150 147 144 141 139 135 107 110 113 117 122 
127 132 137 142 146 153 138 51 85 107 92 180 157 197 177 162 155 154 151 148 
145 141 139 138 134 105 109 113 115 120 125 130 135 139 144 149 147 76 90 89 
96 171 177 200 168 158 155 152 149 146 143 140 138 135 131 103 107 111 114 118 
123 127 132 137 141 146 152 113 81 81 106 180 195 186 157 157 154 151 148 144 
141 138 135 132 128 102 106 109 112 116 121 124 129 134 139 145 147 135 53 60 
123 182 185 120 154 156 151 149 146 142 139 136 132 128 124 101 105 109 112 
116 119 122 126 132 138 141 149 115 33 45 79 124 180 69 119 157 146 147 145 
141 138 134 129 124 120 100 104 107 109 112 116 120 125 130 137 149 147 56 29 
51 94 144 195 61 68 149 156 150 142 139 137 131 126 121 116 98 100 101 104 107 
112 117 123 134 133 99 52 32 44 49 87 149 169 84 66 86 87 127 144 141 134 130 
124 117 111 98 102 103 104 107 113 119 123 90 40 16 32 39 49 55 90 128 117 54 
71 73 37 50 73 120 134 126 121 113 107 39 44 43 43 41 40 67 62 32 32 31 52 40 
50 83 114 110 98 45 65 74 58 58 54 84 127 125 118 110 104 3 3 3 4 1 6 24 29 34 
31 26 57 47 44 88 123 102 67 46 65 74 57 41 52 78 92 122 115 107 100 9 9 10 10 
5 11 26 35 29 26 21 38 56 53 59 89 78 37 43 42 51 48 35 53 69 56 102 112 103 
93 6 8 8 8 7 13 24 33 33 19 28 15 27 36 44 52 47 37 29 26 45 35 32 52 62 50 63 
101 98 82 6 7 9 10 11 15 23 31 33 17 31 22 30 22 19 30 46 43 34 39 48 27 31 60 
59 42 61 80 92 75 7 8 10 10 7 16 22 22 26 24 30 22 43 34 28 33 39 45 33 45 43 
27 27 59 53 37 70 70 82 71 
