P2
30 23
255
115 121 126 129 134 137 140 144 149 154 158 161 163 164 166 166 168 170 170 
172 173 174 175 173 170 168 165 160 154 136 104 108 112 115 119 123 126 130 
133 137 141 143 145 147 148 149 150 152 153 154 156 156 155 153 152 149 146 
144 138 106 105 109 112 115 119 122 124 128 131 136 138 139 141 142 144 146 
147 148 149 150 151 150 149 148 146 144 143 138 133 108 108 111 115 118 121 
124 127 131 135 139 141 143 145 146 148 150 151 152 153 154 153 153 152 151 
149 147 145 140 138 117 108 113 117 121 123 126 130 134 138 141 143 146 150 
153 153 151 154 154 155 155 154 154 154 153 150 147 144 142 140 125 109 114 
118 122 125 128 131 135 139 142 145 149 123 126 161 162 158 157 157 157 155 
155 155 154 150 148 146 143 141 132 109 114 118 123 125 129 133 137 140 143 
152 122 91 96 144 200 186 157 159 158 157 157 154 153 151 149 146 144 141 136 
109 114 118 122 125 130 135 139 142 145 155 82 88 102 138 202 218 175 159 159 
157 156 155 153 151 148 146 144 141 136 109 113 116 120 124 129 134 139 143 
146 155 65 65 99 141 187 212 194 161 161 158 156 155 153 151 147 144 142 139 
135 108 112 115 118 123 128 133 138 142 145 154 64 42 100 123 190 215 171 163 
162 158 155 154 152 148 145 142 139 138 134 105 110 114 117 121 126 131 136 
139 143 152 97 41 70 103 187 233 174 157 162 158 155 153 150 147 144 140 138 
135 132 103 108 112 116 119 124 127 132 137 139 146 139 56 55 89 159 228 195 
153 166 156 153 151 148 145 142 138 135 132 128 102 106 110 114 117 122 125 
128 133 137 141 150 107 54 74 124 210 212 82 124 161 152 148 145 142 139 136 
132 128 125 102 106 110 113 117 120 123 126 130 137 148 154 83 52 87 99 190 
211 89 69 129 141 147 148 142 137 134 129 124 120 102 104 108 110 113 117 120 
124 134 132 108 74 51 51 85 123 170 182 86 68 86 76 88 105 136 138 130 126 120 
116 98 101 102 105 108 112 116 125 98 64 46 27 66 69 64 129 171 141 69 65 82 
75 57 63 90 123 131 123 117 112 97 102 103 104 107 111 121 85 42 46 50 33 31 
67 72 84 134 114 53 49 45 61 45 58 68 76 128 120 113 107 38 43 43 42 40 39 66 
38 44 44 36 43 21 25 37 44 63 74 48 45 46 61 33 51 76 51 98 120 109 104 3 3 3 
4 1 5 32 25 44 50 25 42 34 36 31 27 37 55 61 49 56 57 27 47 80 45 70 113 107 
99 8 9 10 10 5 10 31 24 32 49 23 41 33 44 43 35 50 47 62 43 62 52 32 38 69 42 
66 90 104 91 6 8 7 8 7 12 27 24 22 37 29 39 28 46 44 32 54 49 51 43 62 44 43 
40 68 50 67 60 89 83 6 7 9 10 12 16 25 32 20 31 26 37 25 47 40 34 56 48 42 51 
52 43 53 45 70 40 52 51 63 77 10 8 10 11 10 16 21 39 24 27 25 32 25 46 35 39 
56 44 40 52 37 46 59 50 69 45 49 52 48 67 
