P2
30 23
255
124 130 134 139 143 146 150 155 160 165 169 173 175 175 175 176 179 181 182 
183 185 187 186 184 182 180 177 172 166 146 111 116 120 124 128 133 136 140 
142 147 151 154 154 161 167 168 166 163 164 165 167 168 167 165 164 161 158 
154 149 113 113 117 120 124 127 131 134 138 140 145 148 149 159 139 110 116 
138 163 160 161 162 162 160 159 157 155 154 148 141 116 116 120 124 128 130 
133 137 140 144 148 150 159 111 37 52 107 108 120 168 164 165 164 163 162 161 
158 156 150 147 125 116 122 126 130 132 136 139 142 147 150 158 136 40 104 165 
210 220 147 152 171 166 166 165 165 162 158 156 153 150 133 117 122 127 131 
134 137 140 144 149 151 165 100 63 120 167 194 225 206 142 171 167 168 167 165 
162 159 157 154 152 140 117 123 127 131 135 138 142 147 151 153 166 83 60 122 
155 176 186 214 146 169 170 168 166 164 163 160 158 155 151 145 116 122 127 
131 135 139 144 149 153 154 167 96 51 113 113 170 142 206 169 169 170 168 166 
164 163 160 157 155 151 146 118 121 125 128 133 139 143 149 154 156 168 95 65 
122 99 177 211 228 205 174 171 168 167 165 162 159 155 153 150 145 99 121 123 
127 132 137 141 147 152 157 164 102 58 119 99 151 212 226 209 176 173 167 166 
164 160 157 152 150 147 144 66 121 121 125 130 135 139 144 150 155 157 135 59 
91 100 164 203 222 199 169 171 167 164 162 158 155 151 147 145 141 65 116 120 
124 128 132 136 141 146 151 155 157 94 69 111 141 172 210 173 170 169 165 163 
159 156 153 148 144 141 138 92 116 117 122 126 130 134 139 144 149 155 158 122 
46 80 126 189 173 110 174 166 163 161 158 154 150 146 141 138 135 110 113 117 
120 125 128 133 137 141 147 151 159 92 30 74 104 172 174 48 139 170 159 157 
156 152 148 143 139 135 131 107 112 115 118 121 126 131 136 139 149 164 140 
37 40 67 124 170 190 47 83 154 164 165 158 149 146 141 136 131 126 104 107 109 
112 116 122 127 134 146 137 90 44 37 53 60 122 159 162 80 80 80 70 112 139 150 
144 139 135 127 121 104 109 110 111 115 122 130 131 87 34 17 38 43 54 68 114 
139 113 54 80 82 50 54 63 120 145 136 131 123 116 42 47 47 46 44 44 73 62 33 
33 37 55 42 57 104 122 124 97 50 73 82 62 59 63 88 125 138 128 120 112 3 3 4 5 
2 6 24 34 37 31 33 62 49 49 103 122 105 62 52 70 80 63 43 60 71 75 128 126 117 
107 10 10 11 11 6 11 26 38 28 29 22 46 60 58 66 94 76 39 45 40 54 53 40 61 70 
51 85 122 111 100 7 9 8 9 8 12 25 39 29 24 29 16 30 37 46 53 51 40 36 32 55 44 
35 55 65 53 67 100 106 89 6 7 10 11 13 13 21 36 30 22 34 23 34 24 23 34 50 48 
41 45 59 35 33 61 68 45 65 79 98 81 8 8 10 11 9 13 19 23 32 28 32 25 49 36 34 
36 43 50 37 55 54 35 29 57 66 43 60 67 84 78 
