P2
30 23
255
124 130 134 138 142 146 150 154 159 165 169 172 173 174 175 177 179 181 182 
183 185 187 186 184 182 180 177 172 165 146 111 116 120 124 128 132 136 139 
142 147 149 153 162 166 167 162 161 163 164 165 167 168 167 165 164 161 158 
154 148 113 113 117 120 124 127 131 134 137 140 143 150 152 116 107 115 147 
160 158 160 161 162 161 160 160 158 155 154 148 141 115 115 120 124 127 130 
133 137 140 143 149 146 60 23 66 107 91 146 167 163 165 165 164 163 163 160 
159 155 150 146 124 116 121 125 130 132 136 139 142 145 159 79 49 127 184 220 
189 128 165 167 166 166 165 165 165 162 158 155 152 149 132 117 122 126 131 
134 137 140 144 150 150 61 92 153 190 212 230 163 145 174 167 167 167 167 164 
162 159 157 154 151 140 117 122 126 131 135 138 142 146 153 146 56 95 141 186 
180 212 178 139 177 169 169 168 165 164 163 160 157 155 151 145 115 121 126 
130 135 139 144 148 153 153 63 72 99 162 152 152 208 155 177 170 169 167 166 
164 163 160 157 155 151 145 116 120 123 128 134 139 143 149 153 158 75 78 97 
130 209 210 232 193 176 173 169 167 167 165 162 159 155 153 149 144 107 120 
122 126 131 136 141 146 152 156 85 88 107 108 199 219 229 198 176 174 169 167 
166 163 160 156 152 150 147 143 91 120 121 124 129 134 139 143 149 151 120 62 
108 110 179 208 231 191 170 174 170 167 164 161 158 154 150 147 145 141 89 118 
118 123 127 131 136 141 146 149 147 76 83 99 172 208 197 146 177 172 169 166 
163 159 156 152 148 144 141 137 109 114 116 121 125 129 134 139 144 148 153 
117 56 114 182 209 169 81 169 172 164 163 161 158 153 150 145 141 138 135 108 
113 116 120 124 128 132 137 142 147 152 114 30 76 114 187 190 38 105 177 170 
162 158 155 152 148 143 139 134 131 107 111 114 117 120 126 130 135 139 151 
157 61 28 65 125 180 201 76 64 123 132 153 162 159 149 146 140 136 131 126 104 
107 108 111 115 121 127 135 147 127 70 35 43 52 114 159 157 84 74 81 40 61 82 
124 151 143 139 134 127 121 104 108 110 111 115 122 130 124 72 22 26 40 47 60 
102 126 119 56 69 85 64 60 55 80 129 144 136 131 123 117 42 47 47 47 45 44 71 
53 26 30 51 41 48 87 124 109 103 49 66 80 64 49 53 77 76 130 136 128 120 112 
3 3 4 5 2 4 27 34 34 29 57 48 45 77 115 100 62 47 59 66 65 42 50 72 52 77 129 
125 116 107 9 10 11 11 5 12 34 31 27 22 40 57 55 59 78 74 40 38 31 41 52 38 47 
70 51 60 95 124 110 100 6 9 8 9 8 18 33 32 22 29 17 25 33 38 46 48 44 37 33 53 
47 31 46 68 45 61 72 110 104 89 6 8 10 11 13 17 30 35 18 32 24 28 26 22 28 45 
47 43 39 59 39 28 48 76 46 52 65 86 98 81 8 8 10 11 9 16 20 31 26 33 23 40 39 
32 36 36 48 36 48 56 38 29 39 69 41 55 61 70 87 77 
