P2
30 23
255
117 123 128 132 136 140 143 147 151 157 161 164 166 167 168 169 170 172 173 
174 175 176 177 175 173 170 167 163 157 139 106 110 115 118 122 126 129 133 
135 140 143 145 147 149 151 152 153 155 155 156 158 158 158 156 154 151 149 
146 141 107 107 111 114 118 122 125 127 131 134 138 140 142 144 145 147 148 
150 150 151 152 153 152 151 150 149 146 145 140 135 110 110 115 118 121 124 
127 131 135 138 141 144 146 148 149 150 152 154 154 155 156 156 155 154 153 
151 149 147 143 139 119 111 116 120 124 126 129 133 137 140 144 146 149 151 
152 154 155 156 156 157 158 157 156 156 156 153 150 147 144 142 127 111 117 
121 126 129 132 135 138 142 146 148 151 153 155 157 158 159 159 159 158 157 
158 158 156 153 150 148 146 143 134 112 117 121 126 129 133 137 140 144 147 
150 153 156 158 158 160 160 161 161 159 159 159 157 155 154 151 149 146 143 
138 111 116 121 125 129 134 138 142 146 149 153 156 158 161 167 165 167 165 
161 161 160 158 157 155 154 151 148 146 143 138 111 115 119 123 127 133 138 
142 147 151 155 158 161 162 104 84 120 153 171 161 160 158 157 155 153 150 147 
144 141 137 110 114 117 120 126 131 136 141 147 151 156 158 168 120 31 40 69 
84 140 166 159 157 156 154 151 148 144 141 139 136 108 112 115 119 124 130 135 
140 145 150 154 160 158 86 55 57 60 58 38 99 165 156 155 152 149 146 142 139 
137 134 106 110 114 118 123 128 133 138 142 147 151 161 141 52 48 49 48 59 43 
39 126 159 151 150 147 144 140 137 134 130 105 109 112 117 121 126 131 136 140 
144 149 161 110 33 40 46 39 48 51 47 82 154 150 148 145 142 138 134 131 127 
104 109 112 116 120 124 128 132 137 142 147 156 86 20 29 33 39 62 58 54 79 145 
150 147 143 140 136 132 127 123 103 107 111 113 117 122 125 130 136 140 142 
150 97 15 24 31 45 56 46 46 76 145 150 145 141 138 134 129 123 118 100 103 105 
108 111 117 122 128 132 136 144 155 101 17 21 29 34 41 42 38 91 144 144 144 
140 137 132 127 120 114 99 104 106 108 112 118 123 124 130 140 126 86 40 20 16 
26 34 33 41 42 95 134 149 144 138 136 131 124 116 110 39 44 44 45 43 42 68 120 
117 67 28 13 14 17 19 16 27 26 39 99 92 47 95 131 138 131 128 122 114 106 3 3 
4 4 1 3 42 100 42 24 28 24 20 13 23 25 24 28 93 139 79 48 51 70 121 130 123 
119 111 102 9 10 10 10 6 9 52 50 24 27 26 21 25 16 18 33 43 64 99 85 68 52 44 
55 86 113 121 114 107 95 6 8 8 9 7 13 34 25 30 24 23 22 26 27 22 33 38 81 62 
43 63 49 35 60 67 79 116 107 100 86 6 7 10 10 12 16 21 22 29 27 18 27 19 27 31 
44 38 48 34 27 41 35 35 58 58 58 100 102 92 78 17 8 10 11 11 11 17 22 24 26 21 
33 22 30 21 26 37 37 27 31 44 27 36 59 51 47 83 97 87 73 
