P2
30 23
255
117 122 127 131 136 139 142 146 150 156 160 163 165 166 167 168 170 172 172 
173 175 176 176 174 173 170 167 162 156 138 106 110 114 117 121 125 129 132 
135 139 142 144 146 148 150 151 152 154 155 156 158 158 157 155 154 151 148 
145 140 107 107 111 114 117 121 124 127 131 134 137 139 141 143 144 146 147 
149 149 150 152 152 152 151 150 148 145 144 140 134 109 109 114 118 121 124 
126 129 134 137 140 143 145 147 148 150 151 153 154 154 156 155 154 154 153 
151 149 147 142 139 119 110 115 119 123 126 129 132 136 139 143 146 148 150 
152 153 154 155 156 156 157 156 156 155 155 152 149 146 144 142 126 110 116 
120 125 128 131 135 138 141 145 148 151 153 155 156 157 158 158 158 158 157 
157 157 156 153 150 148 145 143 133 111 116 121 125 128 132 137 140 143 147 
150 153 155 156 160 161 160 160 160 159 159 158 157 155 153 150 148 146 143 
137 110 115 120 124 128 133 138 142 145 149 152 155 156 163 155 157 164 164 
162 160 159 158 156 155 153 150 147 146 143 138 110 113 117 121 126 132 137 
142 147 150 154 155 166 120 52 97 115 158 164 161 159 158 157 155 153 149 146 
144 141 137 109 112 116 120 125 130 136 141 146 151 154 159 159 75 53 66 51 120 
168 161 160 157 156 154 151 147 143 141 139 136 107 111 114 118 123 129 135 
139 144 149 154 159 92 53 65 61 36 59 143 165 159 157 154 152 149 146 142 139 
137 133 105 109 113 117 122 128 133 137 141 145 154 101 42 47 47 53 34 57 79 
153 160 155 153 150 146 143 140 137 133 130 104 108 111 116 121 125 129 134 
138 144 137 42 36 36 41 50 44 64 63 130 158 153 151 148 144 141 138 135 130 
126 104 108 111 115 119 123 126 131 135 144 120 24 29 33 50 51 43 66 77 125 
155 151 149 147 143 140 136 131 126 122 103 106 110 112 115 120 124 129 134 
141 112 24 25 34 45 37 39 56 89 122 157 148 148 146 141 138 134 128 123 118 
100 102 104 106 111 116 120 127 130 137 125 31 18 25 34 36 32 60 96 116 139 
152 146 143 140 137 132 126 119 114 99 104 105 106 110 116 121 122 129 139 114 
31 15 24 27 37 25 75 111 91 86 120 148 145 138 135 130 123 116 109 39 44 44 43 
42 41 67 119 116 57 17 18 16 17 21 32 81 139 123 72 63 35 73 119 138 131 128 
121 113 105 3 3 4 4 1 3 42 101 39 19 23 17 20 21 21 70 128 144 97 57 72 55 51 
64 119 130 123 118 110 102 9 9 10 10 6 9 50 48 20 24 21 18 17 25 43 74 100 99 
49 61 72 51 46 58 90 118 120 113 106 95 6 8 8 8 7 13 32 22 27 19 21 19 23 20 
19 79 93 26 42 51 61 48 39 62 70 86 117 107 100 85 7 7 9 10 12 15 20 21 28 19 
19 21 20 27 32 53 45 31 31 28 44 36 36 59 62 61 98 102 92 78 19 8 10 11 11 11 
17 19 24 20 23 26 21 27 19 25 39 40 31 38 44 27 38 62 57 51 84 96 86 73 
