P2
30 23
255
114 120 124 128 133 136 139 143 147 152 157 159 162 163 164 165 167 168 169 
170 172 174 174 171 169 167 164 159 153 134 103 107 111 114 118 122 125 128 
131 136 139 142 144 145 147 148 149 151 152 153 154 155 154 152 151 148 145 
142 137 104 104 108 111 114 118 121 123 127 131 135 137 139 141 142 143 144 
147 148 148 149 150 150 148 147 146 143 142 138 132 107 106 110 114 117 120 
123 126 130 134 138 140 142 145 145 148 152 151 151 152 153 153 152 151 150 
148 146 144 140 137 116 108 112 116 120 122 125 129 132 137 140 143 146 147 
152 143 137 167 158 152 155 154 153 153 152 149 146 144 141 140 124 109 113 
118 121 124 127 130 134 138 142 145 147 152 143 110 105 154 180 163 154 155 
155 154 152 150 147 145 142 140 131 109 114 118 121 125 128 132 136 139 143 
147 149 157 104 106 121 180 208 192 155 157 156 153 152 151 148 145 143 140 
135 108 113 117 120 124 129 134 138 141 144 148 153 147 76 96 121 166 214 214 
158 157 156 154 152 151 148 145 143 140 135 107 111 115 119 123 128 133 138 
142 146 149 157 125 51 86 114 154 179 215 175 157 155 154 152 150 146 143 141 
139 135 106 110 114 117 121 127 131 137 141 146 149 157 123 50 65 114 185 199 
176 167 159 155 153 151 148 144 141 139 137 133 104 109 113 116 120 125 130 
135 139 143 148 154 144 61 58 117 196 226 156 141 164 154 152 149 146 143 139 
137 134 131 103 106 111 115 119 123 127 132 136 139 144 151 155 101 56 111 195 
224 154 147 159 153 150 147 144 140 138 134 130 127 101 105 109 113 117 122 
125 128 133 138 143 148 150 91 51 94 181 215 154 120 158 150 148 145 142 139 
135 131 127 124 101 105 108 112 117 119 123 126 131 135 140 154 136 54 56 84 
169 214 138 49 140 153 146 143 140 138 133 128 123 119 100 104 106 110 113 117 
120 124 130 141 143 128 71 44 62 89 159 192 135 59 101 130 145 147 140 135 131 
125 119 115 97 100 102 105 108 112 116 124 128 98 56 38 54 53 71 102 148 168 
92 61 84 60 75 103 128 136 128 123 116 111 96 101 103 104 107 111 118 110 62 
38 28 47 70 50 74 126 129 123 64 61 81 72 57 59 82 127 126 119 113 106 36 41 
41 40 38 37 66 49 34 37 33 26 61 67 64 113 128 86 49 55 59 68 49 54 74 82 120 
117 109 103 3 3 4 4 1 6 28 30 41 27 33 21 19 40 51 65 85 54 36 30 36 52 39 48 
72 54 90 117 106 99 8 9 10 10 5 10 26 29 45 24 28 29 25 23 19 31 45 52 42 34 
52 45 31 45 67 50 54 92 105 90 6 8 7 8 8 10 23 26 39 24 28 27 36 35 31 34 41 
53 47 39 59 35 27 51 73 43 49 70 95 81 6 7 9 9 11 13 25 19 27 25 29 23 41 36 
32 42 36 51 38 47 55 35 26 44 66 37 52 68 77 75 7 7 9 10 8 14 29 21 20 20 26 
23 41 36 35 40 38 42 35 54 44 39 30 41 57 38 58 60 67 69 
