P2
30 23
255
106 112 116 121 126 130 135 139 143 148 151 154 156 157 159 160 162 166 167 
169 169 169 168 166 164 162 159 155 150 144 106 111 115 120 124 128 132 136 
140 144 149 152 155 155 156 158 160 162 164 165 166 165 164 162 160 159 156 
151 145 138 105 111 114 118 123 127 130 135 138 142 147 151 154 155 156 157 
160 161 162 162 162 163 162 160 158 155 151 146 139 132 94 98 102 104 107 110 
114 118 121 124 129 132 135 137 139 140 141 142 142 142 142 141 140 138 135 
132 127 122 117 109 86 91 94 96 99 101 104 107 110 113 117 120 123 125 127 129 
132 133 134 134 134 134 133 132 130 126 123 119 113 107 90 94 97 100 103 105 
107 110 114 118 123 126 129 130 134 137 138 139 138 138 138 137 136 135 133 
130 126 122 118 112 90 94 98 102 104 107 110 113 117 122 126 130 133 140 134 
128 130 136 140 139 139 138 137 136 134 131 128 124 119 114 91 95 100 103 106 
109 113 117 121 126 130 133 140 97 65 91 107 118 130 139 140 139 138 137 135 
132 128 125 120 116 91 96 100 103 107 111 115 120 125 129 132 142 105 34 57 90 
109 143 128 119 142 140 139 138 136 132 128 125 121 116 92 97 101 104 108 112 
117 122 128 132 134 146 74 36 67 89 123 174 147 105 140 141 139 137 135 132 
128 124 120 116 93 97 101 105 108 113 119 125 130 134 136 147 68 36 62 91 141 
194 206 124 136 143 138 138 135 132 127 123 120 116 93 97 102 105 109 114 120 
125 131 135 142 127 41 41 67 96 152 204 221 173 141 142 138 137 134 130 126 
121 118 114 93 97 102 105 109 114 120 126 131 135 145 119 32 45 76 103 156 203 
204 170 144 142 139 136 132 128 123 120 115 111 94 98 102 106 111 115 121 126 
131 135 142 132 40 34 51 84 139 173 193 162 145 143 139 135 131 127 122 118 
114 110 95 99 102 106 111 117 122 127 131 136 139 148 69 38 53 54 126 87 156 
157 145 142 138 135 131 125 120 116 112 107 95 99 103 106 110 116 122 127 131 
136 137 158 89 35 69 62 164 170 173 147 145 141 138 135 131 125 119 114 109 
104 94 99 102 105 109 115 121 127 136 144 146 125 39 44 50 60 139 139 157 146 
148 141 137 134 130 125 118 113 107 102 93 95 98 100 104 111 124 129 117 91 62 
27 25 36 38 80 132 123 123 105 122 136 139 135 129 123 117 112 106 101 91 96 
100 102 105 106 93 62 37 28 24 18 33 42 40 97 103 89 88 97 90 95 109 122 127 
122 115 110 104 99 29 50 54 54 54 50 35 33 36 32 33 26 23 46 65 36 45 106 55 
102 101 87 96 99 101 119 113 108 103 97 3 2 2 3 1 21 37 39 38 33 33 34 41 51 
78 123 124 97 44 96 96 77 103 109 93 111 112 105 101 95 7 8 9 9 12 31 33 35 36 
51 35 43 54 56 111 202 98 62 37 81 102 77 96 114 96 112 109 102 98 91 6 6 8 7 
16 27 28 32 32 54 35 45 48 41 109 110 60 68 29 56 110 82 92 110 95 109 105 99 
93 86 
