P2
30 23
255
114 121 125 130 135 139 143 147 153 158 162 164 166 167 169 171 173 175 176 
178 178 178 178 176 173 172 169 165 160 154 114 120 125 129 133 136 140 144 
149 155 159 163 165 165 166 168 170 173 174 175 175 175 175 172 171 169 166 
161 154 147 113 119 123 127 132 136 139 143 147 152 158 161 164 166 166 168 
170 171 172 172 173 173 173 171 168 165 161 154 148 140 101 105 108 111 114 
118 122 126 129 133 138 141 144 146 148 149 150 150 151 150 150 149 148 146 
144 141 136 130 125 117 92 97 100 102 105 108 111 114 118 122 126 129 132 134 
136 137 139 140 140 140 141 140 139 138 137 135 131 127 121 114 95 100 103 106 
110 113 115 118 123 127 132 135 138 138 140 141 143 145 145 145 145 144 143 
142 140 138 135 130 126 120 96 101 105 109 112 115 118 122 126 130 135 138 140 
144 148 147 148 150 151 147 147 146 144 143 141 139 136 132 127 122 98 102 106 
110 113 117 122 126 130 135 138 140 147 130 115 120 132 144 151 153 148 146 
145 144 142 140 137 133 129 124 98 102 107 111 115 119 124 129 134 138 139 148 
128 59 73 93 105 130 123 142 151 148 146 144 143 140 137 133 129 124 99 103 
108 111 116 120 126 132 137 140 143 150 67 33 56 100 122 138 140 117 152 149 
147 145 143 139 136 133 129 124 99 104 108 112 117 122 128 134 138 142 147 146 
48 45 74 99 115 167 160 115 151 151 146 145 142 139 135 132 128 123 99 104 109 
112 117 123 128 134 139 142 150 143 46 44 70 95 129 188 205 128 144 153 146 
144 141 138 134 130 125 121 100 104 109 113 117 123 129 135 139 141 155 107 
32 45 60 96 149 199 233 192 153 152 147 143 140 136 132 128 123 119 101 105 
110 114 119 124 130 136 139 142 156 107 27 45 64 92 143 195 213 196 160 151 
148 143 139 135 131 127 122 117 102 106 110 114 120 126 131 136 140 143 154 
128 33 44 74 93 148 203 209 183 155 151 147 143 139 134 129 124 119 114 102 
106 110 114 119 125 132 136 139 143 151 161 58 31 50 82 132 162 189 171 153 
151 146 143 139 134 128 122 116 110 102 106 110 114 118 124 130 138 147 152 
151 112 36 41 50 45 132 107 156 159 156 152 145 142 139 134 127 121 115 109 
100 102 105 108 112 121 136 133 110 80 50 22 24 41 61 51 158 176 157 108 122 
138 145 144 138 132 127 120 113 107 98 104 107 109 112 110 87 52 32 28 26 21 
27 42 39 55 137 119 136 105 102 100 112 125 132 131 124 118 112 105 31 55 59 
58 59 48 33 36 36 31 30 22 25 34 35 76 105 89 74 108 116 99 108 112 107 125 
123 116 111 103 4 2 2 3 2 28 38 39 36 30 31 29 29 43 55 76 97 99 43 101 114 
83 113 123 108 115 122 113 108 102 8 10 10 9 16 35 34 36 37 45 32 41 49 60 94 
197 133 62 38 86 117 87 102 127 109 118 119 110 104 99 7 7 9 8 20 30 31 33 36 
53 34 50 53 50 124 165 71 63 33 59 122 94 94 125 105 119 115 106 101 93 
