P2
30 23
255
86 90 93 95 98 101 102 104 107 110 113 116 114 115 115 116 117 119 119 120 121 
121 121 120 119 117 114 111 109 105 89 93 95 98 101 102 104 106 109 112 116 
118 121 118 118 119 120 121 122 123 123 123 122 121 121 119 116 113 110 108 
91 94 97 100 102 103 106 109 111 114 117 119 123 122 121 122 123 123 124 124 
124 124 122 122 122 120 117 114 112 112 93 96 99 101 103 105 107 110 113 116 
119 120 122 124 124 126 125 126 126 125 125 124 123 123 122 121 118 116 115 
113 94 97 100 102 103 105 108 111 114 117 120 122 125 126 126 129 128 127 127 
126 126 124 124 123 122 121 119 117 114 112 94 98 101 102 104 106 109 112 115 
118 120 125 122 119 126 129 131 130 129 128 126 125 123 123 123 122 119 116 
115 113 94 98 101 103 105 107 110 112 115 118 123 114 85 111 119 108 128 130 
130 129 127 125 123 123 123 120 118 116 113 112 94 98 101 102 104 107 110 112 
115 117 125 83 61 106 100 105 111 134 129 129 127 125 124 122 120 118 117 115 
112 110 94 97 100 101 103 106 109 112 114 117 120 62 64 88 123 135 117 136 132 
128 127 125 123 120 118 117 114 112 110 108 94 97 99 100 102 105 108 111 112 
116 117 63 73 80 132 173 139 131 133 129 126 123 121 118 116 115 112 110 108 
106 93 96 98 99 101 103 106 108 110 112 120 64 55 89 140 168 130 130 132 127 
125 122 118 116 114 113 110 108 106 104 91 95 96 98 99 101 103 105 107 109 116 
94 45 77 141 163 121 131 129 126 123 120 117 114 113 111 107 105 103 101 89 93 
94 95 96 98 100 103 104 108 110 121 66 54 139 191 104 110 126 121 120 118 115 
113 111 109 106 103 101 99 93 95 93 93 94 96 99 103 103 105 108 117 91 72 131 
166 87 71 144 134 126 115 114 112 110 108 104 103 100 97 63 65 78 83 83 85 87 
89 99 102 103 96 69 70 100 102 131 150 177 166 170 150 114 109 108 106 103 101 
98 95 5 5 12 13 14 14 13 20 60 105 106 99 86 100 108 126 175 179 167 173 176 
180 156 106 109 105 102 99 96 93 5 7 3 2 3 4 4 17 50 106 141 117 110 130 148 
155 166 180 174 171 177 179 171 140 79 100 101 98 95 90 5 6 5 4 5 6 6 18 55 90 
138 119 110 115 138 159 158 166 179 173 178 182 143 172 76 75 102 95 92 88 11 
8 3 3 7 10 13 22 64 71 121 115 108 117 129 144 153 148 160 169 171 186 126 159 
150 79 98 93 89 84 13 14 11 7 10 11 8 25 69 62 92 111 101 115 115 128 139 137 
147 161 166 180 102 127 182 122 90 90 85 79 11 11 12 13 11 9 13 26 75 63 62 92 
102 109 98 126 130 128 155 170 178 174 116 106 167 149 94 85 81 76 10 11 10 12 
14 12 15 19 85 78 52 65 88 95 95 131 126 123 140 173 182 170 116 90 124 120 
125 84 77 74 10 10 10 12 12 14 11 29 74 91 53 54 76 79 108 122 113 115 131 176 
182 163 143 94 84 102 129 111 73 71 
