P2
30 23
255
86 90 93 95 98 101 102 104 107 109 113 115 114 115 115 115 117 119 119 120 121 
121 121 119 118 117 114 111 108 105 89 92 95 97 101 102 104 107 109 112 116 
118 121 118 118 118 120 121 122 122 123 123 122 121 120 118 116 113 111 108 
91 94 96 99 102 103 106 108 111 114 117 120 123 121 120 121 122 123 124 124 
124 124 122 122 121 120 117 114 113 111 92 96 98 101 103 104 107 110 113 115 
119 120 122 124 123 125 125 125 125 126 125 124 123 122 122 120 117 116 116 
113 93 97 100 102 103 105 108 111 114 118 121 123 123 125 125 128 128 127 127 
126 125 124 123 123 122 121 118 117 114 112 94 98 101 102 104 107 109 112 115 
118 120 124 131 127 129 130 130 130 129 127 126 125 123 123 123 122 119 117 
115 113 95 98 101 103 105 107 110 113 115 118 121 125 101 107 118 119 130 130 
130 128 126 125 123 123 123 120 119 116 113 112 94 98 101 103 104 107 110 113 
115 118 125 106 54 101 100 99 116 133 129 128 126 125 124 122 120 119 117 114 
111 110 94 97 100 102 103 106 109 112 114 117 125 76 67 78 113 128 114 135 131 
128 126 125 122 120 118 117 115 112 110 107 94 97 99 100 102 105 108 111 112 
115 122 69 70 77 132 163 135 131 132 129 126 123 120 118 116 115 112 110 108 
106 93 96 98 99 101 103 106 109 110 112 122 73 49 84 145 169 128 130 132 127 
125 121 118 116 114 112 110 108 106 104 91 95 96 98 99 101 103 106 108 110 116 
100 44 71 146 169 122 132 129 125 124 120 116 114 113 110 107 105 102 101 89 
93 94 96 97 98 101 103 105 108 109 120 70 54 137 183 102 102 125 121 119 118 
115 113 111 109 106 103 101 98 93 95 92 92 94 96 99 103 103 105 108 116 93 76 
126 137 97 84 149 135 130 116 113 112 110 108 104 103 100 96 64 65 77 83 84 85 
87 90 99 102 103 99 70 65 84 97 145 166 173 167 171 154 117 108 108 106 103 
101 98 94 5 6 14 14 13 15 14 21 61 105 110 102 93 113 126 140 174 172 165 173 
175 180 156 107 108 105 101 99 96 92 5 7 5 2 2 4 3 17 51 102 148 119 112 128 
146 155 159 175 174 170 178 177 162 140 79 100 101 97 94 90 5 6 6 4 4 6 6 17 
51 83 135 119 113 118 140 161 153 159 176 174 178 183 140 167 74 76 102 95 92 
88 11 7 4 4 6 9 13 19 57 69 113 112 103 118 128 150 148 142 157 166 166 187 
121 152 139 78 98 93 89 84 14 13 10 6 10 11 9 20 64 64 84 106 96 110 108 135 
133 126 155 170 171 176 109 124 169 121 89 91 85 79 11 12 14 13 9 9 14 19 70 
67 61 82 91 101 90 128 128 104 148 184 182 172 115 109 155 148 96 84 81 76 10 
11 11 13 14 11 16 13 72 85 57 65 75 81 89 131 118 98 119 184 190 172 119 95 112 
120 128 85 77 73 10 10 10 12 13 14 10 23 65 91 64 54 72 72 103 128 102 99 113 
172 192 172 152 101 80 101 129 115 73 71 
