P2
30 23
255
89 94 96 98 101 104 106 108 112 114 117 119 120 120 121 122 124 127 128 128 
129 129 129 128 126 125 122 119 116 112 92 96 98 101 104 106 108 111 113 116 
120 122 123 124 124 125 127 129 131 131 132 131 131 129 128 127 124 121 118 
115 94 97 100 102 105 107 110 113 115 119 122 124 126 126 127 128 129 131 133 
133 133 133 131 131 129 128 125 122 120 118 96 99 102 103 106 109 111 114 117 
120 124 126 127 128 130 133 134 133 134 134 134 133 132 131 130 128 125 124 
123 120 97 100 103 105 107 110 112 115 119 122 125 127 131 134 127 122 126 136 
136 135 135 134 133 131 130 128 126 124 122 120 97 101 103 106 108 110 113 116 
119 123 125 129 130 87 85 100 89 108 135 136 135 134 133 132 131 130 126 124 
122 120 98 101 104 106 108 110 113 116 119 124 125 135 91 60 108 140 138 84 116 
139 135 134 132 132 131 128 125 122 120 119 97 101 103 105 107 110 113 116 120 
124 127 134 78 83 121 155 183 129 101 139 135 134 132 130 128 126 124 121 118 
117 96 100 102 103 106 109 112 115 119 123 127 128 67 74 116 155 180 149 115 
139 135 133 131 128 126 125 122 119 116 114 96 99 101 102 104 108 111 114 117 
121 125 126 66 54 100 100 116 146 134 137 134 132 129 126 125 122 119 116 114 
112 96 99 100 101 103 106 109 112 115 119 122 126 78 73 109 139 135 145 135 
136 134 131 126 124 123 121 117 114 112 110 93 97 98 100 101 103 107 110 112 
115 118 127 89 66 91 133 151 144 137 134 133 129 125 123 121 118 115 112 108 
106 92 95 96 97 99 101 103 107 109 113 116 125 109 60 94 125 132 141 135 130 
127 124 124 122 120 117 113 110 106 103 94 96 95 95 96 98 102 105 107 110 115 
126 100 43 92 128 88 84 170 155 154 142 123 121 119 116 112 109 105 102 68 71 
83 89 90 90 93 96 104 108 109 105 77 56 81 93 105 137 207 186 184 188 173 120 
116 114 110 107 104 101 12 8 17 20 20 19 18 24 65 108 105 94 68 79 87 86 154 
213 213 211 190 185 200 167 113 113 109 106 103 99 15 9 4 5 6 6 3 16 56 110 
122 103 91 99 107 127 161 184 205 208 200 191 184 203 157 102 107 105 101 97 
15 12 6 9 9 8 5 20 70 101 136 115 104 108 120 133 146 162 190 198 200 198 180 
178 196 154 112 102 101 95 15 11 5 8 8 10 11 33 81 80 135 122 118 105 114 124 
136 149 167 188 198 199 187 154 189 196 156 105 96 92 14 10 6 7 10 11 7 48 84 
66 113 119 118 121 120 123 129 136 149 167 183 192 161 113 164 161 139 148 96 
87 13 8 8 9 9 11 10 61 87 63 84 109 106 115 119 124 123 129 139 149 182 193 
136 47 104 105 117 158 108 80 13 7 9 9 8 11 14 70 100 67 69 90 101 114 115 115 
109 112 135 148 187 195 151 77 54 80 103 152 128 76 14 11 7 7 7 5 23 77 105 
76 61 77 87 104 123 120 118 120 131 155 184 189 145 115 53 71 94 141 158 89 
