P2
30 23
255
93 97 99 101 104 107 109 111 115 118 120 123 123 125 126 129 129 130 130 131 
132 132 132 131 129 128 125 122 119 115 96 99 101 104 107 109 111 114 117 120 
123 125 126 127 128 132 132 133 133 133 134 134 133 132 130 129 127 124 121 
117 98 101 103 105 108 111 114 117 119 123 126 128 129 130 130 135 136 135 135 
135 135 135 133 133 132 130 128 124 123 122 99 102 105 107 110 112 115 119 122 
125 128 130 131 133 135 138 138 139 138 137 136 135 134 134 133 131 128 126 
126 122 100 103 106 109 111 113 117 120 124 127 130 131 134 133 122 122 129 
131 129 131 137 135 134 134 132 132 129 127 124 122 101 104 107 110 113 115 
118 122 125 128 130 134 131 85 88 90 95 120 108 103 126 137 134 135 134 133 
129 126 124 122 101 104 108 110 113 116 119 122 125 129 130 139 92 56 77 77 71 
86 93 88 102 130 135 134 134 131 128 125 123 121 101 103 107 110 112 115 119 
122 125 128 134 119 48 42 56 66 78 68 80 89 86 125 135 133 131 129 126 124 120 
118 93 103 106 109 111 114 118 121 124 126 136 99 34 42 57 70 75 78 85 83 86 
129 134 130 129 127 124 121 118 115 88 104 105 108 110 113 116 119 123 124 135 
96 30 49 64 104 111 109 94 99 96 124 133 128 127 124 121 118 115 113 93 103 
104 106 108 111 114 117 120 122 131 87 33 61 81 102 110 117 114 106 79 112 131 
127 125 123 119 117 113 111 50 101 103 104 106 108 111 114 117 120 129 84 40 
67 79 80 84 108 141 142 103 120 125 120 120 121 117 114 110 107 31 96 102 102 
103 104 107 111 114 117 126 100 42 59 76 89 105 129 147 161 137 152 151 147 
138 117 116 113 109 105 56 104 101 101 101 102 105 110 113 115 120 107 47 50 
60 76 95 120 139 136 145 167 182 193 203 167 110 110 110 104 43 69 86 90 90 90 
92 95 105 110 105 96 61 47 63 65 80 105 124 146 191 156 164 187 203 219 189 
120 101 103 7 5 14 16 17 15 13 23 88 101 89 86 64 42 49 63 78 99 111 123 177 
153 176 183 195 210 228 206 144 105 5 7 5 5 8 7 1 37 94 96 86 78 65 45 43 42 
79 86 93 133 154 166 183 181 188 206 221 214 215 146 11 10 7 8 9 7 5 58 86 96 
89 79 63 52 45 35 83 87 118 159 158 167 170 176 185 195 222 218 205 175 10 12 
12 9 8 9 18 61 74 94 91 83 69 64 61 53 80 115 140 149 158 167 173 180 186 187 
202 216 176 175 9 10 12 11 10 8 22 56 59 90 96 91 86 75 84 89 101 121 138 149 
156 165 174 184 186 159 168 158 138 165 10 11 11 11 12 8 28 48 42 74 99 91 100 
89 80 91 100 111 128 143 151 161 172 185 161 64 83 87 126 160 10 11 11 12 13 
10 33 47 35 49 88 83 88 96 91 88 94 110 125 136 145 157 168 194 144 47 74 89 
123 165 10 11 11 11 13 10 32 53 36 32 62 73 75 85 92 92 95 107 120 131 142 146 
163 193 139 54 68 90 129 163 
