P2
30 23
255
94 98 100 102 105 108 110 112 115 118 121 124 125 126 126 129 128 130 130 131 
132 132 132 130 129 128 125 122 119 115 97 100 102 105 108 110 113 115 118 121 
125 126 128 129 129 132 132 132 132 133 134 134 133 132 131 129 126 124 120 
117 99 102 104 107 109 112 115 117 119 124 127 129 131 131 132 136 135 136 137 
135 135 134 133 133 132 130 128 124 123 122 100 103 106 108 111 113 116 119 
122 125 129 131 132 133 134 138 141 130 123 126 136 135 133 134 132 131 128 
127 126 122 101 104 108 110 112 114 117 121 125 128 130 133 134 135 135 144 
111 80 93 85 104 120 109 123 134 131 129 127 124 122 102 105 108 110 113 115 
119 122 125 129 131 134 136 136 140 121 55 57 71 75 71 81 85 99 126 133 129 
126 124 123 102 106 108 111 113 116 119 123 126 129 132 134 137 138 141 72 37 
47 61 68 74 72 87 82 118 132 128 126 122 121 101 105 108 111 113 115 119 123 
125 129 132 135 137 140 138 53 41 51 78 97 93 89 86 81 123 132 126 124 121 119 
101 104 107 109 112 114 118 122 125 128 132 135 137 141 131 45 47 70 94 112 
122 111 101 95 120 130 124 121 118 116 101 104 106 108 110 114 117 120 123 127 
130 133 136 144 104 44 60 78 80 85 101 129 119 78 109 126 121 119 116 113 101 
103 105 106 109 112 114 117 121 124 128 132 135 144 105 47 65 78 89 99 121 143 
159 112 120 124 119 116 114 111 100 102 103 105 106 108 111 115 118 121 125 
129 133 141 122 50 59 71 89 102 130 151 156 132 124 121 117 114 110 107 98 100 
101 102 103 105 108 111 115 119 123 127 131 136 125 59 59 70 73 90 111 136 135 
121 117 116 116 112 108 105 102 104 101 101 101 103 107 111 113 116 120 124 
126 119 98 58 50 65 78 92 125 133 150 161 149 126 109 112 108 104 69 71 85 91 
90 91 93 97 107 113 116 119 111 105 88 48 48 43 58 87 85 117 187 156 178 184 
151 107 106 102 5 6 14 16 17 15 14 21 68 108 103 117 107 99 86 53 51 56 53 105 
99 101 163 146 175 162 197 161 99 103 5 7 5 5 8 6 4 17 61 98 98 114 110 98 77 
67 45 38 63 88 68 139 166 135 180 141 171 202 121 97 9 7 6 8 9 7 7 18 62 95 90 
112 111 100 84 74 71 58 66 80 129 190 152 135 179 130 150 182 180 94 15 13 7 8 
8 10 14 21 70 95 82 111 115 107 95 91 92 88 99 128 160 162 131 145 175 127 137 
161 218 119 12 14 11 6 10 10 10 21 78 87 75 107 119 113 105 90 96 97 108 123 
145 148 119 159 169 126 137 161 219 154 13 11 13 12 9 10 15 23 87 83 69 94 118 
108 108 92 94 98 102 117 139 132 121 164 163 128 135 154 209 194 12 12 13 15 
12 10 16 34 96 86 69 73 106 101 102 98 98 97 97 109 127 124 131 161 161 133 
133 164 200 205 11 12 13 13 15 9 15 53 92 99 74 61 80 88 93 97 98 99 99 100 
108 119 130 149 156 139 139 169 185 194 
