P2
30 23
255
104 109 113 118 122 126 131 136 139 143 147 150 152 153 155 155 157 161 162 
163 164 164 162 161 158 156 154 150 145 140 104 108 112 116 120 124 128 132 
137 141 145 148 151 151 152 153 155 157 158 160 160 160 159 157 155 153 150 
146 140 134 103 108 111 115 119 123 126 130 135 139 144 147 150 151 152 152 
154 155 156 156 157 157 156 154 152 149 145 140 135 127 91 95 98 100 103 106 
110 113 116 120 124 127 129 131 133 134 135 135 136 135 135 134 133 131 128 
125 121 116 111 104 83 88 91 93 96 98 101 103 106 110 113 115 118 119 121 123 
126 127 127 127 128 127 126 125 123 120 117 113 108 103 86 91 94 96 100 102 
104 106 110 114 117 121 123 127 130 131 133 133 132 132 132 131 129 128 126 
123 120 117 112 107 87 91 95 98 101 103 106 109 112 117 121 124 130 123 116 
123 127 134 137 134 134 132 131 129 127 125 122 118 114 109 88 92 96 100 102 
105 109 112 116 120 124 130 122 66 80 116 154 140 129 138 135 134 132 131 129 
126 122 119 114 111 88 92 97 100 103 106 110 115 120 124 127 136 73 41 79 122 
174 152 102 137 137 135 133 131 129 126 122 119 115 111 90 93 97 101 104 107 
112 117 122 126 130 134 54 51 83 132 188 210 140 132 139 136 134 131 128 125 
122 118 114 111 90 94 98 102 105 109 114 119 125 128 135 126 42 55 84 138 198 
218 185 136 140 137 133 131 128 125 121 117 114 110 90 95 98 102 105 109 115 
120 125 129 139 114 34 44 57 117 130 169 192 149 138 137 133 131 127 124 119 
115 111 108 90 95 98 102 105 110 115 120 126 129 139 119 37 66 54 123 130 149 
186 150 139 137 134 130 126 122 117 113 110 106 91 95 99 103 107 111 116 121 
126 130 136 137 53 71 53 121 165 189 179 142 141 138 134 129 125 121 116 113 
109 104 92 96 99 103 107 112 117 122 126 132 135 146 88 50 39 118 137 140 165 
142 141 137 133 129 125 120 115 111 107 103 92 96 100 103 107 112 118 123 127 
132 134 149 109 36 53 137 162 149 150 141 140 137 133 129 125 120 114 109 105 
100 92 96 99 103 106 112 118 122 130 139 145 135 59 24 57 125 168 160 146 145 
141 136 132 129 125 120 114 108 103 99 90 92 94 97 101 107 120 127 121 102 76 
34 30 66 60 97 81 144 116 116 128 136 134 129 124 119 113 108 103 98 87 94 97 
99 102 105 97 71 45 33 26 21 25 64 102 69 56 130 90 101 93 102 115 123 123 118 
112 107 102 96 26 47 51 51 51 51 40 36 40 34 37 33 34 46 73 72 103 137 62 113 
97 90 99 100 105 118 110 105 101 94 4 2 2 3 1 19 41 44 46 40 40 38 50 62 102 
195 130 83 56 108 87 86 107 107 94 113 107 103 99 93 7 8 9 9 10 31 38 38 38 58 
42 43 56 48 141 173 78 72 43 97 98 79 107 112 100 115 105 101 96 90 6 6 8 7 14 
27 30 34 30 56 42 45 52 39 93 75 68 71 28 78 110 81 107 109 101 113 103 98 92 
85 
