P2
30 23
255
107 113 118 122 126 130 135 139 143 147 151 153 155 156 158 159 160 163 164 
166 166 166 164 163 160 158 156 152 147 142 107 112 116 120 124 128 132 136 
139 144 149 152 154 154 154 156 157 160 160 162 162 162 161 159 157 155 152 
148 142 136 106 111 115 118 123 126 130 134 138 142 147 151 153 154 154 155 
157 158 158 158 159 159 158 156 154 150 147 142 137 129 94 98 101 103 106 109 
113 116 120 123 127 130 132 134 135 136 137 137 137 137 136 135 134 132 129 
126 122 117 113 106 85 89 92 94 97 100 102 104 107 110 114 117 119 121 122 124 
126 127 127 127 127 127 126 125 123 120 117 113 109 103 88 93 95 98 102 103 
105 108 111 115 119 122 125 129 131 132 133 132 133 133 132 131 129 128 126 
123 120 117 113 107 89 93 97 100 103 105 108 111 114 118 123 125 131 124 123 
125 134 138 136 135 134 133 131 129 127 125 121 118 114 110 90 94 98 101 104 
107 110 114 118 122 125 133 99 78 114 151 149 127 139 136 136 134 132 131 129 
126 122 119 115 111 90 94 99 102 105 108 112 117 121 124 132 117 45 69 115 174 
176 104 132 141 137 135 133 131 129 126 122 119 115 111 91 95 99 102 105 109 
114 119 124 127 138 94 41 76 124 184 221 173 132 144 138 137 135 132 129 125 
121 118 115 111 92 96 100 103 106 111 116 121 126 129 141 93 46 81 133 197 230 
223 160 140 140 137 134 132 129 125 121 117 114 110 92 96 100 103 107 111 116 
122 127 130 141 88 17 27 80 70 105 182 168 143 140 137 134 131 128 124 120 115 
111 108 92 96 100 104 107 112 117 122 127 130 143 89 35 29 117 75 83 188 171 
142 141 138 135 130 126 123 118 114 110 106 94 97 101 105 109 113 118 123 127 
131 144 102 57 46 145 161 180 213 167 142 142 138 135 130 126 122 117 113 108 
104 94 98 101 104 110 115 120 124 128 132 143 114 47 36 112 159 127 194 151 
145 142 138 135 130 126 121 116 111 107 103 95 99 102 105 109 115 121 126 130 
133 137 141 61 47 120 178 161 173 144 145 141 138 134 130 126 121 115 110 106 
101 94 98 102 105 108 114 121 125 132 141 147 146 51 46 114 175 186 168 148 
147 141 137 133 130 126 121 115 110 105 100 92 94 97 99 103 110 123 132 129 
114 91 46 44 56 85 106 134 176 114 129 137 138 135 130 125 121 115 110 105 100 
92 97 100 102 104 106 103 79 51 33 22 13 50 98 88 55 114 173 100 96 98 112 122 
127 125 119 114 109 104 98 30 52 55 55 55 56 43 37 36 37 34 25 28 68 77 50 145 
143 95 115 92 96 102 105 112 119 112 108 103 97 4 3 3 3 2 30 43 52 47 32 36 36 
40 62 100 163 124 99 93 120 87 102 104 109 100 118 109 105 102 96 8 9 10 9 17 
41 42 57 48 50 37 49 49 64 175 168 87 93 84 121 75 99 100 109 107 122 107 104 
99 93 7 7 9 10 21 32 41 54 42 60 35 58 47 50 134 86 88 92 75 123 80 88 107 103 
111 121 106 101 95 88 
