P2
30 23
255
92 97 99 102 104 107 110 111 115 118 120 122 124 125 126 129 128 130 130 131 
132 132 131 131 129 127 125 122 119 115 96 99 101 104 107 109 112 114 117 120 
124 125 127 128 129 132 132 132 132 133 134 134 133 132 131 129 127 124 121 
118 98 101 103 105 108 111 113 116 119 123 126 128 129 130 130 134 136 134 135 
134 135 134 133 133 132 130 128 124 123 122 99 102 105 107 109 112 115 118 121 
125 128 130 131 132 135 139 136 138 137 137 137 134 134 134 132 131 128 126 
126 122 100 103 106 108 111 113 116 120 124 127 129 132 132 136 117 104 100 
108 127 119 129 137 134 134 132 131 129 127 124 121 101 104 107 109 112 115 
118 121 124 128 130 132 139 119 60 70 74 71 82 86 99 128 136 134 134 133 129 
126 124 122 101 104 107 110 113 115 118 121 125 128 131 134 135 66 37 53 65 73 
69 81 81 110 134 134 134 131 128 125 122 121 101 104 107 109 112 114 118 122 
124 128 130 137 122 39 44 55 89 98 94 87 81 112 136 132 131 129 127 123 120 
118 100 104 106 108 111 113 117 121 124 127 129 138 119 36 52 75 103 116 120 
106 94 107 133 131 129 127 124 121 118 115 101 103 104 106 109 112 116 119 122 
126 128 137 100 41 64 80 83 90 117 140 99 93 131 129 126 124 121 118 116 113 
100 103 104 105 107 110 113 117 120 123 126 135 87 46 68 83 97 115 136 163 152 
120 132 126 125 122 119 116 113 110 99 102 103 104 105 107 110 114 117 120 123 
132 105 46 62 77 97 110 139 159 144 126 123 121 122 121 117 114 110 107 97 100 
101 102 102 104 107 111 114 118 121 128 122 56 61 75 81 104 130 142 139 151 
148 138 125 116 117 112 109 105 101 103 100 100 101 102 106 111 113 115 120 
121 105 56 51 66 84 101 131 141 173 167 181 195 204 148 107 114 108 104 69 70 
85 90 90 90 92 96 106 112 112 107 89 50 49 46 58 95 84 119 189 156 171 189 217 
230 146 103 107 103 5 6 14 16 17 15 14 21 67 109 100 98 86 52 50 61 56 109 104 
116 157 165 187 186 202 231 219 158 106 101 5 7 6 5 8 7 3 21 79 104 101 95 80 
66 48 38 59 87 87 167 166 175 184 183 200 219 216 212 181 107 9 7 7 8 9 8 4 35 
84 96 106 96 82 70 69 63 71 100 142 158 164 171 175 184 200 208 211 209 205 
139 16 13 7 8 8 10 11 51 72 85 112 101 95 85 90 94 101 131 149 158 163 171 178 
187 204 195 193 206 172 176 13 15 11 6 10 10 12 57 64 68 112 105 107 98 90 98 
110 121 137 151 158 166 178 190 191 143 167 155 142 172 13 12 13 12 9 9 21 61 
57 52 98 105 99 104 98 98 104 118 134 144 152 165 174 195 147 54 88 95 134 169 
12 12 14 15 13 8 25 68 56 44 68 94 88 95 101 102 104 115 130 140 149 156 170 
207 123 44 72 93 132 171 11 12 13 13 15 8 28 72 65 46 45 71 77 84 93 99 105 
112 122 132 142 146 162 195 117 52 69 95 138 166 
