P2
30 23
255
85 90 93 95 98 101 102 104 107 110 112 116 116 116 116 117 117 119 119 120 121 
122 121 120 119 117 115 112 109 106 89 92 95 98 101 102 104 106 109 112 115 
117 121 119 118 120 120 121 122 123 124 124 123 122 121 119 116 114 111 108 
91 94 96 99 102 103 106 109 111 114 117 119 123 122 121 124 124 124 124 124 
125 124 123 122 122 120 118 115 113 112 92 95 98 101 103 104 107 110 112 115 
119 120 122 124 124 129 127 126 126 126 125 124 123 123 122 121 118 116 116 
114 94 97 100 102 103 105 108 111 114 117 120 122 124 124 126 131 132 129 127 
127 126 125 124 123 122 121 119 117 115 113 94 98 101 102 105 107 109 112 115 
118 120 123 125 130 126 128 133 132 130 128 127 126 124 124 123 123 120 117 
115 113 95 98 101 102 105 107 109 112 115 118 121 123 131 106 102 118 124 132 
131 128 127 126 123 123 123 121 118 116 114 112 94 97 101 102 104 106 109 112 
114 118 120 126 118 70 91 107 105 119 131 128 127 125 124 122 120 119 117 115 
112 110 94 97 99 101 103 105 108 111 114 117 120 127 87 78 88 123 132 103 134 
129 126 124 122 120 119 117 115 113 110 108 94 97 98 100 102 104 107 110 113 
116 119 122 70 71 118 165 160 122 133 129 126 123 121 119 117 115 112 110 108 
106 92 96 98 98 100 103 105 108 111 113 116 121 64 61 118 174 153 129 133 127 
125 122 119 116 115 113 110 108 106 104 91 94 95 97 98 100 103 106 108 111 112 
122 85 55 136 186 132 115 131 125 124 120 117 115 113 111 108 105 103 101 89 
91 93 94 95 98 101 103 105 108 110 119 89 54 136 171 97 113 125 121 119 119 
116 113 112 109 106 103 101 99 91 93 91 91 93 95 99 103 103 105 108 115 93 86 
116 147 97 130 156 142 137 118 113 113 111 108 105 103 100 97 64 65 77 82 83 
85 87 91 99 102 105 94 57 78 84 137 175 187 172 174 174 166 124 108 109 106 
104 102 99 95 5 5 14 16 17 15 14 21 60 112 113 99 93 112 117 162 185 186 177 
181 179 182 177 124 104 108 102 100 97 93 5 5 5 4 7 5 3 18 63 125 128 113 112 
122 133 157 168 178 188 183 187 178 172 170 97 92 103 98 95 91 12 7 6 8 9 7 5 
25 73 112 126 106 110 117 127 140 160 176 184 191 187 182 145 177 152 109 100 
96 93 88 14 11 6 7 8 10 10 43 73 90 121 100 105 115 114 135 145 156 173 171 
187 176 127 153 166 168 130 93 91 85 12 14 13 8 10 10 9 58 72 72 107 97 102 
105 100 133 138 141 159 168 181 161 100 131 158 116 158 115 84 82 11 11 13 14 
11 9 16 73 75 63 81 87 101 90 96 127 135 138 156 180 180 176 79 89 112 93 138 
150 84 78 11 10 12 13 14 11 16 80 90 65 61 71 81 80 94 119 140 129 153 186 188 
177 103 44 69 85 118 152 96 72 9 10 11 11 14 13 30 70 96 75 51 64 68 78 90 120 
134 123 154 183 191 173 142 49 50 80 108 135 116 67 
