P2
30 23
255
104 110 114 119 123 128 133 137 141 147 150 152 154 156 157 158 160 163 164 
166 167 166 165 163 161 159 156 153 148 142 104 109 114 118 122 126 130 135 
138 143 147 151 153 153 154 156 157 160 161 162 163 162 162 160 158 156 153 
149 142 136 103 109 113 116 121 125 129 133 137 141 146 149 152 153 154 155 
157 158 159 159 160 160 159 157 155 151 148 143 137 129 92 96 100 103 105 109 
112 116 119 123 127 130 133 134 136 137 138 138 139 138 138 137 136 134 131 
128 124 119 114 107 84 89 92 95 97 100 102 104 108 111 115 118 120 123 124 127 
129 130 130 130 130 129 128 128 126 123 119 116 110 104 88 93 95 98 102 103 
105 108 111 116 120 123 127 128 131 132 134 135 135 135 134 133 132 131 129 
126 122 119 114 109 89 93 97 100 103 105 108 111 115 119 123 127 130 132 133 
135 137 138 137 137 136 135 133 132 130 127 124 120 116 112 89 94 98 101 104 
107 110 114 118 123 127 130 134 135 140 141 138 139 139 138 137 136 134 133 
131 128 124 121 117 112 90 94 99 102 105 108 112 117 121 126 130 134 136 144 
126 112 149 150 141 140 139 137 135 133 131 128 125 121 117 113 91 95 99 102 
106 110 114 119 124 129 133 136 143 125 57 116 150 137 135 142 139 138 137 134 
131 128 124 120 117 113 92 96 100 103 106 111 116 121 127 131 135 138 144 79 
59 119 141 157 141 138 142 138 136 134 131 128 123 120 116 112 92 96 100 103 
107 111 117 122 127 132 136 143 131 64 72 125 171 199 160 138 143 138 135 133 
130 126 122 117 114 110 92 96 100 103 107 112 117 122 128 133 137 147 118 43 
77 161 194 205 178 149 141 139 136 132 128 124 120 116 112 108 93 97 101 104 
108 113 118 123 128 134 137 146 122 37 69 142 195 190 175 151 142 139 136 132 
128 123 119 115 111 106 94 97 101 103 109 114 119 124 129 134 138 142 143 50 
70 132 176 160 148 147 143 139 136 131 127 122 117 113 109 104 94 97 101 103 
108 115 120 125 130 135 137 144 133 43 64 169 195 155 140 147 142 139 135 132 
127 122 116 111 106 101 93 96 100 103 107 113 120 124 129 136 143 153 106 67 
89 154 146 185 154 146 141 138 134 131 127 121 115 110 105 100 90 92 95 98 102 
108 118 128 134 132 116 76 37 60 83 85 87 188 123 133 140 140 135 130 126 121 
115 109 104 99 87 92 96 99 102 108 113 102 78 52 41 32 39 81 79 148 150 135 
79 104 101 113 125 129 125 119 113 108 103 97 28 48 52 52 52 54 52 41 45 40 48 
43 47 72 129 210 120 87 79 104 84 91 99 100 117 118 111 107 102 96 4 2 3 3 2 4 
35 40 37 57 59 39 52 55 93 109 75 89 65 103 85 86 106 92 104 117 109 104 100 
94 8 9 9 10 8 15 35 34 28 46 57 41 52 60 48 65 75 71 60 97 96 86 110 98 107 
107 108 102 97 91 7 7 8 9 7 19 28 29 30 34 53 44 57 66 45 78 62 63 52 89 103 
89 109 101 108 100 105 99 93 86 
