P2
30 23
255
104 110 114 118 123 127 131 136 139 144 147 150 151 153 154 155 157 159 160 
161 162 162 160 159 156 154 151 148 143 138 104 109 113 117 121 125 128 132 
137 141 145 148 150 150 151 152 153 156 157 158 158 158 157 154 153 151 148 
144 139 133 104 108 112 115 120 124 127 131 135 139 144 147 149 150 151 152 
153 154 155 155 155 155 154 152 150 146 143 138 133 125 92 96 98 101 103 106 
110 113 116 119 124 127 129 131 132 133 133 133 133 132 132 131 130 128 125 
122 118 114 109 103 82 87 90 92 95 97 100 101 104 107 111 113 116 117 118 120 
122 123 124 123 123 123 122 121 119 116 113 110 105 101 85 90 93 96 99 101 103 
104 108 112 116 119 121 125 126 127 128 129 129 129 128 127 126 124 122 119 
116 113 109 105 86 91 94 97 101 102 105 108 111 115 119 122 127 121 120 123 
131 135 132 130 130 128 127 125 123 121 118 114 110 106 87 92 95 99 101 103 
108 111 114 118 122 129 98 74 110 154 153 125 135 133 131 129 128 126 125 122 
118 115 111 108 88 92 96 99 102 105 109 113 117 121 128 116 45 65 112 168 183 
111 125 138 133 131 129 127 125 122 118 115 111 108 89 93 97 100 103 106 111 
116 120 123 134 97 44 80 125 187 223 184 132 141 134 133 130 127 125 122 118 
114 111 108 89 94 98 101 103 107 113 117 122 125 136 98 38 70 118 176 218 221 
158 136 137 134 130 128 125 121 117 113 110 107 89 94 98 101 103 108 113 118 
123 126 136 88 17 13 74 44 63 170 166 139 137 134 130 127 124 120 115 111 108 
105 89 94 98 102 104 109 114 118 123 126 139 80 40 36 130 123 122 193 169 139 
138 135 131 126 122 118 114 110 106 103 91 95 98 102 106 110 115 119 124 127 
140 96 41 42 129 171 197 205 162 139 139 135 131 126 122 118 113 109 105 102 
92 96 99 102 106 111 116 121 125 129 139 115 43 39 84 134 165 190 149 141 139 
135 131 126 122 117 112 108 104 101 92 96 100 102 106 112 117 122 126 129 135 
135 51 57 92 107 171 175 140 141 138 135 131 126 123 117 111 107 103 98 92 96 
99 102 106 111 117 122 128 137 145 139 44 53 135 167 186 176 142 144 138 133 
129 126 123 117 112 107 102 98 90 92 94 97 101 107 120 128 125 110 87 46 36 40 
111 146 135 181 113 127 134 135 131 126 122 117 112 107 102 97 89 95 97 99 102 
104 100 76 49 30 20 15 41 65 76 53 96 175 101 95 97 110 119 123 121 116 111 
106 101 95 29 50 54 54 54 55 41 35 34 34 32 24 30 63 65 46 136 148 93 115 91 
95 101 103 109 116 109 105 101 94 4 2 3 3 2 29 41 49 44 31 35 35 40 64 94 163 
123 100 91 118 86 100 102 108 99 114 107 103 99 93 8 9 9 9 17 39 40 55 46 48 
36 47 47 61 169 170 85 93 83 119 74 98 99 108 105 120 105 102 96 90 7 7 8 9 21 
31 41 53 42 58 34 57 46 48 133 87 84 92 74 121 80 86 106 102 109 119 104 99 93 
86 
