P2
30 23
255
108 114 119 124 128 132 137 141 146 151 155 157 159 161 163 163 166 169 170 
172 172 172 171 169 166 164 162 158 153 147 108 113 118 123 127 131 135 138 
143 148 152 156 158 158 160 161 163 165 167 168 169 169 168 165 163 162 159 
154 148 141 107 113 117 121 126 130 134 137 141 146 151 155 158 158 159 161 
163 164 165 165 165 166 165 163 161 158 153 148 141 134 96 100 104 106 109 113 
116 120 124 127 131 135 138 140 142 143 144 144 144 144 144 143 142 140 137 
134 129 124 118 111 88 93 95 98 101 103 106 109 112 116 120 123 126 128 130 
132 134 135 135 136 136 135 134 133 131 128 124 121 115 108 91 96 99 102 105 
107 109 112 116 121 125 129 132 134 135 137 139 139 139 139 139 138 138 136 
134 131 128 124 120 114 93 97 101 103 106 109 112 115 119 124 129 132 135 136 
139 142 140 142 141 141 140 139 138 137 136 133 129 125 121 116 93 97 101 104 
108 111 115 119 123 128 132 136 138 142 140 133 145 147 145 143 142 140 139 
138 137 134 130 126 122 117 93 98 102 105 109 112 117 122 127 131 136 138 143 
141 96 117 169 152 143 146 143 142 140 138 137 134 130 126 122 118 94 99 102 
106 109 114 119 124 130 134 138 140 148 82 51 145 140 153 127 146 145 143 141 
138 137 134 129 126 122 118 95 99 103 106 111 115 121 126 132 137 139 146 133 
62 68 148 132 180 158 140 148 143 140 139 137 133 129 125 121 117 95 100 103 
107 110 116 122 127 133 138 139 152 113 64 79 143 179 205 172 145 148 143 140 
138 135 131 127 123 119 115 95 99 103 107 111 116 122 128 133 138 140 154 97 
47 97 172 191 209 185 156 147 144 140 137 134 130 126 121 117 113 96 100 104 
108 112 117 123 128 134 138 140 153 107 36 93 164 194 193 178 155 148 145 140 
137 133 129 124 120 115 111 97 101 103 107 113 119 124 129 134 139 142 150 138 
45 77 134 171 159 155 153 149 144 140 137 133 128 122 118 113 108 97 100 104 
107 112 119 125 130 135 139 141 152 129 32 78 166 189 157 147 153 148 144 140 
137 133 127 121 116 110 105 96 100 103 107 112 118 124 129 134 140 148 158 100 
59 87 169 155 191 160 152 146 142 139 137 133 127 120 115 109 103 93 96 98 101 
106 113 123 133 140 136 117 72 34 63 94 95 80 184 127 134 143 144 141 136 131 
126 119 113 108 102 90 97 100 102 106 112 118 108 81 55 40 28 38 70 68 108 132 
162 81 105 102 114 128 134 131 124 118 113 106 101 29 50 54 54 55 56 56 44 45 
36 45 43 48 83 119 212 143 91 78 108 90 92 101 102 119 124 115 111 105 99 4 3 
3 3 2 6 38 42 45 57 54 39 56 59 121 157 80 92 63 103 90 88 108 97 103 122 113 
108 103 98 8 9 9 10 8 17 39 35 30 56 54 42 58 56 64 68 76 80 52 89 105 84 113 
103 107 114 111 105 100 94 7 7 8 9 8 20 29 32 29 43 53 45 60 61 45 72 67 68 49 
71 112 89 111 104 110 107 108 102 96 88 
