P2
30 23
255
113 119 124 129 133 137 141 145 151 156 160 163 164 165 168 169 171 174 175 
176 176 176 176 174 171 169 167 163 158 151 113 118 123 127 132 135 139 142 
147 153 157 161 163 163 165 166 168 170 172 173 173 173 173 170 168 167 164 
159 152 144 111 117 121 125 130 134 138 141 145 150 156 159 162 163 164 166 
167 169 169 169 170 171 169 168 165 162 158 152 145 137 99 103 106 109 112 116 
119 123 127 130 135 138 141 143 145 146 147 147 147 147 147 146 145 143 141 
137 133 128 122 114 92 96 99 101 104 107 110 113 117 121 124 128 131 133 134 
136 138 139 139 139 139 138 138 137 136 133 129 126 120 112 95 100 102 105 109 
111 113 117 121 125 130 134 136 138 142 142 143 144 144 144 144 142 141 140 
139 136 133 129 124 118 96 100 103 107 111 113 116 120 124 129 134 136 140 141 
130 136 143 148 147 145 145 144 142 141 139 138 134 130 126 120 96 101 104 108 
112 115 120 124 128 133 137 140 142 86 79 119 165 159 144 150 146 145 143 142 
141 138 135 131 127 122 97 101 105 109 113 117 122 127 132 136 138 148 102 43 
81 127 179 178 116 146 149 146 145 143 140 138 135 131 127 122 98 103 106 110 
114 119 124 130 135 139 140 151 73 47 78 130 183 219 159 140 152 147 145 143 
140 138 135 131 126 122 98 103 107 111 115 121 126 132 137 140 145 147 61 46 
53 112 171 137 192 151 151 148 145 143 140 138 134 130 125 122 98 103 107 111 
115 121 127 133 138 141 149 135 49 65 78 120 160 149 202 162 151 149 144 142 
139 136 132 127 123 119 98 103 107 112 116 122 127 133 138 141 151 135 38 71 
70 107 188 207 197 162 153 149 145 141 138 135 130 125 121 117 100 104 107 113 
118 123 129 134 138 142 147 155 68 53 70 117 179 199 190 157 154 150 146 141 
138 134 129 125 120 115 101 104 108 112 118 124 130 135 139 143 146 161 96 52 
63 128 172 187 175 157 155 149 145 141 138 132 127 123 118 112 101 104 108 112 
117 124 130 136 139 143 146 163 118 31 67 151 183 179 162 156 153 149 145 141 
138 132 126 120 115 109 100 104 108 112 117 123 129 135 142 151 156 142 64 30 
61 116 157 163 158 158 155 148 143 140 137 132 125 119 113 107 98 100 102 106 
110 118 132 139 128 104 75 33 31 81 73 109 82 146 120 119 132 145 146 141 136 
131 124 118 112 106 95 102 105 108 111 113 102 72 46 36 30 25 27 65 105 72 61 
137 92 108 98 105 119 131 134 129 122 117 110 104 28 50 54 54 54 53 42 40 46 
37 41 36 38 50 76 85 112 142 65 118 103 95 107 107 111 129 120 115 109 102 4 2 
2 3 1 22 45 48 50 45 44 42 55 67 106 204 136 85 60 112 94 89 114 116 100 123 
117 111 107 100 8 9 10 10 12 34 41 41 40 63 46 47 60 51 140 176 82 78 45 100 
107 83 112 119 105 123 115 108 103 97 7 7 8 8 16 29 32 37 33 60 45 48 56 41 93 
79 70 75 31 78 118 86 111 115 106 119 111 105 99 91 
