P2
30 23
255
90 94 96 99 102 104 106 108 111 115 117 119 120 121 122 122 124 127 127 128 
129 129 128 128 126 125 122 119 116 112 93 96 99 101 104 106 108 111 113 116 
120 122 123 123 124 125 127 130 130 131 132 131 130 129 128 126 124 121 118 
114 95 98 100 102 105 108 110 113 115 119 122 124 125 126 127 128 130 131 132 
132 133 132 131 130 129 127 125 122 120 119 96 99 102 104 106 109 111 114 117 
120 124 126 128 128 130 133 133 132 133 134 134 132 131 131 130 128 125 124 
123 120 97 100 103 105 107 109 112 116 119 122 125 127 130 134 127 123 127 136 
135 135 134 133 132 131 130 128 126 124 122 119 98 101 103 106 108 110 113 116 
119 123 125 129 131 89 84 101 91 107 135 136 135 134 132 131 131 130 126 124 
121 120 98 102 104 106 108 110 113 116 120 124 125 135 95 58 105 139 139 85 115 
139 134 134 131 131 131 128 125 122 120 119 97 101 103 105 108 110 113 116 119 
124 126 135 79 79 117 152 182 130 100 139 134 133 132 129 128 126 123 121 118 
117 96 100 102 104 106 109 112 116 119 123 127 128 65 69 110 148 175 148 115 
138 134 133 131 128 126 124 121 119 116 114 95 99 101 102 105 107 111 114 117 
121 125 127 71 55 95 104 106 144 137 137 134 132 128 126 124 122 119 117 114 
112 94 99 101 102 103 106 110 112 115 118 121 128 85 71 102 133 129 146 136 
135 134 130 126 124 123 121 117 114 112 109 94 97 99 100 102 104 107 109 112 
115 118 126 91 56 85 120 121 146 135 133 132 129 124 122 121 118 114 111 108 
105 92 95 96 98 99 101 103 106 109 112 116 124 111 63 97 132 127 141 134 129 
127 124 124 122 120 116 113 109 106 103 95 97 94 95 96 98 102 105 107 110 114 
125 103 42 88 134 100 82 166 154 152 139 121 120 119 115 111 109 105 102 69 72 
84 89 90 91 93 97 104 108 109 105 78 61 85 91 107 135 203 182 182 186 168 118 
116 114 110 107 104 101 12 8 18 20 21 20 19 25 65 108 106 94 68 79 90 89 157 
216 213 206 186 185 199 161 112 114 109 105 103 99 14 11 4 5 6 5 4 16 55 108 
122 103 91 100 108 127 163 189 203 206 196 191 181 202 149 99 108 104 101 97 
14 14 7 8 9 7 7 20 68 100 136 115 105 108 121 134 145 164 192 196 198 197 177 
176 194 141 106 103 100 95 14 13 5 8 8 10 11 32 80 79 135 121 117 106 115 125 
136 149 169 188 197 199 183 149 190 195 151 101 97 92 14 12 6 6 10 11 7 47 84 
66 112 119 115 119 121 125 129 136 149 169 183 192 156 111 168 169 144 140 95 
87 13 10 8 9 9 11 11 60 88 63 84 109 105 115 119 124 122 128 140 150 183 192 
128 46 112 111 117 159 108 80 13 9 8 9 9 11 13 68 100 68 69 90 101 113 115 117 
110 112 135 150 190 194 148 72 59 83 104 149 129 76 14 12 7 7 7 5 22 76 106 
76 62 78 88 102 120 119 118 121 131 155 187 188 145 113 53 73 92 138 159 90 
