P2
30 23
255
122 129 134 138 142 147 151 157 162 167 171 174 176 177 179 180 182 187 188 
189 189 190 188 186 184 181 178 175 170 163 123 128 133 137 141 145 149 154 
159 164 169 173 174 174 175 178 180 183 185 186 186 186 185 183 180 179 175 
172 164 156 121 127 132 136 140 144 147 151 156 161 167 171 175 176 176 178 
180 181 182 182 182 183 182 180 177 174 170 164 157 147 107 111 115 118 122 
125 129 133 137 141 146 149 152 154 156 158 159 159 160 159 159 158 157 155 
152 149 144 139 133 124 99 104 107 110 113 116 120 124 128 132 136 138 141 143 
145 147 150 151 151 152 152 151 151 149 147 144 140 137 131 123 102 108 111 
114 119 122 125 128 132 137 141 144 147 149 151 153 155 155 156 156 156 155 
154 153 151 147 143 140 136 129 103 108 113 117 122 125 128 132 136 140 144 
147 152 157 156 156 159 164 161 157 158 156 155 154 152 149 145 141 137 132 
105 109 114 119 124 127 132 136 139 144 147 154 147 116 120 127 144 148 162 
161 159 157 156 155 153 150 146 142 138 133 105 110 115 120 124 129 134 139 
143 147 152 153 80 65 92 98 126 128 130 160 161 159 157 155 153 150 146 142 
138 134 106 111 116 120 125 130 136 141 146 149 162 113 32 52 92 120 130 154 
116 146 165 160 158 156 153 150 146 142 138 134 106 112 117 122 127 132 138 
143 148 151 166 93 35 69 95 111 158 177 122 141 167 161 157 156 152 149 145 
140 138 134 107 112 117 122 127 133 139 143 149 152 166 90 34 67 91 119 178 
218 159 133 168 161 157 155 151 147 143 139 135 131 106 112 117 123 127 133 
139 144 149 155 158 60 35 55 85 139 192 231 222 168 167 162 157 153 150 146 
141 137 134 128 108 113 118 124 129 135 140 145 149 154 163 67 32 57 81 127 
183 212 209 181 167 163 158 153 149 144 140 136 132 126 109 114 119 123 130 
136 141 145 150 154 169 91 29 66 83 128 192 210 203 174 168 162 158 153 149 
143 138 134 129 123 109 114 119 123 129 136 141 145 149 153 170 138 30 46 68 
123 149 181 189 172 166 161 157 153 149 143 137 132 125 119 109 114 118 123 
128 134 140 147 157 163 159 100 32 52 37 110 123 137 172 165 169 163 156 152 
148 142 136 130 123 116 107 110 113 116 121 131 145 139 113 80 45 22 30 62 39 
128 166 183 128 115 128 147 155 154 148 141 135 129 122 115 104 111 114 116 
121 116 89 51 32 29 26 22 33 44 36 123 128 128 105 113 105 104 117 131 140 140 
133 127 120 113 30 54 58 58 59 48 34 37 36 32 31 22 29 34 52 95 91 97 63 119 
115 101 114 116 110 135 131 125 118 110 4 3 3 3 4 32 39 41 35 33 31 31 33 50 
72 108 112 94 46 112 109 86 119 128 108 125 129 121 115 108 9 10 10 10 19 36 
35 35 41 46 32 49 54 62 136 212 103 64 39 96 114 85 104 130 110 127 126 117 
111 104 7 7 9 10 23 30 32 31 42 51 32 58 49 55 144 126 65 73 28 70 124 91 97 
124 107 124 120 113 106 98 
