P2
30 23
255
113 120 125 130 134 138 142 146 151 157 161 164 165 166 168 169 172 175 176 
177 177 177 177 175 173 171 168 164 159 152 113 119 124 128 132 136 139 143 
148 154 158 162 164 164 165 167 169 171 173 174 175 174 174 172 169 168 165 
160 153 146 112 118 122 126 131 135 138 142 146 151 157 160 163 164 165 166 
169 170 171 171 172 172 171 169 166 163 159 153 147 138 100 104 107 110 113 
117 120 125 128 131 136 140 143 144 146 148 148 148 149 148 148 148 147 145 
142 139 134 129 123 115 92 96 100 102 105 107 111 114 117 121 125 129 132 133 
135 136 138 139 140 140 140 139 139 138 137 134 130 126 121 114 95 100 102 105 
109 112 114 117 122 126 131 135 137 139 143 143 144 145 145 145 144 143 142 
141 139 137 134 130 125 119 96 101 104 108 111 114 117 121 125 129 135 137 142 
141 132 137 143 149 148 146 146 145 143 142 140 138 135 131 127 121 97 102 105 
109 113 116 121 125 129 134 137 141 139 83 86 127 165 148 145 150 148 146 145 
143 141 139 136 132 128 123 97 102 106 109 114 118 123 128 133 137 138 149 93 
43 83 130 181 158 114 152 150 147 146 144 142 139 136 132 128 123 99 103 107 
110 115 120 125 131 136 139 142 149 63 51 91 136 191 214 141 146 153 149 146 
144 142 139 136 132 128 124 99 103 107 112 116 121 127 132 138 141 147 141 52 
45 57 137 150 159 185 148 154 150 146 144 141 138 135 131 126 123 99 103 108 
112 116 122 128 133 138 141 150 138 50 72 77 140 133 158 197 162 153 150 146 
143 140 137 133 129 124 121 99 103 108 112 117 122 128 134 138 142 150 142 49 
91 66 148 169 201 189 161 154 150 146 142 139 136 131 127 122 118 100 104 108 
113 119 124 129 135 139 143 148 153 74 64 47 141 153 163 191 156 155 150 146 
142 139 135 130 126 120 116 101 105 108 113 119 124 130 135 139 144 147 161 
100 51 66 155 164 161 171 158 155 150 146 142 138 133 128 123 119 113 101 104 
109 113 118 124 131 136 139 143 146 164 120 29 81 166 196 181 160 157 154 150 
146 142 138 133 126 121 115 109 100 104 108 112 117 123 130 135 142 151 158 
148 70 34 68 130 169 164 161 159 155 149 144 141 138 133 126 120 114 108 98 100 
103 106 111 119 132 141 133 112 83 38 31 87 84 114 83 148 120 124 138 148 146 
142 137 132 125 119 113 107 95 102 105 108 111 115 108 80 51 38 31 25 28 61 106 
72 69 141 91 108 98 108 123 134 136 130 124 118 111 104 29 51 55 56 55 55 45 
40 46 37 42 38 40 54 75 99 121 137 66 119 100 96 106 106 115 130 121 115 110 
103 4 2 3 3 1 19 46 48 52 47 45 41 55 68 120 213 132 82 63 113 91 92 114 113 
101 126 118 113 108 101 8 9 10 10 11 32 42 42 40 63 48 46 59 51 144 163 79 79 
46 104 104 84 115 116 107 124 116 109 104 98 7 7 9 8 15 29 32 38 32 58 47 47 
56 41 86 72 74 74 31 86 115 87 115 113 108 119 112 106 100 92 
