P2
30 23
255
100 105 109 113 117 121 126 130 135 139 142 145 146 148 150 151 152 156 157 
158 159 159 158 156 154 151 149 145 141 136 100 104 108 112 116 119 123 127 
132 137 140 143 145 145 147 148 150 152 154 155 155 156 155 152 150 149 146 
142 136 130 99 104 107 110 114 118 121 125 129 135 140 142 144 145 146 148 149 
151 152 152 152 153 152 150 148 145 141 137 130 122 88 92 94 98 100 103 106 
110 113 116 120 124 126 127 129 130 131 131 132 132 131 130 130 128 125 122 
118 113 108 102 80 84 87 90 92 95 98 100 103 106 109 112 114 116 117 120 122 
123 123 123 124 123 122 122 120 117 114 110 105 100 83 88 90 93 97 99 101 103 
106 110 114 117 120 121 125 127 129 129 129 128 128 127 126 125 123 120 117 
113 109 104 84 88 92 96 99 101 103 106 109 113 117 120 123 129 121 117 119 126 
132 130 130 129 127 126 124 122 118 114 111 106 85 89 93 97 100 102 105 109 
112 117 121 124 129 86 55 85 103 114 124 130 132 130 128 127 125 122 119 115 
112 107 85 90 94 97 100 103 107 112 115 120 122 132 98 32 60 87 110 154 120 
113 135 131 129 128 126 123 119 116 112 107 86 90 94 98 101 104 109 114 118 
123 125 137 76 33 60 84 131 177 146 100 134 133 130 128 125 122 119 115 111 
108 87 91 95 99 102 106 111 115 121 125 128 138 66 34 61 94 145 204 209 130 
132 134 129 127 125 122 118 114 111 107 87 92 95 99 102 106 111 116 121 125 
133 121 38 40 71 95 154 201 208 161 133 134 129 127 124 120 116 112 109 105 
87 92 96 100 102 106 112 116 122 125 135 119 35 37 61 98 151 201 198 153 136 
134 129 126 122 119 114 110 107 103 88 92 96 100 104 108 113 117 121 126 132 
132 47 36 44 60 115 102 164 150 136 134 130 126 122 117 113 109 105 102 89 93 
96 100 104 109 113 118 122 128 130 143 75 36 63 64 155 132 163 141 137 134 129 
125 121 116 111 108 104 100 89 93 97 100 104 109 114 119 123 127 130 148 93 34 
56 64 152 164 159 136 137 133 129 126 121 116 111 106 102 97 89 93 96 100 103 
107 113 118 126 134 140 127 44 37 42 71 129 128 146 139 139 132 127 125 121 
115 110 105 101 95 87 89 92 94 98 104 116 122 114 93 66 29 27 30 39 100 132 
130 117 103 119 129 129 125 120 114 110 104 100 94 84 89 93 95 98 101 91 63 38 
28 23 17 27 50 49 70 60 89 83 92 85 92 106 116 118 113 108 103 99 93 26 46 49 
49 50 48 35 32 35 30 32 27 24 42 72 37 60 120 54 100 93 83 92 94 98 112 106 
102 97 91 3 2 2 3 1 18 36 38 38 34 33 34 43 54 80 154 126 83 45 95 88 75 99 103 
88 107 104 99 95 89 7 8 9 8 10 28 33 34 34 51 36 40 52 49 116 183 80 63 37 81 
96 72 95 107 92 107 102 97 92 86 6 6 7 7 14 25 27 31 29 52 36 42 48 36 94 85 
59 66 28 58 104 76 92 104 92 105 99 94 88 80 
