P2
30 23
255
86 90 93 95 98 100 102 104 107 110 113 116 115 116 115 116 117 119 119 120 121 
121 121 120 119 118 114 112 109 106 89 92 95 98 101 102 104 106 109 112 115 
117 121 119 118 119 120 121 122 123 123 123 122 122 120 119 116 113 111 108 
91 94 97 99 102 103 106 108 111 114 117 119 123 122 120 122 123 124 124 124 
124 124 123 122 122 120 118 114 113 112 92 96 98 101 102 104 107 110 112 115 
118 120 121 124 124 127 125 125 126 126 125 124 124 123 122 120 118 116 115 
113 94 97 100 102 103 105 108 111 114 117 120 122 124 125 125 129 129 127 127 
126 126 125 124 123 122 121 119 117 115 112 94 98 100 102 104 106 109 111 114 
118 120 124 121 127 128 129 130 131 129 128 126 125 124 123 123 123 120 117 
115 113 94 98 101 103 104 106 109 112 115 118 123 99 97 116 105 116 132 129 
131 128 127 125 123 123 124 121 118 116 114 112 94 98 101 102 104 107 110 112 
115 120 114 65 107 90 118 91 126 132 130 128 127 125 124 122 121 119 117 115 
112 110 93 97 99 101 103 106 109 111 113 121 98 55 98 114 139 114 123 136 133 
128 127 125 122 120 119 118 115 113 110 108 93 97 99 100 102 104 107 110 111 
119 95 59 83 123 162 152 131 132 134 129 126 123 121 118 117 115 113 111 108 
106 92 96 98 99 101 103 106 108 109 115 101 54 93 141 169 145 122 133 133 128 
125 122 119 116 115 113 110 108 106 104 91 94 96 98 99 101 103 105 107 110 114 
60 75 134 169 134 116 134 129 126 124 120 117 114 113 111 108 106 103 101 89 
93 94 95 96 98 100 102 104 107 114 99 50 127 197 139 95 129 123 121 119 118 
116 113 112 110 106 103 101 99 92 95 92 93 94 95 99 102 103 104 110 111 61 99 
169 121 71 140 152 144 139 121 112 113 110 108 105 103 100 97 64 66 78 84 84 
85 87 90 98 102 103 83 66 86 92 121 161 179 169 173 175 170 129 106 109 106 
103 101 99 95 6 6 13 14 15 15 15 20 62 104 97 81 76 95 102 152 185 181 173 178 
178 178 182 135 103 108 102 100 97 93 5 7 3 2 3 4 3 17 70 126 118 104 109 128 
136 161 168 181 182 176 187 175 164 186 110 91 103 98 95 91 5 6 5 4 6 7 4 29 
78 123 128 110 104 115 132 148 164 171 183 182 186 180 133 178 172 118 100 97 
93 88 12 8 4 4 7 10 10 48 71 100 130 110 111 114 125 135 147 153 166 170 182 
178 110 151 184 173 130 92 91 85 13 14 10 6 10 10 11 61 71 73 118 109 105 114 
117 127 131 138 152 163 178 172 86 106 161 119 141 125 84 82 10 12 14 13 10 7 
21 75 73 57 83 105 105 106 104 123 122 130 155 172 181 180 81 54 100 84 121 
149 94 75 11 11 11 13 15 10 20 89 84 65 58 82 100 98 101 121 120 123 140 174 
184 170 120 45 58 77 97 140 123 71 10 10 10 12 14 11 29 86 101 67 49 69 83 88 
105 108 111 119 140 182 185 164 150 73 45 70 87 127 148 90 
