P2
30 23
255
112 118 122 127 132 136 140 144 149 154 159 162 163 165 167 168 170 173 174 
176 176 176 175 174 171 170 167 163 158 151 111 117 122 126 131 134 138 141 
146 152 157 160 162 162 164 165 167 170 172 173 173 173 173 170 169 167 164 
159 152 144 110 116 120 124 129 133 137 140 144 149 155 158 161 163 164 165 
167 169 170 170 170 171 170 168 166 163 158 153 146 137 99 103 106 109 112 115 
120 124 127 130 135 139 142 144 146 147 148 148 149 148 148 147 147 145 143 
139 134 129 122 114 91 95 99 101 104 106 110 113 117 121 125 128 131 133 135 
136 138 139 139 140 140 139 139 138 137 134 130 126 120 113 94 99 102 105 108 
111 113 116 121 126 130 134 136 137 139 141 144 144 144 144 144 143 142 141 
139 137 134 130 125 118 95 100 103 107 111 113 117 120 124 129 134 137 139 145 
143 142 143 148 150 145 146 144 143 142 140 138 136 132 127 121 96 101 104 109 
112 115 120 124 128 133 137 140 143 105 97 99 117 128 139 149 147 146 145 143 
141 139 136 133 127 122 96 101 105 109 113 117 122 127 132 136 138 147 90 36 
66 101 111 129 117 136 150 147 145 143 142 139 136 133 128 123 97 102 106 110 
114 119 124 130 135 138 144 137 41 46 75 98 124 159 117 121 151 149 146 144 
141 139 136 132 128 123 98 103 107 111 115 121 126 132 137 140 148 133 38 50 
76 99 144 190 149 110 150 149 145 144 141 139 135 131 127 122 98 102 106 111 
115 121 127 132 138 140 151 116 33 47 67 108 163 213 217 140 150 149 145 143 
140 137 133 129 124 120 98 103 107 111 115 121 127 133 138 140 154 86 27 50 70 
110 165 207 212 176 152 150 145 142 139 136 131 127 122 118 100 103 108 112 
118 123 128 133 138 140 155 101 25 54 79 109 171 204 201 165 154 151 146 141 
138 135 130 125 121 116 100 104 108 112 118 124 129 134 138 141 152 125 32 39 
56 104 144 180 187 164 154 150 146 141 138 133 128 123 118 113 100 104 108 112 
117 124 130 135 138 141 148 157 53 41 43 73 121 100 169 158 152 149 145 141 
138 132 126 121 115 109 100 104 107 111 116 122 128 135 144 150 151 115 34 55 
53 84 169 170 163 154 156 149 143 140 137 132 125 119 113 107 98 101 103 105 
110 118 133 134 114 85 54 22 28 52 32 84 130 136 128 106 124 140 145 142 136 
130 124 118 111 105 95 102 105 107 110 110 91 56 33 27 25 19 30 35 38 101 120 
97 96 101 94 96 111 125 133 129 122 116 110 104 29 52 56 55 56 49 33 34 35 31 
31 23 25 38 52 69 68 100 57 106 106 91 101 103 103 125 119 114 108 102 4 2 2 3 
1 25 38 38 36 31 31 32 35 51 73 102 113 100 45 99 101 79 107 114 97 115 118 
110 106 99 8 9 10 9 14 33 33 34 37 48 32 44 53 59 115 208 102 62 38 83 107 81 
98 118 100 115 114 107 102 96 7 7 8 8 18 28 29 32 35 53 33 48 48 45 119 119 
60 69 30 57 114 86 94 115 98 113 110 104 97 90 
