P2
30 23
255
112 118 123 128 132 136 140 145 150 155 159 161 163 164 166 167 169 172 174 
175 175 175 175 173 170 168 166 162 156 150 112 117 122 126 131 134 138 141 
146 152 156 159 162 162 163 165 166 169 170 172 172 172 171 169 167 165 162 
158 151 144 111 116 120 124 129 133 137 140 144 149 155 158 161 162 163 164 
166 167 168 168 169 169 168 167 164 161 156 152 145 136 99 103 106 109 112 115 
120 123 126 130 135 138 141 143 145 146 147 147 147 147 146 146 145 143 140 
137 132 127 121 113 91 95 98 101 102 106 109 112 115 119 123 127 129 131 133 
135 137 137 137 137 138 137 137 136 134 131 127 124 118 111 93 98 102 104 108 
111 112 115 120 124 129 132 135 136 137 139 140 141 142 142 141 141 140 139 
137 135 131 127 122 116 95 99 102 106 110 112 115 119 123 128 132 135 137 141 
144 143 147 147 144 143 143 142 141 139 138 136 132 129 124 119 96 100 104 108 
111 115 119 123 127 132 136 138 143 133 126 133 140 149 159 149 143 143 142 
140 139 137 133 129 125 120 96 101 105 108 112 116 121 126 131 135 138 144 131 
72 83 95 120 136 123 149 148 144 143 141 139 137 133 129 125 121 97 102 105 
109 113 118 124 128 134 138 140 146 69 39 70 95 100 128 127 120 151 145 144 
142 139 136 133 129 125 121 97 102 106 110 114 120 125 130 136 139 145 134 39 
38 57 102 127 145 149 112 150 148 143 141 139 136 132 128 124 120 98 102 106 
110 114 120 126 132 137 140 148 135 38 50 78 97 113 173 168 113 151 149 142 
140 138 135 130 126 121 117 98 102 107 111 115 121 127 132 137 139 152 103 31 
45 67 93 129 188 211 144 143 150 143 140 137 133 129 124 120 116 100 103 108 
112 117 122 128 133 137 139 154 90 26 43 57 93 146 195 219 198 157 147 144 140 
137 132 127 123 118 114 100 104 108 112 117 123 129 134 138 141 153 112 26 44 
60 84 133 185 203 182 154 147 144 140 136 131 125 121 116 111 100 105 109 112 
117 123 130 134 137 141 151 148 41 39 68 88 141 197 203 173 150 148 143 140 
136 131 124 119 113 108 101 104 108 112 116 122 128 136 145 150 147 104 34 34 
40 75 117 136 169 156 153 149 142 139 136 130 123 118 112 106 99 101 103 106 
110 119 133 130 107 76 46 20 27 42 49 47 138 131 147 110 119 135 142 141 136 
129 123 117 111 105 97 103 106 107 111 108 85 49 30 27 25 20 25 42 43 57 147 
149 148 103 102 100 110 122 129 128 121 116 110 103 31 54 58 57 58 47 31 33 33 
30 29 20 24 33 31 71 112 87 86 106 116 99 107 111 106 121 120 114 108 102 3 2 
3 2 2 27 36 37 33 27 28 25 25 37 43 77 98 96 42 100 113 82 112 122 108 112 119 
110 106 99 8 9 10 9 15 33 32 34 35 42 31 36 43 54 85 181 130 62 36 86 115 85 
100 126 109 115 118 107 102 97 7 7 8 8 19 29 29 32 34 49 32 47 52 50 123 173 
74 58 32 60 121 92 92 124 104 117 114 104 99 91 
