P2
30 23
255
110 117 122 126 130 134 139 143 147 152 156 159 161 162 164 165 167 170 172 
173 174 174 173 171 168 166 164 160 154 149 111 116 121 125 129 132 136 140 
144 150 154 157 159 160 161 162 164 167 168 170 171 170 169 167 165 163 160 
155 149 142 109 115 118 122 127 132 135 139 142 147 152 156 159 160 160 162 
164 165 166 166 167 167 166 165 162 159 155 149 143 135 97 101 105 107 110 113 
117 121 124 128 132 136 138 140 142 144 144 145 145 145 144 144 143 141 138 
135 130 125 119 111 89 94 97 99 101 104 107 110 113 117 121 124 127 129 131 
133 135 136 136 136 137 136 136 135 133 130 126 122 116 110 92 97 100 103 106 
109 111 113 118 122 127 130 133 134 137 140 140 141 140 140 140 139 139 138 
136 133 129 126 121 115 93 97 101 105 108 110 114 117 121 126 130 133 136 143 
137 133 135 141 146 142 141 140 139 138 137 134 131 127 122 117 94 98 102 106 
110 112 117 121 125 129 134 137 142 98 77 99 111 128 137 144 143 141 140 139 
138 135 132 128 123 118 94 99 103 107 111 114 119 124 128 133 135 145 99 35 60 
98 119 145 129 129 146 143 141 139 138 135 132 128 123 119 95 100 104 107 111 
115 121 127 131 136 138 146 63 42 76 97 129 186 142 116 148 144 142 140 138 
135 131 127 123 119 96 101 104 108 112 117 123 128 134 138 140 147 60 42 66 97 
155 205 202 123 146 145 141 140 138 135 131 127 122 118 96 100 105 108 112 118 
124 129 134 137 145 126 41 46 69 107 162 220 235 175 147 146 141 139 137 133 
128 125 120 116 96 101 105 109 112 118 124 129 134 137 149 111 30 51 80 106 
169 210 213 179 149 146 141 138 135 131 127 122 118 114 98 101 105 110 114 120 
125 130 135 138 147 128 36 41 64 106 160 208 209 170 149 146 142 138 135 130 
125 121 117 112 98 102 106 110 115 121 126 131 136 140 143 148 62 39 47 66 125 
101 174 162 149 146 141 138 134 129 124 119 115 109 99 102 106 109 114 121 127 
131 135 139 142 163 82 41 65 70 175 163 178 151 149 145 141 138 134 129 123 
117 112 106 98 102 105 109 113 119 125 132 141 148 150 125 41 45 51 73 158 164 
162 150 151 145 139 137 134 128 122 116 111 105 97 98 101 103 107 116 130 133 
118 91 61 26 27 44 38 85 143 139 131 111 126 139 142 139 133 127 121 115 110 
104 94 101 103 105 108 109 94 61 37 29 25 20 31 39 37 108 125 103 92 106 99 102 
114 126 131 126 120 114 108 102 29 51 55 54 55 50 35 35 37 32 33 27 26 41 57 
48 57 112 58 110 110 95 105 107 107 124 118 112 107 100 4 2 2 3 1 24 39 41 39 
34 34 36 42 58 85 128 131 101 46 102 106 83 111 119 102 117 116 109 104 98 8 9 
10 9 13 33 35 36 39 54 36 47 57 60 122 214 105 66 38 84 113 84 103 123 105 119 
113 107 101 96 6 7 8 8 17 28 30 33 35 58 36 50 51 43 115 116 64 73 32 57 120 
91 99 121 103 118 110 104 98 90 
