P2
30 23
255
109 115 119 125 128 133 137 141 146 150 154 157 159 160 162 163 164 168 169 
171 171 171 170 168 165 163 161 157 152 146 109 114 118 123 127 131 134 139 
142 147 152 155 157 157 159 160 162 165 166 167 168 167 167 164 162 161 157 
153 147 140 107 113 117 121 125 130 133 137 141 145 150 154 157 158 158 160 
162 163 164 163 164 164 164 162 160 156 152 147 140 133 96 100 103 106 108 112 
115 119 122 126 130 133 136 138 140 141 142 142 143 142 142 141 140 138 135 
132 127 122 117 110 88 93 95 98 101 103 106 108 112 115 119 122 125 127 129 
131 133 135 134 135 135 134 133 132 130 127 124 120 114 108 91 96 99 102 105 
107 109 112 116 120 125 128 131 132 134 136 137 138 138 138 138 138 137 135 
133 130 127 123 119 113 92 96 100 103 107 109 112 115 119 124 128 132 134 139 
141 140 142 143 143 139 139 138 138 136 135 132 128 125 120 115 93 97 101 105 
108 111 115 119 123 127 132 134 141 123 112 119 130 140 149 145 140 139 138 
138 136 133 129 125 121 117 93 98 102 105 109 113 117 122 127 131 135 142 120 
59 74 88 105 128 116 139 143 140 139 138 136 133 129 125 121 117 94 99 103 106 
110 114 119 125 130 134 137 142 62 32 57 98 109 130 134 114 146 141 139 138 
136 133 129 125 121 117 95 100 103 107 111 116 121 127 132 136 141 136 43 43 
67 95 121 159 148 112 148 143 139 138 136 132 128 124 120 116 95 100 104 107 
111 116 122 127 133 137 143 135 42 45 72 93 115 183 187 114 144 144 139 138 
135 130 126 122 118 114 95 100 104 108 111 117 123 128 133 136 148 100 30 42 
58 92 148 193 225 174 145 144 139 137 133 129 124 120 116 112 97 101 105 109 
114 119 124 129 134 136 149 101 25 43 58 90 136 193 212 192 152 143 140 136 
132 128 123 119 115 110 98 102 105 109 114 120 125 130 135 138 147 123 31 43 
68 85 143 193 202 175 147 144 140 137 132 127 122 117 113 108 98 102 106 109 
114 120 126 131 134 138 144 155 56 30 53 89 131 179 192 163 145 144 139 136 
132 127 120 115 110 105 98 102 105 109 113 118 125 132 142 146 144 106 37 38 
41 51 120 101 155 151 149 144 138 136 132 127 120 114 109 103 96 99 101 103 
107 116 129 128 107 77 47 21 25 43 55 54 155 164 156 106 118 133 139 138 132 
125 120 113 108 102 94 100 103 104 108 106 84 50 30 26 25 20 26 43 34 62 130 
113 137 102 100 98 109 120 127 124 118 112 106 101 28 50 54 53 54 46 31 33 33 
29 29 21 24 31 33 77 104 88 74 106 113 96 105 109 104 119 116 111 106 99 4 2 2 
2 1 25 36 37 34 28 29 27 27 40 49 83 102 95 40 99 110 81 110 120 104 111 115 
108 103 97 8 9 10 9 14 32 32 34 35 43 31 38 47 55 92 196 128 59 35 84 113 84 
99 124 106 115 113 104 100 94 6 7 8 8 18 28 29 31 33 51 33 47 52 47 120 155 
67 61 31 57 119 91 93 121 102 116 110 102 96 89 
