P2
30 23
255
85 90 92 95 98 100 102 103 107 109 113 116 115 116 115 115 117 118 119 120 121 
121 121 120 118 117 114 112 109 105 89 92 95 97 100 102 104 106 108 111 115 
117 121 119 118 119 119 121 122 123 124 123 122 121 120 119 116 114 111 108 
91 94 96 99 102 103 105 108 110 113 117 119 123 121 120 122 122 124 124 124 
124 124 122 122 121 120 118 115 112 111 92 96 98 101 102 104 106 109 112 115 
118 120 122 124 123 126 125 125 126 126 125 124 123 123 122 121 118 116 116 
113 94 97 100 102 103 105 108 110 114 117 119 122 123 124 126 132 130 127 127 
126 126 125 124 123 122 121 118 117 115 113 94 98 100 102 104 106 109 111 114 
117 120 123 125 130 122 114 129 132 130 127 126 125 124 123 123 122 119 117 
115 113 94 98 101 103 105 107 109 112 115 118 120 123 127 125 89 110 116 115 
124 129 127 125 123 123 123 120 118 116 114 112 94 98 101 102 104 107 110 112 
114 118 121 122 132 88 81 116 101 119 99 130 126 125 124 122 120 119 116 114 
112 110 94 97 100 101 103 106 109 111 114 117 120 124 123 79 77 114 155 141 
93 126 127 124 122 120 119 117 114 112 110 108 94 97 98 100 102 105 108 110 
113 115 118 124 118 70 100 133 182 159 123 128 126 123 120 118 117 114 112 110 
108 106 92 96 98 99 101 103 106 108 111 113 115 121 117 61 104 148 170 145 129 
127 125 122 118 116 114 113 110 108 106 104 91 94 96 97 99 101 103 106 108 111 
113 116 124 70 86 150 161 111 118 127 123 120 117 114 113 111 108 105 103 101 
89 92 94 95 96 98 100 103 106 109 111 113 123 69 84 181 152 109 121 121 119 
117 116 113 111 109 105 103 101 99 92 94 91 91 93 95 99 103 104 106 108 113 
111 72 92 150 128 72 145 139 132 120 111 113 110 108 105 103 100 97 66 67 79 
84 85 87 89 93 101 103 105 106 80 76 104 96 140 141 182 167 170 167 139 106 
109 106 103 102 98 95 6 7 14 16 17 17 16 23 61 110 112 104 80 81 98 107 161 
194 179 174 177 176 184 144 104 108 102 100 97 93 5 7 3 2 3 4 3 16 56 109 134 
118 110 120 128 148 174 182 185 177 180 179 172 185 122 92 104 98 95 91 5 6 6 
4 5 6 5 20 73 96 137 121 115 115 125 146 165 173 186 179 180 186 159 164 176 
113 96 97 93 88 13 8 4 4 6 10 10 36 81 78 125 116 112 111 127 131 152 160 167 
176 178 186 150 132 185 177 136 93 91 85 13 14 10 6 10 11 8 55 81 70 103 112 
99 113 121 114 140 143 151 163 167 182 123 93 165 159 140 123 85 82 10 12 14 
13 10 10 13 73 81 66 79 97 97 110 99 108 136 128 147 165 177 180 117 41 116 
99 107 150 103 74 10 11 11 13 14 10 16 84 94 76 62 79 86 95 86 121 130 123 149 
165 178 174 121 37 62 71 94 132 129 72 10 10 10 12 15 11 28 82 108 81 55 70 72 
78 98 119 118 128 137 170 176 154 139 70 43 66 82 121 148 94 
