P2
30 23
255
106 112 116 121 125 130 134 138 143 148 151 154 156 157 159 160 162 165 166 
168 169 169 167 165 162 160 158 154 149 143 106 111 115 120 124 128 132 136 
140 145 149 153 155 154 156 157 159 162 163 164 165 165 164 161 159 158 154 
150 143 138 105 110 114 118 123 127 130 134 138 143 148 151 154 155 156 157 
159 160 161 161 162 162 161 159 157 154 149 145 138 131 93 98 101 104 107 110 
114 118 121 124 129 132 135 137 138 139 140 141 141 141 140 140 138 136 133 
130 126 121 115 108 86 90 93 96 99 101 103 106 109 112 116 120 122 124 126 128 
130 132 132 132 132 132 130 130 128 124 121 117 111 105 89 94 96 99 103 105 
107 110 113 117 122 125 128 130 132 134 136 137 137 136 136 135 134 133 130 
128 124 120 116 110 90 94 98 101 104 106 109 113 116 120 125 129 132 134 135 
138 138 139 139 138 138 137 135 134 131 129 125 122 118 112 91 95 99 102 105 
108 112 116 120 125 129 132 136 137 142 137 140 142 141 139 138 137 136 135 
133 130 126 122 118 114 91 96 100 103 106 110 114 119 123 128 132 135 138 144 
108 108 156 151 143 142 140 139 137 135 133 130 126 122 118 114 93 96 101 103 
107 111 116 121 126 131 135 137 145 104 48 132 144 139 131 143 141 139 138 136 
133 130 126 122 119 115 93 97 101 104 108 112 117 123 129 134 137 142 138 67 
64 132 138 172 149 139 144 140 137 136 133 130 125 121 118 114 93 97 101 104 
108 113 118 124 129 134 137 147 122 63 77 136 174 201 166 141 144 140 137 135 
132 127 123 119 115 112 93 97 101 105 108 114 119 124 130 135 137 150 109 43 
88 167 195 205 182 151 143 141 137 134 130 126 121 118 113 109 94 98 101 105 
110 115 120 125 130 135 138 149 115 36 78 143 186 188 175 152 144 141 137 133 
129 125 121 117 112 108 95 99 102 105 110 116 121 126 131 136 139 146 141 48 
74 136 168 156 150 149 145 140 137 134 129 124 118 114 110 106 95 99 102 105 
110 116 122 127 132 136 138 147 131 37 73 173 191 155 143 149 144 140 137 134 
129 124 117 112 108 103 94 97 101 105 109 115 122 126 131 138 145 155 102 64 
90 162 148 188 156 148 143 139 136 133 129 123 117 112 106 101 92 94 96 99 103 
110 121 130 136 133 115 72 36 60 89 87 83 187 122 133 140 142 137 132 128 123 
116 111 105 100 89 94 98 100 103 110 114 103 77 52 40 30 39 77 72 128 143 148 
79 104 101 113 126 131 127 121 115 110 104 99 29 50 54 54 54 56 53 42 45 38 47 
43 49 78 125 215 132 87 78 105 87 91 99 100 117 120 113 108 103 97 3 3 3 3 2 5 
37 41 41 58 56 39 55 56 107 132 76 91 62 102 89 86 106 95 102 119 110 105 101 
95 8 9 9 10 8 16 37 34 28 52 54 42 56 58 54 64 76 75 55 90 102 84 111 100 106 
110 109 103 98 92 6 7 8 9 8 21 28 31 29 39 52 45 60 64 46 76 63 66 50 77 110 
89 109 102 109 104 106 100 94 86 
