P2
30 23
255
94 98 101 103 106 108 111 113 116 119 122 124 125 127 127 128 128 129 130 131 
132 132 132 131 129 128 125 122 119 115 97 101 102 105 109 111 113 116 118 121 
125 126 129 130 129 132 132 132 133 134 134 134 133 132 131 129 126 124 121 
118 99 102 104 107 110 112 115 118 120 124 128 129 132 131 131 135 136 134 135 
135 135 135 134 133 132 131 128 125 123 121 100 103 106 109 111 113 117 120 
123 126 129 131 132 135 135 138 139 138 136 137 136 135 135 134 133 131 128 
127 126 123 101 104 108 110 113 115 118 122 125 128 130 133 135 130 126 137 
135 135 139 137 137 136 135 134 133 131 129 127 124 122 102 105 108 110 113 
116 119 122 125 128 132 133 96 82 90 115 108 101 126 140 137 136 136 135 134 
133 129 126 124 122 102 105 108 111 113 116 120 122 125 128 135 83 54 66 58 76 
92 86 108 138 137 136 135 135 135 131 128 126 123 121 101 105 108 110 113 115 
119 122 124 134 105 40 51 58 62 69 84 86 106 139 137 136 135 133 131 129 126 
124 121 119 101 104 106 108 111 114 117 121 123 133 71 42 79 80 75 79 83 89 109 
134 138 136 133 132 130 127 125 122 118 116 101 103 105 107 110 113 116 119 
121 130 70 57 84 96 93 86 102 95 110 138 138 134 132 129 127 125 122 119 116 
113 101 103 104 105 107 110 114 117 119 128 81 59 65 80 108 116 110 83 103 134 
137 132 129 126 124 123 120 117 114 111 99 102 103 104 105 107 111 114 116 126 
92 57 83 104 125 147 157 126 119 129 132 130 128 125 123 121 117 114 110 107 
98 100 101 102 102 104 107 111 113 121 109 52 68 91 110 131 145 138 133 134 
136 127 122 121 123 119 115 112 108 105 102 103 100 99 100 102 105 110 112 116 
122 68 58 77 97 115 134 140 131 169 174 158 152 131 116 118 114 111 108 104 
72 74 87 92 92 92 94 98 107 111 108 66 45 70 88 105 123 126 110 192 168 159 
175 174 162 113 114 110 106 102 7 7 17 19 19 17 16 23 65 105 94 75 41 57 86 63 
106 101 69 170 159 158 153 153 211 155 105 110 104 101 5 7 5 5 7 5 3 17 65 98 
95 79 52 55 106 74 109 72 88 169 141 160 142 141 171 211 132 103 104 99 9 6 7 
9 9 7 5 22 69 90 98 82 62 52 63 64 54 92 169 170 125 163 134 131 142 208 183 
103 102 98 14 9 5 8 8 10 12 30 69 77 99 94 82 80 71 67 97 140 159 139 126 168 
131 126 137 196 175 117 98 95 14 16 11 6 10 11 8 29 65 68 98 107 97 83 85 84 
104 125 143 124 132 166 127 128 137 175 153 131 92 92 12 13 15 11 8 10 14 25 
63 57 94 95 110 82 75 81 90 107 130 119 139 161 127 128 136 157 138 175 92 88 
12 12 13 15 11 9 16 25 67 49 80 96 87 107 81 70 76 89 107 119 141 153 133 130 
149 141 125 204 134 78 10 11 13 14 14 10 10 27 66 58 54 105 78 87 101 83 72 73 
86 110 126 142 137 135 151 119 121 180 188 90 
