P2
30 23
255
105 112 116 120 125 129 134 138 143 147 151 154 156 157 159 160 162 165 166 
168 169 169 167 165 163 161 159 155 150 143 105 110 115 119 124 127 131 136 
140 145 149 152 155 155 156 157 159 162 163 164 165 165 164 162 160 158 155 
151 144 137 104 110 114 118 122 127 130 134 138 142 147 151 154 155 155 157 
159 160 160 161 161 162 161 159 157 154 150 145 138 130 92 97 101 103 106 110 
113 117 120 123 128 131 134 136 137 139 139 140 140 140 139 139 138 136 133 
130 125 120 115 107 85 90 93 96 99 101 103 106 109 112 116 120 122 124 126 128 
130 131 132 132 132 132 131 130 128 125 121 117 111 105 89 94 96 100 102 104 
107 109 113 117 122 125 128 130 132 133 135 137 137 136 136 135 134 133 131 
128 124 120 115 110 90 94 98 101 104 106 109 113 116 121 125 129 132 134 135 
137 138 139 138 138 138 137 135 134 132 129 126 122 117 112 91 95 99 102 105 
108 112 116 120 124 129 132 136 137 140 143 141 141 140 139 138 138 137 135 
133 130 127 123 118 114 91 96 100 103 106 110 113 118 123 128 132 135 138 143 
137 115 138 153 143 141 140 138 137 136 133 130 127 123 118 114 92 96 100 103 
106 111 116 121 126 130 134 137 143 133 76 87 154 171 141 142 142 139 138 136 
133 130 126 122 119 114 93 97 101 104 107 112 117 123 128 133 137 138 151 93 
58 77 131 136 145 137 144 140 137 136 133 130 125 122 117 114 93 97 101 104 
108 112 118 123 129 134 138 142 145 67 78 87 146 180 171 138 145 140 137 135 
132 128 124 119 115 111 93 97 101 104 108 113 118 124 129 134 137 147 125 43 
68 105 176 197 185 147 144 141 138 134 130 127 122 117 113 109 94 98 102 105 
109 115 120 125 130 135 138 145 135 46 45 113 197 200 186 156 143 141 138 134 
130 126 121 117 112 107 95 99 102 104 109 115 121 126 130 136 139 143 147 53 
45 99 164 181 159 150 145 140 137 133 129 124 119 115 110 105 94 98 101 104 
109 115 121 126 132 136 138 145 139 50 48 127 182 165 142 148 144 140 137 133 
130 124 118 113 107 102 94 97 100 104 108 114 121 125 131 138 144 154 112 69 
83 135 140 180 160 146 142 138 136 133 129 123 117 111 106 101 91 93 96 99 103 
110 120 130 135 131 115 78 38 59 84 91 79 183 134 133 142 141 137 132 127 122 
116 111 105 100 87 93 97 99 102 109 113 100 76 51 42 33 39 80 81 131 151 145 
83 103 103 116 128 131 127 120 115 109 104 99 27 47 51 52 51 53 51 41 46 42 49 
45 47 73 123 212 139 88 78 104 88 90 100 103 118 120 113 108 103 97 4 2 3 3 2 
4 36 41 38 58 62 40 52 56 91 126 75 92 63 100 91 86 105 94 102 119 110 105 101 
95 8 9 9 10 8 15 36 34 29 47 59 43 52 62 50 65 77 75 57 89 103 84 110 100 105 
109 109 103 98 92 7 7 8 9 7 20 29 30 31 35 55 46 58 68 45 77 65 64 51 77 109 
89 109 102 108 102 105 100 94 86 
