P2
30 23
255
104 110 114 119 123 128 132 137 141 145 149 152 153 155 156 157 159 163 164 
165 166 166 165 162 160 158 155 152 147 141 104 109 113 118 122 125 129 134 
138 143 147 150 152 152 153 155 157 159 160 162 162 162 161 159 157 155 152 
148 142 136 103 109 112 116 120 125 128 132 137 141 146 149 152 153 154 155 
156 158 158 158 159 159 158 157 154 151 148 142 136 129 92 97 99 102 105 108 
112 115 119 122 126 130 132 133 135 137 138 138 138 138 137 137 135 134 131 
128 123 118 113 106 84 89 92 95 97 99 102 104 107 111 114 117 120 122 124 126 
128 129 129 129 129 129 128 127 125 122 118 115 110 104 88 92 95 98 101 103 
105 108 111 116 120 123 125 128 129 131 133 134 134 134 134 132 131 130 128 
125 121 118 114 108 89 93 96 100 102 104 107 111 114 119 123 126 129 131 133 
136 136 137 137 136 135 134 133 131 129 127 123 119 115 111 90 94 98 101 104 
107 110 114 117 122 127 130 133 137 139 134 140 140 139 138 137 135 134 133 
130 127 124 120 116 112 90 94 98 101 105 108 112 117 121 125 129 132 138 135 
97 114 155 145 140 139 138 137 135 133 131 128 124 120 117 112 91 95 99 102 
105 109 114 119 124 129 132 136 140 80 63 123 176 156 125 142 139 138 136 133 
131 127 123 120 116 112 91 96 99 102 106 110 115 121 126 131 134 141 128 50 58 
104 130 149 146 138 141 138 135 133 130 127 123 119 115 112 91 95 100 103 106 
111 116 121 127 132 135 146 109 55 77 100 164 185 162 139 142 138 135 132 129 
125 121 117 113 109 91 95 100 103 106 111 116 122 127 132 135 148 83 47 72 126 
177 201 175 146 141 139 135 131 128 124 119 115 111 107 93 96 100 103 108 113 
118 123 127 133 136 147 100 36 64 152 197 196 174 147 142 139 135 131 127 123 
118 114 110 106 93 97 100 103 108 114 119 124 128 134 137 144 133 38 57 122 
182 172 151 146 142 138 135 131 127 122 116 113 108 104 93 97 100 103 108 114 
120 124 129 134 136 144 126 35 63 133 176 157 143 146 142 139 135 131 127 121 
115 111 105 101 92 96 99 103 106 112 119 124 128 135 143 152 104 64 80 149 143 
183 153 145 140 137 133 130 127 121 115 110 104 100 90 92 95 98 101 108 118 
127 134 132 117 76 37 59 90 90 80 183 126 133 140 140 135 130 125 120 114 109 
104 99 87 92 96 98 102 108 113 103 79 54 41 29 37 74 69 116 137 153 80 103 102 
114 125 129 125 118 113 108 103 97 27 48 52 52 52 54 53 42 45 36 45 43 47 79 
123 213 137 87 77 105 86 90 99 101 116 118 111 106 102 95 4 3 3 3 2 5 36 40 41 
57 56 38 53 56 110 141 76 91 61 101 87 86 104 93 102 117 108 104 100 94 8 9 9 
10 8 16 37 34 28 52 55 41 54 56 55 65 76 76 52 89 100 83 110 99 105 107 107 
101 97 91 7 7 8 9 7 20 28 31 29 39 52 45 58 62 44 74 64 66 48 74 108 88 108 
100 108 101 104 99 93 85 
