P2
30 23
255
89 94 96 99 101 104 106 108 111 114 117 118 119 120 121 122 124 128 128 127 
129 129 128 127 126 125 121 118 116 112 92 96 99 101 104 106 108 111 113 116 
119 121 122 123 124 125 127 130 131 130 132 131 130 129 127 126 124 121 118 
114 94 97 100 102 105 107 110 113 115 118 122 123 125 126 127 128 129 131 132 
132 132 132 131 130 129 127 125 122 120 118 95 99 101 103 106 108 111 114 117 
120 124 126 127 128 130 132 134 132 133 134 133 132 131 131 129 128 125 123 
122 119 96 100 103 105 107 109 112 115 119 122 125 127 130 134 126 122 124 135 
135 134 134 133 132 131 129 128 125 124 121 119 97 101 103 105 108 110 113 115 
119 123 125 128 131 87 81 104 95 103 133 136 134 134 132 131 130 129 126 123 
121 119 97 101 103 106 108 110 113 116 119 123 125 135 97 57 103 138 146 90 110 
139 134 133 131 131 130 127 125 122 120 118 97 101 103 105 107 109 113 116 119 
123 126 136 84 79 118 151 184 142 99 138 134 133 132 129 127 126 123 120 117 
116 96 100 102 103 106 108 112 115 119 123 126 131 71 68 106 146 173 155 117 
137 134 132 130 127 126 124 121 118 116 113 95 99 101 102 104 108 111 114 117 
121 125 126 70 56 82 113 103 146 136 136 133 131 128 125 124 122 119 116 113 
112 94 99 100 102 103 106 109 112 115 118 121 128 78 76 92 140 140 147 136 134 
133 130 126 123 122 120 116 114 111 109 93 97 98 100 102 103 107 109 112 115 
117 127 97 68 81 123 146 144 135 133 131 128 124 122 121 118 114 111 108 105 
91 95 96 98 99 101 103 106 109 112 115 123 116 62 86 121 127 142 134 129 126 
123 123 121 119 116 112 109 106 103 94 97 95 95 96 98 102 105 107 110 114 125 
101 38 81 122 88 79 166 155 153 141 121 120 118 115 111 108 104 102 67 70 83 
88 89 90 92 95 104 108 109 105 77 59 79 87 108 143 204 183 183 186 171 118 115 
114 110 106 103 101 11 8 16 19 19 18 18 24 65 108 106 94 68 79 88 88 160 214 
210 206 187 184 199 164 112 113 109 105 102 98 14 12 4 5 7 5 5 17 56 110 123 
104 93 102 110 129 161 185 201 204 197 190 181 201 151 99 108 104 101 97 14 14 
7 8 9 7 7 21 70 101 137 116 106 108 121 133 144 163 189 194 199 197 179 175 
194 143 106 103 100 94 14 13 6 8 7 10 12 33 81 80 134 121 118 108 116 125 135 
148 168 188 198 198 185 148 189 196 151 100 96 91 14 12 6 6 10 11 7 48 84 66 
110 118 115 120 121 125 129 135 148 168 182 192 154 108 165 168 143 140 94 86 
13 10 8 9 9 11 11 61 87 63 82 107 105 114 118 123 120 127 139 149 184 192 131 
45 110 110 117 158 108 80 13 9 8 9 8 10 14 70 100 68 69 88 99 112 116 116 110 
110 133 150 189 196 151 75 58 82 103 149 128 75 14 13 7 7 7 5 23 77 105 76 61 
76 84 99 119 118 118 122 133 155 185 188 146 115 53 73 92 138 159 89 
