P2
30 23
255
89 94 96 99 102 104 106 108 111 114 116 119 119 120 121 122 124 128 128 127 
128 128 128 127 126 124 121 119 115 112 92 95 98 101 103 106 108 111 113 116 
119 121 122 123 124 125 127 130 130 130 131 131 130 128 127 126 123 121 117 
114 94 97 99 102 105 107 110 113 114 119 122 123 125 126 127 128 129 131 133 
132 132 131 130 129 129 127 124 121 120 118 95 98 101 103 106 108 111 114 117 
120 124 125 127 128 130 132 133 132 133 133 133 132 131 130 129 128 125 123 
122 119 97 100 103 104 107 109 112 115 119 122 124 127 129 133 124 121 125 135 
136 134 134 133 132 130 129 127 125 124 121 119 97 101 103 106 108 110 113 116 
119 122 125 128 130 86 81 108 103 103 133 136 134 133 131 131 130 129 125 123 
121 119 97 101 104 106 108 110 113 116 119 123 125 135 97 57 104 138 152 96 107 
139 134 134 131 131 130 127 124 121 119 118 96 101 103 105 107 110 113 116 119 
123 125 136 85 77 117 151 185 146 99 137 134 132 131 129 127 125 122 120 117 
116 96 100 102 103 106 109 112 115 118 122 126 131 72 63 98 142 165 152 117 
137 134 132 129 127 125 124 120 118 115 113 89 100 101 102 105 108 111 114 116 
120 124 126 70 58 77 114 96 145 138 135 133 130 128 125 123 121 118 116 113 
111 87 99 100 101 103 106 109 112 114 117 120 128 77 73 85 138 142 145 134 134 
132 129 125 123 122 120 116 114 111 109 86 98 98 100 102 103 107 109 112 114 
116 128 91 59 66 109 138 138 134 133 131 128 124 121 120 118 114 111 107 105 
88 95 96 97 99 101 103 106 109 112 115 124 108 58 61 93 135 146 133 128 125 
123 123 121 119 116 112 109 105 103 95 97 95 95 96 98 102 105 107 109 113 124 
102 45 78 131 109 86 164 154 151 140 121 119 118 115 111 108 104 102 67 70 82 
88 89 90 92 95 103 107 108 105 77 51 77 91 103 131 201 182 182 186 170 118 115 
113 109 107 103 100 12 8 16 19 19 17 17 23 64 107 104 93 67 75 82 80 156 213 
209 203 185 183 199 163 111 113 108 105 102 98 14 13 5 5 6 5 4 17 56 108 121 
103 91 100 107 126 161 186 197 202 193 189 181 201 150 98 108 104 101 97 13 15 
8 8 9 7 6 21 69 100 136 115 105 108 120 132 145 165 190 193 196 195 178 176 
193 141 106 103 100 94 13 14 6 7 8 10 11 33 81 80 134 121 117 106 114 124 136 
150 172 188 197 197 184 150 189 196 151 100 96 91 13 13 7 6 10 11 6 48 84 66 
112 118 116 120 120 124 129 136 150 171 183 191 156 111 166 169 143 139 94 86 
13 11 8 9 9 11 11 61 87 62 83 108 105 115 119 123 122 128 138 151 183 191 128 
46 111 111 117 157 108 80 13 11 8 9 8 10 14 70 99 67 69 89 100 113 115 114 109 
111 134 151 192 193 147 72 59 82 103 148 128 75 14 13 7 7 7 5 23 77 105 76 61 
76 86 102 122 119 117 120 131 157 187 185 143 113 53 72 91 137 159 89 
