P2
30 23
255
113 120 125 129 134 138 142 146 151 157 160 163 165 166 169 170 172 175 176 
177 177 177 176 175 173 171 168 164 159 153 114 119 124 128 133 136 140 143 
148 154 158 162 164 164 165 167 169 171 173 174 174 174 174 172 170 168 165 
160 153 145 112 118 122 126 131 135 139 142 146 151 157 160 163 164 165 167 
169 170 171 171 172 172 171 169 167 164 159 154 147 139 100 104 108 111 114 
117 121 125 128 132 136 141 143 145 147 148 149 149 150 149 148 148 147 146 
143 139 134 129 123 116 92 96 100 102 104 107 110 113 118 121 125 129 131 133 
135 137 139 139 139 140 140 139 139 138 137 134 130 126 120 113 95 100 102 106 
110 112 114 117 122 126 131 134 137 138 139 141 143 144 144 144 144 143 142 
141 139 137 133 129 125 118 96 100 104 108 112 114 117 121 125 129 134 138 139 
143 146 146 149 150 148 145 146 144 143 142 140 138 135 131 126 121 97 101 105 
110 113 117 121 125 129 134 138 139 146 132 123 130 138 147 157 152 146 146 
144 143 141 139 136 132 128 123 97 102 106 110 114 118 123 128 133 137 140 147 
131 68 80 92 114 134 121 147 150 146 145 144 141 139 136 132 127 123 99 103 
107 111 115 120 125 131 136 139 142 149 70 35 63 99 106 129 135 118 152 148 
146 144 141 139 135 131 127 123 99 103 108 112 116 121 127 133 138 141 147 141 
43 41 62 98 129 154 151 115 151 150 145 144 141 138 135 130 127 122 99 104 108 
112 116 122 128 134 139 142 149 141 43 48 77 97 109 179 183 114 148 151 145 
143 140 137 133 128 124 120 99 104 108 113 116 123 128 134 139 141 154 107 32 
43 61 92 143 190 221 166 146 152 145 142 139 135 131 126 122 118 101 105 109 
114 119 124 130 135 139 141 156 99 26 43 58 92 137 193 217 199 160 150 146 142 
139 135 129 125 121 116 102 106 110 113 119 125 131 136 139 143 154 121 29 44 
66 83 137 187 202 182 155 150 146 142 138 133 128 123 118 113 102 106 110 114 
119 126 132 136 139 143 152 156 49 34 62 91 137 194 202 173 152 150 146 142 
138 133 127 121 116 110 102 106 110 113 118 124 130 138 146 152 149 109 36 36 
39 58 117 109 157 158 155 151 144 141 138 133 126 120 114 108 100 102 105 107 
112 121 136 132 108 78 48 21 26 42 58 46 149 155 153 109 120 137 144 143 138 
132 125 118 113 107 99 104 107 108 112 109 85 50 31 28 26 21 27 42 41 54 141 
132 145 104 103 100 112 124 131 130 123 118 111 105 32 55 59 58 59 47 32 35 35 
30 30 21 24 33 33 72 109 90 79 107 117 99 108 112 107 123 122 115 110 103 3 2 
2 2 2 28 37 38 35 29 30 27 28 41 48 81 103 98 42 100 114 83 112 123 109 114 
120 112 107 101 8 9 10 9 16 34 33 35 37 44 31 39 47 58 92 194 133 62 37 85 117 
86 101 126 110 117 119 109 104 98 7 7 8 9 20 29 30 33 36 51 33 49 53 50 124 
166 71 61 33 58 122 94 94 125 105 118 115 106 100 92 
