P2
30 23
255
90 94 96 99 102 104 106 108 111 114 117 119 120 120 121 123 124 128 128 128 
129 129 128 127 126 124 122 119 116 112 93 96 99 101 104 106 108 111 113 116 
120 121 122 123 124 125 126 130 131 130 131 131 130 129 127 125 123 121 118 
115 95 98 100 103 105 107 110 113 115 119 122 124 125 126 127 128 129 132 132 
132 133 132 130 130 129 127 125 122 119 118 96 99 102 104 106 108 111 114 117 
121 124 126 127 128 130 133 134 132 133 134 133 132 131 131 130 128 125 123 
122 120 97 100 103 105 108 110 112 115 119 122 124 127 130 133 126 121 123 135 
135 134 134 133 132 131 129 128 125 124 121 120 98 101 103 106 108 111 113 116 
120 123 125 128 131 86 80 99 91 103 134 136 134 134 132 131 130 129 125 123 
121 120 97 102 104 106 108 110 113 116 119 123 125 135 95 56 101 135 143 89 109 
139 134 134 131 131 130 127 124 122 120 118 97 101 103 105 108 110 113 116 119 
124 126 135 80 77 115 148 181 140 98 138 134 133 131 129 127 125 122 120 118 
116 96 101 102 104 106 109 112 115 119 123 127 128 64 72 109 150 181 155 116 
137 134 133 130 127 126 124 121 118 115 113 95 100 101 102 105 108 111 114 117 
121 125 126 71 55 81 113 107 143 137 136 133 131 128 125 124 121 119 116 113 
111 93 99 101 102 103 106 109 112 115 118 121 128 83 81 91 134 126 146 136 134 
133 129 126 123 122 120 117 114 111 109 93 97 99 100 101 103 107 109 112 115 
117 127 95 62 74 120 120 143 135 133 131 128 124 121 120 118 114 111 108 105 
92 95 96 98 99 101 103 106 109 112 115 123 115 62 86 130 127 142 134 129 126 
124 123 121 119 116 112 109 106 103 95 97 94 95 96 98 102 105 107 110 113 125 
102 40 82 131 103 83 165 153 151 139 121 120 118 115 111 108 104 102 68 70 83 
89 90 90 92 96 104 107 109 105 78 58 81 89 103 131 202 182 182 185 169 118 115 
114 110 107 103 101 12 8 17 20 20 19 18 24 64 108 106 94 68 79 89 87 156 214 
210 203 186 184 199 162 111 113 108 105 102 99 14 12 4 5 6 6 5 17 56 109 122 
103 91 99 107 126 163 188 199 203 193 189 182 201 149 99 109 104 101 97 14 14 
7 8 9 8 7 21 69 101 137 115 105 108 121 133 145 165 191 193 196 195 178 176 
193 141 106 102 100 95 13 14 6 8 8 10 12 33 81 80 135 121 117 105 114 124 136 
150 172 188 197 198 184 150 189 195 150 100 96 92 14 13 6 6 10 11 7 47 84 66 
113 119 116 120 120 124 129 136 150 171 184 191 156 112 167 170 143 139 95 86 
13 10 8 9 9 11 11 60 87 63 84 109 105 115 119 124 122 129 139 151 182 191 128 
46 112 112 117 158 108 80 14 9 8 9 9 10 14 69 100 67 69 90 101 114 115 115 109 
112 135 151 191 193 147 71 59 83 103 148 128 75 14 12 7 7 7 5 22 78 106 76 61 
77 87 104 123 119 118 120 131 157 187 186 143 112 53 73 91 137 159 90 
