P2
30 23
255
106 112 116 120 125 130 134 138 142 147 151 153 155 156 158 159 161 164 165 
167 167 167 166 164 162 160 157 153 149 143 106 111 115 119 123 127 131 135 
139 144 149 152 154 153 155 156 158 161 162 163 163 163 163 161 159 157 154 
149 143 137 105 110 113 117 122 126 129 134 138 142 147 150 153 154 155 156 
158 159 160 160 160 160 160 158 155 152 149 143 137 130 93 97 100 103 106 109 
112 116 119 123 127 130 132 134 136 137 138 139 139 139 138 137 136 134 131 
128 124 119 114 107 85 90 93 95 98 100 102 105 109 112 115 118 121 123 124 127 
129 130 131 131 131 130 130 129 127 123 120 117 111 105 88 93 96 99 102 104 
106 108 112 117 121 124 126 130 134 135 136 136 135 136 135 134 133 132 130 
127 123 120 115 110 90 94 97 101 103 105 109 112 115 120 124 127 133 127 120 
126 131 138 139 137 137 136 135 133 131 128 125 121 117 112 90 94 99 102 105 
108 112 115 119 124 127 133 125 68 83 121 159 139 132 140 138 136 136 134 132 
129 125 122 118 113 91 95 99 102 105 109 113 118 123 127 130 139 74 43 83 129 
180 151 105 141 139 138 137 135 132 129 126 122 118 114 92 96 100 103 106 110 
115 121 126 130 134 138 56 54 87 139 193 211 141 136 141 139 137 135 132 129 
125 121 118 114 92 97 101 104 107 112 117 123 128 132 137 133 48 56 87 143 196 
217 183 138 143 139 137 135 132 129 124 121 117 113 92 97 100 104 107 112 118 
123 128 133 142 118 38 46 52 125 119 166 192 147 142 139 137 134 130 127 122 
118 114 111 92 97 100 104 108 113 118 124 129 132 142 118 37 64 50 139 150 174 
186 149 143 140 137 133 129 125 121 117 113 109 94 97 101 105 110 114 120 124 
129 134 139 139 51 60 56 127 178 200 176 145 144 140 137 133 129 124 120 115 
111 107 94 98 101 105 110 115 120 125 130 135 137 151 87 54 55 130 156 181 162 
147 144 140 137 133 128 123 118 114 109 105 94 98 102 105 110 115 121 126 130 
134 136 152 112 39 62 134 156 160 151 146 143 140 136 133 129 123 117 112 107 
102 94 98 101 104 109 114 121 125 133 142 147 139 63 26 60 127 148 144 153 148 
144 138 135 133 129 123 116 111 106 101 92 94 97 99 103 110 123 131 125 105 
78 36 30 69 62 107 80 140 118 119 131 139 137 132 127 122 116 111 105 100 89 
96 98 101 104 107 100 74 47 34 27 22 26 60 100 71 60 132 90 102 95 104 118 126 
127 120 115 110 104 99 27 48 52 52 52 52 41 37 42 34 38 34 36 49 72 81 110 137 
63 114 97 91 101 102 109 120 112 108 103 97 4 2 2 3 1 18 42 45 48 42 42 39 52 
65 109 203 131 82 58 109 88 88 109 108 96 116 110 105 101 95 8 9 9 9 10 31 39 
39 38 60 44 44 57 48 141 168 78 75 44 99 100 81 110 113 102 117 108 103 98 92 
6 7 8 7 14 28 30 35 30 56 43 45 53 39 89 73 70 72 29 80 111 82 110 109 103 115 
105 100 94 87 
