P2
30 23
255
106 113 118 122 127 131 136 140 145 149 153 156 158 159 161 162 164 167 169 
170 171 170 169 167 165 163 160 156 152 146 106 112 116 121 125 128 133 137 
141 146 151 154 156 156 158 159 161 164 165 167 167 167 166 163 161 160 156 
152 146 139 106 111 115 119 124 128 132 136 140 144 150 153 156 157 157 159 
161 162 163 163 164 165 163 162 159 156 152 147 140 133 95 100 103 106 108 112 
116 120 124 126 131 135 137 139 141 142 143 143 144 143 143 142 141 139 136 
132 128 123 117 110 86 91 94 97 99 101 104 107 111 114 118 121 124 126 128 130 
132 133 133 133 134 133 132 131 129 126 122 118 113 106 90 95 97 101 104 106 
108 111 115 119 123 127 130 132 134 135 137 138 138 138 138 137 135 134 132 
129 126 122 117 112 91 95 99 103 106 108 111 114 118 123 127 130 133 135 137 
139 139 140 140 139 139 138 137 136 134 131 128 123 119 114 91 96 101 103 107 
110 114 118 122 126 131 134 137 139 140 142 142 143 142 141 140 138 138 136 
135 132 128 124 120 115 92 97 101 104 108 111 115 120 125 130 134 137 140 142 
149 146 148 147 145 143 141 139 138 137 135 132 128 124 120 116 93 98 102 104 
108 112 117 122 128 133 136 139 143 147 119 141 146 149 148 145 143 140 139 
137 135 131 127 124 120 116 94 98 102 105 109 114 119 124 130 135 138 141 151 
117 64 134 142 146 149 148 144 141 139 137 135 131 127 123 119 115 94 99 102 
105 110 115 120 125 131 136 139 146 137 69 90 153 185 166 141 150 145 141 138 
136 133 129 125 121 117 113 94 99 102 106 109 115 120 126 131 136 138 151 113 
42 89 167 203 184 150 149 146 142 138 135 132 128 123 119 115 111 96 100 103 
107 111 116 122 127 131 137 139 153 95 34 99 169 195 184 171 148 147 142 139 
135 131 127 122 118 114 109 97 101 103 106 111 118 123 128 133 137 140 151 119 
30 93 195 196 155 153 151 147 142 138 135 131 125 120 116 112 106 96 100 103 
106 111 117 124 128 133 137 139 150 124 50 91 202 200 148 147 150 145 142 138 
135 131 125 119 114 109 103 95 99 102 105 110 116 123 127 133 140 146 156 112 
68 109 136 123 192 154 151 145 140 137 134 131 125 118 113 107 102 93 95 97 100 
104 111 122 132 136 130 115 81 45 87 79 124 138 163 113 133 137 141 140 135 
129 124 118 112 106 101 90 94 97 100 103 111 114 96 74 46 44 38 43 81 127 208 
128 89 86 98 89 106 119 127 129 122 116 111 105 100 31 51 56 56 56 59 52 38 39 
58 62 43 49 62 95 119 79 91 80 102 75 88 99 91 121 121 114 109 104 98 4 3 3 3 
2 3 31 38 29 58 65 43 43 70 51 68 77 71 78 105 79 89 108 92 114 119 112 106 
102 96 8 9 9 10 8 14 30 31 28 41 62 47 47 82 50 78 69 61 73 106 88 92 107 100 
111 107 111 104 99 93 7 7 8 9 7 19 29 27 31 33 60 49 47 91 52 61 80 51 60 105 
91 89 109 105 102 100 107 101 95 87 
