P2
30 23
255
85 90 92 94 97 100 102 103 106 109 112 115 114 115 115 116 117 119 119 120 121 
121 120 120 118 117 114 111 109 105 89 92 94 97 100 102 103 105 108 111 116 
117 121 118 118 118 119 121 122 123 124 123 122 121 120 119 116 113 111 108 
91 94 96 99 101 103 105 108 110 114 117 119 123 121 120 122 123 123 124 124 
124 124 123 122 121 119 117 114 113 112 92 96 98 101 102 104 107 110 112 115 
118 120 121 124 123 125 125 125 126 125 125 124 123 123 122 120 118 116 116 
113 93 97 100 101 103 105 109 111 114 117 119 122 123 123 125 128 128 127 126 
126 126 124 124 123 122 121 118 117 115 112 94 97 100 102 104 107 109 112 115 
118 120 123 128 128 126 128 129 130 131 128 127 125 124 123 123 122 119 116 
114 113 94 98 101 103 105 108 111 113 116 118 121 123 127 133 134 129 129 129 
119 118 124 127 123 123 123 120 117 115 113 112 94 98 101 103 105 107 110 113 
115 118 120 123 126 130 136 133 136 94 86 104 104 122 124 122 120 118 116 113 
111 109 93 97 100 102 103 106 109 112 115 117 120 123 126 130 134 139 117 79 
104 124 134 99 116 121 118 116 113 111 109 107 93 97 98 100 102 105 108 111 
113 116 120 122 126 129 132 141 90 80 135 152 146 99 110 120 115 114 111 109 
107 105 92 96 98 99 101 103 106 109 111 115 118 121 125 128 130 137 77 83 134 
143 135 126 116 115 113 112 110 107 105 103 91 95 96 97 99 100 103 106 109 113 
116 118 123 126 127 133 78 97 163 140 109 111 117 113 112 110 107 105 102 101 
90 93 94 94 95 97 100 104 107 111 114 116 119 122 128 122 83 114 161 135 95 112 
115 112 111 108 105 103 101 98 93 95 91 91 92 94 98 104 106 109 111 114 114 
120 114 73 83 119 135 98 80 121 109 111 110 107 104 102 100 97 64 65 76 81 81 
83 87 91 101 106 109 110 150 138 107 91 101 89 122 143 155 154 131 110 107 107 
103 101 98 95 5 6 13 14 14 14 14 20 63 107 101 101 176 158 137 143 150 144 158 
174 180 175 180 156 110 105 102 100 96 92 5 7 3 2 3 4 3 16 57 102 91 93 166 
151 143 145 153 165 168 166 172 176 180 186 148 95 103 98 94 90 4 6 6 4 5 6 6 
17 57 96 89 87 140 136 137 162 149 163 169 164 170 175 181 182 165 102 98 97 
92 88 11 7 3 4 7 9 13 18 54 98 88 79 112 112 124 154 132 166 145 160 166 171 
182 174 152 141 92 95 90 85 14 13 11 7 10 11 10 15 49 102 96 77 88 95 113 116 
125 161 128 156 172 159 174 167 129 165 101 90 86 80 10 12 13 13 10 9 16 13 51 
96 110 75 73 85 102 93 137 136 132 161 180 176 171 137 102 167 116 83 83 77 11 
11 11 12 14 12 16 14 67 82 89 83 61 80 87 95 139 110 123 148 188 182 162 130 
88 151 144 84 78 74 10 10 10 11 13 14 13 14 77 105 95 71 57 75 76 111 122 99 
110 139 183 168 150 106 79 129 139 100 73 71 
