P2
30 23
255
104 109 114 118 123 127 132 137 141 145 149 152 153 154 156 157 159 163 164 
165 165 165 164 162 160 158 155 151 147 141 103 108 113 117 121 125 129 133 
138 142 147 150 152 152 153 155 156 159 160 162 162 162 161 159 157 155 152 
147 141 135 103 108 112 115 120 124 127 132 136 140 145 149 152 153 153 155 
156 157 158 158 158 159 158 156 154 150 147 142 136 128 91 95 99 102 104 107 
111 114 118 122 126 129 131 133 135 136 137 137 137 137 137 136 135 133 130 
127 123 117 112 105 83 88 92 94 97 99 102 104 107 110 114 117 120 122 124 125 
127 128 129 129 129 128 127 127 125 122 118 115 109 103 87 92 94 98 101 103 
105 108 111 115 119 123 126 128 130 131 133 134 134 134 134 132 131 129 128 
125 122 118 114 108 88 92 96 100 103 105 108 111 114 119 123 126 129 132 133 
135 136 137 136 136 135 134 132 131 129 126 123 119 115 110 89 93 98 101 104 
106 110 114 118 123 127 129 133 136 136 138 139 139 139 138 137 135 133 132 
130 127 123 120 116 111 89 94 98 101 104 108 111 116 121 126 130 133 137 138 
144 143 142 143 140 139 138 136 135 133 131 127 124 120 116 112 91 95 99 102 
105 109 114 119 124 128 132 136 139 146 118 121 145 139 145 140 139 138 135 
133 130 127 123 119 116 112 91 96 100 103 106 110 115 120 126 131 135 137 145 
132 65 106 143 139 143 142 140 138 135 133 130 127 122 118 115 111 91 96 100 
103 106 111 116 121 127 132 136 139 147 84 69 142 179 183 138 143 141 138 134 
132 129 125 121 117 113 109 91 95 100 103 106 111 116 122 127 132 136 143 135 
50 66 149 203 199 156 143 142 138 135 131 127 124 119 115 111 107 93 96 100 
103 108 112 118 123 127 133 136 145 124 36 77 140 187 188 178 148 141 139 135 
131 127 122 118 114 110 106 94 97 100 103 108 113 119 124 128 134 137 143 138 
44 71 183 195 161 148 148 142 138 135 131 126 122 116 112 108 103 93 97 100 
103 107 113 120 124 129 134 136 143 133 56 73 195 215 158 136 146 141 138 135 
131 126 121 115 110 105 101 93 96 99 103 106 112 119 124 129 136 143 151 113 
69 106 161 146 184 151 146 140 137 133 130 126 120 114 109 104 99 90 91 94 97 
101 107 118 128 132 128 114 77 42 72 79 99 106 192 120 132 138 139 135 129 125 
120 114 109 104 99 86 92 95 97 100 107 109 95 74 46 42 38 40 88 102 187 156 
106 82 102 98 111 123 128 124 119 113 108 102 97 26 46 50 50 50 52 49 39 42 49 
56 44 49 61 119 182 96 89 79 102 82 89 99 98 116 118 111 106 101 95 4 3 3 3 2 
4 35 39 31 58 63 40 49 59 67 77 77 81 71 104 82 83 108 91 104 116 108 104 99 
93 7 8 9 10 8 15 34 32 28 43 60 43 48 67 47 74 71 65 69 101 92 86 110 97 107 
105 108 101 96 90 6 6 8 9 7 20 31 28 31 32 57 46 52 72 46 75 69 54 58 99 96 88 
108 101 107 99 104 99 92 85 
