P2
30 23
255
108 114 118 123 128 132 137 141 146 151 155 157 159 160 162 163 166 169 170 
172 172 172 171 169 166 164 162 158 153 147 108 113 117 122 127 130 134 138 
142 148 153 156 158 158 159 161 163 165 167 168 168 168 168 165 163 161 158 
154 147 140 106 112 117 120 126 130 134 137 141 146 151 155 158 159 159 160 
162 164 165 165 166 166 165 163 161 158 154 148 142 134 96 101 104 107 110 113 
117 121 125 128 132 136 139 141 142 144 144 145 145 145 144 144 143 141 138 
134 130 124 119 111 87 92 95 98 100 102 105 108 112 115 119 123 125 127 130 
131 134 135 135 135 135 134 134 133 131 128 123 120 114 107 91 95 98 102 104 
107 109 112 116 120 125 128 131 134 135 137 138 139 139 139 139 138 137 136 
134 131 127 124 119 113 92 96 100 103 106 109 112 115 119 124 128 132 135 137 
138 139 140 141 141 140 140 139 138 137 135 132 129 125 120 115 92 97 101 104 
108 111 115 119 123 128 132 135 139 139 141 144 144 145 144 142 141 139 139 
138 136 133 129 126 121 117 93 97 102 105 108 112 117 122 126 131 135 138 140 
145 149 145 151 148 146 144 143 141 140 138 136 133 129 126 121 117 94 99 102 
105 110 114 119 124 129 134 137 140 147 141 102 138 143 152 150 146 144 142 
140 138 136 133 129 126 121 117 94 100 103 107 111 115 121 126 131 136 139 142 
151 93 67 136 135 146 146 150 146 143 140 138 136 133 128 124 121 117 95 99 103 
106 110 116 121 126 132 137 139 149 128 63 94 153 185 169 140 152 146 143 139 
138 135 131 127 122 118 114 95 100 103 107 111 116 122 127 133 138 140 154 105 
43 99 178 204 191 156 150 147 144 139 137 134 129 125 121 116 112 96 101 103 
107 112 118 123 128 133 138 140 155 90 35 94 168 195 186 171 150 148 144 140 
137 133 128 124 119 115 111 98 101 104 107 112 119 124 129 134 139 141 152 120 
33 92 192 190 153 154 153 148 143 139 136 132 127 122 117 113 108 97 100 103 
107 112 118 124 130 135 138 141 151 125 46 92 194 199 152 149 151 147 143 139 
136 132 127 120 115 110 105 96 100 102 106 111 117 124 129 134 140 147 159 112 
67 114 142 126 191 156 152 147 142 138 136 132 126 120 114 108 103 93 95 98 101 
105 112 123 133 139 135 121 86 46 78 77 107 128 178 116 136 140 143 141 136 
131 125 119 113 108 102 91 96 99 101 105 112 117 104 81 51 45 36 42 87 119 205 
139 94 86 101 93 109 122 130 130 123 117 112 106 101 31 52 57 57 58 59 54 40 
41 52 58 43 51 63 113 144 81 93 81 102 78 91 98 93 122 122 115 110 105 99 4 3 
3 4 3 3 32 39 31 61 64 42 46 63 55 67 79 75 75 106 80 90 108 92 113 121 113 
107 103 97 8 9 9 10 9 14 31 32 28 44 60 46 51 74 48 79 68 63 71 105 89 91 108 
100 112 109 112 104 100 94 7 7 8 9 7 18 28 27 30 34 58 48 54 86 49 67 76 51 56 
104 95 91 109 106 104 101 108 102 96 89 
