P2
30 23
255
108 114 119 123 128 132 137 140 145 149 153 156 157 158 160 160 162 165 166 
167 168 168 166 165 162 160 158 154 149 143 108 113 118 122 126 129 133 137 
141 146 151 154 155 155 157 158 159 162 163 164 164 164 163 161 159 157 153 
150 144 138 107 112 116 120 124 129 132 136 139 144 149 152 155 156 156 157 
159 160 160 161 161 161 160 158 156 153 149 144 138 131 95 99 102 105 107 111 
114 118 121 124 128 131 134 136 137 138 139 139 139 139 138 137 136 134 131 
128 124 119 114 107 86 91 94 96 99 101 103 106 109 112 115 119 121 123 124 126 
128 130 130 130 130 129 128 127 125 122 119 115 110 105 89 94 96 99 103 105 
107 110 113 117 121 124 127 131 133 134 135 135 135 135 135 133 132 130 128 
125 122 119 114 109 91 94 98 101 104 106 109 113 116 120 124 128 132 125 124 
128 136 140 137 136 136 135 133 132 129 126 123 120 116 111 91 95 99 102 105 
108 112 116 120 124 128 134 95 82 122 156 144 128 141 138 137 136 135 133 131 
128 124 120 117 113 91 96 100 103 106 110 114 119 123 126 136 110 44 76 127 
182 170 102 138 141 138 137 136 133 131 128 124 120 117 113 92 97 101 103 107 
111 116 121 126 128 141 86 45 84 136 195 224 165 138 145 140 138 136 134 131 
128 123 120 117 113 93 97 101 104 108 112 118 123 128 131 143 91 49 88 143 204 
232 222 156 142 142 139 136 134 131 127 123 119 116 112 93 98 101 105 108 113 
119 123 129 132 143 89 15 32 81 61 116 191 165 144 142 139 136 133 130 126 121 
117 113 109 93 98 102 105 108 113 118 124 129 132 144 76 30 35 131 74 111 196 
167 145 143 140 136 132 128 124 120 115 111 108 95 99 102 107 110 115 121 125 
129 133 146 93 47 56 159 174 210 207 164 145 144 140 137 132 128 124 119 115 
111 106 96 100 102 106 111 116 121 126 131 134 145 117 48 49 133 156 193 193 
155 147 144 140 137 132 128 123 117 113 109 104 96 100 103 106 111 117 122 127 
132 135 138 144 65 46 133 162 178 175 146 147 143 139 137 132 128 123 117 112 
107 102 96 100 102 106 110 116 123 127 134 142 149 147 50 48 124 168 172 171 
150 149 143 138 135 132 128 123 117 112 106 101 94 96 98 100 104 112 125 134 
132 116 92 47 44 53 97 114 136 175 115 131 138 140 137 132 127 122 117 111 106 
101 93 98 101 103 106 108 105 80 52 33 22 13 52 97 89 56 119 172 101 97 99 113 
123 128 127 121 116 110 105 99 30 52 56 56 56 57 44 37 36 37 34 25 29 70 76 50 
148 141 96 115 92 97 103 105 113 121 114 109 104 98 4 3 3 3 2 30 43 52 47 32 
36 36 41 63 101 162 125 99 95 120 87 103 104 110 101 119 111 106 102 97 8 9 10 
10 17 41 43 57 48 50 37 50 49 67 179 167 88 93 85 121 75 101 100 111 108 123 
109 104 100 94 7 7 9 10 21 32 42 54 43 60 35 59 47 52 137 86 89 92 77 124 80 
89 108 103 111 122 108 102 97 89 
