P2
30 23
255
107 113 118 123 127 132 137 141 145 150 154 157 158 160 162 163 165 168 169 
171 172 171 170 168 165 163 161 157 152 146 107 113 117 121 126 130 134 138 
142 147 152 155 157 157 158 160 162 164 166 167 168 167 167 164 162 161 157 
153 147 140 106 112 116 120 125 129 132 137 140 145 150 153 157 158 158 160 
162 163 164 164 164 165 164 162 160 157 153 147 141 133 95 100 103 106 109 112 
116 120 123 126 131 134 137 139 141 143 143 143 144 144 143 142 141 139 136 
133 128 123 118 110 87 92 95 98 100 102 105 108 112 115 119 122 125 127 129 
131 133 134 134 134 135 134 133 132 130 127 123 120 114 107 91 95 99 101 104 
107 109 112 115 120 124 128 131 133 135 136 138 139 139 138 138 138 137 135 
133 130 127 123 118 113 92 96 100 103 106 108 111 115 119 123 128 131 134 136 
138 141 140 141 141 140 139 138 138 136 135 132 129 124 120 115 92 97 101 104 
108 110 114 118 122 127 132 135 138 140 142 137 143 145 143 142 140 139 138 
137 136 133 129 125 121 117 93 97 102 104 108 112 116 121 126 131 135 137 141 
145 105 115 163 151 145 144 142 140 139 138 136 133 129 125 121 117 94 98 102 
105 109 113 118 124 129 134 137 139 148 96 55 141 147 149 129 146 144 142 139 
138 136 133 129 125 121 117 95 99 103 106 110 114 120 126 131 136 138 145 138 
63 63 142 130 176 152 141 147 142 139 138 136 132 128 124 120 116 94 99 102 
106 110 115 121 126 132 137 139 150 117 64 80 141 177 204 168 144 147 142 139 
138 134 130 126 122 118 114 95 99 103 107 110 116 121 127 132 137 139 153 102 
45 95 172 193 208 184 154 146 143 139 136 133 128 124 120 116 112 96 100 103 
107 112 118 123 128 133 138 140 153 110 35 86 156 192 190 177 154 147 143 140 
136 132 128 123 119 115 110 97 101 103 106 112 118 124 128 134 138 141 149 140 
46 77 141 173 159 154 152 148 143 139 136 132 127 121 116 113 107 96 101 103 
107 112 118 124 129 135 138 141 150 130 34 77 173 191 155 146 152 146 143 139 
136 132 126 120 115 110 104 95 99 103 107 111 117 124 129 134 140 148 157 102 
62 89 168 154 190 159 151 145 141 138 136 132 126 119 114 108 103 93 95 98 101 
105 112 123 132 140 136 119 74 36 62 92 91 83 186 125 135 143 144 139 135 131 
125 119 113 107 102 90 96 99 102 106 111 117 107 82 55 41 29 39 74 70 117 138 
156 80 105 102 115 128 134 130 123 118 112 106 100 29 50 54 55 55 57 56 44 45 
36 45 43 49 81 123 215 137 89 78 107 88 92 100 102 119 123 115 110 105 99 4 3 
2 3 2 5 37 41 43 58 55 39 56 58 116 145 78 92 63 104 89 88 107 96 104 121 112 
107 103 97 8 9 9 10 8 17 38 35 29 55 55 42 57 57 59 66 77 78 53 92 102 84 112 
101 107 112 111 104 100 94 7 7 8 9 8 20 29 32 29 41 53 45 60 62 46 74 65 67 49 
77 111 90 110 103 110 105 107 102 96 88 
