P2
30 23
255
101 106 110 114 118 122 127 131 136 140 143 145 147 148 150 151 153 156 157 
158 159 158 158 156 153 151 149 145 141 136 101 105 109 113 116 120 124 128 
133 137 141 144 146 146 147 148 150 152 154 155 156 155 154 152 150 148 145 
141 136 130 100 104 108 111 115 119 122 126 130 135 140 142 145 146 146 148 
150 151 152 151 152 152 151 150 147 144 140 136 130 122 88 92 95 98 100 103 
106 109 113 116 120 123 125 127 128 130 130 130 131 130 129 129 129 126 124 
121 117 112 107 101 80 84 88 90 93 95 98 100 102 105 109 111 114 115 116 119 
121 122 122 122 123 122 121 120 119 115 112 109 104 100 83 88 90 93 97 99 101 
103 106 110 113 117 119 121 125 125 126 127 127 127 127 125 124 123 121 118 
116 112 108 104 84 88 92 95 99 100 103 106 109 112 116 119 125 123 113 120 129 
132 130 129 128 127 126 124 122 120 117 113 109 105 85 89 93 97 99 102 105 109 
112 116 120 124 123 70 73 110 156 147 128 133 130 128 127 125 124 121 117 114 
110 107 85 89 94 97 100 103 107 111 115 119 122 131 82 39 74 118 168 164 105 
131 132 130 128 126 124 121 117 114 110 107 86 91 94 98 101 104 108 113 118 
122 125 133 60 50 84 128 188 215 151 128 135 131 129 127 123 120 117 113 110 
107 87 91 95 98 102 105 110 115 120 124 129 129 50 44 68 118 179 204 184 133 
135 132 128 126 124 120 116 112 109 106 87 91 95 99 102 106 111 115 121 124 
133 115 40 46 49 98 118 129 192 146 134 132 128 126 123 119 114 111 107 104 
87 91 95 99 102 106 111 116 121 124 134 116 34 63 57 96 171 176 188 149 135 
133 128 125 121 117 113 109 105 102 89 92 96 100 104 107 112 117 121 125 131 
135 54 46 48 101 164 184 181 139 137 133 129 124 121 116 112 109 104 101 90 93 
96 100 104 108 113 118 122 127 130 143 71 46 51 75 127 166 160 137 138 133 129 
124 120 115 111 107 103 100 89 93 97 100 104 109 114 119 123 127 129 146 96 34 
62 123 130 167 145 138 136 133 128 124 120 115 110 105 101 97 89 93 96 100 103 
108 113 118 126 135 140 129 57 28 43 127 180 170 142 141 137 131 127 124 121 
115 110 105 100 95 87 89 92 94 98 104 116 123 115 95 69 31 29 44 48 121 111 
143 116 111 123 131 129 124 119 114 109 104 100 95 84 90 93 96 99 101 91 65 41 
31 24 20 24 51 73 57 46 125 89 98 91 98 110 118 118 113 108 104 99 93 26 46 50 
49 50 48 37 34 38 31 35 31 32 45 69 61 97 138 60 109 96 88 98 98 101 113 106 
102 98 92 3 2 2 3 1 19 39 41 43 39 38 38 49 59 93 190 130 83 53 104 89 82 105 
107 93 110 105 100 96 90 7 8 9 9 10 30 36 36 36 57 40 43 54 46 132 174 78 71 
41 92 100 77 104 111 98 112 102 98 93 87 6 6 7 7 14 26 29 33 30 55 39 45 50 38 
91 75 65 71 28 70 111 80 103 109 99 111 100 95 89 82 
