P2
30 23
255
109 116 120 125 129 134 138 142 147 152 156 158 160 162 163 164 167 170 171 
173 173 173 172 170 167 165 163 159 154 148 110 115 119 124 128 132 135 139 
144 149 153 157 159 159 160 162 164 166 168 169 170 169 169 166 164 162 159 
155 148 141 108 114 118 122 127 131 134 138 142 146 151 155 158 159 160 161 
163 165 165 165 166 167 165 164 161 158 154 148 142 134 96 101 104 107 110 113 
117 120 124 127 131 135 138 139 141 143 144 144 145 144 143 143 142 140 137 
134 129 124 119 111 89 93 96 99 101 103 107 110 113 117 120 124 127 128 130 
133 135 136 136 136 136 136 135 134 132 129 125 122 116 109 92 96 99 102 105 
108 110 113 117 122 126 130 132 135 139 139 139 140 140 140 140 139 139 137 
135 132 129 125 120 114 93 97 101 104 107 110 113 116 120 125 130 133 138 137 
125 132 140 145 143 141 141 140 139 138 137 134 131 126 122 117 93 98 102 105 
109 112 116 120 124 129 133 138 135 77 79 122 165 151 139 145 142 141 140 139 
137 135 131 127 123 118 93 98 102 106 110 113 118 123 128 132 135 145 91 42 81 
127 177 166 110 144 145 142 140 139 138 135 131 127 123 118 95 99 103 106 110 
114 120 126 130 135 137 146 65 49 86 134 183 215 152 138 148 143 141 139 138 
134 130 127 123 119 95 100 104 107 111 116 122 128 133 137 141 139 53 41 52 128 
143 145 186 142 148 144 141 139 137 134 130 126 122 118 95 100 104 108 112 117 
123 128 134 137 145 129 46 64 68 135 141 149 198 161 146 145 141 138 136 132 
128 123 120 116 95 100 104 108 112 117 123 128 134 137 146 131 41 71 56 131 
180 206 189 159 148 145 141 138 135 131 126 122 118 113 97 101 104 109 114 119 
125 129 134 138 142 149 61 50 47 128 160 185 185 152 149 145 141 138 135 130 
125 121 116 112 98 101 104 108 114 120 125 130 135 139 142 155 81 51 56 87 118 
175 169 152 150 145 141 138 134 129 123 119 114 109 97 101 105 109 114 120 126 
131 135 138 141 159 106 34 75 149 147 179 158 151 148 145 141 138 134 128 122 
117 111 106 97 101 104 108 113 118 125 130 139 146 152 139 63 30 54 145 187 
181 154 154 150 144 139 137 134 128 121 115 110 104 95 97 100 103 107 114 128 
135 126 103 75 33 31 52 59 125 99 150 121 118 132 142 142 138 132 127 121 115 
109 103 93 99 102 105 107 110 101 72 45 34 28 23 27 56 81 55 52 138 94 105 96 
104 119 129 131 125 119 114 107 102 28 49 54 53 54 53 41 38 43 35 39 35 37 51 
71 74 109 143 65 116 101 93 104 104 110 125 117 112 106 100 4 2 2 3 1 20 43 45 
48 43 42 40 52 64 103 200 132 85 59 111 92 88 112 113 98 120 114 109 104 98 8 
9 9 10 11 32 39 40 39 61 45 45 58 50 138 172 80 77 45 99 104 82 110 116 103 
120 111 106 101 95 7 7 8 8 15 29 31 36 32 58 44 46 55 41 92 76 69 73 30 79 115 
84 110 112 104 118 108 103 97 89 
