P2
30 23
255
86 90 92 95 97 99 102 103 106 109 112 116 114 115 115 116 116 119 120 120 121 
121 121 120 119 117 114 112 108 105 89 92 94 97 100 102 103 105 108 111 115 
117 121 118 117 118 119 121 122 123 123 123 123 121 120 119 116 114 111 108 
91 94 96 99 101 103 105 108 110 113 117 119 123 122 120 122 122 124 124 124 
124 124 123 122 121 120 117 115 113 112 92 95 98 100 102 104 107 110 112 115 
118 119 121 124 123 126 125 125 126 126 125 124 123 123 122 121 118 116 116 
113 93 96 100 102 103 105 108 111 114 116 119 121 123 123 125 129 128 127 127 
126 126 125 124 123 122 121 119 117 114 112 94 97 100 102 104 107 109 112 115 
118 119 122 126 128 126 127 130 130 129 131 126 123 124 123 123 123 119 116 
114 113 94 98 101 103 105 107 111 113 115 118 120 123 126 131 133 129 129 130 
132 109 104 120 123 125 124 121 118 115 113 111 93 98 101 102 104 107 110 113 
115 118 120 123 126 129 135 134 131 134 115 71 117 100 116 117 121 119 116 113 
111 109 93 97 99 101 103 106 109 112 114 117 120 123 126 129 133 136 134 129 
83 91 117 126 131 98 118 117 114 111 108 106 93 97 99 100 102 105 108 111 113 
116 119 123 127 129 132 134 138 102 77 140 143 156 128 90 116 114 111 109 106 
104 93 96 98 99 100 103 106 109 112 115 118 122 126 128 131 132 139 89 69 120 
147 143 128 110 113 112 109 107 105 103 91 95 96 97 98 100 103 106 109 113 116 
119 123 127 128 130 133 78 90 139 129 116 121 117 111 110 107 105 102 100 90 
92 93 94 95 97 100 103 107 111 114 117 119 122 124 130 106 68 109 153 133 97 
104 113 111 108 105 103 101 98 93 95 91 91 92 94 98 103 106 109 112 114 121 
127 127 104 87 106 123 136 93 84 114 110 110 108 105 103 100 96 65 66 77 82 82 
83 86 91 101 106 111 105 138 173 133 97 83 97 94 124 110 129 138 109 106 107 
103 102 98 95 6 6 13 14 15 14 14 21 63 107 104 95 137 188 150 140 146 142 131 
156 175 187 174 164 121 102 103 100 97 92 5 7 3 2 3 4 3 16 57 103 97 89 126 
174 153 150 149 158 171 174 175 175 180 186 173 111 100 99 95 90 5 6 5 4 5 6 6 
17 57 99 96 87 113 146 134 151 163 148 167 177 170 175 179 181 189 146 95 98 
93 88 12 7 3 4 7 10 13 18 52 97 100 81 97 122 116 144 151 128 170 167 166 172 
177 184 180 159 99 95 90 85 14 14 10 6 10 10 10 16 49 102 110 83 81 97 106 126 
110 138 168 148 163 170 171 185 159 157 116 88 87 80 11 12 14 13 9 9 15 13 53 
90 114 86 68 85 95 102 103 156 156 151 164 171 159 173 126 143 140 83 83 77 11 
11 11 13 14 10 17 14 75 95 83 91 61 77 89 85 127 143 142 164 172 180 169 151 
91 126 158 89 78 75 10 10 10 12 13 14 11 15 75 108 105 71 57 75 80 94 131 110 
131 149 175 183 165 139 82 103 153 111 73 72 
