P2
30 23
255
90 94 97 99 102 104 106 108 111 114 117 119 119 120 121 123 125 128 127 127 
128 129 128 127 126 124 122 118 115 112 93 96 98 101 104 106 108 110 113 116 
120 122 122 123 124 125 127 130 131 130 131 131 130 128 127 126 123 121 118 
114 94 98 100 102 105 107 110 113 115 118 122 124 125 126 127 128 129 131 133 
132 132 131 130 130 128 127 125 122 120 118 96 99 102 104 106 108 111 114 117 
120 124 126 127 127 129 132 131 132 133 134 133 132 131 131 129 127 125 123 
123 119 97 100 103 105 107 109 112 115 119 121 124 127 129 134 129 125 133 137 
135 134 134 133 132 131 129 128 125 124 121 119 97 101 103 106 108 110 113 115 
119 122 125 128 133 98 86 112 112 116 137 135 134 133 132 131 129 129 126 123 
121 120 98 102 103 106 108 110 113 115 119 123 125 133 103 58 101 138 145 92 
120 138 134 133 131 131 130 127 125 122 120 119 97 101 103 105 107 110 112 115 
119 123 126 136 85 70 116 154 184 140 108 139 133 133 131 129 127 125 123 120 
118 116 97 100 102 103 106 108 112 115 118 122 125 133 71 31 55 76 86 104 121 
137 133 132 130 127 126 124 121 118 115 113 96 99 101 102 104 107 111 114 117 
121 124 125 67 42 42 80 30 103 139 135 133 131 128 125 124 121 118 116 113 111 
96 99 100 101 103 105 109 112 114 118 120 128 74 78 86 120 142 152 135 134 133 
129 126 123 122 120 117 114 111 109 94 97 98 100 101 103 106 109 112 114 116 
127 102 68 80 118 142 145 133 133 131 128 124 121 120 118 114 111 108 105 92 
94 96 97 99 101 103 106 109 112 115 121 122 64 77 128 134 131 135 127 126 124 
123 121 119 116 112 109 106 103 95 96 94 95 96 98 102 105 107 109 113 122 118 
49 66 122 108 67 146 154 143 133 119 119 118 115 111 109 105 102 70 72 83 89 
90 92 94 98 104 107 110 109 86 68 87 107 108 138 185 183 181 183 164 120 115 
114 110 107 104 101 11 8 19 21 22 21 20 26 66 107 107 100 74 74 93 88 161 209 
210 195 186 187 200 174 113 112 109 105 102 99 14 7 4 4 6 5 4 16 54 102 124 
109 97 102 113 124 161 189 196 200 189 188 188 200 160 106 105 105 101 97 15 
8 7 9 9 7 7 18 65 91 136 121 111 109 120 131 143 166 190 192 193 190 187 182 
192 167 117 101 100 95 14 7 5 8 8 10 12 27 81 75 125 125 118 113 118 126 135 
149 174 187 197 193 192 169 183 197 166 112 96 93 12 6 6 6 10 11 7 43 87 68 99 
121 110 119 123 126 129 136 150 174 179 191 181 148 142 168 134 157 103 86 12 
7 8 9 9 11 10 55 92 68 75 108 102 111 118 123 122 124 143 154 179 195 159 79 
81 102 107 156 123 79 13 7 9 9 8 11 13 65 104 77 68 89 97 108 110 121 117 113 
135 146 184 202 169 66 46 78 95 144 141 77 14 13 7 7 7 5 22 79 110 86 64 79 82 
97 105 116 118 128 132 152 185 190 161 112 45 68 88 135 165 93 
